G04 #@! TF.GenerationSoftware,KiCad,Pcbnew,(5.1.4-0-10_14)*
G04 #@! TF.CreationDate,2019-08-29T11:40:13-07:00*
G04 #@! TF.ProjectId,fp-dd-dev1,66702d64-642d-4646-9576-312e6b696361,rev?*
G04 #@! TF.SameCoordinates,PXffeced30PY931840*
G04 #@! TF.FileFunction,Copper,L2,Bot*
G04 #@! TF.FilePolarity,Positive*
%FSLAX46Y46*%
G04 Gerber Fmt 4.6, Leading zero omitted, Abs format (unit mm)*
G04 Created by KiCad (PCBNEW (5.1.4-0-10_14)) date 2019-08-29 11:40:13*
%MOMM*%
%LPD*%
G04 APERTURE LIST*
%ADD10C,7.620000*%
%ADD11C,7.874000*%
%ADD12C,3.175000*%
%ADD13C,7.112000*%
%ADD14C,5.969000*%
%ADD15C,0.254000*%
G04 APERTURE END LIST*
D10*
X6700000Y17140000D03*
X43800000Y17140000D03*
D11*
X13250000Y109640000D03*
D12*
X37900000Y23140000D03*
X12600000Y23140000D03*
D10*
X18500000Y17140000D03*
X32000000Y17190000D03*
X18500000Y33090000D03*
X32000000Y33090000D03*
D11*
X13250000Y84640000D03*
D13*
X8250000Y49640000D03*
D11*
X37250000Y109640000D03*
X37250000Y84640000D03*
D13*
X42250000Y49640000D03*
D14*
X6250000Y63640000D03*
X44250000Y63640000D03*
D15*
G36*
X49815001Y685000D02*
G01*
X685000Y685000D01*
X685000Y3048200D01*
X3635858Y3048200D01*
X3636292Y2986117D01*
X3635858Y2924035D01*
X3636791Y2914516D01*
X3669176Y2606388D01*
X3681663Y2545558D01*
X3693294Y2484585D01*
X3696058Y2475429D01*
X3787676Y2179459D01*
X3811744Y2122205D01*
X3834993Y2064661D01*
X3839483Y2056216D01*
X3986844Y1783678D01*
X4021556Y1732215D01*
X4055556Y1680258D01*
X4061601Y1672846D01*
X4259091Y1434121D01*
X4303129Y1390389D01*
X4346585Y1346014D01*
X4353954Y1339918D01*
X4594052Y1144100D01*
X4645786Y1109729D01*
X4696989Y1074669D01*
X4705402Y1070119D01*
X4978962Y924664D01*
X5036363Y901005D01*
X5093429Y876547D01*
X5102565Y873719D01*
X5399167Y784170D01*
X5460071Y772111D01*
X5520796Y759203D01*
X5530308Y758203D01*
X5838655Y727969D01*
X5838663Y727969D01*
X5871853Y724700D01*
X9114147Y724700D01*
X9148911Y728124D01*
X9169509Y728124D01*
X9179021Y729124D01*
X9486916Y763660D01*
X9547614Y776562D01*
X9608547Y788627D01*
X9617683Y791455D01*
X9913007Y885137D01*
X9970133Y909621D01*
X10027470Y933254D01*
X10035883Y937802D01*
X10307385Y1087061D01*
X10358623Y1122144D01*
X10410325Y1156495D01*
X10417695Y1162592D01*
X10655034Y1361743D01*
X10698475Y1406104D01*
X10742526Y1449849D01*
X10748572Y1457260D01*
X10942710Y1698720D01*
X10976706Y1750672D01*
X11011422Y1802141D01*
X11015913Y1810586D01*
X11159454Y2085155D01*
X11182709Y2142713D01*
X11206769Y2199951D01*
X11209534Y2209107D01*
X11297011Y2506328D01*
X11308648Y2567331D01*
X11321128Y2628131D01*
X11322062Y2637649D01*
X11350142Y2946200D01*
X11349708Y3008282D01*
X11349987Y3048200D01*
X39149859Y3048200D01*
X39150293Y2986117D01*
X39149859Y2924035D01*
X39150792Y2914516D01*
X39183177Y2606388D01*
X39195664Y2545558D01*
X39207295Y2484585D01*
X39210059Y2475429D01*
X39301677Y2179459D01*
X39325745Y2122205D01*
X39348994Y2064661D01*
X39353484Y2056216D01*
X39500845Y1783678D01*
X39535557Y1732215D01*
X39569557Y1680258D01*
X39575602Y1672846D01*
X39773092Y1434121D01*
X39817130Y1390389D01*
X39860586Y1346014D01*
X39867955Y1339918D01*
X40108053Y1144100D01*
X40159787Y1109729D01*
X40210990Y1074669D01*
X40219403Y1070119D01*
X40492963Y924664D01*
X40550364Y901005D01*
X40607430Y876547D01*
X40616566Y873719D01*
X40913168Y784170D01*
X40974072Y772111D01*
X41034797Y759203D01*
X41044309Y758203D01*
X41352656Y727969D01*
X41352664Y727969D01*
X41385854Y724700D01*
X44628148Y724700D01*
X44662912Y728124D01*
X44683510Y728124D01*
X44693022Y729124D01*
X45000917Y763660D01*
X45061615Y776562D01*
X45122548Y788627D01*
X45131684Y791455D01*
X45427008Y885137D01*
X45484134Y909621D01*
X45541471Y933254D01*
X45549884Y937802D01*
X45821386Y1087061D01*
X45872624Y1122144D01*
X45924326Y1156495D01*
X45931696Y1162592D01*
X46169035Y1361743D01*
X46212476Y1406104D01*
X46256527Y1449849D01*
X46262573Y1457260D01*
X46456711Y1698720D01*
X46490707Y1750672D01*
X46525423Y1802141D01*
X46529914Y1810586D01*
X46673455Y2085155D01*
X46696710Y2142713D01*
X46720770Y2199951D01*
X46723535Y2209107D01*
X46811012Y2506328D01*
X46822649Y2567331D01*
X46835129Y2628131D01*
X46836063Y2637649D01*
X46864143Y2946200D01*
X46863709Y3008283D01*
X46864143Y3070365D01*
X46863210Y3079884D01*
X46830825Y3388012D01*
X46818338Y3448842D01*
X46806707Y3509815D01*
X46803943Y3518971D01*
X46712325Y3814941D01*
X46688257Y3872195D01*
X46665008Y3929739D01*
X46660518Y3938184D01*
X46513157Y4210722D01*
X46478435Y4262200D01*
X46444445Y4314142D01*
X46438400Y4321554D01*
X46240910Y4560279D01*
X46196855Y4604028D01*
X46153416Y4648386D01*
X46146052Y4654477D01*
X46146048Y4654481D01*
X46146044Y4654484D01*
X45905949Y4850300D01*
X45854215Y4884671D01*
X45803012Y4919731D01*
X45794599Y4924281D01*
X45521039Y5069736D01*
X45463609Y5093407D01*
X45406572Y5117853D01*
X45397440Y5120680D01*
X45397434Y5120682D01*
X45100834Y5210230D01*
X45039930Y5222289D01*
X44979205Y5235197D01*
X44969693Y5236197D01*
X44661346Y5266431D01*
X44661338Y5266431D01*
X44628148Y5269700D01*
X41385854Y5269700D01*
X41351090Y5266276D01*
X41330492Y5266276D01*
X41320980Y5265276D01*
X41013085Y5230740D01*
X40952387Y5217838D01*
X40891454Y5205773D01*
X40882318Y5202945D01*
X40586995Y5109263D01*
X40529882Y5084784D01*
X40472531Y5061146D01*
X40464121Y5056599D01*
X40464116Y5056597D01*
X40464112Y5056594D01*
X40192616Y4907339D01*
X40141352Y4872238D01*
X40089676Y4837904D01*
X40082306Y4831808D01*
X39844966Y4632656D01*
X39801509Y4588279D01*
X39757475Y4544551D01*
X39751430Y4537140D01*
X39557291Y4295681D01*
X39523283Y4243710D01*
X39488579Y4192259D01*
X39484088Y4183814D01*
X39340547Y3909245D01*
X39317292Y3851687D01*
X39293232Y3794449D01*
X39290467Y3785293D01*
X39202990Y3488073D01*
X39191350Y3427056D01*
X39178873Y3366269D01*
X39177939Y3356750D01*
X39149859Y3048200D01*
X11349987Y3048200D01*
X11350142Y3070365D01*
X11349209Y3079884D01*
X11316824Y3388012D01*
X11304337Y3448842D01*
X11292706Y3509815D01*
X11289942Y3518971D01*
X11198324Y3814941D01*
X11174256Y3872195D01*
X11151007Y3929739D01*
X11146517Y3938184D01*
X10999156Y4210722D01*
X10964434Y4262200D01*
X10930444Y4314142D01*
X10924399Y4321554D01*
X10726909Y4560279D01*
X10682854Y4604028D01*
X10639415Y4648386D01*
X10632051Y4654477D01*
X10632047Y4654481D01*
X10632043Y4654484D01*
X10391948Y4850300D01*
X10340214Y4884671D01*
X10289011Y4919731D01*
X10280598Y4924281D01*
X10007038Y5069736D01*
X9949608Y5093407D01*
X9892571Y5117853D01*
X9883439Y5120680D01*
X9883433Y5120682D01*
X9586833Y5210230D01*
X9525929Y5222289D01*
X9465204Y5235197D01*
X9455692Y5236197D01*
X9147345Y5266431D01*
X9147337Y5266431D01*
X9114147Y5269700D01*
X5871853Y5269700D01*
X5837089Y5266276D01*
X5816491Y5266276D01*
X5806979Y5265276D01*
X5499084Y5230740D01*
X5438386Y5217838D01*
X5377453Y5205773D01*
X5368317Y5202945D01*
X5072994Y5109263D01*
X5015881Y5084784D01*
X4958530Y5061146D01*
X4950120Y5056599D01*
X4950115Y5056597D01*
X4950111Y5056594D01*
X4678615Y4907339D01*
X4627351Y4872238D01*
X4575675Y4837904D01*
X4568305Y4831808D01*
X4330965Y4632656D01*
X4287508Y4588279D01*
X4243474Y4544551D01*
X4237429Y4537140D01*
X4043290Y4295681D01*
X4009282Y4243710D01*
X3974578Y4192259D01*
X3970087Y4183814D01*
X3826546Y3909245D01*
X3803291Y3851687D01*
X3779231Y3794449D01*
X3776466Y3785293D01*
X3688989Y3488073D01*
X3677349Y3427056D01*
X3664872Y3366269D01*
X3663938Y3356750D01*
X3635858Y3048200D01*
X685000Y3048200D01*
X685000Y125553800D01*
X3635858Y125553800D01*
X3636292Y125491718D01*
X3635858Y125429635D01*
X3636791Y125420116D01*
X3669176Y125111988D01*
X3681663Y125051158D01*
X3693294Y124990185D01*
X3696058Y124981029D01*
X3787676Y124685059D01*
X3811744Y124627805D01*
X3834993Y124570261D01*
X3839483Y124561816D01*
X3986844Y124289278D01*
X4021556Y124237815D01*
X4055556Y124185858D01*
X4061601Y124178446D01*
X4259091Y123939721D01*
X4303129Y123895989D01*
X4346585Y123851614D01*
X4353954Y123845518D01*
X4594052Y123649700D01*
X4645786Y123615329D01*
X4696989Y123580269D01*
X4705402Y123575719D01*
X4978962Y123430264D01*
X5036363Y123406605D01*
X5093429Y123382147D01*
X5102565Y123379319D01*
X5399167Y123289770D01*
X5460071Y123277711D01*
X5520796Y123264803D01*
X5530308Y123263803D01*
X5838655Y123233569D01*
X5838663Y123233569D01*
X5871853Y123230300D01*
X9114147Y123230300D01*
X9148911Y123233724D01*
X9169509Y123233724D01*
X9179021Y123234724D01*
X9486916Y123269260D01*
X9547614Y123282162D01*
X9608547Y123294227D01*
X9617683Y123297055D01*
X9913007Y123390737D01*
X9970133Y123415221D01*
X10027470Y123438854D01*
X10035883Y123443402D01*
X10307385Y123592661D01*
X10358623Y123627744D01*
X10410325Y123662095D01*
X10417695Y123668192D01*
X10655034Y123867343D01*
X10698475Y123911704D01*
X10742526Y123955449D01*
X10748572Y123962860D01*
X10942710Y124204320D01*
X10976706Y124256272D01*
X11011422Y124307741D01*
X11015913Y124316186D01*
X11159454Y124590755D01*
X11182709Y124648313D01*
X11206769Y124705551D01*
X11209534Y124714707D01*
X11297011Y125011928D01*
X11308648Y125072931D01*
X11321128Y125133731D01*
X11322062Y125143249D01*
X11350142Y125451800D01*
X11349708Y125513883D01*
X11349987Y125553800D01*
X39149859Y125553800D01*
X39150293Y125491718D01*
X39149859Y125429635D01*
X39150792Y125420116D01*
X39183177Y125111988D01*
X39195664Y125051158D01*
X39207295Y124990185D01*
X39210059Y124981029D01*
X39301677Y124685059D01*
X39325745Y124627805D01*
X39348994Y124570261D01*
X39353484Y124561816D01*
X39500845Y124289278D01*
X39535557Y124237815D01*
X39569557Y124185858D01*
X39575602Y124178446D01*
X39773092Y123939721D01*
X39817130Y123895989D01*
X39860586Y123851614D01*
X39867955Y123845518D01*
X40108053Y123649700D01*
X40159787Y123615329D01*
X40210990Y123580269D01*
X40219403Y123575719D01*
X40492963Y123430264D01*
X40550364Y123406605D01*
X40607430Y123382147D01*
X40616566Y123379319D01*
X40913168Y123289770D01*
X40974072Y123277711D01*
X41034797Y123264803D01*
X41044309Y123263803D01*
X41352656Y123233569D01*
X41352664Y123233569D01*
X41385854Y123230300D01*
X44628148Y123230300D01*
X44662912Y123233724D01*
X44683510Y123233724D01*
X44693022Y123234724D01*
X45000917Y123269260D01*
X45061615Y123282162D01*
X45122548Y123294227D01*
X45131684Y123297055D01*
X45427008Y123390737D01*
X45484134Y123415221D01*
X45541471Y123438854D01*
X45549884Y123443402D01*
X45821386Y123592661D01*
X45872624Y123627744D01*
X45924326Y123662095D01*
X45931696Y123668192D01*
X46169035Y123867343D01*
X46212476Y123911704D01*
X46256527Y123955449D01*
X46262573Y123962860D01*
X46456711Y124204320D01*
X46490707Y124256272D01*
X46525423Y124307741D01*
X46529914Y124316186D01*
X46673455Y124590755D01*
X46696710Y124648313D01*
X46720770Y124705551D01*
X46723535Y124714707D01*
X46811012Y125011928D01*
X46822649Y125072931D01*
X46835129Y125133731D01*
X46836063Y125143249D01*
X46864143Y125451800D01*
X46863709Y125513883D01*
X46864143Y125575965D01*
X46863210Y125585484D01*
X46830825Y125893612D01*
X46818338Y125954442D01*
X46806707Y126015415D01*
X46803943Y126024571D01*
X46712325Y126320541D01*
X46688257Y126377795D01*
X46665008Y126435339D01*
X46660518Y126443784D01*
X46513157Y126716322D01*
X46478435Y126767800D01*
X46444445Y126819742D01*
X46438400Y126827154D01*
X46240910Y127065879D01*
X46196855Y127109628D01*
X46153416Y127153986D01*
X46146052Y127160077D01*
X46146048Y127160081D01*
X46146044Y127160084D01*
X45905949Y127355900D01*
X45854215Y127390271D01*
X45803012Y127425331D01*
X45794599Y127429881D01*
X45521039Y127575336D01*
X45463609Y127599007D01*
X45406572Y127623453D01*
X45397440Y127626280D01*
X45397434Y127626282D01*
X45100834Y127715830D01*
X45039930Y127727889D01*
X44979205Y127740797D01*
X44969693Y127741797D01*
X44661346Y127772031D01*
X44661338Y127772031D01*
X44628148Y127775300D01*
X41385854Y127775300D01*
X41351090Y127771876D01*
X41330492Y127771876D01*
X41320980Y127770876D01*
X41013085Y127736340D01*
X40952387Y127723438D01*
X40891454Y127711373D01*
X40882318Y127708545D01*
X40586995Y127614863D01*
X40529882Y127590384D01*
X40472531Y127566746D01*
X40464121Y127562199D01*
X40464116Y127562197D01*
X40464112Y127562194D01*
X40192616Y127412939D01*
X40141352Y127377838D01*
X40089676Y127343504D01*
X40082306Y127337408D01*
X39844966Y127138256D01*
X39801509Y127093879D01*
X39757475Y127050151D01*
X39751430Y127042740D01*
X39557291Y126801281D01*
X39523283Y126749310D01*
X39488579Y126697859D01*
X39484088Y126689414D01*
X39340547Y126414845D01*
X39317292Y126357287D01*
X39293232Y126300049D01*
X39290467Y126290893D01*
X39202990Y125993673D01*
X39191350Y125932656D01*
X39178873Y125871869D01*
X39177939Y125862350D01*
X39149859Y125553800D01*
X11349987Y125553800D01*
X11350142Y125575965D01*
X11349209Y125585484D01*
X11316824Y125893612D01*
X11304337Y125954442D01*
X11292706Y126015415D01*
X11289942Y126024571D01*
X11198324Y126320541D01*
X11174256Y126377795D01*
X11151007Y126435339D01*
X11146517Y126443784D01*
X10999156Y126716322D01*
X10964434Y126767800D01*
X10930444Y126819742D01*
X10924399Y126827154D01*
X10726909Y127065879D01*
X10682854Y127109628D01*
X10639415Y127153986D01*
X10632051Y127160077D01*
X10632047Y127160081D01*
X10632043Y127160084D01*
X10391948Y127355900D01*
X10340214Y127390271D01*
X10289011Y127425331D01*
X10280598Y127429881D01*
X10007038Y127575336D01*
X9949608Y127599007D01*
X9892571Y127623453D01*
X9883439Y127626280D01*
X9883433Y127626282D01*
X9586833Y127715830D01*
X9525929Y127727889D01*
X9465204Y127740797D01*
X9455692Y127741797D01*
X9147345Y127772031D01*
X9147337Y127772031D01*
X9114147Y127775300D01*
X5871853Y127775300D01*
X5837089Y127771876D01*
X5816491Y127771876D01*
X5806979Y127770876D01*
X5499084Y127736340D01*
X5438386Y127723438D01*
X5377453Y127711373D01*
X5368317Y127708545D01*
X5072994Y127614863D01*
X5015881Y127590384D01*
X4958530Y127566746D01*
X4950120Y127562199D01*
X4950115Y127562197D01*
X4950111Y127562194D01*
X4678615Y127412939D01*
X4627351Y127377838D01*
X4575675Y127343504D01*
X4568305Y127337408D01*
X4330965Y127138256D01*
X4287508Y127093879D01*
X4243474Y127050151D01*
X4237429Y127042740D01*
X4043290Y126801281D01*
X4009282Y126749310D01*
X3974578Y126697859D01*
X3970087Y126689414D01*
X3826546Y126414845D01*
X3803291Y126357287D01*
X3779231Y126300049D01*
X3776466Y126290893D01*
X3688989Y125993673D01*
X3677349Y125932656D01*
X3664872Y125871869D01*
X3663938Y125862350D01*
X3635858Y125553800D01*
X685000Y125553800D01*
X685000Y127815000D01*
X49815000Y127815000D01*
X49815001Y685000D01*
X49815001Y685000D01*
G37*
X49815001Y685000D02*
X685000Y685000D01*
X685000Y3048200D01*
X3635858Y3048200D01*
X3636292Y2986117D01*
X3635858Y2924035D01*
X3636791Y2914516D01*
X3669176Y2606388D01*
X3681663Y2545558D01*
X3693294Y2484585D01*
X3696058Y2475429D01*
X3787676Y2179459D01*
X3811744Y2122205D01*
X3834993Y2064661D01*
X3839483Y2056216D01*
X3986844Y1783678D01*
X4021556Y1732215D01*
X4055556Y1680258D01*
X4061601Y1672846D01*
X4259091Y1434121D01*
X4303129Y1390389D01*
X4346585Y1346014D01*
X4353954Y1339918D01*
X4594052Y1144100D01*
X4645786Y1109729D01*
X4696989Y1074669D01*
X4705402Y1070119D01*
X4978962Y924664D01*
X5036363Y901005D01*
X5093429Y876547D01*
X5102565Y873719D01*
X5399167Y784170D01*
X5460071Y772111D01*
X5520796Y759203D01*
X5530308Y758203D01*
X5838655Y727969D01*
X5838663Y727969D01*
X5871853Y724700D01*
X9114147Y724700D01*
X9148911Y728124D01*
X9169509Y728124D01*
X9179021Y729124D01*
X9486916Y763660D01*
X9547614Y776562D01*
X9608547Y788627D01*
X9617683Y791455D01*
X9913007Y885137D01*
X9970133Y909621D01*
X10027470Y933254D01*
X10035883Y937802D01*
X10307385Y1087061D01*
X10358623Y1122144D01*
X10410325Y1156495D01*
X10417695Y1162592D01*
X10655034Y1361743D01*
X10698475Y1406104D01*
X10742526Y1449849D01*
X10748572Y1457260D01*
X10942710Y1698720D01*
X10976706Y1750672D01*
X11011422Y1802141D01*
X11015913Y1810586D01*
X11159454Y2085155D01*
X11182709Y2142713D01*
X11206769Y2199951D01*
X11209534Y2209107D01*
X11297011Y2506328D01*
X11308648Y2567331D01*
X11321128Y2628131D01*
X11322062Y2637649D01*
X11350142Y2946200D01*
X11349708Y3008282D01*
X11349987Y3048200D01*
X39149859Y3048200D01*
X39150293Y2986117D01*
X39149859Y2924035D01*
X39150792Y2914516D01*
X39183177Y2606388D01*
X39195664Y2545558D01*
X39207295Y2484585D01*
X39210059Y2475429D01*
X39301677Y2179459D01*
X39325745Y2122205D01*
X39348994Y2064661D01*
X39353484Y2056216D01*
X39500845Y1783678D01*
X39535557Y1732215D01*
X39569557Y1680258D01*
X39575602Y1672846D01*
X39773092Y1434121D01*
X39817130Y1390389D01*
X39860586Y1346014D01*
X39867955Y1339918D01*
X40108053Y1144100D01*
X40159787Y1109729D01*
X40210990Y1074669D01*
X40219403Y1070119D01*
X40492963Y924664D01*
X40550364Y901005D01*
X40607430Y876547D01*
X40616566Y873719D01*
X40913168Y784170D01*
X40974072Y772111D01*
X41034797Y759203D01*
X41044309Y758203D01*
X41352656Y727969D01*
X41352664Y727969D01*
X41385854Y724700D01*
X44628148Y724700D01*
X44662912Y728124D01*
X44683510Y728124D01*
X44693022Y729124D01*
X45000917Y763660D01*
X45061615Y776562D01*
X45122548Y788627D01*
X45131684Y791455D01*
X45427008Y885137D01*
X45484134Y909621D01*
X45541471Y933254D01*
X45549884Y937802D01*
X45821386Y1087061D01*
X45872624Y1122144D01*
X45924326Y1156495D01*
X45931696Y1162592D01*
X46169035Y1361743D01*
X46212476Y1406104D01*
X46256527Y1449849D01*
X46262573Y1457260D01*
X46456711Y1698720D01*
X46490707Y1750672D01*
X46525423Y1802141D01*
X46529914Y1810586D01*
X46673455Y2085155D01*
X46696710Y2142713D01*
X46720770Y2199951D01*
X46723535Y2209107D01*
X46811012Y2506328D01*
X46822649Y2567331D01*
X46835129Y2628131D01*
X46836063Y2637649D01*
X46864143Y2946200D01*
X46863709Y3008283D01*
X46864143Y3070365D01*
X46863210Y3079884D01*
X46830825Y3388012D01*
X46818338Y3448842D01*
X46806707Y3509815D01*
X46803943Y3518971D01*
X46712325Y3814941D01*
X46688257Y3872195D01*
X46665008Y3929739D01*
X46660518Y3938184D01*
X46513157Y4210722D01*
X46478435Y4262200D01*
X46444445Y4314142D01*
X46438400Y4321554D01*
X46240910Y4560279D01*
X46196855Y4604028D01*
X46153416Y4648386D01*
X46146052Y4654477D01*
X46146048Y4654481D01*
X46146044Y4654484D01*
X45905949Y4850300D01*
X45854215Y4884671D01*
X45803012Y4919731D01*
X45794599Y4924281D01*
X45521039Y5069736D01*
X45463609Y5093407D01*
X45406572Y5117853D01*
X45397440Y5120680D01*
X45397434Y5120682D01*
X45100834Y5210230D01*
X45039930Y5222289D01*
X44979205Y5235197D01*
X44969693Y5236197D01*
X44661346Y5266431D01*
X44661338Y5266431D01*
X44628148Y5269700D01*
X41385854Y5269700D01*
X41351090Y5266276D01*
X41330492Y5266276D01*
X41320980Y5265276D01*
X41013085Y5230740D01*
X40952387Y5217838D01*
X40891454Y5205773D01*
X40882318Y5202945D01*
X40586995Y5109263D01*
X40529882Y5084784D01*
X40472531Y5061146D01*
X40464121Y5056599D01*
X40464116Y5056597D01*
X40464112Y5056594D01*
X40192616Y4907339D01*
X40141352Y4872238D01*
X40089676Y4837904D01*
X40082306Y4831808D01*
X39844966Y4632656D01*
X39801509Y4588279D01*
X39757475Y4544551D01*
X39751430Y4537140D01*
X39557291Y4295681D01*
X39523283Y4243710D01*
X39488579Y4192259D01*
X39484088Y4183814D01*
X39340547Y3909245D01*
X39317292Y3851687D01*
X39293232Y3794449D01*
X39290467Y3785293D01*
X39202990Y3488073D01*
X39191350Y3427056D01*
X39178873Y3366269D01*
X39177939Y3356750D01*
X39149859Y3048200D01*
X11349987Y3048200D01*
X11350142Y3070365D01*
X11349209Y3079884D01*
X11316824Y3388012D01*
X11304337Y3448842D01*
X11292706Y3509815D01*
X11289942Y3518971D01*
X11198324Y3814941D01*
X11174256Y3872195D01*
X11151007Y3929739D01*
X11146517Y3938184D01*
X10999156Y4210722D01*
X10964434Y4262200D01*
X10930444Y4314142D01*
X10924399Y4321554D01*
X10726909Y4560279D01*
X10682854Y4604028D01*
X10639415Y4648386D01*
X10632051Y4654477D01*
X10632047Y4654481D01*
X10632043Y4654484D01*
X10391948Y4850300D01*
X10340214Y4884671D01*
X10289011Y4919731D01*
X10280598Y4924281D01*
X10007038Y5069736D01*
X9949608Y5093407D01*
X9892571Y5117853D01*
X9883439Y5120680D01*
X9883433Y5120682D01*
X9586833Y5210230D01*
X9525929Y5222289D01*
X9465204Y5235197D01*
X9455692Y5236197D01*
X9147345Y5266431D01*
X9147337Y5266431D01*
X9114147Y5269700D01*
X5871853Y5269700D01*
X5837089Y5266276D01*
X5816491Y5266276D01*
X5806979Y5265276D01*
X5499084Y5230740D01*
X5438386Y5217838D01*
X5377453Y5205773D01*
X5368317Y5202945D01*
X5072994Y5109263D01*
X5015881Y5084784D01*
X4958530Y5061146D01*
X4950120Y5056599D01*
X4950115Y5056597D01*
X4950111Y5056594D01*
X4678615Y4907339D01*
X4627351Y4872238D01*
X4575675Y4837904D01*
X4568305Y4831808D01*
X4330965Y4632656D01*
X4287508Y4588279D01*
X4243474Y4544551D01*
X4237429Y4537140D01*
X4043290Y4295681D01*
X4009282Y4243710D01*
X3974578Y4192259D01*
X3970087Y4183814D01*
X3826546Y3909245D01*
X3803291Y3851687D01*
X3779231Y3794449D01*
X3776466Y3785293D01*
X3688989Y3488073D01*
X3677349Y3427056D01*
X3664872Y3366269D01*
X3663938Y3356750D01*
X3635858Y3048200D01*
X685000Y3048200D01*
X685000Y125553800D01*
X3635858Y125553800D01*
X3636292Y125491718D01*
X3635858Y125429635D01*
X3636791Y125420116D01*
X3669176Y125111988D01*
X3681663Y125051158D01*
X3693294Y124990185D01*
X3696058Y124981029D01*
X3787676Y124685059D01*
X3811744Y124627805D01*
X3834993Y124570261D01*
X3839483Y124561816D01*
X3986844Y124289278D01*
X4021556Y124237815D01*
X4055556Y124185858D01*
X4061601Y124178446D01*
X4259091Y123939721D01*
X4303129Y123895989D01*
X4346585Y123851614D01*
X4353954Y123845518D01*
X4594052Y123649700D01*
X4645786Y123615329D01*
X4696989Y123580269D01*
X4705402Y123575719D01*
X4978962Y123430264D01*
X5036363Y123406605D01*
X5093429Y123382147D01*
X5102565Y123379319D01*
X5399167Y123289770D01*
X5460071Y123277711D01*
X5520796Y123264803D01*
X5530308Y123263803D01*
X5838655Y123233569D01*
X5838663Y123233569D01*
X5871853Y123230300D01*
X9114147Y123230300D01*
X9148911Y123233724D01*
X9169509Y123233724D01*
X9179021Y123234724D01*
X9486916Y123269260D01*
X9547614Y123282162D01*
X9608547Y123294227D01*
X9617683Y123297055D01*
X9913007Y123390737D01*
X9970133Y123415221D01*
X10027470Y123438854D01*
X10035883Y123443402D01*
X10307385Y123592661D01*
X10358623Y123627744D01*
X10410325Y123662095D01*
X10417695Y123668192D01*
X10655034Y123867343D01*
X10698475Y123911704D01*
X10742526Y123955449D01*
X10748572Y123962860D01*
X10942710Y124204320D01*
X10976706Y124256272D01*
X11011422Y124307741D01*
X11015913Y124316186D01*
X11159454Y124590755D01*
X11182709Y124648313D01*
X11206769Y124705551D01*
X11209534Y124714707D01*
X11297011Y125011928D01*
X11308648Y125072931D01*
X11321128Y125133731D01*
X11322062Y125143249D01*
X11350142Y125451800D01*
X11349708Y125513883D01*
X11349987Y125553800D01*
X39149859Y125553800D01*
X39150293Y125491718D01*
X39149859Y125429635D01*
X39150792Y125420116D01*
X39183177Y125111988D01*
X39195664Y125051158D01*
X39207295Y124990185D01*
X39210059Y124981029D01*
X39301677Y124685059D01*
X39325745Y124627805D01*
X39348994Y124570261D01*
X39353484Y124561816D01*
X39500845Y124289278D01*
X39535557Y124237815D01*
X39569557Y124185858D01*
X39575602Y124178446D01*
X39773092Y123939721D01*
X39817130Y123895989D01*
X39860586Y123851614D01*
X39867955Y123845518D01*
X40108053Y123649700D01*
X40159787Y123615329D01*
X40210990Y123580269D01*
X40219403Y123575719D01*
X40492963Y123430264D01*
X40550364Y123406605D01*
X40607430Y123382147D01*
X40616566Y123379319D01*
X40913168Y123289770D01*
X40974072Y123277711D01*
X41034797Y123264803D01*
X41044309Y123263803D01*
X41352656Y123233569D01*
X41352664Y123233569D01*
X41385854Y123230300D01*
X44628148Y123230300D01*
X44662912Y123233724D01*
X44683510Y123233724D01*
X44693022Y123234724D01*
X45000917Y123269260D01*
X45061615Y123282162D01*
X45122548Y123294227D01*
X45131684Y123297055D01*
X45427008Y123390737D01*
X45484134Y123415221D01*
X45541471Y123438854D01*
X45549884Y123443402D01*
X45821386Y123592661D01*
X45872624Y123627744D01*
X45924326Y123662095D01*
X45931696Y123668192D01*
X46169035Y123867343D01*
X46212476Y123911704D01*
X46256527Y123955449D01*
X46262573Y123962860D01*
X46456711Y124204320D01*
X46490707Y124256272D01*
X46525423Y124307741D01*
X46529914Y124316186D01*
X46673455Y124590755D01*
X46696710Y124648313D01*
X46720770Y124705551D01*
X46723535Y124714707D01*
X46811012Y125011928D01*
X46822649Y125072931D01*
X46835129Y125133731D01*
X46836063Y125143249D01*
X46864143Y125451800D01*
X46863709Y125513883D01*
X46864143Y125575965D01*
X46863210Y125585484D01*
X46830825Y125893612D01*
X46818338Y125954442D01*
X46806707Y126015415D01*
X46803943Y126024571D01*
X46712325Y126320541D01*
X46688257Y126377795D01*
X46665008Y126435339D01*
X46660518Y126443784D01*
X46513157Y126716322D01*
X46478435Y126767800D01*
X46444445Y126819742D01*
X46438400Y126827154D01*
X46240910Y127065879D01*
X46196855Y127109628D01*
X46153416Y127153986D01*
X46146052Y127160077D01*
X46146048Y127160081D01*
X46146044Y127160084D01*
X45905949Y127355900D01*
X45854215Y127390271D01*
X45803012Y127425331D01*
X45794599Y127429881D01*
X45521039Y127575336D01*
X45463609Y127599007D01*
X45406572Y127623453D01*
X45397440Y127626280D01*
X45397434Y127626282D01*
X45100834Y127715830D01*
X45039930Y127727889D01*
X44979205Y127740797D01*
X44969693Y127741797D01*
X44661346Y127772031D01*
X44661338Y127772031D01*
X44628148Y127775300D01*
X41385854Y127775300D01*
X41351090Y127771876D01*
X41330492Y127771876D01*
X41320980Y127770876D01*
X41013085Y127736340D01*
X40952387Y127723438D01*
X40891454Y127711373D01*
X40882318Y127708545D01*
X40586995Y127614863D01*
X40529882Y127590384D01*
X40472531Y127566746D01*
X40464121Y127562199D01*
X40464116Y127562197D01*
X40464112Y127562194D01*
X40192616Y127412939D01*
X40141352Y127377838D01*
X40089676Y127343504D01*
X40082306Y127337408D01*
X39844966Y127138256D01*
X39801509Y127093879D01*
X39757475Y127050151D01*
X39751430Y127042740D01*
X39557291Y126801281D01*
X39523283Y126749310D01*
X39488579Y126697859D01*
X39484088Y126689414D01*
X39340547Y126414845D01*
X39317292Y126357287D01*
X39293232Y126300049D01*
X39290467Y126290893D01*
X39202990Y125993673D01*
X39191350Y125932656D01*
X39178873Y125871869D01*
X39177939Y125862350D01*
X39149859Y125553800D01*
X11349987Y125553800D01*
X11350142Y125575965D01*
X11349209Y125585484D01*
X11316824Y125893612D01*
X11304337Y125954442D01*
X11292706Y126015415D01*
X11289942Y126024571D01*
X11198324Y126320541D01*
X11174256Y126377795D01*
X11151007Y126435339D01*
X11146517Y126443784D01*
X10999156Y126716322D01*
X10964434Y126767800D01*
X10930444Y126819742D01*
X10924399Y126827154D01*
X10726909Y127065879D01*
X10682854Y127109628D01*
X10639415Y127153986D01*
X10632051Y127160077D01*
X10632047Y127160081D01*
X10632043Y127160084D01*
X10391948Y127355900D01*
X10340214Y127390271D01*
X10289011Y127425331D01*
X10280598Y127429881D01*
X10007038Y127575336D01*
X9949608Y127599007D01*
X9892571Y127623453D01*
X9883439Y127626280D01*
X9883433Y127626282D01*
X9586833Y127715830D01*
X9525929Y127727889D01*
X9465204Y127740797D01*
X9455692Y127741797D01*
X9147345Y127772031D01*
X9147337Y127772031D01*
X9114147Y127775300D01*
X5871853Y127775300D01*
X5837089Y127771876D01*
X5816491Y127771876D01*
X5806979Y127770876D01*
X5499084Y127736340D01*
X5438386Y127723438D01*
X5377453Y127711373D01*
X5368317Y127708545D01*
X5072994Y127614863D01*
X5015881Y127590384D01*
X4958530Y127566746D01*
X4950120Y127562199D01*
X4950115Y127562197D01*
X4950111Y127562194D01*
X4678615Y127412939D01*
X4627351Y127377838D01*
X4575675Y127343504D01*
X4568305Y127337408D01*
X4330965Y127138256D01*
X4287508Y127093879D01*
X4243474Y127050151D01*
X4237429Y127042740D01*
X4043290Y126801281D01*
X4009282Y126749310D01*
X3974578Y126697859D01*
X3970087Y126689414D01*
X3826546Y126414845D01*
X3803291Y126357287D01*
X3779231Y126300049D01*
X3776466Y126290893D01*
X3688989Y125993673D01*
X3677349Y125932656D01*
X3664872Y125871869D01*
X3663938Y125862350D01*
X3635858Y125553800D01*
X685000Y125553800D01*
X685000Y127815000D01*
X49815000Y127815000D01*
X49815001Y685000D01*
M02*
