%FSLAX45Y45*%
G04 Gerber Fmt 4.5, Leading zero omitted, Abs format (unit mm)*
G04 Created by KiCad (PCBNEW (5.1.4-0-10_14)) date 2019-08-29 11:40:26*
%MOMM*%
%LPD*%
G04 APERTURE LIST*
%ADD10C,0.100000*%
%ADD11C,0.200000*%
%ADD12C,0.300000*%
G04 APERTURE END LIST*
D10*
X5050000Y12850000D02*
X5050000Y0D01*
X0Y12850000D02*
X0Y0D01*
X0Y12850000D02*
X5050000Y12850000D01*
X0Y0D02*
X5050000Y0D01*
D11*
X1113950Y2460050D02*
X1406050Y2167950D01*
X1406050Y2460050D02*
X1113950Y2167950D01*
X3643950Y2460050D02*
X3936050Y2167950D01*
X3936050Y2460050D02*
X3643950Y2167950D01*
X872650Y6364000D02*
G75*
G03X872650Y6364000I-247650J0D01*
G01*
X4672650Y6364000D02*
G75*
G03X4672650Y6364000I-247650J0D01*
G01*
X4380000Y2044200D02*
X4380000Y1383800D01*
X4049800Y1714000D02*
X4710200Y1714000D01*
X825000Y5294200D02*
X825000Y4633800D01*
X494800Y4964000D02*
X1155200Y4964000D01*
X1850000Y2044200D02*
X1850000Y1383800D01*
X1519800Y1714000D02*
X2180200Y1714000D01*
X670000Y2044200D02*
X670000Y1383800D01*
X339800Y1714000D02*
X1000200Y1714000D01*
X1850000Y3639200D02*
X1850000Y2978800D01*
X1519800Y3309000D02*
X2180200Y3309000D01*
X3200000Y3639200D02*
X3200000Y2978800D01*
X2869800Y3309000D02*
X3530200Y3309000D01*
X3200000Y2049200D02*
X3200000Y1388800D01*
X2869800Y1719000D02*
X3530200Y1719000D01*
X4225000Y5294200D02*
X4225000Y4633800D01*
X3894800Y4964000D02*
X4555200Y4964000D01*
X1576450Y10712550D02*
X1576450Y11215450D01*
X1073550Y11215450D01*
X1073550Y10712550D01*
X1576450Y10712550D01*
X1576450Y8212550D02*
X1576450Y8715450D01*
X1073550Y8715450D01*
X1073550Y8212550D01*
X1576450Y8212550D01*
X3976450Y10712550D02*
X3976450Y11215450D01*
X3473550Y11215450D01*
X3473550Y10712550D01*
X3976450Y10712550D01*
X3976450Y8212550D02*
X3976450Y8715450D01*
X3473550Y8715450D01*
X3473550Y8212550D01*
X3976450Y8212550D01*
D12*
X281428Y-470714D02*
X281428Y-170714D01*
X352857Y-170714D01*
X395714Y-185000D01*
X424286Y-213571D01*
X438571Y-242143D01*
X452857Y-299286D01*
X452857Y-342143D01*
X438571Y-399286D01*
X424286Y-427857D01*
X395714Y-456429D01*
X352857Y-470714D01*
X281428Y-470714D01*
X581428Y-470714D02*
X581428Y-270714D01*
X581428Y-327857D02*
X595714Y-299286D01*
X610000Y-285000D01*
X638571Y-270714D01*
X667143Y-270714D01*
X767143Y-470714D02*
X767143Y-270714D01*
X767143Y-170714D02*
X752857Y-185000D01*
X767143Y-199286D01*
X781428Y-185000D01*
X767143Y-170714D01*
X767143Y-199286D01*
X952857Y-470714D02*
X924286Y-456429D01*
X910000Y-427857D01*
X910000Y-170714D01*
X1110000Y-470714D02*
X1081428Y-456429D01*
X1067143Y-427857D01*
X1067143Y-170714D01*
X1452857Y-470714D02*
X1452857Y-170714D01*
X1552857Y-385000D01*
X1652857Y-170714D01*
X1652857Y-470714D01*
X1924286Y-470714D02*
X1924286Y-313572D01*
X1910000Y-285000D01*
X1881428Y-270714D01*
X1824286Y-270714D01*
X1795714Y-285000D01*
X1924286Y-456429D02*
X1895714Y-470714D01*
X1824286Y-470714D01*
X1795714Y-456429D01*
X1781428Y-427857D01*
X1781428Y-399286D01*
X1795714Y-370714D01*
X1824286Y-356429D01*
X1895714Y-356429D01*
X1924286Y-342143D01*
X2067143Y-270714D02*
X2067143Y-570714D01*
X2067143Y-285000D02*
X2095714Y-270714D01*
X2152857Y-270714D01*
X2181428Y-285000D01*
X2195714Y-299286D01*
X2210000Y-327857D01*
X2210000Y-413571D01*
X2195714Y-442143D01*
X2181428Y-456429D01*
X2152857Y-470714D01*
X2095714Y-470714D01*
X2067143Y-456429D01*
X2338571Y-442143D02*
X2352857Y-456429D01*
X2338571Y-470714D01*
X2324286Y-456429D01*
X2338571Y-442143D01*
X2338571Y-470714D01*
X2338571Y-285000D02*
X2352857Y-299286D01*
X2338571Y-313572D01*
X2324286Y-299286D01*
X2338571Y-285000D01*
X2338571Y-313572D01*
X-297100Y-818950D02*
X-5000Y-1111050D01*
X-5000Y-818950D02*
X-297100Y-1111050D01*
X267143Y-829286D02*
X281428Y-815000D01*
X310000Y-800714D01*
X381428Y-800714D01*
X410000Y-815000D01*
X424286Y-829286D01*
X438571Y-857857D01*
X438571Y-886429D01*
X424286Y-929286D01*
X252857Y-1100714D01*
X438571Y-1100714D01*
X567143Y-1072143D02*
X581428Y-1086429D01*
X567143Y-1100714D01*
X552857Y-1086429D01*
X567143Y-1072143D01*
X567143Y-1100714D01*
X724286Y-1100714D02*
X781428Y-1100714D01*
X810000Y-1086429D01*
X824286Y-1072143D01*
X852857Y-1029286D01*
X867143Y-972143D01*
X867143Y-857857D01*
X852857Y-829286D01*
X838571Y-815000D01*
X810000Y-800714D01*
X752857Y-800714D01*
X724286Y-815000D01*
X710000Y-829286D01*
X695714Y-857857D01*
X695714Y-929286D01*
X710000Y-957857D01*
X724286Y-972143D01*
X752857Y-986429D01*
X810000Y-986429D01*
X838571Y-972143D01*
X852857Y-957857D01*
X867143Y-929286D01*
X981428Y-829286D02*
X995714Y-815000D01*
X1024286Y-800714D01*
X1095714Y-800714D01*
X1124286Y-815000D01*
X1138571Y-829286D01*
X1152857Y-857857D01*
X1152857Y-886429D01*
X1138571Y-929286D01*
X967143Y-1100714D01*
X1152857Y-1100714D01*
X1281428Y-1100714D02*
X1281428Y-900714D01*
X1281428Y-929286D02*
X1295714Y-915000D01*
X1324286Y-900714D01*
X1367143Y-900714D01*
X1395714Y-915000D01*
X1410000Y-943571D01*
X1410000Y-1100714D01*
X1410000Y-943571D02*
X1424286Y-915000D01*
X1452857Y-900714D01*
X1495714Y-900714D01*
X1524286Y-915000D01*
X1538571Y-943571D01*
X1538571Y-1100714D01*
X1681428Y-1100714D02*
X1681428Y-900714D01*
X1681428Y-929286D02*
X1695714Y-915000D01*
X1724286Y-900714D01*
X1767143Y-900714D01*
X1795714Y-915000D01*
X1810000Y-943571D01*
X1810000Y-1100714D01*
X1810000Y-943571D02*
X1824286Y-915000D01*
X1852857Y-900714D01*
X1895714Y-900714D01*
X1924286Y-915000D01*
X1938571Y-943571D01*
X1938571Y-1100714D01*
X2524286Y-786429D02*
X2267143Y-1172143D01*
X2910000Y-800714D02*
X2938571Y-800714D01*
X2967143Y-815000D01*
X2981428Y-829286D01*
X2995714Y-857857D01*
X3010000Y-915000D01*
X3010000Y-986429D01*
X2995714Y-1043571D01*
X2981428Y-1072143D01*
X2967143Y-1086429D01*
X2938571Y-1100714D01*
X2910000Y-1100714D01*
X2881428Y-1086429D01*
X2867143Y-1072143D01*
X2852857Y-1043571D01*
X2838571Y-986429D01*
X2838571Y-915000D01*
X2852857Y-857857D01*
X2867143Y-829286D01*
X2881428Y-815000D01*
X2910000Y-800714D01*
X3138571Y-1072143D02*
X3152857Y-1086429D01*
X3138571Y-1100714D01*
X3124286Y-1086429D01*
X3138571Y-1072143D01*
X3138571Y-1100714D01*
X3438571Y-1100714D02*
X3267143Y-1100714D01*
X3352857Y-1100714D02*
X3352857Y-800714D01*
X3324286Y-843571D01*
X3295714Y-872143D01*
X3267143Y-886429D01*
X3724286Y-1100714D02*
X3552857Y-1100714D01*
X3638571Y-1100714D02*
X3638571Y-800714D01*
X3610000Y-843571D01*
X3581428Y-872143D01*
X3552857Y-886429D01*
X3995714Y-800714D02*
X3852857Y-800714D01*
X3838571Y-943571D01*
X3852857Y-929286D01*
X3881428Y-915000D01*
X3952857Y-915000D01*
X3981428Y-929286D01*
X3995714Y-943571D01*
X4010000Y-972143D01*
X4010000Y-1043571D01*
X3995714Y-1072143D01*
X3981428Y-1086429D01*
X3952857Y-1100714D01*
X3881428Y-1100714D01*
X3852857Y-1086429D01*
X3838571Y-1072143D01*
X4124286Y-800714D02*
X4124286Y-857857D01*
X4238571Y-800714D02*
X4238571Y-857857D01*
X4681428Y-1215000D02*
X4667143Y-1200714D01*
X4638571Y-1157857D01*
X4624286Y-1129286D01*
X4610000Y-1086429D01*
X4595714Y-1015000D01*
X4595714Y-957857D01*
X4610000Y-886429D01*
X4624286Y-843571D01*
X4638571Y-815000D01*
X4667143Y-772143D01*
X4681428Y-757857D01*
X4781428Y-829286D02*
X4795714Y-815000D01*
X4824286Y-800714D01*
X4895714Y-800714D01*
X4924286Y-815000D01*
X4938571Y-829286D01*
X4952857Y-857857D01*
X4952857Y-886429D01*
X4938571Y-929286D01*
X4767143Y-1100714D01*
X4952857Y-1100714D01*
X5310000Y-1100714D02*
X5310000Y-800714D01*
X5438571Y-1100714D02*
X5438571Y-943571D01*
X5424286Y-915000D01*
X5395714Y-900714D01*
X5352857Y-900714D01*
X5324286Y-915000D01*
X5310000Y-929286D01*
X5624286Y-1100714D02*
X5595714Y-1086429D01*
X5581428Y-1072143D01*
X5567143Y-1043571D01*
X5567143Y-957857D01*
X5581428Y-929286D01*
X5595714Y-915000D01*
X5624286Y-900714D01*
X5667143Y-900714D01*
X5695714Y-915000D01*
X5710000Y-929286D01*
X5724286Y-957857D01*
X5724286Y-1043571D01*
X5710000Y-1072143D01*
X5695714Y-1086429D01*
X5667143Y-1100714D01*
X5624286Y-1100714D01*
X5895714Y-1100714D02*
X5867143Y-1086429D01*
X5852857Y-1057857D01*
X5852857Y-800714D01*
X6124286Y-1086429D02*
X6095714Y-1100714D01*
X6038571Y-1100714D01*
X6010000Y-1086429D01*
X5995714Y-1057857D01*
X5995714Y-943571D01*
X6010000Y-915000D01*
X6038571Y-900714D01*
X6095714Y-900714D01*
X6124286Y-915000D01*
X6138571Y-943571D01*
X6138571Y-972143D01*
X5995714Y-1000714D01*
X6252857Y-1086429D02*
X6281428Y-1100714D01*
X6338571Y-1100714D01*
X6367143Y-1086429D01*
X6381428Y-1057857D01*
X6381428Y-1043571D01*
X6367143Y-1015000D01*
X6338571Y-1000714D01*
X6295714Y-1000714D01*
X6267143Y-986429D01*
X6252857Y-957857D01*
X6252857Y-943571D01*
X6267143Y-915000D01*
X6295714Y-900714D01*
X6338571Y-900714D01*
X6367143Y-915000D01*
X6481428Y-1215000D02*
X6495714Y-1200714D01*
X6524286Y-1157857D01*
X6538571Y-1129286D01*
X6552857Y-1086429D01*
X6567143Y-1015000D01*
X6567143Y-957857D01*
X6552857Y-886429D01*
X6538571Y-843571D01*
X6524286Y-815000D01*
X6495714Y-772143D01*
X6481428Y-757857D01*
X-5000Y-1387100D02*
G75*
G03X-5000Y-1387100I-247650J0D01*
G01*
X410000Y-1322814D02*
X410000Y-1522814D01*
X338571Y-1208529D02*
X267143Y-1422814D01*
X452857Y-1422814D01*
X567143Y-1494243D02*
X581428Y-1508529D01*
X567143Y-1522814D01*
X552857Y-1508529D01*
X567143Y-1494243D01*
X567143Y-1522814D01*
X724286Y-1522814D02*
X781428Y-1522814D01*
X810000Y-1508529D01*
X824286Y-1494243D01*
X852857Y-1451386D01*
X867143Y-1394243D01*
X867143Y-1279957D01*
X852857Y-1251386D01*
X838571Y-1237100D01*
X810000Y-1222814D01*
X752857Y-1222814D01*
X724286Y-1237100D01*
X710000Y-1251386D01*
X695714Y-1279957D01*
X695714Y-1351386D01*
X710000Y-1379957D01*
X724286Y-1394243D01*
X752857Y-1408529D01*
X810000Y-1408529D01*
X838571Y-1394243D01*
X852857Y-1379957D01*
X867143Y-1351386D01*
X1138571Y-1222814D02*
X995714Y-1222814D01*
X981428Y-1365672D01*
X995714Y-1351386D01*
X1024286Y-1337100D01*
X1095714Y-1337100D01*
X1124286Y-1351386D01*
X1138571Y-1365672D01*
X1152857Y-1394243D01*
X1152857Y-1465671D01*
X1138571Y-1494243D01*
X1124286Y-1508529D01*
X1095714Y-1522814D01*
X1024286Y-1522814D01*
X995714Y-1508529D01*
X981428Y-1494243D01*
X1281428Y-1522814D02*
X1281428Y-1322814D01*
X1281428Y-1351386D02*
X1295714Y-1337100D01*
X1324286Y-1322814D01*
X1367143Y-1322814D01*
X1395714Y-1337100D01*
X1410000Y-1365672D01*
X1410000Y-1522814D01*
X1410000Y-1365672D02*
X1424286Y-1337100D01*
X1452857Y-1322814D01*
X1495714Y-1322814D01*
X1524286Y-1337100D01*
X1538571Y-1365672D01*
X1538571Y-1522814D01*
X1681428Y-1522814D02*
X1681428Y-1322814D01*
X1681428Y-1351386D02*
X1695714Y-1337100D01*
X1724286Y-1322814D01*
X1767143Y-1322814D01*
X1795714Y-1337100D01*
X1810000Y-1365672D01*
X1810000Y-1522814D01*
X1810000Y-1365672D02*
X1824286Y-1337100D01*
X1852857Y-1322814D01*
X1895714Y-1322814D01*
X1924286Y-1337100D01*
X1938571Y-1365672D01*
X1938571Y-1522814D01*
X2524286Y-1208529D02*
X2267143Y-1594243D01*
X2910000Y-1222814D02*
X2938571Y-1222814D01*
X2967143Y-1237100D01*
X2981428Y-1251386D01*
X2995714Y-1279957D01*
X3010000Y-1337100D01*
X3010000Y-1408529D01*
X2995714Y-1465671D01*
X2981428Y-1494243D01*
X2967143Y-1508529D01*
X2938571Y-1522814D01*
X2910000Y-1522814D01*
X2881428Y-1508529D01*
X2867143Y-1494243D01*
X2852857Y-1465671D01*
X2838571Y-1408529D01*
X2838571Y-1337100D01*
X2852857Y-1279957D01*
X2867143Y-1251386D01*
X2881428Y-1237100D01*
X2910000Y-1222814D01*
X3138571Y-1494243D02*
X3152857Y-1508529D01*
X3138571Y-1522814D01*
X3124286Y-1508529D01*
X3138571Y-1494243D01*
X3138571Y-1522814D01*
X3438571Y-1522814D02*
X3267143Y-1522814D01*
X3352857Y-1522814D02*
X3352857Y-1222814D01*
X3324286Y-1265672D01*
X3295714Y-1294243D01*
X3267143Y-1308529D01*
X3581428Y-1522814D02*
X3638571Y-1522814D01*
X3667143Y-1508529D01*
X3681428Y-1494243D01*
X3710000Y-1451386D01*
X3724286Y-1394243D01*
X3724286Y-1279957D01*
X3710000Y-1251386D01*
X3695714Y-1237100D01*
X3667143Y-1222814D01*
X3610000Y-1222814D01*
X3581428Y-1237100D01*
X3567143Y-1251386D01*
X3552857Y-1279957D01*
X3552857Y-1351386D01*
X3567143Y-1379957D01*
X3581428Y-1394243D01*
X3610000Y-1408529D01*
X3667143Y-1408529D01*
X3695714Y-1394243D01*
X3710000Y-1379957D01*
X3724286Y-1351386D01*
X3995714Y-1222814D02*
X3852857Y-1222814D01*
X3838571Y-1365672D01*
X3852857Y-1351386D01*
X3881428Y-1337100D01*
X3952857Y-1337100D01*
X3981428Y-1351386D01*
X3995714Y-1365672D01*
X4010000Y-1394243D01*
X4010000Y-1465671D01*
X3995714Y-1494243D01*
X3981428Y-1508529D01*
X3952857Y-1522814D01*
X3881428Y-1522814D01*
X3852857Y-1508529D01*
X3838571Y-1494243D01*
X4124286Y-1222814D02*
X4124286Y-1279957D01*
X4238571Y-1222814D02*
X4238571Y-1279957D01*
X4681428Y-1637100D02*
X4667143Y-1622814D01*
X4638571Y-1579957D01*
X4624286Y-1551386D01*
X4610000Y-1508529D01*
X4595714Y-1437100D01*
X4595714Y-1379957D01*
X4610000Y-1308529D01*
X4624286Y-1265672D01*
X4638571Y-1237100D01*
X4667143Y-1194243D01*
X4681428Y-1179957D01*
X4781428Y-1251386D02*
X4795714Y-1237100D01*
X4824286Y-1222814D01*
X4895714Y-1222814D01*
X4924286Y-1237100D01*
X4938571Y-1251386D01*
X4952857Y-1279957D01*
X4952857Y-1308529D01*
X4938571Y-1351386D01*
X4767143Y-1522814D01*
X4952857Y-1522814D01*
X5310000Y-1522814D02*
X5310000Y-1222814D01*
X5438571Y-1522814D02*
X5438571Y-1365672D01*
X5424286Y-1337100D01*
X5395714Y-1322814D01*
X5352857Y-1322814D01*
X5324286Y-1337100D01*
X5310000Y-1351386D01*
X5624286Y-1522814D02*
X5595714Y-1508529D01*
X5581428Y-1494243D01*
X5567143Y-1465671D01*
X5567143Y-1379957D01*
X5581428Y-1351386D01*
X5595714Y-1337100D01*
X5624286Y-1322814D01*
X5667143Y-1322814D01*
X5695714Y-1337100D01*
X5710000Y-1351386D01*
X5724286Y-1379957D01*
X5724286Y-1465671D01*
X5710000Y-1494243D01*
X5695714Y-1508529D01*
X5667143Y-1522814D01*
X5624286Y-1522814D01*
X5895714Y-1522814D02*
X5867143Y-1508529D01*
X5852857Y-1479957D01*
X5852857Y-1222814D01*
X6124286Y-1508529D02*
X6095714Y-1522814D01*
X6038571Y-1522814D01*
X6010000Y-1508529D01*
X5995714Y-1479957D01*
X5995714Y-1365672D01*
X6010000Y-1337100D01*
X6038571Y-1322814D01*
X6095714Y-1322814D01*
X6124286Y-1337100D01*
X6138571Y-1365672D01*
X6138571Y-1394243D01*
X5995714Y-1422814D01*
X6252857Y-1508529D02*
X6281428Y-1522814D01*
X6338571Y-1522814D01*
X6367143Y-1508529D01*
X6381428Y-1479957D01*
X6381428Y-1465671D01*
X6367143Y-1437100D01*
X6338571Y-1422814D01*
X6295714Y-1422814D01*
X6267143Y-1408529D01*
X6252857Y-1379957D01*
X6252857Y-1365672D01*
X6267143Y-1337100D01*
X6295714Y-1322814D01*
X6338571Y-1322814D01*
X6367143Y-1337100D01*
X6481428Y-1637100D02*
X6495714Y-1622814D01*
X6524286Y-1579957D01*
X6538571Y-1551386D01*
X6552857Y-1508529D01*
X6567143Y-1437100D01*
X6567143Y-1379957D01*
X6552857Y-1308529D01*
X6538571Y-1265672D01*
X6524286Y-1237100D01*
X6495714Y-1194243D01*
X6481428Y-1179957D01*
X-335200Y-1682200D02*
X-335200Y-2342600D01*
X-665400Y-2012400D02*
X-5000Y-2012400D01*
X410000Y-1848114D02*
X352857Y-1848114D01*
X324286Y-1862400D01*
X310000Y-1876686D01*
X281428Y-1919543D01*
X267143Y-1976686D01*
X267143Y-2090971D01*
X281428Y-2119543D01*
X295714Y-2133829D01*
X324286Y-2148114D01*
X381428Y-2148114D01*
X410000Y-2133829D01*
X424286Y-2119543D01*
X438571Y-2090971D01*
X438571Y-2019543D01*
X424286Y-1990971D01*
X410000Y-1976686D01*
X381428Y-1962400D01*
X324286Y-1962400D01*
X295714Y-1976686D01*
X281428Y-1990971D01*
X267143Y-2019543D01*
X567143Y-2119543D02*
X581428Y-2133829D01*
X567143Y-2148114D01*
X552857Y-2133829D01*
X567143Y-2119543D01*
X567143Y-2148114D01*
X838571Y-1848114D02*
X781428Y-1848114D01*
X752857Y-1862400D01*
X738571Y-1876686D01*
X710000Y-1919543D01*
X695714Y-1976686D01*
X695714Y-2090971D01*
X710000Y-2119543D01*
X724286Y-2133829D01*
X752857Y-2148114D01*
X810000Y-2148114D01*
X838571Y-2133829D01*
X852857Y-2119543D01*
X867143Y-2090971D01*
X867143Y-2019543D01*
X852857Y-1990971D01*
X838571Y-1976686D01*
X810000Y-1962400D01*
X752857Y-1962400D01*
X724286Y-1976686D01*
X710000Y-1990971D01*
X695714Y-2019543D01*
X1052857Y-1848114D02*
X1081428Y-1848114D01*
X1110000Y-1862400D01*
X1124286Y-1876686D01*
X1138571Y-1905257D01*
X1152857Y-1962400D01*
X1152857Y-2033829D01*
X1138571Y-2090971D01*
X1124286Y-2119543D01*
X1110000Y-2133829D01*
X1081428Y-2148114D01*
X1052857Y-2148114D01*
X1024286Y-2133829D01*
X1010000Y-2119543D01*
X995714Y-2090971D01*
X981428Y-2033829D01*
X981428Y-1962400D01*
X995714Y-1905257D01*
X1010000Y-1876686D01*
X1024286Y-1862400D01*
X1052857Y-1848114D01*
X1281428Y-2148114D02*
X1281428Y-1948114D01*
X1281428Y-1976686D02*
X1295714Y-1962400D01*
X1324286Y-1948114D01*
X1367143Y-1948114D01*
X1395714Y-1962400D01*
X1410000Y-1990971D01*
X1410000Y-2148114D01*
X1410000Y-1990971D02*
X1424286Y-1962400D01*
X1452857Y-1948114D01*
X1495714Y-1948114D01*
X1524286Y-1962400D01*
X1538571Y-1990971D01*
X1538571Y-2148114D01*
X1681428Y-2148114D02*
X1681428Y-1948114D01*
X1681428Y-1976686D02*
X1695714Y-1962400D01*
X1724286Y-1948114D01*
X1767143Y-1948114D01*
X1795714Y-1962400D01*
X1810000Y-1990971D01*
X1810000Y-2148114D01*
X1810000Y-1990971D02*
X1824286Y-1962400D01*
X1852857Y-1948114D01*
X1895714Y-1948114D01*
X1924286Y-1962400D01*
X1938571Y-1990971D01*
X1938571Y-2148114D01*
X2524286Y-1833829D02*
X2267143Y-2219543D01*
X2910000Y-1848114D02*
X2938571Y-1848114D01*
X2967143Y-1862400D01*
X2981428Y-1876686D01*
X2995714Y-1905257D01*
X3010000Y-1962400D01*
X3010000Y-2033829D01*
X2995714Y-2090971D01*
X2981428Y-2119543D01*
X2967143Y-2133829D01*
X2938571Y-2148114D01*
X2910000Y-2148114D01*
X2881428Y-2133829D01*
X2867143Y-2119543D01*
X2852857Y-2090971D01*
X2838571Y-2033829D01*
X2838571Y-1962400D01*
X2852857Y-1905257D01*
X2867143Y-1876686D01*
X2881428Y-1862400D01*
X2910000Y-1848114D01*
X3138571Y-2119543D02*
X3152857Y-2133829D01*
X3138571Y-2148114D01*
X3124286Y-2133829D01*
X3138571Y-2119543D01*
X3138571Y-2148114D01*
X3267143Y-1876686D02*
X3281428Y-1862400D01*
X3310000Y-1848114D01*
X3381428Y-1848114D01*
X3410000Y-1862400D01*
X3424286Y-1876686D01*
X3438571Y-1905257D01*
X3438571Y-1933829D01*
X3424286Y-1976686D01*
X3252857Y-2148114D01*
X3438571Y-2148114D01*
X3695714Y-1848114D02*
X3638571Y-1848114D01*
X3610000Y-1862400D01*
X3595714Y-1876686D01*
X3567143Y-1919543D01*
X3552857Y-1976686D01*
X3552857Y-2090971D01*
X3567143Y-2119543D01*
X3581428Y-2133829D01*
X3610000Y-2148114D01*
X3667143Y-2148114D01*
X3695714Y-2133829D01*
X3710000Y-2119543D01*
X3724286Y-2090971D01*
X3724286Y-2019543D01*
X3710000Y-1990971D01*
X3695714Y-1976686D01*
X3667143Y-1962400D01*
X3610000Y-1962400D01*
X3581428Y-1976686D01*
X3567143Y-1990971D01*
X3552857Y-2019543D01*
X3910000Y-1848114D02*
X3938571Y-1848114D01*
X3967143Y-1862400D01*
X3981428Y-1876686D01*
X3995714Y-1905257D01*
X4010000Y-1962400D01*
X4010000Y-2033829D01*
X3995714Y-2090971D01*
X3981428Y-2119543D01*
X3967143Y-2133829D01*
X3938571Y-2148114D01*
X3910000Y-2148114D01*
X3881428Y-2133829D01*
X3867143Y-2119543D01*
X3852857Y-2090971D01*
X3838571Y-2033829D01*
X3838571Y-1962400D01*
X3852857Y-1905257D01*
X3867143Y-1876686D01*
X3881428Y-1862400D01*
X3910000Y-1848114D01*
X4124286Y-1848114D02*
X4124286Y-1905257D01*
X4238571Y-1848114D02*
X4238571Y-1905257D01*
X4681428Y-2262400D02*
X4667143Y-2248114D01*
X4638571Y-2205257D01*
X4624286Y-2176686D01*
X4610000Y-2133829D01*
X4595714Y-2062400D01*
X4595714Y-2005257D01*
X4610000Y-1933829D01*
X4624286Y-1890971D01*
X4638571Y-1862400D01*
X4667143Y-1819543D01*
X4681428Y-1805257D01*
X4838571Y-1976686D02*
X4810000Y-1962400D01*
X4795714Y-1948114D01*
X4781428Y-1919543D01*
X4781428Y-1905257D01*
X4795714Y-1876686D01*
X4810000Y-1862400D01*
X4838571Y-1848114D01*
X4895714Y-1848114D01*
X4924286Y-1862400D01*
X4938571Y-1876686D01*
X4952857Y-1905257D01*
X4952857Y-1919543D01*
X4938571Y-1948114D01*
X4924286Y-1962400D01*
X4895714Y-1976686D01*
X4838571Y-1976686D01*
X4810000Y-1990971D01*
X4795714Y-2005257D01*
X4781428Y-2033829D01*
X4781428Y-2090971D01*
X4795714Y-2119543D01*
X4810000Y-2133829D01*
X4838571Y-2148114D01*
X4895714Y-2148114D01*
X4924286Y-2133829D01*
X4938571Y-2119543D01*
X4952857Y-2090971D01*
X4952857Y-2033829D01*
X4938571Y-2005257D01*
X4924286Y-1990971D01*
X4895714Y-1976686D01*
X5310000Y-2148114D02*
X5310000Y-1848114D01*
X5438571Y-2148114D02*
X5438571Y-1990971D01*
X5424286Y-1962400D01*
X5395714Y-1948114D01*
X5352857Y-1948114D01*
X5324286Y-1962400D01*
X5310000Y-1976686D01*
X5624286Y-2148114D02*
X5595714Y-2133829D01*
X5581428Y-2119543D01*
X5567143Y-2090971D01*
X5567143Y-2005257D01*
X5581428Y-1976686D01*
X5595714Y-1962400D01*
X5624286Y-1948114D01*
X5667143Y-1948114D01*
X5695714Y-1962400D01*
X5710000Y-1976686D01*
X5724286Y-2005257D01*
X5724286Y-2090971D01*
X5710000Y-2119543D01*
X5695714Y-2133829D01*
X5667143Y-2148114D01*
X5624286Y-2148114D01*
X5895714Y-2148114D02*
X5867143Y-2133829D01*
X5852857Y-2105257D01*
X5852857Y-1848114D01*
X6124286Y-2133829D02*
X6095714Y-2148114D01*
X6038571Y-2148114D01*
X6010000Y-2133829D01*
X5995714Y-2105257D01*
X5995714Y-1990971D01*
X6010000Y-1962400D01*
X6038571Y-1948114D01*
X6095714Y-1948114D01*
X6124286Y-1962400D01*
X6138571Y-1990971D01*
X6138571Y-2019543D01*
X5995714Y-2048114D01*
X6252857Y-2133829D02*
X6281428Y-2148114D01*
X6338571Y-2148114D01*
X6367143Y-2133829D01*
X6381428Y-2105257D01*
X6381428Y-2090971D01*
X6367143Y-2062400D01*
X6338571Y-2048114D01*
X6295714Y-2048114D01*
X6267143Y-2033829D01*
X6252857Y-2005257D01*
X6252857Y-1990971D01*
X6267143Y-1962400D01*
X6295714Y-1948114D01*
X6338571Y-1948114D01*
X6367143Y-1962400D01*
X6481428Y-2262400D02*
X6495714Y-2248114D01*
X6524286Y-2205257D01*
X6538571Y-2176686D01*
X6552857Y-2133829D01*
X6567143Y-2062400D01*
X6567143Y-2005257D01*
X6552857Y-1933829D01*
X6538571Y-1890971D01*
X6524286Y-1862400D01*
X6495714Y-1819543D01*
X6481428Y-1805257D01*
X-109150Y-3054250D02*
X-109150Y-2551351D01*
X-612050Y-2551351D01*
X-612050Y-3054250D01*
X-109150Y-3054250D01*
X252857Y-2638514D02*
X452857Y-2638514D01*
X324286Y-2938514D01*
X567143Y-2909943D02*
X581428Y-2924229D01*
X567143Y-2938514D01*
X552857Y-2924229D01*
X567143Y-2909943D01*
X567143Y-2938514D01*
X867143Y-2938514D02*
X695714Y-2938514D01*
X781428Y-2938514D02*
X781428Y-2638514D01*
X752857Y-2681372D01*
X724286Y-2709943D01*
X695714Y-2724229D01*
X1152857Y-2938514D02*
X981428Y-2938514D01*
X1067143Y-2938514D02*
X1067143Y-2638514D01*
X1038571Y-2681372D01*
X1010000Y-2709943D01*
X981428Y-2724229D01*
X1281428Y-2938514D02*
X1281428Y-2738514D01*
X1281428Y-2767086D02*
X1295714Y-2752800D01*
X1324286Y-2738514D01*
X1367143Y-2738514D01*
X1395714Y-2752800D01*
X1410000Y-2781372D01*
X1410000Y-2938514D01*
X1410000Y-2781372D02*
X1424286Y-2752800D01*
X1452857Y-2738514D01*
X1495714Y-2738514D01*
X1524286Y-2752800D01*
X1538571Y-2781372D01*
X1538571Y-2938514D01*
X1681428Y-2938514D02*
X1681428Y-2738514D01*
X1681428Y-2767086D02*
X1695714Y-2752800D01*
X1724286Y-2738514D01*
X1767143Y-2738514D01*
X1795714Y-2752800D01*
X1810000Y-2781372D01*
X1810000Y-2938514D01*
X1810000Y-2781372D02*
X1824286Y-2752800D01*
X1852857Y-2738514D01*
X1895714Y-2738514D01*
X1924286Y-2752800D01*
X1938571Y-2781372D01*
X1938571Y-2938514D01*
X2524286Y-2624229D02*
X2267143Y-3009943D01*
X2910000Y-2638514D02*
X2938571Y-2638514D01*
X2967143Y-2652800D01*
X2981428Y-2667086D01*
X2995714Y-2695657D01*
X3010000Y-2752800D01*
X3010000Y-2824229D01*
X2995714Y-2881371D01*
X2981428Y-2909943D01*
X2967143Y-2924229D01*
X2938571Y-2938514D01*
X2910000Y-2938514D01*
X2881428Y-2924229D01*
X2867143Y-2909943D01*
X2852857Y-2881371D01*
X2838571Y-2824229D01*
X2838571Y-2752800D01*
X2852857Y-2695657D01*
X2867143Y-2667086D01*
X2881428Y-2652800D01*
X2910000Y-2638514D01*
X3138571Y-2909943D02*
X3152857Y-2924229D01*
X3138571Y-2938514D01*
X3124286Y-2924229D01*
X3138571Y-2909943D01*
X3138571Y-2938514D01*
X3267143Y-2667086D02*
X3281428Y-2652800D01*
X3310000Y-2638514D01*
X3381428Y-2638514D01*
X3410000Y-2652800D01*
X3424286Y-2667086D01*
X3438571Y-2695657D01*
X3438571Y-2724229D01*
X3424286Y-2767086D01*
X3252857Y-2938514D01*
X3438571Y-2938514D01*
X3610000Y-2767086D02*
X3581428Y-2752800D01*
X3567143Y-2738514D01*
X3552857Y-2709943D01*
X3552857Y-2695657D01*
X3567143Y-2667086D01*
X3581428Y-2652800D01*
X3610000Y-2638514D01*
X3667143Y-2638514D01*
X3695714Y-2652800D01*
X3710000Y-2667086D01*
X3724286Y-2695657D01*
X3724286Y-2709943D01*
X3710000Y-2738514D01*
X3695714Y-2752800D01*
X3667143Y-2767086D01*
X3610000Y-2767086D01*
X3581428Y-2781372D01*
X3567143Y-2795657D01*
X3552857Y-2824229D01*
X3552857Y-2881371D01*
X3567143Y-2909943D01*
X3581428Y-2924229D01*
X3610000Y-2938514D01*
X3667143Y-2938514D01*
X3695714Y-2924229D01*
X3710000Y-2909943D01*
X3724286Y-2881371D01*
X3724286Y-2824229D01*
X3710000Y-2795657D01*
X3695714Y-2781372D01*
X3667143Y-2767086D01*
X3910000Y-2638514D02*
X3938571Y-2638514D01*
X3967143Y-2652800D01*
X3981428Y-2667086D01*
X3995714Y-2695657D01*
X4010000Y-2752800D01*
X4010000Y-2824229D01*
X3995714Y-2881371D01*
X3981428Y-2909943D01*
X3967143Y-2924229D01*
X3938571Y-2938514D01*
X3910000Y-2938514D01*
X3881428Y-2924229D01*
X3867143Y-2909943D01*
X3852857Y-2881371D01*
X3838571Y-2824229D01*
X3838571Y-2752800D01*
X3852857Y-2695657D01*
X3867143Y-2667086D01*
X3881428Y-2652800D01*
X3910000Y-2638514D01*
X4124286Y-2638514D02*
X4124286Y-2695657D01*
X4238571Y-2638514D02*
X4238571Y-2695657D01*
X4681428Y-3052800D02*
X4667143Y-3038514D01*
X4638571Y-2995657D01*
X4624286Y-2967086D01*
X4610000Y-2924229D01*
X4595714Y-2852800D01*
X4595714Y-2795657D01*
X4610000Y-2724229D01*
X4624286Y-2681372D01*
X4638571Y-2652800D01*
X4667143Y-2609943D01*
X4681428Y-2595657D01*
X4924286Y-2738514D02*
X4924286Y-2938514D01*
X4852857Y-2624229D02*
X4781428Y-2838514D01*
X4967143Y-2838514D01*
X5310000Y-2938514D02*
X5310000Y-2638514D01*
X5438571Y-2938514D02*
X5438571Y-2781372D01*
X5424286Y-2752800D01*
X5395714Y-2738514D01*
X5352857Y-2738514D01*
X5324286Y-2752800D01*
X5310000Y-2767086D01*
X5624286Y-2938514D02*
X5595714Y-2924229D01*
X5581428Y-2909943D01*
X5567143Y-2881371D01*
X5567143Y-2795657D01*
X5581428Y-2767086D01*
X5595714Y-2752800D01*
X5624286Y-2738514D01*
X5667143Y-2738514D01*
X5695714Y-2752800D01*
X5710000Y-2767086D01*
X5724286Y-2795657D01*
X5724286Y-2881371D01*
X5710000Y-2909943D01*
X5695714Y-2924229D01*
X5667143Y-2938514D01*
X5624286Y-2938514D01*
X5895714Y-2938514D02*
X5867143Y-2924229D01*
X5852857Y-2895657D01*
X5852857Y-2638514D01*
X6124286Y-2924229D02*
X6095714Y-2938514D01*
X6038571Y-2938514D01*
X6010000Y-2924229D01*
X5995714Y-2895657D01*
X5995714Y-2781372D01*
X6010000Y-2752800D01*
X6038571Y-2738514D01*
X6095714Y-2738514D01*
X6124286Y-2752800D01*
X6138571Y-2781372D01*
X6138571Y-2809943D01*
X5995714Y-2838514D01*
X6252857Y-2924229D02*
X6281428Y-2938514D01*
X6338571Y-2938514D01*
X6367143Y-2924229D01*
X6381428Y-2895657D01*
X6381428Y-2881371D01*
X6367143Y-2852800D01*
X6338571Y-2838514D01*
X6295714Y-2838514D01*
X6267143Y-2824229D01*
X6252857Y-2795657D01*
X6252857Y-2781372D01*
X6267143Y-2752800D01*
X6295714Y-2738514D01*
X6338571Y-2738514D01*
X6367143Y-2752800D01*
X6481428Y-3052800D02*
X6495714Y-3038514D01*
X6524286Y-2995657D01*
X6538571Y-2967086D01*
X6552857Y-2924229D01*
X6567143Y-2852800D01*
X6567143Y-2795657D01*
X6552857Y-2724229D01*
X6538571Y-2681372D01*
X6524286Y-2652800D01*
X6495714Y-2609943D01*
X6481428Y-2595657D01*
M02*
