G04 #@! TF.GenerationSoftware,KiCad,Pcbnew,(5.1.4-0-10_14)*
G04 #@! TF.CreationDate,2019-08-29T11:40:13-07:00*
G04 #@! TF.ProjectId,fp-dd-dev1,66702d64-642d-4646-9576-312e6b696361,rev?*
G04 #@! TF.SameCoordinates,PXffeced30PY931840*
G04 #@! TF.FileFunction,Profile,NP*
%FSLAX46Y46*%
G04 Gerber Fmt 4.6, Leading zero omitted, Abs format (unit mm)*
G04 Created by KiCad (PCBNEW (5.1.4-0-10_14)) date 2019-08-29 11:40:13*
%MOMM*%
%LPD*%
G04 APERTURE LIST*
%ADD10C,0.100000*%
G04 APERTURE END LIST*
D10*
X50500000Y128500000D02*
X50500000Y0D01*
X0Y128500000D02*
X0Y0D01*
X0Y128500000D02*
X50500000Y128500000D01*
X0Y0D02*
X50500000Y0D01*
X41419501Y127090300D02*
X44594501Y127090300D01*
X41419501Y127090300D02*
G75*
G03X41419501Y123915300I0J-1587500D01*
G01*
X44594501Y123915300D02*
G75*
G03X44594501Y127090300I0J1587500D01*
G01*
X41419501Y123915300D02*
X44594501Y123915300D01*
X5905500Y127090300D02*
X9080500Y127090300D01*
X5905500Y127090300D02*
G75*
G03X5905500Y123915300I0J-1587500D01*
G01*
X9080500Y123915300D02*
G75*
G03X9080500Y127090300I0J1587500D01*
G01*
X5905500Y123915300D02*
X9080500Y123915300D01*
X41419501Y4584700D02*
X44594501Y4584700D01*
X41419501Y4584700D02*
G75*
G03X41419501Y1409700I0J-1587500D01*
G01*
X44594501Y1409700D02*
G75*
G03X44594501Y4584700I0J1587500D01*
G01*
X41419501Y1409700D02*
X44594501Y1409700D01*
X5905500Y4584700D02*
X9080500Y4584700D01*
X5905500Y4584700D02*
G75*
G03X5905500Y1409700I0J-1587500D01*
G01*
X9080500Y1409700D02*
G75*
G03X9080500Y4584700I0J1587500D01*
G01*
X5905500Y1409700D02*
X9080500Y1409700D01*
M02*
