G04 #@! TF.GenerationSoftware,KiCad,Pcbnew,(5.1.2-1)-1*
G04 #@! TF.CreationDate,2019-08-30T11:49:53-07:00*
G04 #@! TF.ProjectId,dualdrum,6475616c-6472-4756-9d2e-6b696361645f,rev?*
G04 #@! TF.SameCoordinates,Original*
G04 #@! TF.FileFunction,Copper,L1,Top*
G04 #@! TF.FilePolarity,Positive*
%FSLAX46Y46*%
G04 Gerber Fmt 4.6, Leading zero omitted, Abs format (unit mm)*
G04 Created by KiCad (PCBNEW (5.1.2-1)-1) date 2019-08-30 11:49:53*
%MOMM*%
%LPD*%
G04 APERTURE LIST*
%ADD10R,1.450000X0.450000*%
%ADD11R,1.000000X1.000000*%
%ADD12R,0.450000X1.450000*%
%ADD13R,1.200000X1.200000*%
%ADD14R,1.600000X1.500000*%
%ADD15O,1.700000X1.700000*%
%ADD16R,1.500000X0.600000*%
%ADD17R,1.200000X0.900000*%
%ADD18R,0.500000X0.500000*%
%ADD19R,1.600000X3.000000*%
%ADD20R,1.300000X0.700000*%
%ADD21O,1.727200X2.032000*%
%ADD22C,1.651000*%
%ADD23C,1.803400*%
%ADD24C,2.667000*%
%ADD25C,2.286000*%
%ADD26C,1.930400*%
%ADD27C,0.800000*%
%ADD28C,0.350000*%
%ADD29C,0.250000*%
G04 APERTURE END LIST*
D10*
X40623280Y67967500D03*
X40623280Y67317500D03*
X40623280Y66667500D03*
X40623280Y66017500D03*
X34723280Y66017500D03*
X34723280Y66667500D03*
X34723280Y67317500D03*
X34723280Y67967500D03*
D11*
X3406580Y104115500D03*
X5106580Y104115500D03*
X5427980Y4788800D03*
X5427980Y6488800D03*
X42550080Y5119000D03*
X42550080Y6819000D03*
X10686680Y17665700D03*
X12386680Y17665700D03*
X40225080Y28448000D03*
X38525080Y28448000D03*
D12*
X21706480Y12607500D03*
X21056480Y12607500D03*
X20406480Y12607500D03*
X19756480Y12607500D03*
X19756480Y18507500D03*
X20406480Y18507500D03*
X21056480Y18507500D03*
X21706480Y18507500D03*
X28183480Y12721800D03*
X27533480Y12721800D03*
X26883480Y12721800D03*
X26233480Y12721800D03*
X26233480Y18621800D03*
X26883480Y18621800D03*
X27533480Y18621800D03*
X28183480Y18621800D03*
D10*
X12693080Y52250100D03*
X12693080Y52900100D03*
X12693080Y53550100D03*
X12693080Y54200100D03*
X18593080Y54200100D03*
X18593080Y53550100D03*
X18593080Y52900100D03*
X18593080Y52250100D03*
X35260480Y55891400D03*
X35260480Y55241400D03*
X35260480Y54591400D03*
X35260480Y53941400D03*
X29360480Y53941400D03*
X29360480Y54591400D03*
X29360480Y55241400D03*
X29360480Y55891400D03*
X13220880Y82090500D03*
X13220880Y81440500D03*
X13220880Y80790500D03*
X13220880Y80140500D03*
X7320880Y80140500D03*
X7320880Y80790500D03*
X7320880Y81440500D03*
X7320880Y82090500D03*
X13006580Y106190500D03*
X13006580Y105540500D03*
X13006580Y104890500D03*
X13006580Y104240500D03*
X7106580Y104240500D03*
X7106580Y104890500D03*
X7106580Y105540500D03*
X7106580Y106190500D03*
X41033680Y83606900D03*
X41033680Y82956900D03*
X41033680Y82306900D03*
X41033680Y81656900D03*
X35133680Y81656900D03*
X35133680Y82306900D03*
X35133680Y82956900D03*
X35133680Y83606900D03*
X40691180Y106740660D03*
X40691180Y106090660D03*
X40691180Y105440660D03*
X40691180Y104790660D03*
X34791180Y104790660D03*
X34791180Y105440660D03*
X34791180Y106090660D03*
X34791180Y106740660D03*
D13*
X7964680Y41106900D03*
X5964680Y41106900D03*
D14*
X6964680Y43881900D03*
D13*
X42127680Y41741900D03*
X40127680Y41741900D03*
D14*
X41127680Y44516900D03*
D11*
X5460880Y82185500D03*
X3760880Y82185500D03*
X15070880Y79995500D03*
X16770880Y79995500D03*
X3600880Y74435500D03*
X5300880Y74435500D03*
X5310880Y76005500D03*
X3610880Y76005500D03*
X15190880Y74615500D03*
X16890880Y74615500D03*
X7015480Y8076300D03*
X7015480Y6376300D03*
X3590880Y77575500D03*
X5290880Y77575500D03*
X15240880Y76295500D03*
X16940880Y76295500D03*
X17000880Y77915500D03*
X15300880Y77915500D03*
X15625180Y7416800D03*
X13925180Y7416800D03*
X17022180Y66840100D03*
X15322180Y66840100D03*
X10699380Y19189700D03*
X12399380Y19189700D03*
X5126580Y106315500D03*
X3426580Y106315500D03*
X10713080Y57245100D03*
X10713080Y55545100D03*
X12413080Y56025100D03*
X14113080Y56025100D03*
X17200880Y5715000D03*
X17200880Y7415000D03*
X9554580Y36461700D03*
X7854580Y36461700D03*
X12527280Y20765400D03*
X12527280Y22465400D03*
X14956580Y104265500D03*
X16656580Y104265500D03*
X7777480Y50648500D03*
X7777480Y52348500D03*
X3686580Y98615500D03*
X5386580Y98615500D03*
X5366580Y100105500D03*
X3666580Y100105500D03*
X15006580Y98725500D03*
X16706580Y98725500D03*
X7802880Y57352300D03*
X7802880Y55652300D03*
X3676580Y101675500D03*
X5376580Y101675500D03*
X14996580Y101005500D03*
X16696580Y101005500D03*
X3484880Y27305900D03*
X3484880Y29005900D03*
X15181580Y21629000D03*
X15181580Y23329000D03*
X16646580Y102695500D03*
X14946580Y102695500D03*
X4641480Y36474400D03*
X6341480Y36474400D03*
X15067280Y83109700D03*
X15067280Y84809700D03*
X33328980Y83743800D03*
X31628980Y83743800D03*
X42893680Y82191900D03*
X44593680Y82191900D03*
X31753680Y75731900D03*
X33453680Y75731900D03*
X33473680Y77331900D03*
X31773680Y77331900D03*
X42873680Y76061900D03*
X44573680Y76061900D03*
X31763680Y78891900D03*
X33463680Y78891900D03*
X43033680Y77701900D03*
X44733680Y77701900D03*
X40975280Y8546200D03*
X40975280Y6846200D03*
X44733680Y79291900D03*
X43033680Y79291900D03*
X44010580Y62165600D03*
X44010580Y60465600D03*
X32973380Y106895900D03*
X31273380Y106895900D03*
X37480480Y58886400D03*
X37480480Y57186400D03*
X30970480Y57656400D03*
X29270480Y57656400D03*
X32200480Y7429500D03*
X33900480Y7429500D03*
X42817680Y105359200D03*
X44517680Y105359200D03*
X40225080Y26949400D03*
X38525080Y26949400D03*
X40137080Y50648500D03*
X40137080Y52348500D03*
X30662880Y5728600D03*
X30662880Y7428600D03*
X31301180Y99485660D03*
X33001180Y99485660D03*
X33001180Y101015660D03*
X31301180Y101015660D03*
X43539780Y36741100D03*
X41839780Y36741100D03*
X42761180Y99215660D03*
X44461180Y99215660D03*
X37038280Y25488000D03*
X37038280Y23788000D03*
X40213280Y57352300D03*
X40213280Y55652300D03*
X31291180Y102565660D03*
X32991180Y102565660D03*
X42761180Y100765660D03*
X44461180Y100765660D03*
X33190180Y22403700D03*
X33190180Y24103700D03*
X44471180Y102345660D03*
X42771180Y102345660D03*
X46131480Y16663300D03*
X46131480Y18363300D03*
X38575880Y36741100D03*
X40275880Y36741100D03*
X44480480Y85446500D03*
X44480480Y87146500D03*
D15*
X17758180Y44592700D03*
X20298180Y44592700D03*
X17758180Y42052700D03*
X20298180Y42052700D03*
X17758180Y39512700D03*
X20298180Y39512700D03*
X17758180Y36972700D03*
X20298180Y36972700D03*
X17758180Y34432700D03*
X20298180Y34432700D03*
D16*
X12920880Y78310500D03*
X12920880Y77040500D03*
X12920880Y75770500D03*
X12920880Y74500500D03*
X12920880Y73230500D03*
X12920880Y71960500D03*
X12920880Y70690500D03*
X12920880Y69420500D03*
X7520880Y69420500D03*
X7520880Y70690500D03*
X7520880Y71960500D03*
X7520880Y73230500D03*
X7520880Y74500500D03*
X7520880Y75770500D03*
X7520880Y77040500D03*
X7520880Y78310500D03*
X12806580Y102460500D03*
X12806580Y101190500D03*
X12806580Y99920500D03*
X12806580Y98650500D03*
X12806580Y97380500D03*
X12806580Y96110500D03*
X12806580Y94840500D03*
X12806580Y93570500D03*
X7406580Y93570500D03*
X7406580Y94840500D03*
X7406580Y96110500D03*
X7406580Y97380500D03*
X7406580Y98650500D03*
X7406580Y99920500D03*
X7406580Y101190500D03*
X7406580Y102460500D03*
X40793680Y79866900D03*
X40793680Y78596900D03*
X40793680Y77326900D03*
X40793680Y76056900D03*
X40793680Y74786900D03*
X40793680Y73516900D03*
X40793680Y72246900D03*
X40793680Y70976900D03*
X35393680Y70976900D03*
X35393680Y72246900D03*
X35393680Y73516900D03*
X35393680Y74786900D03*
X35393680Y76056900D03*
X35393680Y77326900D03*
X35393680Y78596900D03*
X35393680Y79866900D03*
X40451180Y103020660D03*
X40451180Y101750660D03*
X40451180Y100480660D03*
X40451180Y99210660D03*
X40451180Y97940660D03*
X40451180Y96670660D03*
X40451180Y95400660D03*
X40451180Y94130660D03*
X35051180Y94130660D03*
X35051180Y95400660D03*
X35051180Y96670660D03*
X35051180Y97940660D03*
X35051180Y99210660D03*
X35051180Y100480660D03*
X35051180Y101750660D03*
X35051180Y103020660D03*
D17*
X23718180Y35632700D03*
X23718180Y32332700D03*
X23658180Y46620700D03*
X23658180Y43320700D03*
D18*
X3307080Y20667800D03*
X3307080Y22867800D03*
X46271180Y25661800D03*
X46271180Y23461800D03*
D16*
X10705080Y28670800D03*
X10705080Y27400800D03*
X10705080Y26130800D03*
X10705080Y24860800D03*
X10705080Y23590800D03*
X10705080Y22320800D03*
X10705080Y21050800D03*
X5305080Y21050800D03*
X5305080Y22320800D03*
X5305080Y23590800D03*
X5305080Y24860800D03*
X5305080Y26130800D03*
X5305080Y27400800D03*
X5305080Y28670800D03*
X38862980Y17619900D03*
X38862980Y18889900D03*
X38862980Y20159900D03*
X38862980Y21429900D03*
X38862980Y22699900D03*
X38862980Y23969900D03*
X38862980Y25239900D03*
X44262980Y25239900D03*
X44262980Y23969900D03*
X44262980Y22699900D03*
X44262980Y21429900D03*
X44262980Y20159900D03*
X44262980Y18889900D03*
X44262980Y17619900D03*
D11*
X17153080Y56115100D03*
X18853080Y56115100D03*
X14163080Y50485100D03*
X12463080Y50485100D03*
X30900480Y52066400D03*
X29200480Y52066400D03*
X33790480Y57656400D03*
X35490480Y57656400D03*
X31209880Y65874900D03*
X32909880Y65874900D03*
X44150280Y68084700D03*
X42450280Y68084700D03*
X19753580Y22046300D03*
X19753580Y20346300D03*
X28186380Y9221100D03*
X28186380Y10921100D03*
X12539980Y27140800D03*
X12539980Y28840800D03*
X16696580Y106345500D03*
X14996580Y106345500D03*
X31603680Y81343500D03*
X33303680Y81343500D03*
X44593680Y83751900D03*
X42893680Y83751900D03*
X31159080Y104597200D03*
X32859080Y104597200D03*
X44201180Y106865660D03*
X42501180Y106865660D03*
X26179780Y22109800D03*
X26179780Y20409800D03*
X21696680Y9119500D03*
X21696680Y10819500D03*
X3750880Y80005500D03*
X5450880Y80005500D03*
X16790880Y81555500D03*
X15090880Y81555500D03*
D19*
X27548180Y33372700D03*
X27548180Y37772700D03*
D11*
X37025580Y19074500D03*
X37025580Y17374500D03*
D19*
X27548180Y41246700D03*
X27548180Y45646700D03*
D11*
X3625480Y71158100D03*
X5325480Y71158100D03*
X3836580Y95545500D03*
X5536580Y95545500D03*
X31743680Y72621900D03*
X33443680Y72621900D03*
X31291180Y96305660D03*
X32991180Y96305660D03*
X16984080Y71513700D03*
X15284080Y71513700D03*
X16436580Y95375500D03*
X14736580Y95375500D03*
X44573680Y72921900D03*
X42873680Y72921900D03*
X44461180Y96055660D03*
X42761180Y96055660D03*
X3640880Y72735500D03*
X5340880Y72735500D03*
X16980880Y73115500D03*
X15280880Y73115500D03*
D20*
X12679680Y25765800D03*
X12679680Y23865800D03*
D11*
X15322180Y65278000D03*
X17022180Y65278000D03*
X10673080Y52245100D03*
X10673080Y53945100D03*
X3806580Y97065500D03*
X5506580Y97065500D03*
X16436580Y96945500D03*
X14736580Y96945500D03*
X12399380Y58788300D03*
X10699380Y58788300D03*
D20*
X3357880Y24030900D03*
X3357880Y25930900D03*
D11*
X15143480Y24931000D03*
X15143480Y26631000D03*
X31753680Y74171900D03*
X33453680Y74171900D03*
X44583680Y74481900D03*
X42883680Y74481900D03*
X44035080Y58915300D03*
X42335080Y58915300D03*
D20*
X36898580Y20474900D03*
X36898580Y22374900D03*
D11*
X37480480Y55606400D03*
X37480480Y53906400D03*
X31301180Y97875660D03*
X33001180Y97875660D03*
X44471180Y97645660D03*
X42771180Y97645660D03*
X40745780Y58915300D03*
X39045780Y58915300D03*
D20*
X46245780Y22324100D03*
X46245780Y20424100D03*
D11*
X33152080Y25642200D03*
X33152080Y27342200D03*
D21*
X12796580Y91095500D03*
X10256580Y91095500D03*
X7716580Y91095500D03*
X40081180Y91715660D03*
X37541180Y91715660D03*
X35001180Y91715660D03*
D22*
X5005080Y56540000D03*
X5005080Y54000000D03*
X5005080Y51460000D03*
X43005080Y56540000D03*
X43005080Y54000000D03*
X43005080Y51460000D03*
D23*
X4464917Y32987757D03*
X7004917Y32987757D03*
X9544917Y32987757D03*
D24*
X11399117Y39998157D03*
X2610717Y39998157D03*
D25*
X7005080Y62046000D03*
X12005080Y62046000D03*
X17005080Y62046000D03*
X7005080Y87046000D03*
X12005080Y87046000D03*
X17005080Y87046000D03*
D23*
X38464917Y32987757D03*
X41004917Y32987757D03*
X43544917Y32987757D03*
D24*
X45399117Y39998157D03*
X36610717Y39998157D03*
D25*
X31005080Y62046000D03*
X36005080Y62046000D03*
X41005080Y62046000D03*
D26*
X17255080Y20097200D03*
X17255080Y17684200D03*
X17255080Y28657000D03*
X30755080Y20097200D03*
X30755080Y17684200D03*
X30755080Y28657000D03*
X17255080Y10902800D03*
X17255080Y13315800D03*
X17255080Y2343000D03*
X30755080Y10852800D03*
X30755080Y13265800D03*
X30755080Y2293000D03*
D25*
X31005080Y87046000D03*
X36005080Y87046000D03*
X41005080Y87046000D03*
D26*
X5455080Y10852800D03*
X5455080Y13265800D03*
X5455080Y2293000D03*
X42555080Y10852800D03*
X42555080Y13265800D03*
X42555080Y2293000D03*
D27*
X2402680Y100619400D03*
X16696580Y99990800D03*
X23678981Y100140601D03*
X30187860Y101378980D03*
X2510480Y76355900D03*
X18077180Y76339700D03*
X23678981Y76402099D03*
X30672630Y77682950D03*
X45877482Y77647800D03*
X15988080Y54200100D03*
X23678981Y54215199D03*
X32326580Y52070000D03*
X31158180Y67170300D03*
X23678981Y67169199D03*
X20261580Y9131300D03*
X29532580Y9194800D03*
X7294880Y19164300D03*
X35793680Y19151600D03*
X41184580Y25239900D03*
X31894780Y22466300D03*
X40289480Y29756100D03*
X18267680Y66967100D03*
X29151580Y37769800D03*
X24020780Y30099000D03*
X24032378Y26897498D03*
X20274280Y14643100D03*
X45559980Y101384100D03*
X39349669Y65849511D03*
X15181580Y20307300D03*
X19766278Y23074790D03*
X26141680Y23215602D03*
X26116280Y15786100D03*
X42118280Y40411400D03*
X43059190Y23914100D03*
X38207168Y68042510D03*
X38676580Y53949600D03*
X31920180Y54559200D03*
X42334180Y26809700D03*
X42130980Y16471900D03*
X7993380Y39738300D03*
X5213190Y39001700D03*
X18674080Y65176400D03*
X37152580Y66332100D03*
X37428057Y65370780D03*
X9364980Y55613300D03*
X9334880Y52352300D03*
X2392680Y27241500D03*
X3662680Y46926500D03*
X2468880Y16878300D03*
X22814280Y100914200D03*
X18813780Y100926900D03*
X22801580Y77292200D03*
X12489180Y49314100D03*
X35450780Y58877200D03*
X22801580Y58699400D03*
X42397680Y69138800D03*
X22801580Y68668900D03*
X22788880Y49390300D03*
X25443180Y40271700D03*
X23246080Y10833100D03*
X13898880Y28829000D03*
X23246080Y25819100D03*
X35603180Y17348200D03*
X7879080Y37833300D03*
X40276780Y37973000D03*
X22923785Y30118785D03*
X19639280Y77151390D03*
X46385480Y102273101D03*
X46413682Y79115146D03*
X26878280Y10134600D03*
X1643380Y99453700D03*
X24554180Y99072700D03*
X29075380Y99098100D03*
X24554180Y75374500D03*
X29710380Y75387200D03*
X19969480Y55968900D03*
X27983180Y52070000D03*
X25054140Y52201660D03*
X32910780Y64159290D03*
X20718780Y20828000D03*
X25074880Y56108600D03*
X25074880Y63982600D03*
X2227580Y75006200D03*
X24807388Y20396200D03*
X44450000Y88361520D03*
X35018980Y103965658D03*
X40518080Y103965658D03*
X37565741Y103965658D03*
X35399980Y80594200D03*
X40784780Y80632300D03*
X37774880Y80594200D03*
X37381180Y12192000D03*
X12146280Y12153900D03*
X31310580Y103454200D03*
X41873270Y105404339D03*
X36840731Y105404339D03*
X43953648Y80220419D03*
X42892980Y81140300D03*
X31805880Y80124300D03*
X27779980Y80162400D03*
X27754580Y91706700D03*
X17696180Y102692200D03*
X881380Y101625400D03*
X18229580Y15824176D03*
X1205230Y15805150D03*
X3789680Y102793800D03*
X14146782Y104898639D03*
X9948070Y104898639D03*
X18610580Y51435000D03*
X14114780Y57200800D03*
X20401280Y91211400D03*
X20604480Y78346300D03*
X18026380Y77876400D03*
X3561080Y78765400D03*
X11803380Y81318100D03*
X10267790Y81318100D03*
X17150080Y48006000D03*
X13980160Y84820760D03*
X7447280Y103415488D03*
X12793980Y103415486D03*
X10024768Y103415488D03*
X7510780Y79222600D03*
X12971780Y79209900D03*
X10697370Y79315792D03*
X43578780Y103403400D03*
X28414980Y17183100D03*
X17353280Y23939500D03*
X27983180Y23799800D03*
X46258480Y24447500D03*
X46106080Y19329400D03*
X3611880Y30226000D03*
X3319780Y21945600D03*
X29964380Y106832400D03*
X41689740Y99215660D03*
X38143180Y107073700D03*
X38930580Y97370900D03*
X44505167Y104308761D03*
X41943880Y76056900D03*
X38994080Y74853800D03*
X30485080Y83858100D03*
X44632880Y81076800D03*
X38499890Y83858100D03*
X2176780Y106273600D03*
X16527780Y105156000D03*
X13975080Y98501200D03*
X10673080Y106273600D03*
X10787878Y98501200D03*
X17734280Y79997300D03*
X14054280Y74615500D03*
X3903980Y83299300D03*
X9669780Y74523600D03*
X9543890Y80375270D03*
X9542780Y83299300D03*
X37387630Y26587350D03*
X34688780Y26492200D03*
D28*
X3666580Y98635500D02*
X3686580Y98615500D01*
X3666580Y100105500D02*
X3666580Y98635500D01*
X3836580Y97035500D02*
X3806580Y97065500D01*
X3836580Y95545500D02*
X3836580Y97035500D01*
X3686580Y97185500D02*
X3806580Y97065500D01*
X3686580Y98615500D02*
X3686580Y97185500D01*
X16696580Y98735500D02*
X16706580Y98725500D01*
X16696580Y101005500D02*
X16696580Y98735500D01*
X16706580Y97215500D02*
X16436580Y96945500D01*
X16706580Y98725500D02*
X16706580Y97215500D01*
X16436580Y95375500D02*
X16436580Y96945500D01*
X3406580Y104115500D02*
X2656580Y104115500D01*
X2656580Y104115500D02*
X2164080Y103623000D01*
X2164080Y103623000D02*
X2164080Y100858000D01*
X2916580Y100105500D02*
X2402680Y100619400D01*
X3666580Y100105500D02*
X2916580Y100105500D01*
X2164080Y100858000D02*
X2402680Y100619400D01*
X16696580Y101005500D02*
X16696580Y99990800D01*
X31301180Y101015660D02*
X31301180Y99485660D01*
X31301180Y99485660D02*
X31301180Y97875660D01*
X31291180Y97865660D02*
X31301180Y97875660D01*
X31291180Y96305660D02*
X31291180Y97865660D01*
X30551180Y101015660D02*
X31301180Y101015660D01*
X29875480Y101691360D02*
X30551180Y101015660D01*
X29875480Y104152700D02*
X29875480Y101691360D01*
X31161180Y104795660D02*
X30518440Y104795660D01*
X30518440Y104795660D02*
X29875480Y104152700D01*
X44461180Y97635660D02*
X44471180Y97645660D01*
X44461180Y96055660D02*
X44461180Y97635660D01*
X44461180Y97655660D02*
X44471180Y97645660D01*
X44461180Y99215660D02*
X44461180Y97655660D01*
X44461180Y100765660D02*
X44461180Y99215660D01*
X16890880Y76245500D02*
X16940880Y76295500D01*
X16890880Y74615500D02*
X16890880Y76245500D01*
X16890880Y73205500D02*
X16980880Y73115500D01*
X16890880Y74615500D02*
X16890880Y73205500D01*
X3625480Y72720100D02*
X3640880Y72735500D01*
X3625480Y71158100D02*
X3625480Y72720100D01*
X3600880Y72775500D02*
X3640880Y72735500D01*
X3600880Y74435500D02*
X3600880Y72775500D01*
X3600880Y75995500D02*
X3610880Y76005500D01*
X3600880Y74435500D02*
X3600880Y75995500D01*
X3750880Y80005500D02*
X2731080Y80005500D01*
X2731080Y80005500D02*
X2164080Y79438500D01*
X2860880Y76005500D02*
X3610880Y76005500D01*
X2164080Y79438500D02*
X2164080Y76702300D01*
X2164080Y76702300D02*
X2510480Y76355900D01*
X2510480Y76355900D02*
X2860880Y76005500D01*
X16985080Y76339700D02*
X16940880Y76295500D01*
X18077180Y76339700D02*
X16985080Y76339700D01*
X30853680Y81343500D02*
X30332680Y80822500D01*
X31603680Y81343500D02*
X30853680Y81343500D01*
X31023680Y77331900D02*
X31773680Y77331900D01*
X30332680Y78022900D02*
X31023680Y77331900D01*
X30332680Y80822500D02*
X30332680Y78022900D01*
X31773680Y75751900D02*
X31753680Y75731900D01*
X31773680Y77331900D02*
X31773680Y75751900D01*
X31753680Y75731900D02*
X31753680Y74171900D01*
X31753680Y72631900D02*
X31743680Y72621900D01*
X31753680Y74171900D02*
X31753680Y72631900D01*
X44573680Y74471900D02*
X44583680Y74481900D01*
X44573680Y72921900D02*
X44573680Y74471900D01*
X44583680Y76051900D02*
X44573680Y76061900D01*
X44583680Y74481900D02*
X44583680Y76051900D01*
X44733680Y76221900D02*
X44573680Y76061900D01*
X44733680Y77701900D02*
X44733680Y76221900D01*
X45823382Y77701900D02*
X45877482Y77647800D01*
X44733680Y77701900D02*
X45823382Y77701900D01*
X12693080Y54200100D02*
X15988080Y54200100D01*
X14163080Y52375100D02*
X16183480Y54395500D01*
X14163080Y50485100D02*
X14163080Y52375100D01*
X15988080Y54200100D02*
X16183480Y54395500D01*
X16183480Y54395500D02*
X17153080Y55365100D01*
X17153080Y56115100D02*
X17153080Y55365100D01*
X17153080Y55365100D02*
X15988080Y54200100D01*
X34285480Y53941400D02*
X35260480Y53941400D01*
X33790480Y54436400D02*
X34285480Y53941400D01*
X33790480Y57656400D02*
X33790480Y54436400D01*
X35260480Y53941400D02*
X34197980Y53941400D01*
X34197980Y53941400D02*
X32326580Y52070000D01*
X32322980Y52066400D02*
X32326580Y52070000D01*
X30900480Y52066400D02*
X32322980Y52066400D01*
X31209880Y65874900D02*
X31209880Y67118600D01*
X31209880Y67118600D02*
X31158180Y67170300D01*
X31723865Y67170300D02*
X31158180Y67170300D01*
X33245480Y67170300D02*
X31723865Y67170300D01*
X33748280Y66667500D02*
X33245480Y67170300D01*
X34723280Y66667500D02*
X33748280Y66667500D01*
X44150280Y67334700D02*
X44150280Y68084700D01*
X42833080Y66017500D02*
X44150280Y67334700D01*
X40623280Y66017500D02*
X42833080Y66017500D01*
X20298180Y42052700D02*
X17758180Y42052700D01*
X20298180Y39512700D02*
X17758180Y39512700D01*
X20298180Y36972700D02*
X17758180Y36972700D01*
X20298180Y36972700D02*
X20298180Y39512700D01*
X20298180Y39512700D02*
X20298180Y42052700D01*
X17758180Y40850619D02*
X17758180Y39512700D01*
X17758180Y42052700D02*
X17758180Y40850619D01*
X17758180Y39512700D02*
X17758180Y36972700D01*
X23678981Y100140601D02*
X23678981Y54215199D01*
X20298180Y39512700D02*
X20301180Y39509700D01*
X23715980Y39509700D02*
X25452980Y37772700D01*
X25452980Y37772700D02*
X27548180Y37772700D01*
X20301180Y39509700D02*
X23715980Y39509700D01*
X27548180Y41946700D02*
X27548180Y41246700D01*
X29354780Y43753300D02*
X27548180Y41946700D01*
X29354780Y46725102D02*
X29354780Y43753300D01*
X23678981Y54215199D02*
X23678981Y52400901D01*
X23678981Y52400901D02*
X29354780Y46725102D01*
X21684880Y9131300D02*
X21696680Y9119500D01*
X20261580Y9131300D02*
X21684880Y9131300D01*
X28186380Y9221100D02*
X29506280Y9221100D01*
X29506280Y9221100D02*
X29532580Y9194800D01*
X5261180Y21094700D02*
X5305080Y21050800D01*
X3307080Y20667800D02*
X3733980Y21094700D01*
X3733980Y21094700D02*
X5261180Y21094700D01*
X5305080Y20023800D02*
X5305080Y21050800D01*
X7294880Y19164300D02*
X6164580Y19164300D01*
X6164580Y19164300D02*
X5305080Y20023800D01*
X10673980Y19164300D02*
X10699380Y19189700D01*
X7294880Y19164300D02*
X10673980Y19164300D01*
X10686680Y19177000D02*
X10699380Y19189700D01*
X10686680Y17665700D02*
X10686680Y19177000D01*
X37025580Y19074500D02*
X35870780Y19074500D01*
X35870780Y19074500D02*
X35793680Y19151600D01*
X40225080Y28448000D02*
X40225080Y26949400D01*
X43262980Y25239900D02*
X44262980Y25239900D01*
X41184580Y25239900D02*
X43262980Y25239900D01*
X40225080Y26199400D02*
X41184580Y25239900D01*
X40225080Y26949400D02*
X40225080Y26199400D01*
X45849280Y25239900D02*
X46271180Y25661800D01*
X44262980Y25239900D02*
X45849280Y25239900D01*
X33190180Y22403700D02*
X31957380Y22403700D01*
X31957380Y22403700D02*
X31894780Y22466300D01*
X40225080Y28448000D02*
X40225080Y29691700D01*
X40225080Y29691700D02*
X40289480Y29756100D01*
X31894780Y21236900D02*
X31894780Y22466300D01*
X30755080Y20097200D02*
X31894780Y21236900D01*
X15181580Y20879000D02*
X15181580Y21629000D01*
X15181580Y18392702D02*
X15181580Y20879000D01*
X30755080Y17684200D02*
X30755080Y20097200D01*
X17022180Y66840100D02*
X18140680Y66840100D01*
X18140680Y66840100D02*
X18267680Y66967100D01*
X16984080Y73112300D02*
X16980880Y73115500D01*
X16984080Y71513700D02*
X16984080Y73112300D01*
X44010580Y64840000D02*
X44010580Y62165600D01*
X42833080Y66017500D02*
X44010580Y64840000D01*
X27548180Y39496700D02*
X27548180Y37772700D01*
X27548180Y41246700D02*
X27548180Y39496700D01*
X27548180Y37772700D02*
X29148680Y37772700D01*
X29148680Y37772700D02*
X29151580Y37769800D01*
X17576580Y106345500D02*
X18486182Y105435898D01*
X18486182Y102346087D02*
X16696580Y100556485D01*
X16696580Y106345500D02*
X17576580Y106345500D01*
X18486182Y105435898D02*
X18486182Y102346087D01*
X16696580Y100556485D02*
X16696580Y99990800D01*
X18816381Y77078901D02*
X18477179Y76739699D01*
X18477179Y76739699D02*
X18077180Y76339700D01*
X18816381Y80409999D02*
X18816381Y77078901D01*
X17670880Y81555500D02*
X18816381Y80409999D01*
X16790880Y81555500D02*
X17670880Y81555500D01*
X45341180Y100765660D02*
X44461180Y100765660D01*
X45531978Y100956458D02*
X45341180Y100765660D01*
X45531978Y106414862D02*
X45531978Y100956458D01*
X44201180Y106865660D02*
X45081180Y106865660D01*
X45081180Y106865660D02*
X45531978Y106414862D01*
X45623680Y78467287D02*
X45877482Y78213485D01*
X44593680Y83751900D02*
X45473680Y83751900D01*
X45473680Y83751900D02*
X45623680Y83601900D01*
X45877482Y78213485D02*
X45877482Y77647800D01*
X45623680Y83601900D02*
X45623680Y78467287D01*
X39517658Y66017500D02*
X39349669Y65849511D01*
X40623280Y66017500D02*
X39517658Y66017500D01*
X15890082Y17684200D02*
X17255080Y17684200D01*
X15181580Y18392702D02*
X15890082Y17684200D01*
X13289980Y27140800D02*
X14000480Y26430300D01*
X12539980Y27140800D02*
X13289980Y27140800D01*
X14431580Y21629000D02*
X15181580Y21629000D01*
X14000480Y22060100D02*
X14431580Y21629000D01*
X14000480Y26430300D02*
X14000480Y22060100D01*
X19753580Y23062092D02*
X19766278Y23074790D01*
X19753580Y22046300D02*
X19753580Y23062092D01*
X26179780Y23177502D02*
X26141680Y23215602D01*
X26179780Y22109800D02*
X26179780Y23177502D01*
X24032378Y30087402D02*
X24020780Y30099000D01*
X24032378Y17882702D02*
X24032378Y30087402D01*
X24032378Y17870002D02*
X26116280Y15786100D01*
X24032378Y17882702D02*
X24032378Y17870002D01*
D29*
X42550080Y2298000D02*
X42555080Y2293000D01*
X42550080Y5119000D02*
X42550080Y2298000D01*
X5427980Y2320100D02*
X5455080Y2293000D01*
X5427980Y4788800D02*
X5427980Y2320100D01*
X33152080Y24141800D02*
X33190180Y24103700D01*
X33152080Y25642200D02*
X33152080Y24141800D01*
X26883480Y19596800D02*
X27144980Y19858300D01*
X26883480Y18621800D02*
X26883480Y19596800D01*
X27144980Y19858300D02*
X27144980Y24434800D01*
X28352380Y25642200D02*
X33152080Y25642200D01*
X27144980Y24434800D02*
X28352380Y25642200D01*
X32069880Y27342200D02*
X30755080Y28657000D01*
X33152080Y27342200D02*
X32069880Y27342200D01*
X44420380Y22542500D02*
X44262980Y22699900D01*
X46245780Y22324100D02*
X46027380Y22542500D01*
X46027380Y22542500D02*
X44420380Y22542500D01*
X44262980Y23969900D02*
X44262980Y22699900D01*
X42118280Y41732500D02*
X42127680Y41741900D01*
X42118280Y40411400D02*
X42118280Y41732500D01*
X42127680Y43516900D02*
X41127680Y44516900D01*
X42127680Y41741900D02*
X42127680Y43516900D01*
X44262980Y23969900D02*
X43114990Y23969900D01*
X43114990Y23969900D02*
X43059190Y23914100D01*
X46128980Y20307300D02*
X46245780Y20424100D01*
X44262980Y20159900D02*
X44410380Y20307300D01*
X44410380Y20307300D02*
X46128980Y20307300D01*
X42335080Y58915300D02*
X40745780Y58915300D01*
X40745780Y61786700D02*
X41005080Y62046000D01*
X40745780Y58915300D02*
X40745780Y61786700D01*
X34723280Y67967500D02*
X38132158Y67967500D01*
X38132158Y67967500D02*
X38207168Y68042510D01*
X39016880Y58886400D02*
X39045780Y58915300D01*
X37480480Y58886400D02*
X39016880Y58886400D01*
X37480480Y60570600D02*
X36005080Y62046000D01*
X37480480Y58886400D02*
X37480480Y60570600D01*
X36005080Y63662446D02*
X36005080Y62046000D01*
X36005080Y67010700D02*
X36005080Y63662446D01*
X35698280Y67317500D02*
X36005080Y67010700D01*
X34723280Y67317500D02*
X35698280Y67317500D01*
X42476180Y97940660D02*
X42771180Y97645660D01*
X40451180Y97940660D02*
X42476180Y97940660D01*
X40191180Y104790660D02*
X40691180Y104790660D01*
X38841680Y103441160D02*
X40191180Y104790660D01*
X38841680Y98602800D02*
X38841680Y103441160D01*
X40451180Y97940660D02*
X39503820Y97940660D01*
X39503820Y97940660D02*
X38841680Y98602800D01*
X33066180Y97940660D02*
X33001180Y97875660D01*
X35051180Y97940660D02*
X33066180Y97940660D01*
X35766180Y105440660D02*
X34791180Y105440660D01*
X36377880Y104828960D02*
X35766180Y105440660D01*
X36377880Y98817360D02*
X36377880Y104828960D01*
X35051180Y97940660D02*
X35501180Y97940660D01*
X35501180Y97940660D02*
X36377880Y98817360D01*
X37115480Y55241400D02*
X35260480Y55241400D01*
X37480480Y55606400D02*
X37115480Y55241400D01*
X37480480Y57186400D02*
X37480480Y55606400D01*
X40167380Y55606400D02*
X40213280Y55652300D01*
X37480480Y55606400D02*
X40167380Y55606400D01*
X40213280Y52424700D02*
X40137080Y52348500D01*
X40213280Y55652300D02*
X40213280Y52424700D01*
X36795480Y54591400D02*
X37480480Y53906400D01*
X35260480Y54591400D02*
X36795480Y54591400D01*
X37480480Y53906400D02*
X38633380Y53906400D01*
X38633380Y53906400D02*
X38676580Y53949600D01*
X30970480Y57656400D02*
X30970480Y55508900D01*
X30970480Y55508900D02*
X31920180Y54559200D01*
X37040780Y20332700D02*
X36898580Y20474900D01*
X38862980Y20159900D02*
X38690180Y20332700D01*
X38690180Y20332700D02*
X37040780Y20332700D01*
X39740113Y32987757D02*
X41004917Y32987757D01*
X38464917Y32987757D02*
X39740113Y32987757D01*
X38862980Y20159900D02*
X38862980Y18889900D01*
X35998580Y20474900D02*
X35476180Y20997300D01*
X36898580Y20474900D02*
X35998580Y20474900D01*
X35476180Y29999020D02*
X38464917Y32987757D01*
X35476180Y20997300D02*
X35476180Y29999020D01*
X37091580Y22567900D02*
X36898580Y22374900D01*
X38862980Y22699900D02*
X38730980Y22567900D01*
X38730980Y22567900D02*
X37091580Y22567900D01*
X42296080Y16306800D02*
X42130980Y16471900D01*
X46131480Y16663300D02*
X45774980Y16306800D01*
X45774980Y16306800D02*
X42296080Y16306800D01*
X40975280Y14884400D02*
X40975280Y8546200D01*
X42130980Y16471900D02*
X40975280Y15316200D01*
X40975280Y15316200D02*
X40975280Y14884400D01*
X44010580Y58939800D02*
X44035080Y58915300D01*
X44010580Y60465600D02*
X44010580Y58939800D01*
X47162720Y30203140D02*
X43769280Y26809700D01*
X45267880Y56932500D02*
X45267880Y43395900D01*
X45267880Y43395900D02*
X47162720Y41501060D01*
X44035080Y58165300D02*
X45267880Y56932500D01*
X47162720Y41501060D02*
X47162720Y30203140D01*
X43769280Y26809700D02*
X42334180Y26809700D01*
X44035080Y58915300D02*
X44035080Y58165300D01*
X42578680Y74786900D02*
X42883680Y74481900D01*
X40793680Y74786900D02*
X42578680Y74786900D01*
X40343680Y74786900D02*
X39184580Y75946000D01*
X40793680Y74786900D02*
X40343680Y74786900D01*
X40533680Y81656900D02*
X41033680Y81656900D01*
X39184580Y80307800D02*
X40533680Y81656900D01*
X39184580Y75946000D02*
X39184580Y80307800D01*
X34068680Y74786900D02*
X33453680Y74171900D01*
X35393680Y74786900D02*
X34068680Y74786900D01*
X35843680Y74786900D02*
X35393680Y74786900D01*
X36669980Y75613200D02*
X35843680Y74786900D01*
X36669980Y81745600D02*
X36669980Y75613200D01*
X35133680Y82306900D02*
X36108680Y82306900D01*
X36108680Y82306900D02*
X36669980Y81745600D01*
X15181580Y24892900D02*
X15143480Y24931000D01*
X15181580Y23329000D02*
X15181580Y24892900D01*
X20406480Y19482500D02*
X21937980Y21014000D01*
X20406480Y18507500D02*
X20406480Y19482500D01*
X21937980Y21014000D02*
X21937980Y22910800D01*
X19917780Y24931000D02*
X15143480Y24931000D01*
X21937980Y22910800D02*
X19917780Y24931000D01*
X16419480Y28657000D02*
X17255080Y28657000D01*
X15143480Y27381000D02*
X16419480Y28657000D01*
X15143480Y26631000D02*
X15143480Y27381000D01*
X5305080Y23590800D02*
X5305080Y22320800D01*
X3797980Y23590800D02*
X3357880Y24030900D01*
X5305080Y23590800D02*
X3797980Y23590800D01*
X7942580Y41129000D02*
X7964680Y41106900D01*
X7942580Y42049700D02*
X7942580Y41129000D01*
X6964680Y43881900D02*
X6964680Y43027600D01*
X6964680Y43027600D02*
X7942580Y42049700D01*
X7964680Y41106900D02*
X7964680Y39767000D01*
X7964680Y39767000D02*
X7993380Y39738300D01*
X1667678Y35456188D02*
X4813191Y38601701D01*
X3057880Y24030900D02*
X1667678Y25421102D01*
X1667678Y25421102D02*
X1667678Y35456188D01*
X3357880Y24030900D02*
X3057880Y24030900D01*
X4813191Y38601701D02*
X5213190Y39001700D01*
X3557780Y26130800D02*
X3357880Y25930900D01*
X5305080Y26130800D02*
X3557780Y26130800D01*
X17022180Y62063100D02*
X17005080Y62046000D01*
X17022180Y65278000D02*
X17022180Y62063100D01*
X13747380Y58788300D02*
X17005080Y62046000D01*
X12399380Y58788300D02*
X13747380Y58788300D01*
X17022180Y65278000D02*
X18572480Y65278000D01*
X18572480Y65278000D02*
X18674080Y65176400D01*
X38137980Y67317500D02*
X37552579Y66732099D01*
X40623280Y67317500D02*
X38137980Y67317500D01*
X37552579Y66732099D02*
X37152580Y66332100D01*
X10699380Y60740300D02*
X12005080Y62046000D01*
X10699380Y58788300D02*
X10699380Y60740300D01*
X10699380Y57258800D02*
X10713080Y57245100D01*
X10699380Y58788300D02*
X10699380Y57258800D01*
X37828056Y65770779D02*
X37428057Y65370780D01*
X38724777Y66667500D02*
X37828056Y65770779D01*
X40623280Y66667500D02*
X38724777Y66667500D01*
X14301580Y97380500D02*
X14736580Y96945500D01*
X12806580Y97380500D02*
X14301580Y97380500D01*
X12356580Y97380500D02*
X11512879Y98224201D01*
X12506580Y104240500D02*
X13006580Y104240500D01*
X11512879Y98224201D02*
X11512879Y103246799D01*
X11512879Y103246799D02*
X12506580Y104240500D01*
X12806580Y97380500D02*
X12356580Y97380500D01*
X7406580Y97380500D02*
X7856580Y97380500D01*
X8081580Y104890500D02*
X7106580Y104890500D01*
X7856580Y97380500D02*
X8849755Y98373675D01*
X8849755Y104122325D02*
X8081580Y104890500D01*
X8849755Y98373675D02*
X8849755Y104122325D01*
X5821580Y97380500D02*
X5506580Y97065500D01*
X7406580Y97380500D02*
X5821580Y97380500D01*
X11328080Y52900100D02*
X10673080Y52245100D01*
X12693080Y52900100D02*
X11328080Y52900100D01*
X7910080Y55545100D02*
X7802880Y55652300D01*
X10569680Y52348500D02*
X10673080Y52245100D01*
X7777480Y52348500D02*
X10569680Y52348500D01*
X7802880Y55652300D02*
X9325980Y55652300D01*
X9325980Y55652300D02*
X9364980Y55613300D01*
X9433180Y55545100D02*
X9364980Y55613300D01*
X10713080Y55545100D02*
X9433180Y55545100D01*
X5059980Y53945100D02*
X5005080Y54000000D01*
X10673080Y53945100D02*
X5059980Y53945100D01*
X12413080Y55685100D02*
X10673080Y53945100D01*
X12413080Y56025100D02*
X12413080Y55685100D01*
X11068080Y53550100D02*
X12693080Y53550100D01*
X10673080Y53945100D02*
X11068080Y53550100D01*
X15322180Y65278000D02*
X15322180Y66840100D01*
X3484880Y27305900D02*
X2457080Y27305900D01*
X2457080Y27305900D02*
X2392680Y27241500D01*
X3662680Y46926500D02*
X2583180Y48006000D01*
X2583180Y48006000D02*
X2583180Y63093600D01*
X4767580Y65278000D02*
X15322180Y65278000D01*
X2583180Y63093600D02*
X4767580Y65278000D01*
X2468880Y16878300D02*
X2468880Y8648700D01*
X3041280Y8076300D02*
X7015480Y8076300D01*
X2468880Y8648700D02*
X3041280Y8076300D01*
X12461280Y25984200D02*
X12679680Y25765800D01*
X10705080Y26130800D02*
X10851680Y25984200D01*
X10851680Y25984200D02*
X12461280Y25984200D01*
X10705080Y27400800D02*
X10705080Y26130800D01*
X5740113Y32987757D02*
X7004917Y32987757D01*
X4464917Y32987757D02*
X5740113Y32987757D01*
X10255080Y27400800D02*
X10705080Y27400800D01*
X7004917Y30650963D02*
X10255080Y27400800D01*
X7004917Y32987757D02*
X7004917Y30650963D01*
X12550180Y23736300D02*
X12679680Y23865800D01*
X10705080Y23590800D02*
X10850580Y23736300D01*
X10850580Y23736300D02*
X12550180Y23736300D01*
X15165880Y73230500D02*
X15280880Y73115500D01*
X12920880Y73230500D02*
X15165880Y73230500D01*
X12200580Y80140500D02*
X13220880Y80140500D01*
X11422380Y79362300D02*
X12200580Y80140500D01*
X11422380Y74279000D02*
X11422380Y79362300D01*
X12470880Y73230500D02*
X11422380Y74279000D01*
X12920880Y73230500D02*
X12470880Y73230500D01*
X5835880Y73230500D02*
X5340880Y72735500D01*
X7520880Y73230500D02*
X5835880Y73230500D01*
X8508280Y80790500D02*
X7320880Y80790500D01*
X8780780Y80518000D02*
X8508280Y80790500D01*
X8780780Y73609200D02*
X8780780Y80518000D01*
X7520880Y73230500D02*
X8402080Y73230500D01*
X8402080Y73230500D02*
X8780780Y73609200D01*
X14841580Y106190500D02*
X14996580Y106345500D01*
X13006580Y106190500D02*
X14841580Y106190500D01*
X14001580Y96110500D02*
X12806580Y96110500D01*
X14736580Y95375500D02*
X14001580Y96110500D01*
X15331280Y94030800D02*
X17289780Y94030800D01*
X14736580Y95375500D02*
X14736580Y94625500D01*
X14736580Y94625500D02*
X15331280Y94030800D01*
X17289780Y94030800D02*
X18051780Y94792800D01*
X18051780Y94792800D02*
X18204180Y94945200D01*
X42146180Y96670660D02*
X42761180Y96055660D01*
X40451180Y96670660D02*
X42146180Y96670660D01*
X42376180Y106740660D02*
X42501180Y106865660D01*
X40691180Y106740660D02*
X42376180Y106740660D01*
X22801580Y100901500D02*
X22814280Y100914200D01*
X14837280Y71960500D02*
X15284080Y71513700D01*
X12920880Y71960500D02*
X14837280Y71960500D01*
X15093580Y81558200D02*
X15090880Y81555500D01*
X15093580Y83096100D02*
X15093580Y81558200D01*
X14555880Y82090500D02*
X15090880Y81555500D01*
X13220880Y82090500D02*
X14555880Y82090500D01*
X22801580Y77292200D02*
X22801580Y100901500D01*
X42278680Y73516900D02*
X42873680Y72921900D01*
X40793680Y73516900D02*
X42278680Y73516900D01*
X42748680Y83606900D02*
X42893680Y83751900D01*
X41033680Y83606900D02*
X42748680Y83606900D01*
X43730480Y85446500D02*
X44480480Y85446500D01*
X42893680Y84609700D02*
X43730480Y85446500D01*
X42893680Y83751900D02*
X42893680Y84609700D01*
X12693080Y50715100D02*
X12463080Y50485100D01*
X12693080Y52250100D02*
X12693080Y50715100D01*
X12463080Y50485100D02*
X12463080Y49340200D01*
X12463080Y49340200D02*
X12489180Y49314100D01*
X35490480Y56121400D02*
X35260480Y55891400D01*
X35490480Y57656400D02*
X35490480Y56121400D01*
X35490480Y57656400D02*
X35490480Y58837500D01*
X35490480Y58837500D02*
X35450780Y58877200D01*
X40740480Y68084700D02*
X40623280Y67967500D01*
X42450280Y68084700D02*
X40740480Y68084700D01*
X42450280Y68084700D02*
X42450280Y69086200D01*
X42450280Y69086200D02*
X42397680Y69138800D01*
X26574180Y46620700D02*
X27548180Y45646700D01*
X23658180Y46620700D02*
X26574180Y46620700D01*
X23354565Y49390300D02*
X22788880Y49390300D01*
X24504580Y49390300D02*
X23354565Y49390300D01*
X27548180Y46346700D02*
X24504580Y49390300D01*
X27548180Y45646700D02*
X27548180Y46346700D01*
X25443180Y42841700D02*
X25443180Y40271700D01*
X27548180Y45646700D02*
X27548180Y44946700D01*
X27548180Y44946700D02*
X25443180Y42841700D01*
X23232480Y10819500D02*
X23246080Y10833100D01*
X21696680Y10819500D02*
X23232480Y10819500D01*
X28186380Y12718900D02*
X28183480Y12721800D01*
X28186380Y10921100D02*
X28186380Y12718900D01*
X21696680Y12597700D02*
X21706480Y12607500D01*
X21696680Y10819500D02*
X21696680Y12597700D01*
X10875080Y28840800D02*
X10705080Y28670800D01*
X12539980Y28840800D02*
X10875080Y28840800D01*
X12539980Y28840800D02*
X13887080Y28840800D01*
X13887080Y28840800D02*
X13898880Y28829000D01*
X28148280Y12757000D02*
X28183480Y12721800D01*
X37270980Y17619900D02*
X37025580Y17374500D01*
X38862980Y17619900D02*
X37270980Y17619900D01*
X37025580Y17374500D02*
X35629480Y17374500D01*
X35629480Y17374500D02*
X35603180Y17348200D01*
X7841880Y36474400D02*
X7854580Y36461700D01*
X6341480Y36474400D02*
X7841880Y36474400D01*
X7854580Y36461700D02*
X7854580Y37808800D01*
X7854580Y37808800D02*
X7879080Y37833300D01*
X41839780Y36741100D02*
X40275880Y36741100D01*
X40275880Y36741100D02*
X40275880Y37972100D01*
X40275880Y37972100D02*
X40276780Y37973000D01*
X22923785Y29945191D02*
X22923785Y30118785D01*
X23246080Y25819100D02*
X23246080Y29622896D01*
X23246080Y29622896D02*
X22923785Y29945191D01*
X15457380Y107556300D02*
X18051780Y107556300D01*
X18051780Y107556300D02*
X19001193Y106606887D01*
X19001193Y106606887D02*
X19001193Y102099674D01*
X18813780Y101912261D02*
X18813780Y95554800D01*
X14996580Y107095500D02*
X15457380Y107556300D01*
X18813780Y95554800D02*
X18051780Y94792800D01*
X14996580Y106345500D02*
X14996580Y107095500D01*
X19001193Y102099674D02*
X18813780Y101912261D01*
X17083182Y70027800D02*
X19639280Y72583898D01*
X16019980Y70027800D02*
X17083182Y70027800D01*
X15284080Y71513700D02*
X15284080Y70763700D01*
X15284080Y70763700D02*
X16019980Y70027800D01*
X17428580Y83109700D02*
X19639280Y80899000D01*
X15067280Y83109700D02*
X17428580Y83109700D01*
X19639280Y72583898D02*
X19639280Y80899000D01*
X45324019Y107690661D02*
X46385480Y106629200D01*
X46385480Y106629200D02*
X46385480Y102838786D01*
X42501180Y106865660D02*
X42501180Y107615660D01*
X46385480Y102838786D02*
X46385480Y102273101D01*
X46385480Y101707416D02*
X46385480Y102273101D01*
X42576181Y107690661D02*
X45324019Y107690661D01*
X42501180Y107615660D02*
X42576181Y107690661D01*
X43197840Y94869000D02*
X45648880Y94869000D01*
X42761180Y95305660D02*
X43197840Y94869000D01*
X42761180Y96055660D02*
X42761180Y95305660D01*
X46385480Y95605600D02*
X46385480Y101707416D01*
X45648880Y94869000D02*
X46385480Y95605600D01*
X42873680Y72921900D02*
X42873680Y72171900D01*
X43442980Y71602600D02*
X45547280Y71602600D01*
X46813681Y72869001D02*
X46813681Y78715147D01*
X46813681Y78715147D02*
X46413682Y79115146D01*
X45230480Y85446500D02*
X46813681Y83863299D01*
X45547280Y71602600D02*
X46813681Y72869001D01*
X42873680Y72171900D02*
X43442980Y71602600D01*
X46813681Y79515145D02*
X46413682Y79115146D01*
X44480480Y85446500D02*
X45230480Y85446500D01*
X46813681Y83863299D02*
X46813681Y79515145D01*
X27436380Y10921100D02*
X26878280Y10363000D01*
X26878280Y10363000D02*
X26878280Y10134600D01*
X28186380Y10921100D02*
X27436380Y10921100D01*
X22788880Y77279500D02*
X22801580Y77292200D01*
X22788880Y49390300D02*
X22788880Y77279500D01*
X23055580Y11023600D02*
X23246080Y10833100D01*
X23246080Y25819100D02*
X23055580Y25628600D01*
X23055580Y25628600D02*
X23055580Y11023600D01*
X34786180Y104795660D02*
X34791180Y104790660D01*
X32861180Y104795660D02*
X34786180Y104795660D01*
X7106580Y104240500D02*
X5231580Y104240500D01*
X5231580Y104240500D02*
X5106580Y104115500D01*
X4841480Y105130600D02*
X2418080Y105130600D01*
X5106580Y104865500D02*
X4841480Y105130600D01*
X5089380Y94348300D02*
X5536580Y94795500D01*
X2418080Y105130600D02*
X1643380Y104355900D01*
X1643380Y95262700D02*
X2557780Y94348300D01*
X5106580Y104115500D02*
X5106580Y104865500D01*
X2557780Y94348300D02*
X5089380Y94348300D01*
X5536580Y94795500D02*
X5536580Y95545500D01*
X1643380Y104355900D02*
X1643380Y99453700D01*
X1643380Y99453700D02*
X1643380Y95262700D01*
X24554180Y98507015D02*
X24554180Y99072700D01*
X33356180Y96670660D02*
X32991180Y96305660D01*
X35051180Y96670660D02*
X33356180Y96670660D01*
X32859080Y105347200D02*
X32681980Y105524300D01*
X32859080Y104597200D02*
X32859080Y105347200D01*
X30501178Y105524300D02*
X29075380Y104098502D01*
X32681980Y105524300D02*
X30501178Y105524300D01*
X29075380Y104098502D02*
X29075380Y96240600D01*
X29075380Y96240600D02*
X30269180Y95046800D01*
X32991180Y95555660D02*
X32991180Y96305660D01*
X32482320Y95046800D02*
X32991180Y95555660D01*
X30269180Y95046800D02*
X32482320Y95046800D01*
X6101580Y96110500D02*
X5536580Y95545500D01*
X7406580Y96110500D02*
X6101580Y96110500D01*
X6127880Y71960500D02*
X5325480Y71158100D01*
X7520880Y71960500D02*
X6127880Y71960500D01*
X5585880Y80140500D02*
X5450880Y80005500D01*
X7320880Y80140500D02*
X5585880Y80140500D01*
X24554180Y75374500D02*
X24554180Y98507015D01*
X34338680Y73516900D02*
X33443680Y72621900D01*
X35393680Y73516900D02*
X34338680Y73516900D01*
X33617080Y81656900D02*
X33303680Y81343500D01*
X35133680Y81656900D02*
X33617080Y81656900D01*
X30218380Y82524600D02*
X29710380Y82016600D01*
X29710380Y82016600D02*
X29710380Y75952885D01*
X29710380Y75952885D02*
X29710380Y75387200D01*
X33303680Y81343500D02*
X33303680Y82093500D01*
X32872580Y82524600D02*
X30218380Y82524600D01*
X33303680Y82093500D02*
X32872580Y82524600D01*
X29710380Y74821515D02*
X29710380Y75387200D01*
X29710380Y72085200D02*
X29710380Y74821515D01*
X30408880Y71386700D02*
X29710380Y72085200D01*
X32958480Y71386700D02*
X30408880Y71386700D01*
X33443680Y72621900D02*
X33443680Y71871900D01*
X33443680Y71871900D02*
X32958480Y71386700D01*
X18593080Y55855100D02*
X18853080Y56115100D01*
X18593080Y54200100D02*
X18593080Y55855100D01*
X18853080Y56115100D02*
X19823280Y56115100D01*
X19823280Y56115100D02*
X19969480Y55968900D01*
X29200480Y52066400D02*
X27986780Y52066400D01*
X27986780Y52066400D02*
X27983180Y52070000D01*
X29360480Y52226400D02*
X29200480Y52066400D01*
X29360480Y53941400D02*
X29360480Y52226400D01*
X34580680Y65874900D02*
X34723280Y66017500D01*
X32909880Y65874900D02*
X34580680Y65874900D01*
X29123192Y48132608D02*
X29151972Y48132608D01*
X25054140Y52201660D02*
X29123192Y48132608D01*
X29151972Y48132608D02*
X30434280Y46850300D01*
X27548180Y34072700D02*
X27548180Y33372700D01*
X30434280Y36958800D02*
X27548180Y34072700D01*
X30434280Y46850300D02*
X30434280Y36958800D01*
X26508180Y32332700D02*
X27548180Y33372700D01*
X23718180Y32332700D02*
X26508180Y32332700D01*
X26233480Y20356100D02*
X26179780Y20409800D01*
X26233480Y18621800D02*
X26233480Y20356100D01*
X19756480Y20343400D02*
X19753580Y20346300D01*
X19756480Y18507500D02*
X19756480Y20343400D01*
X32909880Y65874900D02*
X32909880Y64160190D01*
X32909880Y64160190D02*
X32910780Y64159290D01*
X20503580Y20346300D02*
X20718780Y20561500D01*
X20718780Y20561500D02*
X20718780Y20828000D01*
X19753580Y20346300D02*
X20503580Y20346300D01*
X25074880Y52222400D02*
X25054140Y52201660D01*
X24554180Y75374500D02*
X25074880Y74853800D01*
X25074880Y74853800D02*
X25074880Y52222400D01*
X1827581Y75406199D02*
X2227580Y75006200D01*
X4741980Y69824600D02*
X2481580Y69824600D01*
X1606390Y80354010D02*
X1606390Y75627390D01*
X2481580Y69824600D02*
X2227580Y70078600D01*
X5091480Y81114900D02*
X2367280Y81114900D01*
X2227580Y74440515D02*
X2227580Y75006200D01*
X1606390Y75627390D02*
X1827581Y75406199D01*
X5325480Y70408100D02*
X4741980Y69824600D01*
X2227580Y70078600D02*
X2227580Y74440515D01*
X5325480Y71158100D02*
X5325480Y70408100D01*
X2367280Y81114900D02*
X1606390Y80354010D01*
X5450880Y80755500D02*
X5091480Y81114900D01*
X5450880Y80005500D02*
X5450880Y80755500D01*
X27548180Y33372700D02*
X27548180Y27632000D01*
X27548180Y27632000D02*
X24807388Y24891208D01*
X24807388Y24891208D02*
X24807388Y20961885D01*
X24820988Y20409800D02*
X24807388Y20396200D01*
X26179780Y20409800D02*
X24820988Y20409800D01*
X24807388Y20961885D02*
X24807388Y20396200D01*
X20298180Y44592700D02*
X17758180Y44592700D01*
X21570180Y43320700D02*
X20298180Y44592700D01*
X23658180Y43320700D02*
X21570180Y43320700D01*
X21498180Y35632700D02*
X20298180Y34432700D01*
X23718180Y35632700D02*
X21498180Y35632700D01*
X20298180Y34432700D02*
X17758180Y34432700D01*
X44379980Y87046000D02*
X44480480Y87146500D01*
X44480480Y88331040D02*
X44450000Y88361520D01*
X44480480Y87146500D02*
X44480480Y88331040D01*
X35051180Y103020660D02*
X35051180Y103933458D01*
X35051180Y103933458D02*
X35018980Y103965658D01*
X40518080Y103087560D02*
X40451180Y103020660D01*
X40518080Y103965658D02*
X40518080Y103087560D01*
X37565741Y103399973D02*
X37565741Y103965658D01*
X37565741Y96487839D02*
X37565741Y103399973D01*
X38765480Y95288100D02*
X37565741Y96487839D01*
X36005080Y87046000D02*
X38765480Y89806400D01*
X38765480Y89806400D02*
X38765480Y95288100D01*
X35393680Y79866900D02*
X35393680Y80587900D01*
X35393680Y80587900D02*
X35399980Y80594200D01*
X40793680Y79866900D02*
X40793680Y80623400D01*
X40793680Y80623400D02*
X40784780Y80632300D01*
X36005080Y87046000D02*
X37774880Y85276200D01*
X37774880Y85276200D02*
X37774880Y80594200D01*
X33900480Y7429500D02*
X33900480Y8711300D01*
X33900480Y8711300D02*
X37381180Y12192000D01*
X13925180Y7416800D02*
X13925180Y10375000D01*
X13925180Y10375000D02*
X12146280Y12153900D01*
X30662880Y2385200D02*
X30755080Y2293000D01*
X30662880Y5728600D02*
X30662880Y2385200D01*
X17200880Y2397200D02*
X17255080Y2343000D01*
X17200880Y5715000D02*
X17200880Y2397200D01*
X42192780Y57352300D02*
X43005080Y56540000D01*
X40213280Y57352300D02*
X42192780Y57352300D01*
X42193580Y50648500D02*
X43005080Y51460000D01*
X40137080Y50648500D02*
X42193580Y50648500D01*
X5817380Y57352300D02*
X5005080Y56540000D01*
X7802880Y57352300D02*
X5817380Y57352300D01*
X5816580Y50648500D02*
X5005080Y51460000D01*
X7777480Y50648500D02*
X5816580Y50648500D01*
X38575880Y37491100D02*
X38575880Y36741100D01*
X38575880Y38075500D02*
X38575880Y37491100D01*
X40127680Y41741900D02*
X40127680Y39627300D01*
X40127680Y39627300D02*
X38575880Y38075500D01*
X40691180Y106090660D02*
X40691180Y105440660D01*
X31291180Y102565660D02*
X31291180Y103434800D01*
X31291180Y103434800D02*
X31310580Y103454200D01*
X40691180Y105440660D02*
X41836949Y105440660D01*
X41836949Y105440660D02*
X41873270Y105404339D01*
X41918409Y105359200D02*
X41873270Y105404339D01*
X42817680Y105359200D02*
X41918409Y105359200D01*
X37541180Y92981660D02*
X36840731Y93682109D01*
X37541180Y91715660D02*
X37541180Y92981660D01*
X36840731Y93682109D02*
X36840731Y104838654D01*
X36840731Y104838654D02*
X36840731Y105404339D01*
X30663780Y7429500D02*
X30662880Y7428600D01*
X32200480Y7429500D02*
X30663780Y7429500D01*
X27533480Y12721800D02*
X26883480Y12721800D01*
X29912880Y7428600D02*
X30662880Y7428600D01*
X27234780Y7428600D02*
X29912880Y7428600D01*
X25824180Y8839200D02*
X27234780Y7428600D01*
X25824180Y10363200D02*
X25824180Y8839200D01*
X26883480Y12721800D02*
X26883480Y11422500D01*
X26883480Y11422500D02*
X25824180Y10363200D01*
X29360480Y55891400D02*
X29360480Y55241400D01*
X29360480Y57566400D02*
X29270480Y57656400D01*
X29360480Y55891400D02*
X29360480Y57566400D01*
X33128620Y106740660D02*
X32973380Y106895900D01*
X34791180Y106740660D02*
X33128620Y106740660D01*
X34791180Y106740660D02*
X34791180Y106090660D01*
X44733680Y79291900D02*
X44733680Y79440387D01*
X44733680Y79440387D02*
X43953648Y80220419D01*
X42778680Y82306900D02*
X42893680Y82191900D01*
X41033680Y82306900D02*
X42778680Y82306900D01*
X41033680Y82306900D02*
X41033680Y82956900D01*
X42893680Y82191900D02*
X42893680Y81141000D01*
X42893680Y81141000D02*
X42892980Y81140300D01*
X31805880Y78934100D02*
X31763680Y78891900D01*
X31805880Y80124300D02*
X31805880Y78934100D01*
X27779980Y55196900D02*
X27779980Y79596715D01*
X29360480Y54591400D02*
X28385480Y54591400D01*
X28385480Y54591400D02*
X27779980Y55196900D01*
X27779980Y79596715D02*
X27779980Y80162400D01*
X27779980Y80162400D02*
X27779980Y91681300D01*
X27779980Y91681300D02*
X27754580Y91706700D01*
X33465880Y83606900D02*
X33328980Y83743800D01*
X35133680Y83606900D02*
X33465880Y83606900D01*
X35133680Y83606900D02*
X35133680Y82956900D01*
X5964680Y37797600D02*
X4641480Y36474400D01*
X5964680Y41106900D02*
X5964680Y37797600D01*
X17692880Y102695500D02*
X17696180Y102692200D01*
X16646580Y102695500D02*
X17692880Y102695500D01*
X21706480Y18507500D02*
X21056480Y18507500D01*
X19348156Y15824176D02*
X18795265Y15824176D01*
X18795265Y15824176D02*
X18229580Y15824176D01*
X21056480Y18507500D02*
X21056480Y17532500D01*
X21056480Y17532500D02*
X19348156Y15824176D01*
X1205230Y16370835D02*
X1205230Y15805150D01*
X706120Y16869945D02*
X1205230Y16370835D01*
X706120Y101450140D02*
X706120Y16869945D01*
X881380Y101625400D02*
X706120Y101450140D01*
X13006580Y105540500D02*
X13006580Y104890500D01*
X14331580Y104890500D02*
X14956580Y104265500D01*
X13006580Y104890500D02*
X14331580Y104890500D01*
X3676580Y101675500D02*
X3676580Y102680700D01*
X3676580Y102680700D02*
X3789680Y102793800D01*
X9548071Y104498640D02*
X9948070Y104898639D01*
X9299766Y104250335D02*
X9548071Y104498640D01*
X10256580Y91095500D02*
X9299766Y92052314D01*
X9299766Y92052314D02*
X9299766Y104250335D01*
X15626980Y7415000D02*
X15625180Y7416800D01*
X17200880Y7415000D02*
X15626980Y7415000D01*
X21056480Y12607500D02*
X20406480Y12607500D01*
X20406480Y11632500D02*
X20406480Y12607500D01*
X20406480Y11370600D02*
X20406480Y11632500D01*
X17200880Y8165000D02*
X20406480Y11370600D01*
X17200880Y7415000D02*
X17200880Y8165000D01*
X18593080Y52900100D02*
X18593080Y52250100D01*
X18593080Y52250100D02*
X18593080Y51452500D01*
X18593080Y51452500D02*
X18610580Y51435000D01*
X14114780Y56026800D02*
X14113080Y56025100D01*
X14114780Y57200800D02*
X14114780Y56026800D01*
X7100780Y106184700D02*
X7106580Y106190500D01*
X5126580Y106315500D02*
X5257380Y106184700D01*
X5257380Y106184700D02*
X7100780Y106184700D01*
X7106580Y106190500D02*
X7106580Y105540500D01*
X20401280Y91211400D02*
X20401280Y78549500D01*
X20401280Y78549500D02*
X20604480Y78346300D01*
X17039980Y77876400D02*
X17000880Y77915500D01*
X18026380Y77876400D02*
X17039980Y77876400D01*
X13220880Y81440500D02*
X13220880Y80790500D01*
X14275880Y80790500D02*
X15070880Y79995500D01*
X13220880Y80790500D02*
X14275880Y80790500D01*
X3590880Y77575500D02*
X3590880Y78735600D01*
X3590880Y78735600D02*
X3561080Y78765400D01*
X13220880Y80790500D02*
X12720880Y80790500D01*
X13203580Y81457800D02*
X13220880Y81440500D01*
X11803380Y81318100D02*
X11943080Y81457800D01*
X11943080Y81457800D02*
X13203580Y81457800D01*
X7716580Y91095500D02*
X7716580Y89799100D01*
X10267790Y87247890D02*
X10267790Y81883785D01*
X7716580Y89799100D02*
X10267790Y87247890D01*
X10267790Y81883785D02*
X10267790Y81318100D01*
X17618080Y53550100D02*
X18593080Y53550100D01*
X17150080Y53082100D02*
X17618080Y53550100D01*
X17150080Y48006000D02*
X17150080Y53082100D01*
X7320880Y81440500D02*
X7320880Y82090500D01*
X7225880Y82185500D02*
X7320880Y82090500D01*
X5460880Y82185500D02*
X7225880Y82185500D01*
X43544917Y36735963D02*
X43539780Y36741100D01*
X43544917Y32987757D02*
X43544917Y36735963D01*
X9554580Y32997420D02*
X9544917Y32987757D01*
X9554580Y36461700D02*
X9554580Y32997420D01*
X13991220Y84809700D02*
X13980160Y84820760D01*
X15067280Y84809700D02*
X13991220Y84809700D01*
X7406580Y102460500D02*
X7406580Y103374788D01*
X7406580Y103374788D02*
X7447280Y103415488D01*
X12806580Y102460500D02*
X12806580Y103402886D01*
X12806580Y103402886D02*
X12793980Y103415486D01*
X10024768Y94348912D02*
X10024768Y103415488D01*
X11574780Y92798900D02*
X10024768Y94348912D01*
X12005080Y87046000D02*
X11574780Y87476300D01*
X11574780Y87476300D02*
X11574780Y92798900D01*
X7520880Y78310500D02*
X7520880Y79212500D01*
X7520880Y79212500D02*
X7510780Y79222600D01*
X12971780Y78361400D02*
X12920880Y78310500D01*
X12971780Y79209900D02*
X12971780Y78361400D01*
X12470880Y78310500D02*
X12920880Y78310500D01*
X10697370Y79881477D02*
X10697370Y79315792D01*
X10992792Y81666102D02*
X10992792Y80176899D01*
X10992792Y80176899D02*
X10697370Y79881477D01*
X12005080Y82678390D02*
X10992792Y81666102D01*
X12005080Y87046000D02*
X12005080Y82678390D01*
X16553580Y87046000D02*
X17005080Y87046000D01*
X44163440Y103403400D02*
X44144465Y103403400D01*
X44471180Y103095660D02*
X44163440Y103403400D01*
X44144465Y103403400D02*
X43578780Y103403400D01*
X44471180Y102345660D02*
X44471180Y103095660D01*
X28183480Y18621800D02*
X27533480Y18621800D01*
X28186380Y18618900D02*
X28183480Y18621800D01*
X28414980Y17183100D02*
X28186380Y17411700D01*
X28186380Y17411700D02*
X28186380Y18618900D01*
X17255080Y20097200D02*
X17255080Y23841300D01*
X17255080Y23841300D02*
X17353280Y23939500D01*
X28183480Y19596800D02*
X28183480Y18621800D01*
X27983180Y23799800D02*
X28183480Y23599500D01*
X28183480Y23599500D02*
X28183480Y19596800D01*
X37220180Y23969900D02*
X37038280Y23788000D01*
X38862980Y23969900D02*
X37220180Y23969900D01*
X40213280Y21788120D02*
X39855060Y21429900D01*
X39855060Y21429900D02*
X38862980Y21429900D01*
X39718060Y23969900D02*
X40213280Y23474680D01*
X40213280Y23474680D02*
X40213280Y21788120D01*
X38862980Y23969900D02*
X39718060Y23969900D01*
X39312980Y25239900D02*
X38862980Y25239900D01*
X43122980Y21429900D02*
X39312980Y25239900D01*
X44262980Y21429900D02*
X43122980Y21429900D01*
X43355340Y18889900D02*
X44262980Y18889900D01*
X42783760Y19461480D02*
X43355340Y18889900D01*
X43187540Y21429900D02*
X42783760Y21026120D01*
X42783760Y21026120D02*
X42783760Y19461480D01*
X44262980Y21429900D02*
X43187540Y21429900D01*
X46271180Y23461800D02*
X46271180Y24434800D01*
X46271180Y24434800D02*
X46258480Y24447500D01*
X44293380Y17589500D02*
X44262980Y17619900D01*
X45388080Y17619900D02*
X46131480Y18363300D01*
X44262980Y17619900D02*
X45388080Y17619900D01*
X46131480Y18363300D02*
X46131480Y19304000D01*
X46131480Y19304000D02*
X46106080Y19329400D01*
X12382680Y22320800D02*
X12527280Y22465400D01*
X10705080Y22320800D02*
X12382680Y22320800D01*
X9072880Y22953000D02*
X9705080Y22320800D01*
X9072880Y24419560D02*
X9072880Y22953000D01*
X9514120Y24860800D02*
X9072880Y24419560D01*
X9705080Y22320800D02*
X10705080Y22320800D01*
X10705080Y24860800D02*
X9514120Y24860800D01*
X5755080Y24860800D02*
X5305080Y24860800D01*
X6455960Y24860800D02*
X5755080Y24860800D01*
X7020560Y25425400D02*
X6455960Y24860800D01*
X6305080Y27400800D02*
X7020560Y26685320D01*
X7020560Y26685320D02*
X7020560Y25425400D01*
X5305080Y27400800D02*
X6305080Y27400800D01*
X5755080Y24860800D02*
X6462480Y24860800D01*
X6462480Y24860800D02*
X10272480Y21050800D01*
X10272480Y21050800D02*
X10705080Y21050800D01*
X3819980Y28670800D02*
X3484880Y29005900D01*
X5305080Y28670800D02*
X3819980Y28670800D01*
X3611880Y29132900D02*
X3484880Y29005900D01*
X3611880Y30226000D02*
X3611880Y29132900D01*
X3307080Y22867800D02*
X3307080Y21958300D01*
X3307080Y21958300D02*
X3319780Y21945600D01*
X42476180Y100480660D02*
X42761180Y100765660D01*
X40451180Y100480660D02*
X42476180Y100480660D01*
X42771180Y100775660D02*
X42761180Y100765660D01*
X42771180Y102345660D02*
X42771180Y100775660D01*
X31273380Y106895900D02*
X30027880Y106895900D01*
X30027880Y106895900D02*
X29964380Y106832400D01*
X41684740Y99210660D02*
X41689740Y99215660D01*
X40451180Y99210660D02*
X41684740Y99210660D01*
X42761180Y99215660D02*
X41689740Y99215660D01*
X38530581Y97770899D02*
X38930580Y97370900D01*
X38384480Y97917000D02*
X38530581Y97770899D01*
X38384480Y103714696D02*
X38384480Y97917000D01*
X38543179Y103873395D02*
X38384480Y103714696D01*
X38143180Y107073700D02*
X38543179Y106673701D01*
X38543179Y106673701D02*
X38543179Y103873395D01*
X44517680Y104321274D02*
X44505167Y104308761D01*
X44517680Y105359200D02*
X44517680Y104321274D01*
X33276180Y99210660D02*
X33001180Y99485660D01*
X35051180Y99210660D02*
X33276180Y99210660D01*
X32991180Y101025660D02*
X33001180Y101015660D01*
X32991180Y102565660D02*
X32991180Y101025660D01*
X33536180Y100480660D02*
X33001180Y101015660D01*
X35051180Y100480660D02*
X33536180Y100480660D01*
X42658680Y77326900D02*
X43033680Y77701900D01*
X40793680Y77326900D02*
X42658680Y77326900D01*
X43033680Y79291900D02*
X43033680Y77701900D01*
X40793680Y76056900D02*
X41943880Y76056900D01*
X42873680Y76061900D02*
X41948880Y76061900D01*
X41948880Y76061900D02*
X41943880Y76056900D01*
X31514680Y83858100D02*
X31628980Y83743800D01*
X30485080Y83858100D02*
X31514680Y83858100D01*
X44632880Y82152700D02*
X44593680Y82191900D01*
X44632880Y81076800D02*
X44632880Y82152700D01*
X38994080Y74853800D02*
X38499890Y75347990D01*
X38499890Y83292415D02*
X38499890Y83858100D01*
X38499890Y75347990D02*
X38499890Y83292415D01*
X35282780Y75946000D02*
X35393680Y76056900D01*
X33453680Y75731900D02*
X33667780Y75946000D01*
X33667780Y75946000D02*
X35282780Y75946000D01*
X33463680Y77341900D02*
X33473680Y77331900D01*
X33463680Y78891900D02*
X33463680Y77341900D01*
X35388680Y77331900D02*
X35393680Y77326900D01*
X33473680Y77331900D02*
X35388680Y77331900D01*
X14996580Y100255500D02*
X14996580Y101005500D01*
X14661580Y99920500D02*
X14996580Y100255500D01*
X12806580Y99920500D02*
X14661580Y99920500D01*
X14996580Y102645500D02*
X14946580Y102695500D01*
X14996580Y101005500D02*
X14996580Y102645500D01*
X3426580Y106315500D02*
X2218680Y106315500D01*
X2218680Y106315500D02*
X2176780Y106273600D01*
X16527780Y104394300D02*
X16656580Y104265500D01*
X16527780Y105156000D02*
X16527780Y104394300D01*
X14931580Y98650500D02*
X15006580Y98725500D01*
X12806580Y98650500D02*
X14931580Y98650500D01*
X12806580Y98650500D02*
X13825780Y98650500D01*
X13825780Y98650500D02*
X13975080Y98501200D01*
X10673080Y106273600D02*
X10673080Y105707915D01*
X10673080Y105707915D02*
X10787878Y105593117D01*
X10787878Y105593117D02*
X10787878Y98501200D01*
X7371580Y98615500D02*
X7406580Y98650500D01*
X5386580Y98615500D02*
X7371580Y98615500D01*
X5376580Y100115500D02*
X5366580Y100105500D01*
X5376580Y101675500D02*
X5376580Y100115500D01*
X7403480Y99923600D02*
X7406580Y99920500D01*
X5366580Y100105500D02*
X5548480Y99923600D01*
X5548480Y99923600D02*
X7403480Y99923600D01*
X14715880Y75770500D02*
X15240880Y76295500D01*
X12920880Y75770500D02*
X14715880Y75770500D01*
X15240880Y77855500D02*
X15300880Y77915500D01*
X15240880Y76295500D02*
X15240880Y77855500D01*
X16770880Y79995500D02*
X17732480Y79995500D01*
X17732480Y79995500D02*
X17734280Y79997300D01*
X12470880Y74500500D02*
X12920880Y74500500D01*
X13939280Y74500500D02*
X14054280Y74615500D01*
X12920880Y74500500D02*
X13939280Y74500500D01*
X15190880Y74615500D02*
X14054280Y74615500D01*
X3903980Y82328600D02*
X3760880Y82185500D01*
X3903980Y83299300D02*
X3903980Y82328600D01*
X9669780Y80249380D02*
X9543890Y80375270D01*
X9669780Y74523600D02*
X9669780Y80249380D01*
X9543890Y80375270D02*
X9543890Y80940955D01*
X9543890Y80940955D02*
X9542780Y80942065D01*
X9542780Y80942065D02*
X9542780Y83299300D01*
X5365880Y74500500D02*
X5300880Y74435500D01*
X7520880Y74500500D02*
X5365880Y74500500D01*
X5290880Y76025500D02*
X5310880Y76005500D01*
X5290880Y77575500D02*
X5290880Y76025500D01*
X7497780Y75793600D02*
X7520880Y75770500D01*
X5310880Y76005500D02*
X5522780Y75793600D01*
X5522780Y75793600D02*
X7497780Y75793600D01*
X38525080Y28448000D02*
X38525080Y26949400D01*
X37775080Y26949400D02*
X38525080Y26949400D01*
X37749680Y26949400D02*
X37775080Y26949400D01*
X37038280Y26238000D02*
X37387630Y26587350D01*
X37038280Y25488000D02*
X37038280Y26238000D01*
X37387630Y26587350D02*
X37749680Y26949400D01*
X34688780Y26492200D02*
X34688780Y15824200D01*
X34688780Y15824200D02*
X33939480Y15074900D01*
X26233480Y13696800D02*
X26233480Y12721800D01*
X27611580Y15074900D02*
X26233480Y13696800D01*
X33939480Y15074900D02*
X27611580Y15074900D01*
X12527280Y19317600D02*
X12399380Y19189700D01*
X12527280Y20765400D02*
X12527280Y19317600D01*
X12399380Y17678400D02*
X12386680Y17665700D01*
X12399380Y19189700D02*
X12399380Y17678400D01*
X12386680Y16915700D02*
X14176680Y15125700D01*
X12386680Y17665700D02*
X12386680Y16915700D01*
X19756480Y13107500D02*
X19756480Y12607500D01*
X17738280Y15125700D02*
X19756480Y13107500D01*
X14176680Y15125700D02*
X17738280Y15125700D01*
X42522880Y6846200D02*
X42550080Y6819000D01*
X40975280Y6846200D02*
X42522880Y6846200D01*
X6902980Y6488800D02*
X7015480Y6376300D01*
X5427980Y6488800D02*
X6902980Y6488800D01*
M02*
