M48
; DRILL file {KiCad (5.1.2-1)-1} date Friday, August 30, 2019 at 11:49:56 AM
; FORMAT={2:4/ absolute / inch / suppress leading zeros}
; #@! TF.CreationDate,2019-08-30T11:49:56-07:00
; #@! TF.GenerationSoftware,Kicad,Pcbnew,(5.1.2-1)-1
FMAT,2
INCH,TZ
T1C0.0157
T2C0.0350
T3C0.0394
T4C0.0400
T5C0.0450
T6C0.0472
T7C0.0810
%
G90
G05
T1
X347Y40010
X475Y6223
X647Y39155
X857Y41840
X877Y29530
X942Y10725
X946Y39614
X972Y6645
X988Y30061
X1307Y8640
X1402Y31010
X1422Y11900
X1442Y18475
X1492Y40470
X1537Y32795
X2052Y15355
X2872Y7545
X2932Y40715
X2957Y31190
X3102Y14895
X3147Y15645
X3675Y20611
X3687Y21895
X3757Y32795
X3757Y31644
X3807Y29340
X3917Y41299
X3947Y40715
X4042Y32015
X4202Y41840
X4212Y31227
X4247Y38780
X4647Y32015
X4782Y4785
X4917Y19415
X5037Y40715
X5107Y31185
X5472Y11350
X5502Y38780
X5504Y33394
X5533Y29376
X5557Y22520
X5570Y41299
X5977Y7995
X6295Y21339
X6507Y41400
X6573Y39366
X6752Y18900
X6832Y9425
X6967Y40430
X6982Y31495
X7097Y30660
X7117Y30055
X7177Y6230
X7192Y26365
X7327Y20250
X7352Y25660
X7407Y39735
X7732Y30375
X7782Y9085
X7862Y22035
X7977Y3595
X7982Y5765
X8032Y35910
X8112Y30845
X8157Y8200
X8972Y19445
X8977Y30430
X8977Y27035
X8977Y23110
X8982Y39730
X9025Y11858
X9152Y10165
X9152Y4265
X9322Y39425
X9322Y30080
X9322Y26445
X9322Y21345
X9457Y11850
X9462Y10590
X9667Y39005
X9667Y29675
X9767Y8030
X9864Y20552
X9872Y25190
X9872Y22090
X10017Y15855
X10282Y6215
X10292Y9140
X10582Y3990
X10927Y36105
X10937Y31560
X11017Y20500
X11017Y9370
X11187Y6765
X11447Y39015
X11477Y14870
X11627Y3620
X11697Y29680
X11797Y42060
X11885Y39913
X12002Y33015
X12076Y30584
X12267Y26445
X12327Y40730
X12522Y31545
X12557Y8845
X12567Y21480
X12727Y20500
X12957Y25260
X13657Y10430
X13787Y40931
X13937Y31730
X13957Y23180
X14017Y6830
X14092Y7540
X14504Y41498
X14627Y26115
X14717Y4800
X14720Y10467
X14735Y25737
X14790Y40931
X14872Y31730
X15017Y42155
X15042Y26788
X15157Y33015
X15227Y21240
X15327Y38335
X15352Y29470
X15492Y25925
X15857Y14950
X15862Y11715
X15952Y40931
X16057Y31745
X16214Y9937
X16413Y39061
X16486Y41498
X16513Y29944
X16582Y15910
X16587Y6485
X16667Y10555
X16692Y27220
X16887Y31945
X16952Y9415
X17157Y40710
X17305Y31583
X17500Y34788
X17522Y41066
X17572Y31920
X17937Y39915
X18062Y30570
X18152Y7610
X18212Y9625
X18262Y40265
X18273Y31148
T2
X15144Y12987
X16144Y12987
X17144Y12987
X6793Y5242
X16754Y5223
X1758Y12987
X2758Y12987
X3758Y12987
X12108Y6962
X2148Y5223
X16931Y22260
X16931Y21260
X16931Y20260
X1971Y22260
X1971Y21260
X1971Y20260
X6793Y6962
X12108Y5223
T3
X6991Y17556
X6991Y16556
X6991Y15556
X6991Y14556
X6991Y13556
X7991Y17556
X7991Y16556
X7991Y15556
X7991Y14556
X7991Y13556
T4
X13780Y36109
X14780Y36109
X15780Y36109
X3038Y35864
X4038Y35864
X5038Y35864
T5
X12108Y4273
X12108Y903
X6793Y4292
X6793Y922
X16754Y4273
X16754Y903
X12108Y11282
X12108Y7912
X2148Y4273
X2148Y903
X6793Y11282
X6793Y7912
T6
X12207Y24428
X16144Y24428
X4726Y24428
X6695Y24428
X2758Y34270
X4726Y34270
X6695Y34270
X12207Y34270
X14175Y34270
X16144Y34270
X14175Y24428
X2758Y24428
T7
X14414Y15747
X17874Y15747
X1028Y15747
X4488Y15747
T0
M30
