G04 #@! TF.GenerationSoftware,KiCad,Pcbnew,(5.1.2-1)-1*
G04 #@! TF.CreationDate,2019-08-30T11:49:53-07:00*
G04 #@! TF.ProjectId,dualdrum,6475616c-6472-4756-9d2e-6b696361645f,rev?*
G04 #@! TF.SameCoordinates,Original*
G04 #@! TF.FileFunction,Legend,Top*
G04 #@! TF.FilePolarity,Positive*
%FSLAX46Y46*%
G04 Gerber Fmt 4.6, Leading zero omitted, Abs format (unit mm)*
G04 Created by KiCad (PCBNEW (5.1.2-1)-1) date 2019-08-30 11:49:53*
%MOMM*%
%LPD*%
G04 APERTURE LIST*
%ADD10C,0.250000*%
%ADD11C,0.500000*%
%ADD12C,0.150000*%
%ADD13C,0.010000*%
%ADD14C,0.127000*%
%ADD15C,1.000000*%
%ADD16C,0.120000*%
%ADD17C,0.100000*%
%ADD18C,0.152400*%
%ADD19C,0.200000*%
%ADD20R,1.450000X0.450000*%
%ADD21R,1.000000X1.000000*%
%ADD22R,0.450000X1.450000*%
%ADD23R,1.200000X1.200000*%
%ADD24R,1.600000X1.500000*%
%ADD25O,1.700000X1.700000*%
%ADD26R,1.500000X0.600000*%
%ADD27R,1.200000X0.900000*%
%ADD28R,0.500000X0.500000*%
%ADD29R,1.600000X3.000000*%
%ADD30R,1.300000X0.700000*%
%ADD31O,1.727200X2.032000*%
%ADD32C,1.651000*%
%ADD33C,1.803400*%
%ADD34C,2.667000*%
%ADD35C,2.540000*%
%ADD36C,1.930400*%
G04 APERTURE END LIST*
D10*
X10272787Y2271685D02*
X10147787Y1271685D01*
X10266834Y2224066D02*
X10368025Y2271685D01*
X10558501Y2271685D01*
X10647787Y2224066D01*
X10689453Y2176447D01*
X10725167Y2081209D01*
X10689453Y1795495D01*
X10629929Y1700257D01*
X10576358Y1652638D01*
X10475167Y1605019D01*
X10284691Y1605019D01*
X10195406Y1652638D01*
X11618025Y1605019D02*
X11046596Y1605019D01*
X11332310Y1605019D02*
X11457310Y2605019D01*
X11344215Y2462161D01*
X11237072Y2366923D01*
X11135882Y2319304D01*
D11*
X9500303Y3438638D02*
X9750303Y5438638D01*
X10226494Y5438638D01*
X10500303Y5343400D01*
X10666970Y5152923D01*
X10738398Y4962447D01*
X10786017Y4581495D01*
X10750303Y4295780D01*
X10607446Y3914828D01*
X10488398Y3724352D01*
X10274113Y3533876D01*
X9976494Y3438638D01*
X9500303Y3438638D01*
X11750303Y5438638D02*
X11547922Y3819590D01*
X11619351Y3629114D01*
X11702684Y3533876D01*
X11881255Y3438638D01*
X12262208Y3438638D01*
X12464589Y3533876D01*
X12571732Y3629114D01*
X12690779Y3819590D01*
X12893160Y5438638D01*
X13571732Y4010066D02*
X14524113Y4010066D01*
X13309827Y3438638D02*
X14226494Y5438638D01*
X14643160Y3438638D01*
X16262208Y3438638D02*
X15309827Y3438638D01*
X15559827Y5438638D01*
X18452684Y3438638D02*
X18702684Y5438638D01*
X19178875Y5438638D01*
X19452684Y5343400D01*
X19619351Y5152923D01*
X19690779Y4962447D01*
X19738398Y4581495D01*
X19702684Y4295780D01*
X19559827Y3914828D01*
X19440779Y3724352D01*
X19226494Y3533876D01*
X18928875Y3438638D01*
X18452684Y3438638D01*
X21595541Y3438638D02*
X21047922Y4391019D01*
X20452684Y3438638D02*
X20702684Y5438638D01*
X21464589Y5438638D01*
X21643160Y5343400D01*
X21726494Y5248161D01*
X21797922Y5057685D01*
X21762208Y4771971D01*
X21643160Y4581495D01*
X21536017Y4486257D01*
X21333636Y4391019D01*
X20571732Y4391019D01*
X22702684Y5438638D02*
X22500303Y3819590D01*
X22571732Y3629114D01*
X22655065Y3533876D01*
X22833636Y3438638D01*
X23214589Y3438638D01*
X23416970Y3533876D01*
X23524113Y3629114D01*
X23643160Y3819590D01*
X23845541Y5438638D01*
X24547922Y3438638D02*
X24797922Y5438638D01*
X25286017Y4010066D01*
X26131255Y5438638D01*
X25881255Y3438638D01*
D12*
X6202680Y89590880D02*
X11567160Y89590880D01*
X11582400Y92577920D02*
X6202680Y92577920D01*
X6202680Y92522040D02*
X6202680Y89590880D01*
X11567160Y89590880D02*
X11582400Y92577920D01*
X38770560Y93223080D02*
X33390840Y93223080D01*
X38755320Y90236040D02*
X38770560Y93223080D01*
X33390840Y90236040D02*
X38755320Y90236040D01*
X33390840Y93167200D02*
X33390840Y90236040D01*
D13*
G36*
X19461437Y93852047D02*
G01*
X19604552Y93793415D01*
X19729971Y93706154D01*
X19837117Y93590855D01*
X19925418Y93448110D01*
X19980907Y93317906D01*
X20020280Y93207840D01*
X20028746Y91767900D01*
X20037213Y90327960D01*
X21307213Y91943402D01*
X21469691Y92149849D01*
X21627231Y92349585D01*
X21778476Y92540912D01*
X21922067Y92722129D01*
X22056646Y92891536D01*
X22180856Y93047434D01*
X22293336Y93188123D01*
X22392731Y93311903D01*
X22477681Y93417076D01*
X22546827Y93501940D01*
X22598813Y93564797D01*
X22632279Y93603947D01*
X22644315Y93616649D01*
X22699148Y93657704D01*
X22766229Y93699672D01*
X22805182Y93720548D01*
X22851949Y93741823D01*
X22894336Y93755369D01*
X22942354Y93762884D01*
X23006012Y93766069D01*
X23076746Y93766640D01*
X23161336Y93765673D01*
X23222361Y93761631D01*
X23270099Y93752805D01*
X23314825Y93737486D01*
X23352442Y93720768D01*
X23476695Y93644538D01*
X23588072Y93540125D01*
X23682955Y93411924D01*
X23757728Y93264329D01*
X23781684Y93199373D01*
X23787307Y93180526D01*
X23792243Y93158608D01*
X23796557Y93131296D01*
X23800310Y93096271D01*
X23803566Y93051211D01*
X23806388Y92993795D01*
X23808840Y92921704D01*
X23810985Y92832615D01*
X23812886Y92724208D01*
X23814606Y92594162D01*
X23816208Y92440156D01*
X23817756Y92259869D01*
X23819313Y92050981D01*
X23820941Y91811170D01*
X23821399Y91741234D01*
X23830280Y90376228D01*
X25108747Y92001408D01*
X25271813Y92208449D01*
X25429967Y92408766D01*
X25581850Y92600667D01*
X25726109Y92782460D01*
X25861386Y92952451D01*
X25986327Y93108949D01*
X26099574Y93250260D01*
X26199773Y93374691D01*
X26285567Y93480551D01*
X26355602Y93566147D01*
X26408519Y93629786D01*
X26442965Y93669775D01*
X26456130Y93683454D01*
X26510871Y93722647D01*
X26579049Y93763507D01*
X26625463Y93787347D01*
X26676934Y93809653D01*
X26722732Y93823552D01*
X26773781Y93830926D01*
X26841005Y93833657D01*
X26895213Y93833847D01*
X26977435Y93832560D01*
X27036737Y93827971D01*
X27084039Y93818083D01*
X27130262Y93800896D01*
X27166147Y93784263D01*
X27272702Y93718023D01*
X27374974Y93627537D01*
X27463880Y93522080D01*
X27529213Y93413312D01*
X27542782Y93385060D01*
X27555114Y93358821D01*
X27566265Y93332933D01*
X27576290Y93305732D01*
X27585247Y93275555D01*
X27593190Y93240739D01*
X27600177Y93199621D01*
X27606264Y93150537D01*
X27611507Y93091824D01*
X27615961Y93021820D01*
X27619684Y92938862D01*
X27622730Y92841285D01*
X27625158Y92727427D01*
X27627021Y92595625D01*
X27628378Y92444215D01*
X27629284Y92271535D01*
X27629795Y92075922D01*
X27629967Y91855711D01*
X27629857Y91609241D01*
X27629520Y91334848D01*
X27629014Y91030868D01*
X27628393Y90695639D01*
X27628007Y90488551D01*
X27623347Y87958506D01*
X27578396Y87835507D01*
X27503343Y87672384D01*
X27407046Y87535424D01*
X27289693Y87424846D01*
X27160935Y87345443D01*
X27111890Y87323133D01*
X27068035Y87309133D01*
X27018773Y87301560D01*
X26953503Y87298532D01*
X26894335Y87298110D01*
X26814523Y87298833D01*
X26757145Y87302631D01*
X26710775Y87311937D01*
X26663987Y87329187D01*
X26605355Y87356816D01*
X26595096Y87361875D01*
X26462467Y87445188D01*
X26352859Y87553007D01*
X26265222Y87686384D01*
X26258476Y87699481D01*
X26241136Y87733795D01*
X26225929Y87765199D01*
X26212713Y87796046D01*
X26201348Y87828692D01*
X26191693Y87865493D01*
X26183608Y87908805D01*
X26176953Y87960982D01*
X26171585Y88024381D01*
X26167365Y88101356D01*
X26164151Y88194263D01*
X26161804Y88305458D01*
X26160183Y88437295D01*
X26159146Y88592131D01*
X26158553Y88772321D01*
X26158263Y88980220D01*
X26158136Y89218184D01*
X26158078Y89380231D01*
X26157543Y90769440D01*
X26117431Y90723889D01*
X26101896Y90704833D01*
X26066805Y90660860D01*
X26013515Y90593689D01*
X25943381Y90505042D01*
X25857761Y90396639D01*
X25758010Y90270201D01*
X25645487Y90127449D01*
X25521546Y89970102D01*
X25387545Y89799883D01*
X25244841Y89618511D01*
X25094789Y89427707D01*
X24938747Y89229192D01*
X24862498Y89132156D01*
X24703111Y88929467D01*
X24548350Y88733000D01*
X24399639Y88544543D01*
X24258398Y88365883D01*
X24126051Y88198808D01*
X24004018Y88045106D01*
X23893723Y87906565D01*
X23796587Y87784972D01*
X23714033Y87682115D01*
X23647482Y87599782D01*
X23598356Y87539761D01*
X23568078Y87503839D01*
X23561178Y87496216D01*
X23483982Y87428235D01*
X23395679Y87368772D01*
X23364969Y87352283D01*
X23311086Y87327023D01*
X23266214Y87311107D01*
X23219361Y87302404D01*
X23159536Y87298783D01*
X23085569Y87298107D01*
X23004251Y87299025D01*
X22945460Y87303227D01*
X22897879Y87312884D01*
X22850186Y87330165D01*
X22800478Y87352766D01*
X22673646Y87431015D01*
X22562447Y87536233D01*
X22470604Y87663683D01*
X22401844Y87808629D01*
X22375439Y87893217D01*
X22370480Y87915768D01*
X22366159Y87943904D01*
X22362435Y87979933D01*
X22359263Y88026163D01*
X22356603Y88084900D01*
X22354412Y88158452D01*
X22352646Y88249128D01*
X22351264Y88359235D01*
X22350223Y88491080D01*
X22349480Y88646971D01*
X22348993Y88829216D01*
X22348720Y89040121D01*
X22348617Y89281996D01*
X22348613Y89349099D01*
X22348613Y90700937D01*
X22308794Y90658988D01*
X22293357Y90640462D01*
X22258355Y90596987D01*
X22205128Y90530260D01*
X22135016Y90441977D01*
X22049359Y90333835D01*
X21949496Y90207529D01*
X21836767Y90064758D01*
X21712512Y89907216D01*
X21578070Y89736600D01*
X21434782Y89554607D01*
X21283987Y89362933D01*
X21127025Y89163274D01*
X21027984Y89037220D01*
X20867355Y88833003D01*
X20711597Y88635498D01*
X20562086Y88446427D01*
X20420205Y88267513D01*
X20287330Y88100477D01*
X20164844Y87947043D01*
X20054123Y87808932D01*
X19956549Y87687868D01*
X19873501Y87585571D01*
X19806358Y87503765D01*
X19756499Y87444173D01*
X19725305Y87408515D01*
X19716187Y87399380D01*
X19602532Y87325086D01*
X19474137Y87273103D01*
X19339361Y87245351D01*
X19206562Y87243748D01*
X19113150Y87260901D01*
X18976276Y87317025D01*
X18852900Y87402746D01*
X18745403Y87515672D01*
X18656168Y87653410D01*
X18601322Y87775077D01*
X18594792Y87792780D01*
X18589059Y87810589D01*
X18584056Y87830750D01*
X18579719Y87855509D01*
X18575980Y87887110D01*
X18572776Y87927799D01*
X18570038Y87979821D01*
X18567703Y88045421D01*
X18565704Y88126845D01*
X18563976Y88226337D01*
X18562452Y88346144D01*
X18561067Y88488511D01*
X18559756Y88655681D01*
X18558452Y88849902D01*
X18557089Y89073419D01*
X18555603Y89328475D01*
X18555547Y89338217D01*
X18547080Y90802593D01*
X17901320Y89981683D01*
X17744264Y89782683D01*
X17607066Y89610258D01*
X17489288Y89463874D01*
X17390489Y89342998D01*
X17310228Y89247095D01*
X17248064Y89175633D01*
X17203559Y89128078D01*
X17177783Y89104948D01*
X17085633Y89044460D01*
X17003048Y89005452D01*
X16917402Y88983820D01*
X16816066Y88975463D01*
X16777547Y88974920D01*
X16697972Y88975787D01*
X16640141Y88980461D01*
X16591961Y88991323D01*
X16541339Y89010754D01*
X16500735Y89029420D01*
X16371719Y89108501D01*
X16261950Y89211914D01*
X16172650Y89335318D01*
X16105044Y89474372D01*
X16060354Y89624734D01*
X16039805Y89782063D01*
X16044621Y89942018D01*
X16076024Y90100258D01*
X16135240Y90252442D01*
X16148685Y90278373D01*
X16165192Y90302896D01*
X16201161Y90351956D01*
X16255020Y90423551D01*
X16325196Y90515675D01*
X16410118Y90626325D01*
X16508213Y90753495D01*
X16617909Y90895183D01*
X16737634Y91049382D01*
X16865816Y91214090D01*
X17000883Y91387301D01*
X17141261Y91567012D01*
X17285380Y91751217D01*
X17431667Y91937914D01*
X17578550Y92125096D01*
X17724456Y92310761D01*
X17867814Y92492904D01*
X18007051Y92669520D01*
X18140594Y92838605D01*
X18266873Y92998154D01*
X18384314Y93146165D01*
X18491346Y93280631D01*
X18586396Y93399549D01*
X18667891Y93500915D01*
X18734261Y93582723D01*
X18783932Y93642971D01*
X18815333Y93679653D01*
X18823368Y93688217D01*
X18933629Y93773710D01*
X19060694Y93834357D01*
X19197455Y93868334D01*
X19336803Y93873816D01*
X19461437Y93852047D01*
X19461437Y93852047D01*
G37*
X19461437Y93852047D02*
X19604552Y93793415D01*
X19729971Y93706154D01*
X19837117Y93590855D01*
X19925418Y93448110D01*
X19980907Y93317906D01*
X20020280Y93207840D01*
X20028746Y91767900D01*
X20037213Y90327960D01*
X21307213Y91943402D01*
X21469691Y92149849D01*
X21627231Y92349585D01*
X21778476Y92540912D01*
X21922067Y92722129D01*
X22056646Y92891536D01*
X22180856Y93047434D01*
X22293336Y93188123D01*
X22392731Y93311903D01*
X22477681Y93417076D01*
X22546827Y93501940D01*
X22598813Y93564797D01*
X22632279Y93603947D01*
X22644315Y93616649D01*
X22699148Y93657704D01*
X22766229Y93699672D01*
X22805182Y93720548D01*
X22851949Y93741823D01*
X22894336Y93755369D01*
X22942354Y93762884D01*
X23006012Y93766069D01*
X23076746Y93766640D01*
X23161336Y93765673D01*
X23222361Y93761631D01*
X23270099Y93752805D01*
X23314825Y93737486D01*
X23352442Y93720768D01*
X23476695Y93644538D01*
X23588072Y93540125D01*
X23682955Y93411924D01*
X23757728Y93264329D01*
X23781684Y93199373D01*
X23787307Y93180526D01*
X23792243Y93158608D01*
X23796557Y93131296D01*
X23800310Y93096271D01*
X23803566Y93051211D01*
X23806388Y92993795D01*
X23808840Y92921704D01*
X23810985Y92832615D01*
X23812886Y92724208D01*
X23814606Y92594162D01*
X23816208Y92440156D01*
X23817756Y92259869D01*
X23819313Y92050981D01*
X23820941Y91811170D01*
X23821399Y91741234D01*
X23830280Y90376228D01*
X25108747Y92001408D01*
X25271813Y92208449D01*
X25429967Y92408766D01*
X25581850Y92600667D01*
X25726109Y92782460D01*
X25861386Y92952451D01*
X25986327Y93108949D01*
X26099574Y93250260D01*
X26199773Y93374691D01*
X26285567Y93480551D01*
X26355602Y93566147D01*
X26408519Y93629786D01*
X26442965Y93669775D01*
X26456130Y93683454D01*
X26510871Y93722647D01*
X26579049Y93763507D01*
X26625463Y93787347D01*
X26676934Y93809653D01*
X26722732Y93823552D01*
X26773781Y93830926D01*
X26841005Y93833657D01*
X26895213Y93833847D01*
X26977435Y93832560D01*
X27036737Y93827971D01*
X27084039Y93818083D01*
X27130262Y93800896D01*
X27166147Y93784263D01*
X27272702Y93718023D01*
X27374974Y93627537D01*
X27463880Y93522080D01*
X27529213Y93413312D01*
X27542782Y93385060D01*
X27555114Y93358821D01*
X27566265Y93332933D01*
X27576290Y93305732D01*
X27585247Y93275555D01*
X27593190Y93240739D01*
X27600177Y93199621D01*
X27606264Y93150537D01*
X27611507Y93091824D01*
X27615961Y93021820D01*
X27619684Y92938862D01*
X27622730Y92841285D01*
X27625158Y92727427D01*
X27627021Y92595625D01*
X27628378Y92444215D01*
X27629284Y92271535D01*
X27629795Y92075922D01*
X27629967Y91855711D01*
X27629857Y91609241D01*
X27629520Y91334848D01*
X27629014Y91030868D01*
X27628393Y90695639D01*
X27628007Y90488551D01*
X27623347Y87958506D01*
X27578396Y87835507D01*
X27503343Y87672384D01*
X27407046Y87535424D01*
X27289693Y87424846D01*
X27160935Y87345443D01*
X27111890Y87323133D01*
X27068035Y87309133D01*
X27018773Y87301560D01*
X26953503Y87298532D01*
X26894335Y87298110D01*
X26814523Y87298833D01*
X26757145Y87302631D01*
X26710775Y87311937D01*
X26663987Y87329187D01*
X26605355Y87356816D01*
X26595096Y87361875D01*
X26462467Y87445188D01*
X26352859Y87553007D01*
X26265222Y87686384D01*
X26258476Y87699481D01*
X26241136Y87733795D01*
X26225929Y87765199D01*
X26212713Y87796046D01*
X26201348Y87828692D01*
X26191693Y87865493D01*
X26183608Y87908805D01*
X26176953Y87960982D01*
X26171585Y88024381D01*
X26167365Y88101356D01*
X26164151Y88194263D01*
X26161804Y88305458D01*
X26160183Y88437295D01*
X26159146Y88592131D01*
X26158553Y88772321D01*
X26158263Y88980220D01*
X26158136Y89218184D01*
X26158078Y89380231D01*
X26157543Y90769440D01*
X26117431Y90723889D01*
X26101896Y90704833D01*
X26066805Y90660860D01*
X26013515Y90593689D01*
X25943381Y90505042D01*
X25857761Y90396639D01*
X25758010Y90270201D01*
X25645487Y90127449D01*
X25521546Y89970102D01*
X25387545Y89799883D01*
X25244841Y89618511D01*
X25094789Y89427707D01*
X24938747Y89229192D01*
X24862498Y89132156D01*
X24703111Y88929467D01*
X24548350Y88733000D01*
X24399639Y88544543D01*
X24258398Y88365883D01*
X24126051Y88198808D01*
X24004018Y88045106D01*
X23893723Y87906565D01*
X23796587Y87784972D01*
X23714033Y87682115D01*
X23647482Y87599782D01*
X23598356Y87539761D01*
X23568078Y87503839D01*
X23561178Y87496216D01*
X23483982Y87428235D01*
X23395679Y87368772D01*
X23364969Y87352283D01*
X23311086Y87327023D01*
X23266214Y87311107D01*
X23219361Y87302404D01*
X23159536Y87298783D01*
X23085569Y87298107D01*
X23004251Y87299025D01*
X22945460Y87303227D01*
X22897879Y87312884D01*
X22850186Y87330165D01*
X22800478Y87352766D01*
X22673646Y87431015D01*
X22562447Y87536233D01*
X22470604Y87663683D01*
X22401844Y87808629D01*
X22375439Y87893217D01*
X22370480Y87915768D01*
X22366159Y87943904D01*
X22362435Y87979933D01*
X22359263Y88026163D01*
X22356603Y88084900D01*
X22354412Y88158452D01*
X22352646Y88249128D01*
X22351264Y88359235D01*
X22350223Y88491080D01*
X22349480Y88646971D01*
X22348993Y88829216D01*
X22348720Y89040121D01*
X22348617Y89281996D01*
X22348613Y89349099D01*
X22348613Y90700937D01*
X22308794Y90658988D01*
X22293357Y90640462D01*
X22258355Y90596987D01*
X22205128Y90530260D01*
X22135016Y90441977D01*
X22049359Y90333835D01*
X21949496Y90207529D01*
X21836767Y90064758D01*
X21712512Y89907216D01*
X21578070Y89736600D01*
X21434782Y89554607D01*
X21283987Y89362933D01*
X21127025Y89163274D01*
X21027984Y89037220D01*
X20867355Y88833003D01*
X20711597Y88635498D01*
X20562086Y88446427D01*
X20420205Y88267513D01*
X20287330Y88100477D01*
X20164844Y87947043D01*
X20054123Y87808932D01*
X19956549Y87687868D01*
X19873501Y87585571D01*
X19806358Y87503765D01*
X19756499Y87444173D01*
X19725305Y87408515D01*
X19716187Y87399380D01*
X19602532Y87325086D01*
X19474137Y87273103D01*
X19339361Y87245351D01*
X19206562Y87243748D01*
X19113150Y87260901D01*
X18976276Y87317025D01*
X18852900Y87402746D01*
X18745403Y87515672D01*
X18656168Y87653410D01*
X18601322Y87775077D01*
X18594792Y87792780D01*
X18589059Y87810589D01*
X18584056Y87830750D01*
X18579719Y87855509D01*
X18575980Y87887110D01*
X18572776Y87927799D01*
X18570038Y87979821D01*
X18567703Y88045421D01*
X18565704Y88126845D01*
X18563976Y88226337D01*
X18562452Y88346144D01*
X18561067Y88488511D01*
X18559756Y88655681D01*
X18558452Y88849902D01*
X18557089Y89073419D01*
X18555603Y89328475D01*
X18555547Y89338217D01*
X18547080Y90802593D01*
X17901320Y89981683D01*
X17744264Y89782683D01*
X17607066Y89610258D01*
X17489288Y89463874D01*
X17390489Y89342998D01*
X17310228Y89247095D01*
X17248064Y89175633D01*
X17203559Y89128078D01*
X17177783Y89104948D01*
X17085633Y89044460D01*
X17003048Y89005452D01*
X16917402Y88983820D01*
X16816066Y88975463D01*
X16777547Y88974920D01*
X16697972Y88975787D01*
X16640141Y88980461D01*
X16591961Y88991323D01*
X16541339Y89010754D01*
X16500735Y89029420D01*
X16371719Y89108501D01*
X16261950Y89211914D01*
X16172650Y89335318D01*
X16105044Y89474372D01*
X16060354Y89624734D01*
X16039805Y89782063D01*
X16044621Y89942018D01*
X16076024Y90100258D01*
X16135240Y90252442D01*
X16148685Y90278373D01*
X16165192Y90302896D01*
X16201161Y90351956D01*
X16255020Y90423551D01*
X16325196Y90515675D01*
X16410118Y90626325D01*
X16508213Y90753495D01*
X16617909Y90895183D01*
X16737634Y91049382D01*
X16865816Y91214090D01*
X17000883Y91387301D01*
X17141261Y91567012D01*
X17285380Y91751217D01*
X17431667Y91937914D01*
X17578550Y92125096D01*
X17724456Y92310761D01*
X17867814Y92492904D01*
X18007051Y92669520D01*
X18140594Y92838605D01*
X18266873Y92998154D01*
X18384314Y93146165D01*
X18491346Y93280631D01*
X18586396Y93399549D01*
X18667891Y93500915D01*
X18734261Y93582723D01*
X18783932Y93642971D01*
X18815333Y93679653D01*
X18823368Y93688217D01*
X18933629Y93773710D01*
X19060694Y93834357D01*
X19197455Y93868334D01*
X19336803Y93873816D01*
X19461437Y93852047D01*
G36*
X30347803Y93824850D02*
G01*
X30482776Y93790064D01*
X30610791Y93725914D01*
X30725644Y93636891D01*
X30821130Y93527489D01*
X30870537Y93446285D01*
X30895967Y93392930D01*
X30912381Y93345231D01*
X30922225Y93292007D01*
X30927951Y93222077D01*
X30930170Y93173973D01*
X30930781Y93058212D01*
X30921708Y92950599D01*
X30901131Y92847059D01*
X30867225Y92743520D01*
X30818170Y92635908D01*
X30752142Y92520149D01*
X30667320Y92392170D01*
X30561880Y92247898D01*
X30452918Y92107173D01*
X30378490Y92012440D01*
X30311463Y91926346D01*
X30254571Y91852470D01*
X30210552Y91794391D01*
X30182142Y91755686D01*
X30172076Y91739946D01*
X30188176Y91736550D01*
X30233591Y91733118D01*
X30303770Y91729834D01*
X30394164Y91726881D01*
X30500221Y91724444D01*
X30591349Y91723013D01*
X31010885Y91717706D01*
X31121798Y91663065D01*
X31248643Y91582421D01*
X31356615Y91477371D01*
X31444418Y91352457D01*
X31510758Y91212219D01*
X31554340Y91061198D01*
X31573870Y90903935D01*
X31568053Y90744972D01*
X31535595Y90588848D01*
X31475202Y90440106D01*
X31472112Y90434235D01*
X31452588Y90403910D01*
X31413930Y90349738D01*
X31357821Y90273856D01*
X31285942Y90178401D01*
X31199974Y90065510D01*
X31101601Y89937319D01*
X30992502Y89795967D01*
X30874361Y89643589D01*
X30748859Y89482324D01*
X30617677Y89314307D01*
X30482498Y89141675D01*
X30345002Y88966566D01*
X30206872Y88791117D01*
X30069790Y88617464D01*
X29935437Y88447745D01*
X29805495Y88284096D01*
X29681645Y88128654D01*
X29565570Y87983557D01*
X29458951Y87850941D01*
X29363470Y87732943D01*
X29280808Y87631701D01*
X29212647Y87549351D01*
X29160670Y87488029D01*
X29126557Y87449874D01*
X29114249Y87438123D01*
X28957909Y87339719D01*
X28797834Y87268379D01*
X28638217Y87225321D01*
X28483256Y87211765D01*
X28370961Y87221984D01*
X28239869Y87261451D01*
X28114991Y87329795D01*
X28002774Y87422024D01*
X27909663Y87533151D01*
X27860453Y87617164D01*
X27807544Y87759706D01*
X27787083Y87906729D01*
X27799128Y88059446D01*
X27843734Y88219066D01*
X27894330Y88335486D01*
X27913941Y88375012D01*
X27932109Y88410515D01*
X27950640Y88444460D01*
X27971339Y88479313D01*
X27996011Y88517538D01*
X28026462Y88561601D01*
X28064497Y88613967D01*
X28111922Y88677101D01*
X28170541Y88753468D01*
X28242160Y88845533D01*
X28328584Y88955762D01*
X28431619Y89086619D01*
X28553070Y89240570D01*
X28609713Y89312339D01*
X28713021Y89443535D01*
X28809665Y89566853D01*
X28897656Y89679717D01*
X28975009Y89779549D01*
X29039735Y89863772D01*
X29089848Y89929811D01*
X29123360Y89975087D01*
X29138285Y89997025D01*
X29138880Y89998527D01*
X29122573Y90003353D01*
X29076156Y90007920D01*
X29003387Y90012041D01*
X28908022Y90015529D01*
X28793818Y90018199D01*
X28719346Y90019312D01*
X28299811Y90024373D01*
X28188897Y90079015D01*
X28062588Y90159531D01*
X27953424Y90265846D01*
X27863885Y90393229D01*
X27796451Y90536952D01*
X27753601Y90692285D01*
X27737816Y90854501D01*
X27740615Y90933854D01*
X27762711Y91084143D01*
X27802737Y91223191D01*
X27857840Y91341458D01*
X27867201Y91356773D01*
X27887217Y91385159D01*
X27925853Y91436961D01*
X27981184Y91509730D01*
X28051287Y91601016D01*
X28134237Y91708371D01*
X28228111Y91829345D01*
X28330984Y91961490D01*
X28440932Y92102356D01*
X28556030Y92249494D01*
X28674356Y92400455D01*
X28793984Y92552790D01*
X28912991Y92704050D01*
X29029452Y92851785D01*
X29141444Y92993548D01*
X29247041Y93126887D01*
X29344321Y93249355D01*
X29431358Y93358503D01*
X29506230Y93451880D01*
X29567010Y93527039D01*
X29611777Y93581530D01*
X29638604Y93612903D01*
X29644536Y93619025D01*
X29762867Y93701571D01*
X29902092Y93766098D01*
X30052886Y93809878D01*
X30205925Y93830182D01*
X30347803Y93824850D01*
X30347803Y93824850D01*
G37*
X30347803Y93824850D02*
X30482776Y93790064D01*
X30610791Y93725914D01*
X30725644Y93636891D01*
X30821130Y93527489D01*
X30870537Y93446285D01*
X30895967Y93392930D01*
X30912381Y93345231D01*
X30922225Y93292007D01*
X30927951Y93222077D01*
X30930170Y93173973D01*
X30930781Y93058212D01*
X30921708Y92950599D01*
X30901131Y92847059D01*
X30867225Y92743520D01*
X30818170Y92635908D01*
X30752142Y92520149D01*
X30667320Y92392170D01*
X30561880Y92247898D01*
X30452918Y92107173D01*
X30378490Y92012440D01*
X30311463Y91926346D01*
X30254571Y91852470D01*
X30210552Y91794391D01*
X30182142Y91755686D01*
X30172076Y91739946D01*
X30188176Y91736550D01*
X30233591Y91733118D01*
X30303770Y91729834D01*
X30394164Y91726881D01*
X30500221Y91724444D01*
X30591349Y91723013D01*
X31010885Y91717706D01*
X31121798Y91663065D01*
X31248643Y91582421D01*
X31356615Y91477371D01*
X31444418Y91352457D01*
X31510758Y91212219D01*
X31554340Y91061198D01*
X31573870Y90903935D01*
X31568053Y90744972D01*
X31535595Y90588848D01*
X31475202Y90440106D01*
X31472112Y90434235D01*
X31452588Y90403910D01*
X31413930Y90349738D01*
X31357821Y90273856D01*
X31285942Y90178401D01*
X31199974Y90065510D01*
X31101601Y89937319D01*
X30992502Y89795967D01*
X30874361Y89643589D01*
X30748859Y89482324D01*
X30617677Y89314307D01*
X30482498Y89141675D01*
X30345002Y88966566D01*
X30206872Y88791117D01*
X30069790Y88617464D01*
X29935437Y88447745D01*
X29805495Y88284096D01*
X29681645Y88128654D01*
X29565570Y87983557D01*
X29458951Y87850941D01*
X29363470Y87732943D01*
X29280808Y87631701D01*
X29212647Y87549351D01*
X29160670Y87488029D01*
X29126557Y87449874D01*
X29114249Y87438123D01*
X28957909Y87339719D01*
X28797834Y87268379D01*
X28638217Y87225321D01*
X28483256Y87211765D01*
X28370961Y87221984D01*
X28239869Y87261451D01*
X28114991Y87329795D01*
X28002774Y87422024D01*
X27909663Y87533151D01*
X27860453Y87617164D01*
X27807544Y87759706D01*
X27787083Y87906729D01*
X27799128Y88059446D01*
X27843734Y88219066D01*
X27894330Y88335486D01*
X27913941Y88375012D01*
X27932109Y88410515D01*
X27950640Y88444460D01*
X27971339Y88479313D01*
X27996011Y88517538D01*
X28026462Y88561601D01*
X28064497Y88613967D01*
X28111922Y88677101D01*
X28170541Y88753468D01*
X28242160Y88845533D01*
X28328584Y88955762D01*
X28431619Y89086619D01*
X28553070Y89240570D01*
X28609713Y89312339D01*
X28713021Y89443535D01*
X28809665Y89566853D01*
X28897656Y89679717D01*
X28975009Y89779549D01*
X29039735Y89863772D01*
X29089848Y89929811D01*
X29123360Y89975087D01*
X29138285Y89997025D01*
X29138880Y89998527D01*
X29122573Y90003353D01*
X29076156Y90007920D01*
X29003387Y90012041D01*
X28908022Y90015529D01*
X28793818Y90018199D01*
X28719346Y90019312D01*
X28299811Y90024373D01*
X28188897Y90079015D01*
X28062588Y90159531D01*
X27953424Y90265846D01*
X27863885Y90393229D01*
X27796451Y90536952D01*
X27753601Y90692285D01*
X27737816Y90854501D01*
X27740615Y90933854D01*
X27762711Y91084143D01*
X27802737Y91223191D01*
X27857840Y91341458D01*
X27867201Y91356773D01*
X27887217Y91385159D01*
X27925853Y91436961D01*
X27981184Y91509730D01*
X28051287Y91601016D01*
X28134237Y91708371D01*
X28228111Y91829345D01*
X28330984Y91961490D01*
X28440932Y92102356D01*
X28556030Y92249494D01*
X28674356Y92400455D01*
X28793984Y92552790D01*
X28912991Y92704050D01*
X29029452Y92851785D01*
X29141444Y92993548D01*
X29247041Y93126887D01*
X29344321Y93249355D01*
X29431358Y93358503D01*
X29506230Y93451880D01*
X29567010Y93527039D01*
X29611777Y93581530D01*
X29638604Y93612903D01*
X29644536Y93619025D01*
X29762867Y93701571D01*
X29902092Y93766098D01*
X30052886Y93809878D01*
X30205925Y93830182D01*
X30347803Y93824850D01*
D12*
X35348280Y68417500D02*
X33998280Y68417500D01*
X35348280Y65367500D02*
X39998280Y65367500D01*
X35348280Y68617500D02*
X39998280Y68617500D01*
X35348280Y65367500D02*
X35348280Y65567500D01*
X39998280Y65367500D02*
X39998280Y65567500D01*
X39998280Y68617500D02*
X39998280Y68417500D01*
X35348280Y68617500D02*
X35348280Y68417500D01*
X36201885Y68135500D02*
G75*
G03X36201885Y68135500I-179605J0D01*
G01*
X4406580Y103365500D02*
X4406580Y104865500D01*
X4106580Y104865500D02*
X4106580Y103365500D01*
X6177980Y5788800D02*
X4677980Y5788800D01*
X4677980Y5488800D02*
X6177980Y5488800D01*
X43300080Y6119000D02*
X41800080Y6119000D01*
X41800080Y5819000D02*
X43300080Y5819000D01*
X11686680Y16915700D02*
X11686680Y18415700D01*
X11386680Y18415700D02*
X11386680Y16915700D01*
X39225080Y29198000D02*
X39225080Y27698000D01*
X39525080Y27698000D02*
X39525080Y29198000D01*
X22156480Y17882500D02*
X22156480Y19232500D01*
X19106480Y17882500D02*
X19106480Y13232500D01*
X22356480Y17882500D02*
X22356480Y13232500D01*
X19106480Y17882500D02*
X19306480Y17882500D01*
X19106480Y13232500D02*
X19306480Y13232500D01*
X22356480Y13232500D02*
X22156480Y13232500D01*
X22356480Y17882500D02*
X22156480Y17882500D01*
X22054085Y17208500D02*
G75*
G03X22054085Y17208500I-179605J0D01*
G01*
X28633480Y17996800D02*
X28633480Y19346800D01*
X25583480Y17996800D02*
X25583480Y13346800D01*
X28833480Y17996800D02*
X28833480Y13346800D01*
X25583480Y17996800D02*
X25783480Y17996800D01*
X25583480Y13346800D02*
X25783480Y13346800D01*
X28833480Y13346800D02*
X28633480Y13346800D01*
X28833480Y17996800D02*
X28633480Y17996800D01*
X28531085Y17322800D02*
G75*
G03X28531085Y17322800I-179605J0D01*
G01*
X17968080Y51800100D02*
X19318080Y51800100D01*
X17968080Y54850100D02*
X13318080Y54850100D01*
X17968080Y51600100D02*
X13318080Y51600100D01*
X17968080Y54850100D02*
X17968080Y54650100D01*
X13318080Y54850100D02*
X13318080Y54650100D01*
X13318080Y51600100D02*
X13318080Y51800100D01*
X17968080Y51600100D02*
X17968080Y51800100D01*
X17473685Y52082100D02*
G75*
G03X17473685Y52082100I-179605J0D01*
G01*
X29985480Y56341400D02*
X28635480Y56341400D01*
X29985480Y53291400D02*
X34635480Y53291400D01*
X29985480Y56541400D02*
X34635480Y56541400D01*
X29985480Y53291400D02*
X29985480Y53491400D01*
X34635480Y53291400D02*
X34635480Y53491400D01*
X34635480Y56541400D02*
X34635480Y56341400D01*
X29985480Y56541400D02*
X29985480Y56341400D01*
X30839085Y56059400D02*
G75*
G03X30839085Y56059400I-179605J0D01*
G01*
X7945880Y82540500D02*
X6595880Y82540500D01*
X7945880Y79490500D02*
X12595880Y79490500D01*
X7945880Y82740500D02*
X12595880Y82740500D01*
X7945880Y79490500D02*
X7945880Y79690500D01*
X12595880Y79490500D02*
X12595880Y79690500D01*
X12595880Y82740500D02*
X12595880Y82540500D01*
X7945880Y82740500D02*
X7945880Y82540500D01*
X8799485Y82258500D02*
G75*
G03X8799485Y82258500I-179605J0D01*
G01*
X7731580Y106640500D02*
X6381580Y106640500D01*
X7731580Y103590500D02*
X12381580Y103590500D01*
X7731580Y106840500D02*
X12381580Y106840500D01*
X7731580Y103590500D02*
X7731580Y103790500D01*
X12381580Y103590500D02*
X12381580Y103790500D01*
X12381580Y106840500D02*
X12381580Y106640500D01*
X7731580Y106840500D02*
X7731580Y106640500D01*
X8585185Y106358500D02*
G75*
G03X8585185Y106358500I-179605J0D01*
G01*
X35758680Y84056900D02*
X34408680Y84056900D01*
X35758680Y81006900D02*
X40408680Y81006900D01*
X35758680Y84256900D02*
X40408680Y84256900D01*
X35758680Y81006900D02*
X35758680Y81206900D01*
X40408680Y81006900D02*
X40408680Y81206900D01*
X40408680Y84256900D02*
X40408680Y84056900D01*
X35758680Y84256900D02*
X35758680Y84056900D01*
X36612285Y83774900D02*
G75*
G03X36612285Y83774900I-179605J0D01*
G01*
X35416180Y107190660D02*
X34066180Y107190660D01*
X35416180Y104140660D02*
X40066180Y104140660D01*
X35416180Y107390660D02*
X40066180Y107390660D01*
X35416180Y104140660D02*
X35416180Y104340660D01*
X40066180Y104140660D02*
X40066180Y104340660D01*
X40066180Y107390660D02*
X40066180Y107190660D01*
X35416180Y107390660D02*
X35416180Y107190660D01*
X36269785Y106908660D02*
G75*
G03X36269785Y106908660I-179605J0D01*
G01*
D14*
X7188286Y42506900D02*
G75*
G03X7188286Y42506900I-223606J0D01*
G01*
X6464680Y42506900D02*
X7464680Y42506900D01*
X6964680Y43106900D02*
X6964680Y42006900D01*
X7745701Y42506900D02*
G75*
G03X7745701Y42506900I-781021J0D01*
G01*
X5264680Y40606900D02*
X5264680Y44406900D01*
X8664680Y40606900D02*
X5264680Y40606900D01*
X8664680Y44406900D02*
X8664680Y40606900D01*
X5264680Y44406900D02*
X8664680Y44406900D01*
X41351286Y43141900D02*
G75*
G03X41351286Y43141900I-223606J0D01*
G01*
X40627680Y43141900D02*
X41627680Y43141900D01*
X41127680Y43741900D02*
X41127680Y42641900D01*
X41908701Y43141900D02*
G75*
G03X41908701Y43141900I-781021J0D01*
G01*
X39427680Y41241900D02*
X39427680Y45041900D01*
X42827680Y41241900D02*
X39427680Y41241900D01*
X42827680Y45041900D02*
X42827680Y41241900D01*
X39427680Y45041900D02*
X42827680Y45041900D01*
D12*
X3760880Y82885500D02*
X5460880Y82885500D01*
X5460880Y81485500D02*
X3760880Y81485500D01*
X16770880Y79295500D02*
X15070880Y79295500D01*
X15070880Y80695500D02*
X16770880Y80695500D01*
X5300880Y73735500D02*
X3600880Y73735500D01*
X3600880Y75135500D02*
X5300880Y75135500D01*
X3610880Y76705500D02*
X5310880Y76705500D01*
X5310880Y75305500D02*
X3610880Y75305500D01*
X16890880Y73915500D02*
X15190880Y73915500D01*
X15190880Y75315500D02*
X16890880Y75315500D01*
X6315480Y6376300D02*
X6315480Y8076300D01*
X7715480Y8076300D02*
X7715480Y6376300D01*
X5290880Y76875500D02*
X3590880Y76875500D01*
X3590880Y78275500D02*
X5290880Y78275500D01*
X16940880Y75595500D02*
X15240880Y75595500D01*
X15240880Y76995500D02*
X16940880Y76995500D01*
X15300880Y78615500D02*
X17000880Y78615500D01*
X17000880Y77215500D02*
X15300880Y77215500D01*
X13925180Y8116800D02*
X15625180Y8116800D01*
X15625180Y6716800D02*
X13925180Y6716800D01*
X15322180Y67540100D02*
X17022180Y67540100D01*
X17022180Y66140100D02*
X15322180Y66140100D01*
X12399380Y18489700D02*
X10699380Y18489700D01*
X10699380Y19889700D02*
X12399380Y19889700D01*
X3426580Y107015500D02*
X5126580Y107015500D01*
X5126580Y105615500D02*
X3426580Y105615500D01*
X10013080Y55545100D02*
X10013080Y57245100D01*
X11413080Y57245100D02*
X11413080Y55545100D01*
X14113080Y55325100D02*
X12413080Y55325100D01*
X12413080Y56725100D02*
X14113080Y56725100D01*
X17900880Y7415000D02*
X17900880Y5715000D01*
X16500880Y5715000D02*
X16500880Y7415000D01*
X7854580Y37161700D02*
X9554580Y37161700D01*
X9554580Y35761700D02*
X7854580Y35761700D01*
X13227280Y22465400D02*
X13227280Y20765400D01*
X11827280Y20765400D02*
X11827280Y22465400D01*
X16656580Y103565500D02*
X14956580Y103565500D01*
X14956580Y104965500D02*
X16656580Y104965500D01*
X8477480Y52348500D02*
X8477480Y50648500D01*
X7077480Y50648500D02*
X7077480Y52348500D01*
X5386580Y97915500D02*
X3686580Y97915500D01*
X3686580Y99315500D02*
X5386580Y99315500D01*
X3666580Y100805500D02*
X5366580Y100805500D01*
X5366580Y99405500D02*
X3666580Y99405500D01*
X16706580Y98025500D02*
X15006580Y98025500D01*
X15006580Y99425500D02*
X16706580Y99425500D01*
X7102880Y55652300D02*
X7102880Y57352300D01*
X8502880Y57352300D02*
X8502880Y55652300D01*
X5376580Y100975500D02*
X3676580Y100975500D01*
X3676580Y102375500D02*
X5376580Y102375500D01*
X16696580Y100305500D02*
X14996580Y100305500D01*
X14996580Y101705500D02*
X16696580Y101705500D01*
X4184880Y29005900D02*
X4184880Y27305900D01*
X2784880Y27305900D02*
X2784880Y29005900D01*
X15881580Y23329000D02*
X15881580Y21629000D01*
X14481580Y21629000D02*
X14481580Y23329000D01*
X14946580Y103395500D02*
X16646580Y103395500D01*
X16646580Y101995500D02*
X14946580Y101995500D01*
X6341480Y35774400D02*
X4641480Y35774400D01*
X4641480Y37174400D02*
X6341480Y37174400D01*
X15767280Y84809700D02*
X15767280Y83109700D01*
X14367280Y83109700D02*
X14367280Y84809700D01*
X31628980Y84443800D02*
X33328980Y84443800D01*
X33328980Y83043800D02*
X31628980Y83043800D01*
X44593680Y81491900D02*
X42893680Y81491900D01*
X42893680Y82891900D02*
X44593680Y82891900D01*
X33453680Y75031900D02*
X31753680Y75031900D01*
X31753680Y76431900D02*
X33453680Y76431900D01*
X31773680Y78031900D02*
X33473680Y78031900D01*
X33473680Y76631900D02*
X31773680Y76631900D01*
X44573680Y75361900D02*
X42873680Y75361900D01*
X42873680Y76761900D02*
X44573680Y76761900D01*
X33463680Y78191900D02*
X31763680Y78191900D01*
X31763680Y79591900D02*
X33463680Y79591900D01*
X44733680Y77001900D02*
X43033680Y77001900D01*
X43033680Y78401900D02*
X44733680Y78401900D01*
X40275280Y6846200D02*
X40275280Y8546200D01*
X41675280Y8546200D02*
X41675280Y6846200D01*
X43033680Y79991900D02*
X44733680Y79991900D01*
X44733680Y78591900D02*
X43033680Y78591900D01*
X43310580Y60465600D02*
X43310580Y62165600D01*
X44710580Y62165600D02*
X44710580Y60465600D01*
X31273380Y107595900D02*
X32973380Y107595900D01*
X32973380Y106195900D02*
X31273380Y106195900D01*
X36780480Y57186400D02*
X36780480Y58886400D01*
X38180480Y58886400D02*
X38180480Y57186400D01*
X29270480Y58356400D02*
X30970480Y58356400D01*
X30970480Y56956400D02*
X29270480Y56956400D01*
X33900480Y6729500D02*
X32200480Y6729500D01*
X32200480Y8129500D02*
X33900480Y8129500D01*
X44517680Y104659200D02*
X42817680Y104659200D01*
X42817680Y106059200D02*
X44517680Y106059200D01*
X38525080Y27649400D02*
X40225080Y27649400D01*
X40225080Y26249400D02*
X38525080Y26249400D01*
X40837080Y52348500D02*
X40837080Y50648500D01*
X39437080Y50648500D02*
X39437080Y52348500D01*
X31362880Y7428600D02*
X31362880Y5728600D01*
X29962880Y5728600D02*
X29962880Y7428600D01*
X33001180Y98785660D02*
X31301180Y98785660D01*
X31301180Y100185660D02*
X33001180Y100185660D01*
X31301180Y101715660D02*
X33001180Y101715660D01*
X33001180Y100315660D02*
X31301180Y100315660D01*
X41839780Y37441100D02*
X43539780Y37441100D01*
X43539780Y36041100D02*
X41839780Y36041100D01*
X44461180Y98515660D02*
X42761180Y98515660D01*
X42761180Y99915660D02*
X44461180Y99915660D01*
X36338280Y23788000D02*
X36338280Y25488000D01*
X37738280Y25488000D02*
X37738280Y23788000D01*
X39513280Y55652300D02*
X39513280Y57352300D01*
X40913280Y57352300D02*
X40913280Y55652300D01*
X32991180Y101865660D02*
X31291180Y101865660D01*
X31291180Y103265660D02*
X32991180Y103265660D01*
X44461180Y100065660D02*
X42761180Y100065660D01*
X42761180Y101465660D02*
X44461180Y101465660D01*
X33890180Y24103700D02*
X33890180Y22403700D01*
X32490180Y22403700D02*
X32490180Y24103700D01*
X42771180Y103045660D02*
X44471180Y103045660D01*
X44471180Y101645660D02*
X42771180Y101645660D01*
X46831480Y18363300D02*
X46831480Y16663300D01*
X45431480Y16663300D02*
X45431480Y18363300D01*
X40275880Y36041100D02*
X38575880Y36041100D01*
X38575880Y37441100D02*
X40275880Y37441100D01*
X45180480Y87146500D02*
X45180480Y85446500D01*
X43780480Y85446500D02*
X43780480Y87146500D01*
D15*
X16278180Y32162700D02*
X21818180Y32162700D01*
D16*
X16368180Y45982700D02*
X16368180Y33042700D01*
X16368180Y33042700D02*
X21688180Y33042700D01*
X21688180Y33042700D02*
X21688180Y45982700D01*
X21688180Y45982700D02*
X16368180Y45982700D01*
D12*
X8145880Y78835500D02*
X6770880Y78835500D01*
X8145880Y68790500D02*
X12295880Y68790500D01*
X8145880Y78940500D02*
X12295880Y78940500D01*
X8145880Y68790500D02*
X8145880Y68895500D01*
X12295880Y68790500D02*
X12295880Y68895500D01*
X12295880Y78940500D02*
X12295880Y78835500D01*
X8145880Y78940500D02*
X8145880Y78835500D01*
X9331880Y78310500D02*
G75*
G03X9331880Y78310500I-254000J0D01*
G01*
X5902880Y78605500D02*
X6283880Y78351500D01*
X6283880Y78351500D02*
X5902880Y78097500D01*
X5902880Y78097500D02*
X5902880Y78605500D01*
X8031580Y102985500D02*
X6656580Y102985500D01*
X8031580Y92940500D02*
X12181580Y92940500D01*
X8031580Y103090500D02*
X12181580Y103090500D01*
X8031580Y92940500D02*
X8031580Y93045500D01*
X12181580Y92940500D02*
X12181580Y93045500D01*
X12181580Y103090500D02*
X12181580Y102985500D01*
X8031580Y103090500D02*
X8031580Y102985500D01*
X9217580Y102460500D02*
G75*
G03X9217580Y102460500I-254000J0D01*
G01*
X5788580Y102755500D02*
X6169580Y102501500D01*
X6169580Y102501500D02*
X5788580Y102247500D01*
X5788580Y102247500D02*
X5788580Y102755500D01*
X36018680Y80391900D02*
X34643680Y80391900D01*
X36018680Y70346900D02*
X40168680Y70346900D01*
X36018680Y80496900D02*
X40168680Y80496900D01*
X36018680Y70346900D02*
X36018680Y70451900D01*
X40168680Y70346900D02*
X40168680Y70451900D01*
X40168680Y80496900D02*
X40168680Y80391900D01*
X36018680Y80496900D02*
X36018680Y80391900D01*
X37204680Y79866900D02*
G75*
G03X37204680Y79866900I-254000J0D01*
G01*
X33775680Y80161900D02*
X34156680Y79907900D01*
X34156680Y79907900D02*
X33775680Y79653900D01*
X33775680Y79653900D02*
X33775680Y80161900D01*
X35676180Y103545660D02*
X34301180Y103545660D01*
X35676180Y93500660D02*
X39826180Y93500660D01*
X35676180Y103650660D02*
X39826180Y103650660D01*
X35676180Y93500660D02*
X35676180Y93605660D01*
X39826180Y93500660D02*
X39826180Y93605660D01*
X39826180Y103650660D02*
X39826180Y103545660D01*
X35676180Y103650660D02*
X35676180Y103545660D01*
X36862180Y103020660D02*
G75*
G03X36862180Y103020660I-254000J0D01*
G01*
X33433180Y103315660D02*
X33814180Y103061660D01*
X33814180Y103061660D02*
X33433180Y102807660D01*
X33433180Y102807660D02*
X33433180Y103315660D01*
D16*
X24718180Y36232700D02*
X22718180Y36232700D01*
D17*
X23718180Y33732700D02*
X23718180Y33232700D01*
X23318180Y33732700D02*
X23718180Y34332700D01*
X24118180Y33732700D02*
X23318180Y33732700D01*
X23718180Y34332700D02*
X24118180Y33732700D01*
X23718180Y34332700D02*
X23168180Y34332700D01*
X23718180Y34332700D02*
X24268180Y34332700D01*
X23718180Y34732700D02*
X23718180Y34332700D01*
D16*
X22718180Y36232700D02*
X22718180Y32332700D01*
X24718180Y36232700D02*
X24718180Y32332700D01*
X24658180Y47220700D02*
X22658180Y47220700D01*
D17*
X23658180Y44720700D02*
X23658180Y44220700D01*
X23258180Y44720700D02*
X23658180Y45320700D01*
X24058180Y44720700D02*
X23258180Y44720700D01*
X23658180Y45320700D02*
X24058180Y44720700D01*
X23658180Y45320700D02*
X23108180Y45320700D01*
X23658180Y45320700D02*
X24208180Y45320700D01*
X23658180Y45720700D02*
X23658180Y45320700D01*
D16*
X22658180Y47220700D02*
X22658180Y43320700D01*
X24658180Y47220700D02*
X24658180Y43320700D01*
X4157080Y23267800D02*
X4157080Y20717800D01*
X2457080Y23267800D02*
X2457080Y20717800D01*
X4157080Y23267800D02*
X2457080Y23267800D01*
X45421180Y23061800D02*
X45421180Y25611800D01*
X47121180Y23061800D02*
X47121180Y25611800D01*
X45421180Y23061800D02*
X47121180Y23061800D01*
D12*
X5930080Y29195800D02*
X4555080Y29195800D01*
X5930080Y20420800D02*
X10080080Y20420800D01*
X5930080Y29300800D02*
X10080080Y29300800D01*
X5930080Y20420800D02*
X5930080Y20525800D01*
X10080080Y20420800D02*
X10080080Y20525800D01*
X10080080Y29300800D02*
X10080080Y29195800D01*
X5930080Y29300800D02*
X5930080Y29195800D01*
X7116080Y28670800D02*
G75*
G03X7116080Y28670800I-254000J0D01*
G01*
X3687080Y28965800D02*
X4068080Y28711800D01*
X4068080Y28711800D02*
X3687080Y28457800D01*
X3687080Y28457800D02*
X3687080Y28965800D01*
X43637980Y17094900D02*
X45012980Y17094900D01*
X43637980Y25869900D02*
X39487980Y25869900D01*
X43637980Y16989900D02*
X39487980Y16989900D01*
X43637980Y25869900D02*
X43637980Y25764900D01*
X39487980Y25869900D02*
X39487980Y25764900D01*
X39487980Y16989900D02*
X39487980Y17094900D01*
X43637980Y16989900D02*
X43637980Y17094900D01*
X42959980Y17619900D02*
G75*
G03X42959980Y17619900I-254000J0D01*
G01*
X45880980Y17324900D02*
X45499980Y17578900D01*
X45499980Y17578900D02*
X45880980Y17832900D01*
X45880980Y17832900D02*
X45880980Y17324900D01*
X18153080Y55365100D02*
X18153080Y56865100D01*
X17853080Y56865100D02*
X17853080Y55365100D01*
X13163080Y51235100D02*
X13163080Y49735100D01*
X13463080Y49735100D02*
X13463080Y51235100D01*
X29900480Y52816400D02*
X29900480Y51316400D01*
X30200480Y51316400D02*
X30200480Y52816400D01*
X34790480Y56906400D02*
X34790480Y58406400D01*
X34490480Y58406400D02*
X34490480Y56906400D01*
X32209880Y65124900D02*
X32209880Y66624900D01*
X31909880Y66624900D02*
X31909880Y65124900D01*
X43150280Y68834700D02*
X43150280Y67334700D01*
X43450280Y67334700D02*
X43450280Y68834700D01*
X19003580Y21046300D02*
X20503580Y21046300D01*
X20503580Y21346300D02*
X19003580Y21346300D01*
X28936380Y10221100D02*
X27436380Y10221100D01*
X27436380Y9921100D02*
X28936380Y9921100D01*
X13289980Y28140800D02*
X11789980Y28140800D01*
X11789980Y27840800D02*
X13289980Y27840800D01*
X15696580Y107095500D02*
X15696580Y105595500D01*
X15996580Y105595500D02*
X15996580Y107095500D01*
X32603680Y80593500D02*
X32603680Y82093500D01*
X32303680Y82093500D02*
X32303680Y80593500D01*
X43593680Y84501900D02*
X43593680Y83001900D01*
X43893680Y83001900D02*
X43893680Y84501900D01*
X32159080Y103847200D02*
X32159080Y105347200D01*
X31859080Y105347200D02*
X31859080Y103847200D01*
X43201180Y107615660D02*
X43201180Y106115660D01*
X43501180Y106115660D02*
X43501180Y107615660D01*
X25429780Y21109800D02*
X26929780Y21109800D01*
X26929780Y21409800D02*
X25429780Y21409800D01*
X22446680Y10119500D02*
X20946680Y10119500D01*
X20946680Y9819500D02*
X22446680Y9819500D01*
X4750880Y79255500D02*
X4750880Y80755500D01*
X4450880Y80755500D02*
X4450880Y79255500D01*
X15790880Y82305500D02*
X15790880Y80805500D01*
X16090880Y80805500D02*
X16090880Y82305500D01*
D16*
X28678423Y33438443D02*
G75*
G03X28648180Y37722700I-1130243J2134257D01*
G01*
X26417937Y37706957D02*
G75*
G03X26448180Y33422700I1130243J-2134257D01*
G01*
X24898180Y37482700D02*
X24898180Y32902700D01*
X25668180Y38242700D02*
X24898180Y37482700D01*
X30198180Y37482700D02*
X29428180Y38242700D01*
X30198180Y32902700D02*
X30198180Y37482700D01*
X29428180Y38242700D02*
X28648180Y38242700D01*
X25668180Y38242700D02*
X26448180Y38242700D01*
X24898180Y32902700D02*
X26448180Y32902700D01*
X30198180Y32902700D02*
X28648180Y32902700D01*
D12*
X36275580Y18074500D02*
X37775580Y18074500D01*
X37775580Y18374500D02*
X36275580Y18374500D01*
D16*
X28678423Y41312443D02*
G75*
G03X28648180Y45596700I-1130243J2134257D01*
G01*
X26417937Y45580957D02*
G75*
G03X26448180Y41296700I1130243J-2134257D01*
G01*
X24898180Y45356700D02*
X24898180Y40776700D01*
X25668180Y46116700D02*
X24898180Y45356700D01*
X30198180Y45356700D02*
X29428180Y46116700D01*
X30198180Y40776700D02*
X30198180Y45356700D01*
X29428180Y46116700D02*
X28648180Y46116700D01*
X25668180Y46116700D02*
X26448180Y46116700D01*
X24898180Y40776700D02*
X26448180Y40776700D01*
X30198180Y40776700D02*
X28648180Y40776700D01*
D12*
X4625480Y70408100D02*
X4625480Y71908100D01*
X4325480Y71908100D02*
X4325480Y70408100D01*
X4836580Y94795500D02*
X4836580Y96295500D01*
X4536580Y96295500D02*
X4536580Y94795500D01*
X32743680Y71871900D02*
X32743680Y73371900D01*
X32443680Y73371900D02*
X32443680Y71871900D01*
X32291180Y95555660D02*
X32291180Y97055660D01*
X31991180Y97055660D02*
X31991180Y95555660D01*
X15984080Y72263700D02*
X15984080Y70763700D01*
X16284080Y70763700D02*
X16284080Y72263700D01*
X15436580Y96125500D02*
X15436580Y94625500D01*
X15736580Y94625500D02*
X15736580Y96125500D01*
X43573680Y73671900D02*
X43573680Y72171900D01*
X43873680Y72171900D02*
X43873680Y73671900D01*
X43461180Y96805660D02*
X43461180Y95305660D01*
X43761180Y95305660D02*
X43761180Y96805660D01*
X4640880Y71985500D02*
X4640880Y73485500D01*
X4340880Y73485500D02*
X4340880Y71985500D01*
X15980880Y73865500D02*
X15980880Y72365500D01*
X16280880Y72365500D02*
X16280880Y73865500D01*
D18*
X13238480Y24561800D02*
X12120880Y24561800D01*
X13238480Y25069800D02*
X12120880Y25069800D01*
D12*
X16322180Y64528000D02*
X16322180Y66028000D01*
X16022180Y66028000D02*
X16022180Y64528000D01*
X11423080Y53245100D02*
X9923080Y53245100D01*
X9923080Y52945100D02*
X11423080Y52945100D01*
X4806580Y96315500D02*
X4806580Y97815500D01*
X4506580Y97815500D02*
X4506580Y96315500D01*
X15436580Y97695500D02*
X15436580Y96195500D01*
X15736580Y96195500D02*
X15736580Y97695500D01*
X11399380Y59538300D02*
X11399380Y58038300D01*
X11699380Y58038300D02*
X11699380Y59538300D01*
D18*
X2799080Y25234900D02*
X3916680Y25234900D01*
X2799080Y24726900D02*
X3916680Y24726900D01*
D12*
X15893480Y25931000D02*
X14393480Y25931000D01*
X14393480Y25631000D02*
X15893480Y25631000D01*
X32753680Y73421900D02*
X32753680Y74921900D01*
X32453680Y74921900D02*
X32453680Y73421900D01*
X43583680Y75231900D02*
X43583680Y73731900D01*
X43883680Y73731900D02*
X43883680Y75231900D01*
X43035080Y59665300D02*
X43035080Y58165300D01*
X43335080Y58165300D02*
X43335080Y59665300D01*
D18*
X36339780Y21678900D02*
X37457380Y21678900D01*
X36339780Y21170900D02*
X37457380Y21170900D01*
D12*
X36730480Y54606400D02*
X38230480Y54606400D01*
X38230480Y54906400D02*
X36730480Y54906400D01*
X32301180Y97125660D02*
X32301180Y98625660D01*
X32001180Y98625660D02*
X32001180Y97125660D01*
X43471180Y98395660D02*
X43471180Y96895660D01*
X43771180Y96895660D02*
X43771180Y98395660D01*
X39745780Y59665300D02*
X39745780Y58165300D01*
X40045780Y58165300D02*
X40045780Y59665300D01*
D18*
X46804580Y21120100D02*
X45686980Y21120100D01*
X46804580Y21628100D02*
X45686980Y21628100D01*
D12*
X33902080Y26642200D02*
X32402080Y26642200D01*
X32402080Y26342200D02*
X33902080Y26342200D01*
X6446580Y89825500D02*
X14066580Y89825500D01*
X14066580Y89825500D02*
X14066580Y92365500D01*
X14066580Y92365500D02*
X6446580Y92365500D01*
X6446580Y92365500D02*
X6446580Y89825500D01*
X33731180Y90445660D02*
X41351180Y90445660D01*
X41351180Y90445660D02*
X41351180Y92985660D01*
X41351180Y92985660D02*
X33731180Y92985660D01*
X33731180Y92985660D02*
X33731180Y90445660D01*
D19*
X35679456Y69589595D02*
X35679456Y68941976D01*
X35717551Y68865785D01*
X35755646Y68827690D01*
X35831837Y68789595D01*
X35984218Y68789595D01*
X36060408Y68827690D01*
X36098503Y68865785D01*
X36136599Y68941976D01*
X36136599Y69589595D01*
X36631837Y69246738D02*
X36555646Y69284833D01*
X36517551Y69322928D01*
X36479456Y69399119D01*
X36479456Y69437214D01*
X36517551Y69513404D01*
X36555646Y69551500D01*
X36631837Y69589595D01*
X36784218Y69589595D01*
X36860408Y69551500D01*
X36898503Y69513404D01*
X36936599Y69437214D01*
X36936599Y69399119D01*
X36898503Y69322928D01*
X36860408Y69284833D01*
X36784218Y69246738D01*
X36631837Y69246738D01*
X36555646Y69208642D01*
X36517551Y69170547D01*
X36479456Y69094357D01*
X36479456Y68941976D01*
X36517551Y68865785D01*
X36555646Y68827690D01*
X36631837Y68789595D01*
X36784218Y68789595D01*
X36860408Y68827690D01*
X36898503Y68865785D01*
X36936599Y68941976D01*
X36936599Y69094357D01*
X36898503Y69170547D01*
X36860408Y69208642D01*
X36784218Y69246738D01*
X1205294Y103739985D02*
X1167199Y103701890D01*
X1052913Y103663795D01*
X976722Y103663795D01*
X862437Y103701890D01*
X786246Y103778080D01*
X748151Y103854271D01*
X710056Y104006652D01*
X710056Y104120938D01*
X748151Y104273319D01*
X786246Y104349509D01*
X862437Y104425700D01*
X976722Y104463795D01*
X1052913Y104463795D01*
X1167199Y104425700D01*
X1205294Y104387604D01*
X1891008Y104197128D02*
X1891008Y103663795D01*
X1700532Y104501890D02*
X1510056Y103930461D01*
X2005294Y103930461D01*
X2729103Y103663795D02*
X2271960Y103663795D01*
X2500532Y103663795D02*
X2500532Y104463795D01*
X2424341Y104349509D01*
X2348151Y104273319D01*
X2271960Y104235223D01*
X3097594Y4540285D02*
X3059499Y4502190D01*
X2945213Y4464095D01*
X2869022Y4464095D01*
X2754737Y4502190D01*
X2678546Y4578380D01*
X2640451Y4654571D01*
X2602356Y4806952D01*
X2602356Y4921238D01*
X2640451Y5073619D01*
X2678546Y5149809D01*
X2754737Y5226000D01*
X2869022Y5264095D01*
X2945213Y5264095D01*
X3059499Y5226000D01*
X3097594Y5187904D01*
X3821403Y5264095D02*
X3440451Y5264095D01*
X3402356Y4883142D01*
X3440451Y4921238D01*
X3516641Y4959333D01*
X3707118Y4959333D01*
X3783308Y4921238D01*
X3821403Y4883142D01*
X3859499Y4806952D01*
X3859499Y4616476D01*
X3821403Y4540285D01*
X3783308Y4502190D01*
X3707118Y4464095D01*
X3516641Y4464095D01*
X3440451Y4502190D01*
X3402356Y4540285D01*
X4545213Y4997428D02*
X4545213Y4464095D01*
X4354737Y5302190D02*
X4164260Y4730761D01*
X4659499Y4730761D01*
X43877294Y5721385D02*
X43839199Y5683290D01*
X43724913Y5645195D01*
X43648722Y5645195D01*
X43534437Y5683290D01*
X43458246Y5759480D01*
X43420151Y5835671D01*
X43382056Y5988052D01*
X43382056Y6102338D01*
X43420151Y6254719D01*
X43458246Y6330909D01*
X43534437Y6407100D01*
X43648722Y6445195D01*
X43724913Y6445195D01*
X43839199Y6407100D01*
X43877294Y6369004D01*
X44601103Y6445195D02*
X44220151Y6445195D01*
X44182056Y6064242D01*
X44220151Y6102338D01*
X44296341Y6140433D01*
X44486818Y6140433D01*
X44563008Y6102338D01*
X44601103Y6064242D01*
X44639199Y5988052D01*
X44639199Y5797576D01*
X44601103Y5721385D01*
X44563008Y5683290D01*
X44486818Y5645195D01*
X44296341Y5645195D01*
X44220151Y5683290D01*
X44182056Y5721385D01*
X44905865Y6445195D02*
X45401103Y6445195D01*
X45134437Y6140433D01*
X45248722Y6140433D01*
X45324913Y6102338D01*
X45363008Y6064242D01*
X45401103Y5988052D01*
X45401103Y5797576D01*
X45363008Y5721385D01*
X45324913Y5683290D01*
X45248722Y5645195D01*
X45020151Y5645195D01*
X44943960Y5683290D01*
X44905865Y5721385D01*
X13663994Y17354585D02*
X13625899Y17316490D01*
X13511613Y17278395D01*
X13435422Y17278395D01*
X13321137Y17316490D01*
X13244946Y17392680D01*
X13206851Y17468871D01*
X13168756Y17621252D01*
X13168756Y17735538D01*
X13206851Y17887919D01*
X13244946Y17964109D01*
X13321137Y18040300D01*
X13435422Y18078395D01*
X13511613Y18078395D01*
X13625899Y18040300D01*
X13663994Y18002204D01*
X14387803Y18078395D02*
X14006851Y18078395D01*
X13968756Y17697442D01*
X14006851Y17735538D01*
X14083041Y17773633D01*
X14273518Y17773633D01*
X14349708Y17735538D01*
X14387803Y17697442D01*
X14425899Y17621252D01*
X14425899Y17430776D01*
X14387803Y17354585D01*
X14349708Y17316490D01*
X14273518Y17278395D01*
X14083041Y17278395D01*
X14006851Y17316490D01*
X13968756Y17354585D01*
X14730660Y18002204D02*
X14768756Y18040300D01*
X14844946Y18078395D01*
X15035422Y18078395D01*
X15111613Y18040300D01*
X15149708Y18002204D01*
X15187803Y17926014D01*
X15187803Y17849823D01*
X15149708Y17735538D01*
X14692565Y17278395D01*
X15187803Y17278395D01*
X36511294Y28771885D02*
X36473199Y28733790D01*
X36358913Y28695695D01*
X36282722Y28695695D01*
X36168437Y28733790D01*
X36092246Y28809980D01*
X36054151Y28886171D01*
X36016056Y29038552D01*
X36016056Y29152838D01*
X36054151Y29305219D01*
X36092246Y29381409D01*
X36168437Y29457600D01*
X36282722Y29495695D01*
X36358913Y29495695D01*
X36473199Y29457600D01*
X36511294Y29419504D01*
X37235103Y29495695D02*
X36854151Y29495695D01*
X36816056Y29114742D01*
X36854151Y29152838D01*
X36930341Y29190933D01*
X37120818Y29190933D01*
X37197008Y29152838D01*
X37235103Y29114742D01*
X37273199Y29038552D01*
X37273199Y28848076D01*
X37235103Y28771885D01*
X37197008Y28733790D01*
X37120818Y28695695D01*
X36930341Y28695695D01*
X36854151Y28733790D01*
X36816056Y28771885D01*
X38035103Y28695695D02*
X37577960Y28695695D01*
X37806532Y28695695D02*
X37806532Y29495695D01*
X37730341Y29381409D01*
X37654151Y29305219D01*
X37577960Y29267123D01*
X22420656Y15271695D02*
X22420656Y14624076D01*
X22458751Y14547885D01*
X22496846Y14509790D01*
X22573037Y14471695D01*
X22725418Y14471695D01*
X22801608Y14509790D01*
X22839703Y14547885D01*
X22877799Y14624076D01*
X22877799Y15271695D01*
X23296846Y14471695D02*
X23449227Y14471695D01*
X23525418Y14509790D01*
X23563513Y14547885D01*
X23639703Y14662171D01*
X23677799Y14814552D01*
X23677799Y15119314D01*
X23639703Y15195504D01*
X23601608Y15233600D01*
X23525418Y15271695D01*
X23373037Y15271695D01*
X23296846Y15233600D01*
X23258751Y15195504D01*
X23220656Y15119314D01*
X23220656Y14928838D01*
X23258751Y14852647D01*
X23296846Y14814552D01*
X23373037Y14776457D01*
X23525418Y14776457D01*
X23601608Y14814552D01*
X23639703Y14852647D01*
X23677799Y14928838D01*
X24224056Y16757595D02*
X24224056Y16109976D01*
X24262151Y16033785D01*
X24300246Y15995690D01*
X24376437Y15957595D01*
X24528818Y15957595D01*
X24605008Y15995690D01*
X24643103Y16033785D01*
X24681199Y16109976D01*
X24681199Y16757595D01*
X25443103Y16757595D02*
X25062151Y16757595D01*
X25024056Y16376642D01*
X25062151Y16414738D01*
X25138341Y16452833D01*
X25328818Y16452833D01*
X25405008Y16414738D01*
X25443103Y16376642D01*
X25481199Y16300452D01*
X25481199Y16109976D01*
X25443103Y16033785D01*
X25405008Y15995690D01*
X25328818Y15957595D01*
X25138341Y15957595D01*
X25062151Y15995690D01*
X25024056Y16033785D01*
X16134156Y51199995D02*
X16134156Y50552376D01*
X16172251Y50476185D01*
X16210346Y50438090D01*
X16286537Y50399995D01*
X16438918Y50399995D01*
X16515108Y50438090D01*
X16553203Y50476185D01*
X16591299Y50552376D01*
X16591299Y51199995D01*
X16896060Y51199995D02*
X17429394Y51199995D01*
X17086537Y50399995D01*
X32936256Y53092295D02*
X32936256Y52444676D01*
X32974351Y52368485D01*
X33012446Y52330390D01*
X33088637Y52292295D01*
X33241018Y52292295D01*
X33317208Y52330390D01*
X33355303Y52368485D01*
X33393399Y52444676D01*
X33393399Y53092295D01*
X34117208Y53092295D02*
X33964827Y53092295D01*
X33888637Y53054200D01*
X33850541Y53016104D01*
X33774351Y52901819D01*
X33736256Y52749438D01*
X33736256Y52444676D01*
X33774351Y52368485D01*
X33812446Y52330390D01*
X33888637Y52292295D01*
X34041018Y52292295D01*
X34117208Y52330390D01*
X34155303Y52368485D01*
X34193399Y52444676D01*
X34193399Y52635152D01*
X34155303Y52711342D01*
X34117208Y52749438D01*
X34041018Y52787533D01*
X33888637Y52787533D01*
X33812446Y52749438D01*
X33774351Y52711342D01*
X33736256Y52635152D01*
X7841056Y83750095D02*
X7841056Y83102476D01*
X7879151Y83026285D01*
X7917246Y82988190D01*
X7993437Y82950095D01*
X8145818Y82950095D01*
X8222008Y82988190D01*
X8260103Y83026285D01*
X8298199Y83102476D01*
X8298199Y83750095D01*
X9022008Y83483428D02*
X9022008Y82950095D01*
X8831532Y83788190D02*
X8641056Y83216761D01*
X9136294Y83216761D01*
X8222056Y107892795D02*
X8222056Y107245176D01*
X8260151Y107168985D01*
X8298246Y107130890D01*
X8374437Y107092795D01*
X8526818Y107092795D01*
X8603008Y107130890D01*
X8641103Y107168985D01*
X8679199Y107245176D01*
X8679199Y107892795D01*
X8983960Y107892795D02*
X9479199Y107892795D01*
X9212532Y107588033D01*
X9326818Y107588033D01*
X9403008Y107549938D01*
X9441103Y107511842D01*
X9479199Y107435652D01*
X9479199Y107245176D01*
X9441103Y107168985D01*
X9403008Y107130890D01*
X9326818Y107092795D01*
X9098246Y107092795D01*
X9022056Y107130890D01*
X8983960Y107168985D01*
X37495556Y85312195D02*
X37495556Y84664576D01*
X37533651Y84588385D01*
X37571746Y84550290D01*
X37647937Y84512195D01*
X37800318Y84512195D01*
X37876508Y84550290D01*
X37914603Y84588385D01*
X37952699Y84664576D01*
X37952699Y85312195D01*
X38295556Y85236004D02*
X38333651Y85274100D01*
X38409841Y85312195D01*
X38600318Y85312195D01*
X38676508Y85274100D01*
X38714603Y85236004D01*
X38752699Y85159814D01*
X38752699Y85083623D01*
X38714603Y84969338D01*
X38257460Y84512195D01*
X38752699Y84512195D01*
X35857256Y108375395D02*
X35857256Y107727776D01*
X35895351Y107651585D01*
X35933446Y107613490D01*
X36009637Y107575395D01*
X36162018Y107575395D01*
X36238208Y107613490D01*
X36276303Y107651585D01*
X36314399Y107727776D01*
X36314399Y108375395D01*
X37114399Y107575395D02*
X36657256Y107575395D01*
X36885827Y107575395D02*
X36885827Y108375395D01*
X36809637Y108261109D01*
X36733446Y108184919D01*
X36657256Y108146823D01*
X6370770Y46037395D02*
X6827913Y46037395D01*
X6599341Y45237395D02*
X6599341Y46037395D01*
X7551722Y45237395D02*
X7285056Y45618347D01*
X7094580Y45237395D02*
X7094580Y46037395D01*
X7399341Y46037395D01*
X7475532Y45999300D01*
X7513627Y45961204D01*
X7551722Y45885014D01*
X7551722Y45770728D01*
X7513627Y45694538D01*
X7475532Y45656442D01*
X7399341Y45618347D01*
X7094580Y45618347D01*
X7856484Y45961204D02*
X7894580Y45999300D01*
X7970770Y46037395D01*
X8161246Y46037395D01*
X8237437Y45999300D01*
X8275532Y45961204D01*
X8313627Y45885014D01*
X8313627Y45808823D01*
X8275532Y45694538D01*
X7818389Y45237395D01*
X8313627Y45237395D01*
X40381370Y46735895D02*
X40838513Y46735895D01*
X40609941Y45935895D02*
X40609941Y46735895D01*
X41562322Y45935895D02*
X41295656Y46316847D01*
X41105180Y45935895D02*
X41105180Y46735895D01*
X41409941Y46735895D01*
X41486132Y46697800D01*
X41524227Y46659704D01*
X41562322Y46583514D01*
X41562322Y46469228D01*
X41524227Y46393038D01*
X41486132Y46354942D01*
X41409941Y46316847D01*
X41105180Y46316847D01*
X42324227Y45935895D02*
X41867084Y45935895D01*
X42095656Y45935895D02*
X42095656Y46735895D01*
X42019465Y46621609D01*
X41943275Y46545419D01*
X41867084Y46507323D01*
X1497394Y81781695D02*
X1230727Y82162647D01*
X1040251Y81781695D02*
X1040251Y82581695D01*
X1345013Y82581695D01*
X1421203Y82543600D01*
X1459299Y82505504D01*
X1497394Y82429314D01*
X1497394Y82315028D01*
X1459299Y82238838D01*
X1421203Y82200742D01*
X1345013Y82162647D01*
X1040251Y82162647D01*
X2183108Y82581695D02*
X2030727Y82581695D01*
X1954537Y82543600D01*
X1916441Y82505504D01*
X1840251Y82391219D01*
X1802156Y82238838D01*
X1802156Y81934076D01*
X1840251Y81857885D01*
X1878346Y81819790D01*
X1954537Y81781695D01*
X2106918Y81781695D01*
X2183108Y81819790D01*
X2221203Y81857885D01*
X2259299Y81934076D01*
X2259299Y82124552D01*
X2221203Y82200742D01*
X2183108Y82238838D01*
X2106918Y82276933D01*
X1954537Y82276933D01*
X1878346Y82238838D01*
X1840251Y82200742D01*
X1802156Y82124552D01*
X2564060Y82505504D02*
X2602156Y82543600D01*
X2678346Y82581695D01*
X2868822Y82581695D01*
X2945013Y82543600D01*
X2983108Y82505504D01*
X3021203Y82429314D01*
X3021203Y82353123D01*
X2983108Y82238838D01*
X2525965Y81781695D01*
X3021203Y81781695D01*
X17918494Y80486295D02*
X17651827Y80867247D01*
X17461351Y80486295D02*
X17461351Y81286295D01*
X17766113Y81286295D01*
X17842303Y81248200D01*
X17880399Y81210104D01*
X17918494Y81133914D01*
X17918494Y81019628D01*
X17880399Y80943438D01*
X17842303Y80905342D01*
X17766113Y80867247D01*
X17461351Y80867247D01*
X18604208Y81286295D02*
X18451827Y81286295D01*
X18375637Y81248200D01*
X18337541Y81210104D01*
X18261351Y81095819D01*
X18223256Y80943438D01*
X18223256Y80638676D01*
X18261351Y80562485D01*
X18299446Y80524390D01*
X18375637Y80486295D01*
X18528018Y80486295D01*
X18604208Y80524390D01*
X18642303Y80562485D01*
X18680399Y80638676D01*
X18680399Y80829152D01*
X18642303Y80905342D01*
X18604208Y80943438D01*
X18528018Y80981533D01*
X18375637Y80981533D01*
X18299446Y80943438D01*
X18261351Y80905342D01*
X18223256Y80829152D01*
X19442303Y80486295D02*
X18985160Y80486295D01*
X19213732Y80486295D02*
X19213732Y81286295D01*
X19137541Y81172009D01*
X19061351Y81095819D01*
X18985160Y81057723D01*
X1421194Y73818795D02*
X1154527Y74199747D01*
X964051Y73818795D02*
X964051Y74618795D01*
X1268813Y74618795D01*
X1345003Y74580700D01*
X1383099Y74542604D01*
X1421194Y74466414D01*
X1421194Y74352128D01*
X1383099Y74275938D01*
X1345003Y74237842D01*
X1268813Y74199747D01*
X964051Y74199747D01*
X2106908Y74618795D02*
X1954527Y74618795D01*
X1878337Y74580700D01*
X1840241Y74542604D01*
X1764051Y74428319D01*
X1725956Y74275938D01*
X1725956Y73971176D01*
X1764051Y73894985D01*
X1802146Y73856890D01*
X1878337Y73818795D01*
X2030718Y73818795D01*
X2106908Y73856890D01*
X2145003Y73894985D01*
X2183099Y73971176D01*
X2183099Y74161652D01*
X2145003Y74237842D01*
X2106908Y74275938D01*
X2030718Y74314033D01*
X1878337Y74314033D01*
X1802146Y74275938D01*
X1764051Y74237842D01*
X1725956Y74161652D01*
X2678337Y74618795D02*
X2754527Y74618795D01*
X2830718Y74580700D01*
X2868813Y74542604D01*
X2906908Y74466414D01*
X2945003Y74314033D01*
X2945003Y74123557D01*
X2906908Y73971176D01*
X2868813Y73894985D01*
X2830718Y73856890D01*
X2754527Y73818795D01*
X2678337Y73818795D01*
X2602146Y73856890D01*
X2564051Y73894985D01*
X2525956Y73971176D01*
X2487860Y74123557D01*
X2487860Y74314033D01*
X2525956Y74466414D01*
X2564051Y74542604D01*
X2602146Y74580700D01*
X2678337Y74618795D01*
X1383094Y75431695D02*
X1116427Y75812647D01*
X925951Y75431695D02*
X925951Y76231695D01*
X1230713Y76231695D01*
X1306903Y76193600D01*
X1344999Y76155504D01*
X1383094Y76079314D01*
X1383094Y75965028D01*
X1344999Y75888838D01*
X1306903Y75850742D01*
X1230713Y75812647D01*
X925951Y75812647D01*
X2106903Y76231695D02*
X1725951Y76231695D01*
X1687856Y75850742D01*
X1725951Y75888838D01*
X1802141Y75926933D01*
X1992618Y75926933D01*
X2068808Y75888838D01*
X2106903Y75850742D01*
X2144999Y75774552D01*
X2144999Y75584076D01*
X2106903Y75507885D01*
X2068808Y75469790D01*
X1992618Y75431695D01*
X1802141Y75431695D01*
X1725951Y75469790D01*
X1687856Y75507885D01*
X2525951Y75431695D02*
X2678332Y75431695D01*
X2754522Y75469790D01*
X2792618Y75507885D01*
X2868808Y75622171D01*
X2906903Y75774552D01*
X2906903Y76079314D01*
X2868808Y76155504D01*
X2830713Y76193600D01*
X2754522Y76231695D01*
X2602141Y76231695D01*
X2525951Y76193600D01*
X2487856Y76155504D01*
X2449760Y76079314D01*
X2449760Y75888838D01*
X2487856Y75812647D01*
X2525951Y75774552D01*
X2602141Y75736457D01*
X2754522Y75736457D01*
X2830713Y75774552D01*
X2868808Y75812647D01*
X2906903Y75888838D01*
X18108994Y74212495D02*
X17842327Y74593447D01*
X17651851Y74212495D02*
X17651851Y75012495D01*
X17956613Y75012495D01*
X18032803Y74974400D01*
X18070899Y74936304D01*
X18108994Y74860114D01*
X18108994Y74745828D01*
X18070899Y74669638D01*
X18032803Y74631542D01*
X17956613Y74593447D01*
X17651851Y74593447D01*
X18832803Y75012495D02*
X18451851Y75012495D01*
X18413756Y74631542D01*
X18451851Y74669638D01*
X18528041Y74707733D01*
X18718518Y74707733D01*
X18794708Y74669638D01*
X18832803Y74631542D01*
X18870899Y74555352D01*
X18870899Y74364876D01*
X18832803Y74288685D01*
X18794708Y74250590D01*
X18718518Y74212495D01*
X18528041Y74212495D01*
X18451851Y74250590D01*
X18413756Y74288685D01*
X19328041Y74669638D02*
X19251851Y74707733D01*
X19213756Y74745828D01*
X19175660Y74822019D01*
X19175660Y74860114D01*
X19213756Y74936304D01*
X19251851Y74974400D01*
X19328041Y75012495D01*
X19480422Y75012495D01*
X19556613Y74974400D01*
X19594708Y74936304D01*
X19632803Y74860114D01*
X19632803Y74822019D01*
X19594708Y74745828D01*
X19556613Y74707733D01*
X19480422Y74669638D01*
X19328041Y74669638D01*
X19251851Y74631542D01*
X19213756Y74593447D01*
X19175660Y74517257D01*
X19175660Y74364876D01*
X19213756Y74288685D01*
X19251851Y74250590D01*
X19328041Y74212495D01*
X19480422Y74212495D01*
X19556613Y74250590D01*
X19594708Y74288685D01*
X19632803Y74364876D01*
X19632803Y74517257D01*
X19594708Y74593447D01*
X19556613Y74631542D01*
X19480422Y74669638D01*
X8380794Y7753395D02*
X8114127Y8134347D01*
X7923651Y7753395D02*
X7923651Y8553395D01*
X8228413Y8553395D01*
X8304603Y8515300D01*
X8342699Y8477204D01*
X8380794Y8401014D01*
X8380794Y8286728D01*
X8342699Y8210538D01*
X8304603Y8172442D01*
X8228413Y8134347D01*
X7923651Y8134347D01*
X9104603Y8553395D02*
X8723651Y8553395D01*
X8685556Y8172442D01*
X8723651Y8210538D01*
X8799841Y8248633D01*
X8990318Y8248633D01*
X9066508Y8210538D01*
X9104603Y8172442D01*
X9142699Y8096252D01*
X9142699Y7905776D01*
X9104603Y7829585D01*
X9066508Y7791490D01*
X8990318Y7753395D01*
X8799841Y7753395D01*
X8723651Y7791490D01*
X8685556Y7829585D01*
X9409365Y8553395D02*
X9942699Y8553395D01*
X9599841Y7753395D01*
X1497394Y77755795D02*
X1230727Y78136747D01*
X1040251Y77755795D02*
X1040251Y78555795D01*
X1345013Y78555795D01*
X1421203Y78517700D01*
X1459299Y78479604D01*
X1497394Y78403414D01*
X1497394Y78289128D01*
X1459299Y78212938D01*
X1421203Y78174842D01*
X1345013Y78136747D01*
X1040251Y78136747D01*
X2221203Y78555795D02*
X1840251Y78555795D01*
X1802156Y78174842D01*
X1840251Y78212938D01*
X1916441Y78251033D01*
X2106918Y78251033D01*
X2183108Y78212938D01*
X2221203Y78174842D01*
X2259299Y78098652D01*
X2259299Y77908176D01*
X2221203Y77831985D01*
X2183108Y77793890D01*
X2106918Y77755795D01*
X1916441Y77755795D01*
X1840251Y77793890D01*
X1802156Y77831985D01*
X2945013Y78555795D02*
X2792632Y78555795D01*
X2716441Y78517700D01*
X2678346Y78479604D01*
X2602156Y78365319D01*
X2564060Y78212938D01*
X2564060Y77908176D01*
X2602156Y77831985D01*
X2640251Y77793890D01*
X2716441Y77755795D01*
X2868822Y77755795D01*
X2945013Y77793890D01*
X2983108Y77831985D01*
X3021203Y77908176D01*
X3021203Y78098652D01*
X2983108Y78174842D01*
X2945013Y78212938D01*
X2868822Y78251033D01*
X2716441Y78251033D01*
X2640251Y78212938D01*
X2602156Y78174842D01*
X2564060Y78098652D01*
X18312194Y75736495D02*
X18045527Y76117447D01*
X17855051Y75736495D02*
X17855051Y76536495D01*
X18159813Y76536495D01*
X18236003Y76498400D01*
X18274099Y76460304D01*
X18312194Y76384114D01*
X18312194Y76269828D01*
X18274099Y76193638D01*
X18236003Y76155542D01*
X18159813Y76117447D01*
X17855051Y76117447D01*
X19036003Y76536495D02*
X18655051Y76536495D01*
X18616956Y76155542D01*
X18655051Y76193638D01*
X18731241Y76231733D01*
X18921718Y76231733D01*
X18997908Y76193638D01*
X19036003Y76155542D01*
X19074099Y76079352D01*
X19074099Y75888876D01*
X19036003Y75812685D01*
X18997908Y75774590D01*
X18921718Y75736495D01*
X18731241Y75736495D01*
X18655051Y75774590D01*
X18616956Y75812685D01*
X19797908Y76536495D02*
X19416956Y76536495D01*
X19378860Y76155542D01*
X19416956Y76193638D01*
X19493146Y76231733D01*
X19683622Y76231733D01*
X19759813Y76193638D01*
X19797908Y76155542D01*
X19836003Y76079352D01*
X19836003Y75888876D01*
X19797908Y75812685D01*
X19759813Y75774590D01*
X19683622Y75736495D01*
X19493146Y75736495D01*
X19416956Y75774590D01*
X19378860Y75812685D01*
X17778794Y78517795D02*
X17512127Y78898747D01*
X17321651Y78517795D02*
X17321651Y79317795D01*
X17626413Y79317795D01*
X17702603Y79279700D01*
X17740699Y79241604D01*
X17778794Y79165414D01*
X17778794Y79051128D01*
X17740699Y78974938D01*
X17702603Y78936842D01*
X17626413Y78898747D01*
X17321651Y78898747D01*
X18502603Y79317795D02*
X18121651Y79317795D01*
X18083556Y78936842D01*
X18121651Y78974938D01*
X18197841Y79013033D01*
X18388318Y79013033D01*
X18464508Y78974938D01*
X18502603Y78936842D01*
X18540699Y78860652D01*
X18540699Y78670176D01*
X18502603Y78593985D01*
X18464508Y78555890D01*
X18388318Y78517795D01*
X18197841Y78517795D01*
X18121651Y78555890D01*
X18083556Y78593985D01*
X19226413Y79051128D02*
X19226413Y78517795D01*
X19035937Y79355890D02*
X18845460Y78784461D01*
X19340699Y78784461D01*
X14286294Y8375695D02*
X14019627Y8756647D01*
X13829151Y8375695D02*
X13829151Y9175695D01*
X14133913Y9175695D01*
X14210103Y9137600D01*
X14248199Y9099504D01*
X14286294Y9023314D01*
X14286294Y8909028D01*
X14248199Y8832838D01*
X14210103Y8794742D01*
X14133913Y8756647D01*
X13829151Y8756647D01*
X15010103Y9175695D02*
X14629151Y9175695D01*
X14591056Y8794742D01*
X14629151Y8832838D01*
X14705341Y8870933D01*
X14895818Y8870933D01*
X14972008Y8832838D01*
X15010103Y8794742D01*
X15048199Y8718552D01*
X15048199Y8528076D01*
X15010103Y8451885D01*
X14972008Y8413790D01*
X14895818Y8375695D01*
X14705341Y8375695D01*
X14629151Y8413790D01*
X14591056Y8451885D01*
X15314865Y9175695D02*
X15810103Y9175695D01*
X15543437Y8870933D01*
X15657722Y8870933D01*
X15733913Y8832838D01*
X15772008Y8794742D01*
X15810103Y8718552D01*
X15810103Y8528076D01*
X15772008Y8451885D01*
X15733913Y8413790D01*
X15657722Y8375695D01*
X15429151Y8375695D01*
X15352960Y8413790D01*
X15314865Y8451885D01*
X13143294Y66452795D02*
X12876627Y66833747D01*
X12686151Y66452795D02*
X12686151Y67252795D01*
X12990913Y67252795D01*
X13067103Y67214700D01*
X13105199Y67176604D01*
X13143294Y67100414D01*
X13143294Y66986128D01*
X13105199Y66909938D01*
X13067103Y66871842D01*
X12990913Y66833747D01*
X12686151Y66833747D01*
X13867103Y67252795D02*
X13486151Y67252795D01*
X13448056Y66871842D01*
X13486151Y66909938D01*
X13562341Y66948033D01*
X13752818Y66948033D01*
X13829008Y66909938D01*
X13867103Y66871842D01*
X13905199Y66795652D01*
X13905199Y66605176D01*
X13867103Y66528985D01*
X13829008Y66490890D01*
X13752818Y66452795D01*
X13562341Y66452795D01*
X13486151Y66490890D01*
X13448056Y66528985D01*
X14209960Y67176604D02*
X14248056Y67214700D01*
X14324246Y67252795D01*
X14514722Y67252795D01*
X14590913Y67214700D01*
X14629008Y67176604D01*
X14667103Y67100414D01*
X14667103Y67024223D01*
X14629008Y66909938D01*
X14171865Y66452795D01*
X14667103Y66452795D01*
X13714794Y18776995D02*
X13448127Y19157947D01*
X13257651Y18776995D02*
X13257651Y19576995D01*
X13562413Y19576995D01*
X13638603Y19538900D01*
X13676699Y19500804D01*
X13714794Y19424614D01*
X13714794Y19310328D01*
X13676699Y19234138D01*
X13638603Y19196042D01*
X13562413Y19157947D01*
X13257651Y19157947D01*
X14438603Y19576995D02*
X14057651Y19576995D01*
X14019556Y19196042D01*
X14057651Y19234138D01*
X14133841Y19272233D01*
X14324318Y19272233D01*
X14400508Y19234138D01*
X14438603Y19196042D01*
X14476699Y19119852D01*
X14476699Y18929376D01*
X14438603Y18853185D01*
X14400508Y18815090D01*
X14324318Y18776995D01*
X14133841Y18776995D01*
X14057651Y18815090D01*
X14019556Y18853185D01*
X15238603Y18776995D02*
X14781460Y18776995D01*
X15010032Y18776995D02*
X15010032Y19576995D01*
X14933841Y19462709D01*
X14857651Y19386519D01*
X14781460Y19348423D01*
X3808794Y107143595D02*
X3542127Y107524547D01*
X3351651Y107143595D02*
X3351651Y107943595D01*
X3656413Y107943595D01*
X3732603Y107905500D01*
X3770699Y107867404D01*
X3808794Y107791214D01*
X3808794Y107676928D01*
X3770699Y107600738D01*
X3732603Y107562642D01*
X3656413Y107524547D01*
X3351651Y107524547D01*
X4532603Y107943595D02*
X4151651Y107943595D01*
X4113556Y107562642D01*
X4151651Y107600738D01*
X4227841Y107638833D01*
X4418318Y107638833D01*
X4494508Y107600738D01*
X4532603Y107562642D01*
X4570699Y107486452D01*
X4570699Y107295976D01*
X4532603Y107219785D01*
X4494508Y107181690D01*
X4418318Y107143595D01*
X4227841Y107143595D01*
X4151651Y107181690D01*
X4113556Y107219785D01*
X5065937Y107943595D02*
X5142127Y107943595D01*
X5218318Y107905500D01*
X5256413Y107867404D01*
X5294508Y107791214D01*
X5332603Y107638833D01*
X5332603Y107448357D01*
X5294508Y107295976D01*
X5256413Y107219785D01*
X5218318Y107181690D01*
X5142127Y107143595D01*
X5065937Y107143595D01*
X4989746Y107181690D01*
X4951651Y107219785D01*
X4913556Y107295976D01*
X4875460Y107448357D01*
X4875460Y107638833D01*
X4913556Y107791214D01*
X4951651Y107867404D01*
X4989746Y107905500D01*
X5065937Y107943595D01*
X9853884Y56686514D02*
X9472932Y56419847D01*
X9853884Y56229371D02*
X9053884Y56229371D01*
X9053884Y56534133D01*
X9091980Y56610323D01*
X9130075Y56648419D01*
X9206265Y56686514D01*
X9320551Y56686514D01*
X9396741Y56648419D01*
X9434837Y56610323D01*
X9472932Y56534133D01*
X9472932Y56229371D01*
X9320551Y57372228D02*
X9853884Y57372228D01*
X9015789Y57181752D02*
X9587218Y56991276D01*
X9587218Y57486514D01*
X9853884Y57829371D02*
X9853884Y57981752D01*
X9815789Y58057942D01*
X9777694Y58096038D01*
X9663408Y58172228D01*
X9511027Y58210323D01*
X9206265Y58210323D01*
X9130075Y58172228D01*
X9091980Y58134133D01*
X9053884Y58057942D01*
X9053884Y57905561D01*
X9091980Y57829371D01*
X9130075Y57791276D01*
X9206265Y57753180D01*
X9396741Y57753180D01*
X9472932Y57791276D01*
X9511027Y57829371D01*
X9549122Y57905561D01*
X9549122Y58057942D01*
X9511027Y58134133D01*
X9472932Y58172228D01*
X9396741Y58210323D01*
X12393994Y56991295D02*
X12127327Y57372247D01*
X11936851Y56991295D02*
X11936851Y57791295D01*
X12241613Y57791295D01*
X12317803Y57753200D01*
X12355899Y57715104D01*
X12393994Y57638914D01*
X12393994Y57524628D01*
X12355899Y57448438D01*
X12317803Y57410342D01*
X12241613Y57372247D01*
X11936851Y57372247D01*
X13079708Y57524628D02*
X13079708Y56991295D01*
X12889232Y57829390D02*
X12698756Y57257961D01*
X13193994Y57257961D01*
X13613041Y57448438D02*
X13536851Y57486533D01*
X13498756Y57524628D01*
X13460660Y57600819D01*
X13460660Y57638914D01*
X13498756Y57715104D01*
X13536851Y57753200D01*
X13613041Y57791295D01*
X13765422Y57791295D01*
X13841613Y57753200D01*
X13879708Y57715104D01*
X13917803Y57638914D01*
X13917803Y57600819D01*
X13879708Y57524628D01*
X13841613Y57486533D01*
X13765422Y57448438D01*
X13613041Y57448438D01*
X13536851Y57410342D01*
X13498756Y57372247D01*
X13460660Y57296057D01*
X13460660Y57143676D01*
X13498756Y57067485D01*
X13536851Y57029390D01*
X13613041Y56991295D01*
X13765422Y56991295D01*
X13841613Y57029390D01*
X13879708Y57067485D01*
X13917803Y57143676D01*
X13917803Y57296057D01*
X13879708Y57372247D01*
X13841613Y57410342D01*
X13765422Y57448438D01*
X18413794Y6178595D02*
X18147127Y6559547D01*
X17956651Y6178595D02*
X17956651Y6978595D01*
X18261413Y6978595D01*
X18337603Y6940500D01*
X18375699Y6902404D01*
X18413794Y6826214D01*
X18413794Y6711928D01*
X18375699Y6635738D01*
X18337603Y6597642D01*
X18261413Y6559547D01*
X17956651Y6559547D01*
X19099508Y6711928D02*
X19099508Y6178595D01*
X18909032Y7016690D02*
X18718556Y6445261D01*
X19213794Y6445261D01*
X19442365Y6978595D02*
X19975699Y6978595D01*
X19632841Y6178595D01*
X8710994Y37445995D02*
X8444327Y37826947D01*
X8253851Y37445995D02*
X8253851Y38245995D01*
X8558613Y38245995D01*
X8634803Y38207900D01*
X8672899Y38169804D01*
X8710994Y38093614D01*
X8710994Y37979328D01*
X8672899Y37903138D01*
X8634803Y37865042D01*
X8558613Y37826947D01*
X8253851Y37826947D01*
X9396708Y37979328D02*
X9396708Y37445995D01*
X9206232Y38284090D02*
X9015756Y37712661D01*
X9510994Y37712661D01*
X10158613Y38245995D02*
X10006232Y38245995D01*
X9930041Y38207900D01*
X9891946Y38169804D01*
X9815756Y38055519D01*
X9777660Y37903138D01*
X9777660Y37598376D01*
X9815756Y37522185D01*
X9853851Y37484090D01*
X9930041Y37445995D01*
X10082422Y37445995D01*
X10158613Y37484090D01*
X10196708Y37522185D01*
X10234803Y37598376D01*
X10234803Y37788852D01*
X10196708Y37865042D01*
X10158613Y37903138D01*
X10082422Y37941233D01*
X9930041Y37941233D01*
X9853851Y37903138D01*
X9815756Y37865042D01*
X9777660Y37788852D01*
X14222684Y20986814D02*
X13841732Y20720147D01*
X14222684Y20529671D02*
X13422684Y20529671D01*
X13422684Y20834433D01*
X13460780Y20910623D01*
X13498875Y20948719D01*
X13575065Y20986814D01*
X13689351Y20986814D01*
X13765541Y20948719D01*
X13803637Y20910623D01*
X13841732Y20834433D01*
X13841732Y20529671D01*
X13689351Y21672528D02*
X14222684Y21672528D01*
X13384589Y21482052D02*
X13956018Y21291576D01*
X13956018Y21786814D01*
X13422684Y22472528D02*
X13422684Y22091576D01*
X13803637Y22053480D01*
X13765541Y22091576D01*
X13727446Y22167766D01*
X13727446Y22358242D01*
X13765541Y22434433D01*
X13803637Y22472528D01*
X13879827Y22510623D01*
X14070303Y22510623D01*
X14146494Y22472528D01*
X14184589Y22434433D01*
X14222684Y22358242D01*
X14222684Y22167766D01*
X14184589Y22091576D01*
X14146494Y22053480D01*
X17816894Y103955895D02*
X17550227Y104336847D01*
X17359751Y103955895D02*
X17359751Y104755895D01*
X17664513Y104755895D01*
X17740703Y104717800D01*
X17778799Y104679704D01*
X17816894Y104603514D01*
X17816894Y104489228D01*
X17778799Y104413038D01*
X17740703Y104374942D01*
X17664513Y104336847D01*
X17359751Y104336847D01*
X18502608Y104489228D02*
X18502608Y103955895D01*
X18312132Y104793990D02*
X18121656Y104222561D01*
X18616894Y104222561D01*
X19264513Y104489228D02*
X19264513Y103955895D01*
X19074037Y104793990D02*
X18883560Y104222561D01*
X19378799Y104222561D01*
X7301294Y49079195D02*
X7034627Y49460147D01*
X6844151Y49079195D02*
X6844151Y49879195D01*
X7148913Y49879195D01*
X7225103Y49841100D01*
X7263199Y49803004D01*
X7301294Y49726814D01*
X7301294Y49612528D01*
X7263199Y49536338D01*
X7225103Y49498242D01*
X7148913Y49460147D01*
X6844151Y49460147D01*
X7987008Y49612528D02*
X7987008Y49079195D01*
X7796532Y49917290D02*
X7606056Y49345861D01*
X8101294Y49345861D01*
X8329865Y49879195D02*
X8825103Y49879195D01*
X8558437Y49574433D01*
X8672722Y49574433D01*
X8748913Y49536338D01*
X8787008Y49498242D01*
X8825103Y49422052D01*
X8825103Y49231576D01*
X8787008Y49155385D01*
X8748913Y49117290D01*
X8672722Y49079195D01*
X8444151Y49079195D01*
X8367960Y49117290D01*
X8329865Y49155385D01*
X1522794Y98101195D02*
X1256127Y98482147D01*
X1065651Y98101195D02*
X1065651Y98901195D01*
X1370413Y98901195D01*
X1446603Y98863100D01*
X1484699Y98825004D01*
X1522794Y98748814D01*
X1522794Y98634528D01*
X1484699Y98558338D01*
X1446603Y98520242D01*
X1370413Y98482147D01*
X1065651Y98482147D01*
X2208508Y98634528D02*
X2208508Y98101195D01*
X2018032Y98939290D02*
X1827556Y98367861D01*
X2322794Y98367861D01*
X2589460Y98825004D02*
X2627556Y98863100D01*
X2703746Y98901195D01*
X2894222Y98901195D01*
X2970413Y98863100D01*
X3008508Y98825004D01*
X3046603Y98748814D01*
X3046603Y98672623D01*
X3008508Y98558338D01*
X2551365Y98101195D01*
X3046603Y98101195D01*
X1573594Y99434695D02*
X1306927Y99815647D01*
X1116451Y99434695D02*
X1116451Y100234695D01*
X1421213Y100234695D01*
X1497403Y100196600D01*
X1535499Y100158504D01*
X1573594Y100082314D01*
X1573594Y99968028D01*
X1535499Y99891838D01*
X1497403Y99853742D01*
X1421213Y99815647D01*
X1116451Y99815647D01*
X2259308Y99968028D02*
X2259308Y99434695D01*
X2068832Y100272790D02*
X1878356Y99701361D01*
X2373594Y99701361D01*
X3097403Y99434695D02*
X2640260Y99434695D01*
X2868832Y99434695D02*
X2868832Y100234695D01*
X2792641Y100120409D01*
X2716451Y100044219D01*
X2640260Y100006123D01*
X17981994Y98418695D02*
X17715327Y98799647D01*
X17524851Y98418695D02*
X17524851Y99218695D01*
X17829613Y99218695D01*
X17905803Y99180600D01*
X17943899Y99142504D01*
X17981994Y99066314D01*
X17981994Y98952028D01*
X17943899Y98875838D01*
X17905803Y98837742D01*
X17829613Y98799647D01*
X17524851Y98799647D01*
X18667708Y98952028D02*
X18667708Y98418695D01*
X18477232Y99256790D02*
X18286756Y98685361D01*
X18781994Y98685361D01*
X19239137Y99218695D02*
X19315327Y99218695D01*
X19391518Y99180600D01*
X19429613Y99142504D01*
X19467708Y99066314D01*
X19505803Y98913933D01*
X19505803Y98723457D01*
X19467708Y98571076D01*
X19429613Y98494885D01*
X19391518Y98456790D01*
X19315327Y98418695D01*
X19239137Y98418695D01*
X19162946Y98456790D01*
X19124851Y98494885D01*
X19086756Y98571076D01*
X19048660Y98723457D01*
X19048660Y98913933D01*
X19086756Y99066314D01*
X19124851Y99142504D01*
X19162946Y99180600D01*
X19239137Y99218695D01*
X6361494Y58083495D02*
X6094827Y58464447D01*
X5904351Y58083495D02*
X5904351Y58883495D01*
X6209113Y58883495D01*
X6285303Y58845400D01*
X6323399Y58807304D01*
X6361494Y58731114D01*
X6361494Y58616828D01*
X6323399Y58540638D01*
X6285303Y58502542D01*
X6209113Y58464447D01*
X5904351Y58464447D01*
X6628160Y58883495D02*
X7123399Y58883495D01*
X6856732Y58578733D01*
X6971018Y58578733D01*
X7047208Y58540638D01*
X7085303Y58502542D01*
X7123399Y58426352D01*
X7123399Y58235876D01*
X7085303Y58159685D01*
X7047208Y58121590D01*
X6971018Y58083495D01*
X6742446Y58083495D01*
X6666256Y58121590D01*
X6628160Y58159685D01*
X7504351Y58083495D02*
X7656732Y58083495D01*
X7732922Y58121590D01*
X7771018Y58159685D01*
X7847208Y58273971D01*
X7885303Y58426352D01*
X7885303Y58731114D01*
X7847208Y58807304D01*
X7809113Y58845400D01*
X7732922Y58883495D01*
X7580541Y58883495D01*
X7504351Y58845400D01*
X7466256Y58807304D01*
X7428160Y58731114D01*
X7428160Y58540638D01*
X7466256Y58464447D01*
X7504351Y58426352D01*
X7580541Y58388257D01*
X7732922Y58388257D01*
X7809113Y58426352D01*
X7847208Y58464447D01*
X7885303Y58540638D01*
X1598994Y101250795D02*
X1332327Y101631747D01*
X1141851Y101250795D02*
X1141851Y102050795D01*
X1446613Y102050795D01*
X1522803Y102012700D01*
X1560899Y101974604D01*
X1598994Y101898414D01*
X1598994Y101784128D01*
X1560899Y101707938D01*
X1522803Y101669842D01*
X1446613Y101631747D01*
X1141851Y101631747D01*
X1865660Y102050795D02*
X2360899Y102050795D01*
X2094232Y101746033D01*
X2208518Y101746033D01*
X2284708Y101707938D01*
X2322803Y101669842D01*
X2360899Y101593652D01*
X2360899Y101403176D01*
X2322803Y101326985D01*
X2284708Y101288890D01*
X2208518Y101250795D01*
X1979946Y101250795D01*
X1903756Y101288890D01*
X1865660Y101326985D01*
X2818041Y101707938D02*
X2741851Y101746033D01*
X2703756Y101784128D01*
X2665660Y101860319D01*
X2665660Y101898414D01*
X2703756Y101974604D01*
X2741851Y102012700D01*
X2818041Y102050795D01*
X2970422Y102050795D01*
X3046613Y102012700D01*
X3084708Y101974604D01*
X3122803Y101898414D01*
X3122803Y101860319D01*
X3084708Y101784128D01*
X3046613Y101746033D01*
X2970422Y101707938D01*
X2818041Y101707938D01*
X2741851Y101669842D01*
X2703756Y101631747D01*
X2665660Y101555557D01*
X2665660Y101403176D01*
X2703756Y101326985D01*
X2741851Y101288890D01*
X2818041Y101250795D01*
X2970422Y101250795D01*
X3046613Y101288890D01*
X3084708Y101326985D01*
X3122803Y101403176D01*
X3122803Y101555557D01*
X3084708Y101631747D01*
X3046613Y101669842D01*
X2970422Y101707938D01*
X17918494Y101314295D02*
X17651827Y101695247D01*
X17461351Y101314295D02*
X17461351Y102114295D01*
X17766113Y102114295D01*
X17842303Y102076200D01*
X17880399Y102038104D01*
X17918494Y101961914D01*
X17918494Y101847628D01*
X17880399Y101771438D01*
X17842303Y101733342D01*
X17766113Y101695247D01*
X17461351Y101695247D01*
X18185160Y102114295D02*
X18680399Y102114295D01*
X18413732Y101809533D01*
X18528018Y101809533D01*
X18604208Y101771438D01*
X18642303Y101733342D01*
X18680399Y101657152D01*
X18680399Y101466676D01*
X18642303Y101390485D01*
X18604208Y101352390D01*
X18528018Y101314295D01*
X18299446Y101314295D01*
X18223256Y101352390D01*
X18185160Y101390485D01*
X18947065Y102114295D02*
X19480399Y102114295D01*
X19137541Y101314295D01*
X1205294Y28759195D02*
X938627Y29140147D01*
X748151Y28759195D02*
X748151Y29559195D01*
X1052913Y29559195D01*
X1129103Y29521100D01*
X1167199Y29483004D01*
X1205294Y29406814D01*
X1205294Y29292528D01*
X1167199Y29216338D01*
X1129103Y29178242D01*
X1052913Y29140147D01*
X748151Y29140147D01*
X1471960Y29559195D02*
X1967199Y29559195D01*
X1700532Y29254433D01*
X1814818Y29254433D01*
X1891008Y29216338D01*
X1929103Y29178242D01*
X1967199Y29102052D01*
X1967199Y28911576D01*
X1929103Y28835385D01*
X1891008Y28797290D01*
X1814818Y28759195D01*
X1586246Y28759195D01*
X1510056Y28797290D01*
X1471960Y28835385D01*
X2652913Y29559195D02*
X2500532Y29559195D01*
X2424341Y29521100D01*
X2386246Y29483004D01*
X2310056Y29368719D01*
X2271960Y29216338D01*
X2271960Y28911576D01*
X2310056Y28835385D01*
X2348151Y28797290D01*
X2424341Y28759195D01*
X2576722Y28759195D01*
X2652913Y28797290D01*
X2691008Y28835385D01*
X2729103Y28911576D01*
X2729103Y29102052D01*
X2691008Y29178242D01*
X2652913Y29216338D01*
X2576722Y29254433D01*
X2424341Y29254433D01*
X2348151Y29216338D01*
X2310056Y29178242D01*
X2271960Y29102052D01*
X16394494Y22205995D02*
X16127827Y22586947D01*
X15937351Y22205995D02*
X15937351Y23005995D01*
X16242113Y23005995D01*
X16318303Y22967900D01*
X16356399Y22929804D01*
X16394494Y22853614D01*
X16394494Y22739328D01*
X16356399Y22663138D01*
X16318303Y22625042D01*
X16242113Y22586947D01*
X15937351Y22586947D01*
X16661160Y23005995D02*
X17156399Y23005995D01*
X16889732Y22701233D01*
X17004018Y22701233D01*
X17080208Y22663138D01*
X17118303Y22625042D01*
X17156399Y22548852D01*
X17156399Y22358376D01*
X17118303Y22282185D01*
X17080208Y22244090D01*
X17004018Y22205995D01*
X16775446Y22205995D01*
X16699256Y22244090D01*
X16661160Y22282185D01*
X17880208Y23005995D02*
X17499256Y23005995D01*
X17461160Y22625042D01*
X17499256Y22663138D01*
X17575446Y22701233D01*
X17765922Y22701233D01*
X17842113Y22663138D01*
X17880208Y22625042D01*
X17918303Y22548852D01*
X17918303Y22358376D01*
X17880208Y22282185D01*
X17842113Y22244090D01*
X17765922Y22205995D01*
X17575446Y22205995D01*
X17499256Y22244090D01*
X17461160Y22282185D01*
X18477294Y102533495D02*
X18210627Y102914447D01*
X18020151Y102533495D02*
X18020151Y103333495D01*
X18324913Y103333495D01*
X18401103Y103295400D01*
X18439199Y103257304D01*
X18477294Y103181114D01*
X18477294Y103066828D01*
X18439199Y102990638D01*
X18401103Y102952542D01*
X18324913Y102914447D01*
X18020151Y102914447D01*
X18743960Y103333495D02*
X19239199Y103333495D01*
X18972532Y103028733D01*
X19086818Y103028733D01*
X19163008Y102990638D01*
X19201103Y102952542D01*
X19239199Y102876352D01*
X19239199Y102685876D01*
X19201103Y102609685D01*
X19163008Y102571590D01*
X19086818Y102533495D01*
X18858246Y102533495D01*
X18782056Y102571590D01*
X18743960Y102609685D01*
X19924913Y103066828D02*
X19924913Y102533495D01*
X19734437Y103371590D02*
X19543960Y102800161D01*
X20039199Y102800161D01*
X5027994Y37445995D02*
X4761327Y37826947D01*
X4570851Y37445995D02*
X4570851Y38245995D01*
X4875613Y38245995D01*
X4951803Y38207900D01*
X4989899Y38169804D01*
X5027994Y38093614D01*
X5027994Y37979328D01*
X4989899Y37903138D01*
X4951803Y37865042D01*
X4875613Y37826947D01*
X4570851Y37826947D01*
X5294660Y38245995D02*
X5789899Y38245995D01*
X5523232Y37941233D01*
X5637518Y37941233D01*
X5713708Y37903138D01*
X5751803Y37865042D01*
X5789899Y37788852D01*
X5789899Y37598376D01*
X5751803Y37522185D01*
X5713708Y37484090D01*
X5637518Y37445995D01*
X5408946Y37445995D01*
X5332756Y37484090D01*
X5294660Y37522185D01*
X6056565Y38245995D02*
X6551803Y38245995D01*
X6285137Y37941233D01*
X6399422Y37941233D01*
X6475613Y37903138D01*
X6513708Y37865042D01*
X6551803Y37788852D01*
X6551803Y37598376D01*
X6513708Y37522185D01*
X6475613Y37484090D01*
X6399422Y37445995D01*
X6170851Y37445995D01*
X6094660Y37484090D01*
X6056565Y37522185D01*
X12724194Y83915295D02*
X12457527Y84296247D01*
X12267051Y83915295D02*
X12267051Y84715295D01*
X12571813Y84715295D01*
X12648003Y84677200D01*
X12686099Y84639104D01*
X12724194Y84562914D01*
X12724194Y84448628D01*
X12686099Y84372438D01*
X12648003Y84334342D01*
X12571813Y84296247D01*
X12267051Y84296247D01*
X12990860Y84715295D02*
X13486099Y84715295D01*
X13219432Y84410533D01*
X13333718Y84410533D01*
X13409908Y84372438D01*
X13448003Y84334342D01*
X13486099Y84258152D01*
X13486099Y84067676D01*
X13448003Y83991485D01*
X13409908Y83953390D01*
X13333718Y83915295D01*
X13105146Y83915295D01*
X13028956Y83953390D01*
X12990860Y83991485D01*
X13790860Y84639104D02*
X13828956Y84677200D01*
X13905146Y84715295D01*
X14095622Y84715295D01*
X14171813Y84677200D01*
X14209908Y84639104D01*
X14248003Y84562914D01*
X14248003Y84486723D01*
X14209908Y84372438D01*
X13752765Y83915295D01*
X14248003Y83915295D01*
X31964694Y84715395D02*
X31698027Y85096347D01*
X31507551Y84715395D02*
X31507551Y85515395D01*
X31812313Y85515395D01*
X31888503Y85477300D01*
X31926599Y85439204D01*
X31964694Y85363014D01*
X31964694Y85248728D01*
X31926599Y85172538D01*
X31888503Y85134442D01*
X31812313Y85096347D01*
X31507551Y85096347D01*
X32231360Y85515395D02*
X32726599Y85515395D01*
X32459932Y85210633D01*
X32574218Y85210633D01*
X32650408Y85172538D01*
X32688503Y85134442D01*
X32726599Y85058252D01*
X32726599Y84867776D01*
X32688503Y84791585D01*
X32650408Y84753490D01*
X32574218Y84715395D01*
X32345646Y84715395D01*
X32269456Y84753490D01*
X32231360Y84791585D01*
X33488503Y84715395D02*
X33031360Y84715395D01*
X33259932Y84715395D02*
X33259932Y85515395D01*
X33183741Y85401109D01*
X33107551Y85324919D01*
X33031360Y85286823D01*
X45642594Y81807095D02*
X45375927Y82188047D01*
X45185451Y81807095D02*
X45185451Y82607095D01*
X45490213Y82607095D01*
X45566403Y82569000D01*
X45604499Y82530904D01*
X45642594Y82454714D01*
X45642594Y82340428D01*
X45604499Y82264238D01*
X45566403Y82226142D01*
X45490213Y82188047D01*
X45185451Y82188047D01*
X45909260Y82607095D02*
X46404499Y82607095D01*
X46137832Y82302333D01*
X46252118Y82302333D01*
X46328308Y82264238D01*
X46366403Y82226142D01*
X46404499Y82149952D01*
X46404499Y81959476D01*
X46366403Y81883285D01*
X46328308Y81845190D01*
X46252118Y81807095D01*
X46023546Y81807095D01*
X45947356Y81845190D01*
X45909260Y81883285D01*
X46899737Y82607095D02*
X46975927Y82607095D01*
X47052118Y82569000D01*
X47090213Y82530904D01*
X47128308Y82454714D01*
X47166403Y82302333D01*
X47166403Y82111857D01*
X47128308Y81959476D01*
X47090213Y81883285D01*
X47052118Y81845190D01*
X46975927Y81807095D01*
X46899737Y81807095D01*
X46823546Y81845190D01*
X46785451Y81883285D01*
X46747356Y81959476D01*
X46709260Y82111857D01*
X46709260Y82302333D01*
X46747356Y82454714D01*
X46785451Y82530904D01*
X46823546Y82569000D01*
X46899737Y82607095D01*
X29488194Y75284375D02*
X29221527Y75665327D01*
X29031051Y75284375D02*
X29031051Y76084375D01*
X29335813Y76084375D01*
X29412003Y76046280D01*
X29450099Y76008184D01*
X29488194Y75931994D01*
X29488194Y75817708D01*
X29450099Y75741518D01*
X29412003Y75703422D01*
X29335813Y75665327D01*
X29031051Y75665327D01*
X29792956Y76008184D02*
X29831051Y76046280D01*
X29907241Y76084375D01*
X30097718Y76084375D01*
X30173908Y76046280D01*
X30212003Y76008184D01*
X30250099Y75931994D01*
X30250099Y75855803D01*
X30212003Y75741518D01*
X29754860Y75284375D01*
X30250099Y75284375D01*
X30631051Y75284375D02*
X30783432Y75284375D01*
X30859622Y75322470D01*
X30897718Y75360565D01*
X30973908Y75474851D01*
X31012003Y75627232D01*
X31012003Y75931994D01*
X30973908Y76008184D01*
X30935813Y76046280D01*
X30859622Y76084375D01*
X30707241Y76084375D01*
X30631051Y76046280D01*
X30592956Y76008184D01*
X30554860Y75931994D01*
X30554860Y75741518D01*
X30592956Y75665327D01*
X30631051Y75627232D01*
X30707241Y75589137D01*
X30859622Y75589137D01*
X30935813Y75627232D01*
X30973908Y75665327D01*
X31012003Y75741518D01*
X29381514Y77042055D02*
X29114847Y77423007D01*
X28924371Y77042055D02*
X28924371Y77842055D01*
X29229133Y77842055D01*
X29305323Y77803960D01*
X29343419Y77765864D01*
X29381514Y77689674D01*
X29381514Y77575388D01*
X29343419Y77499198D01*
X29305323Y77461102D01*
X29229133Y77423007D01*
X28924371Y77423007D01*
X29686276Y77765864D02*
X29724371Y77803960D01*
X29800561Y77842055D01*
X29991038Y77842055D01*
X30067228Y77803960D01*
X30105323Y77765864D01*
X30143419Y77689674D01*
X30143419Y77613483D01*
X30105323Y77499198D01*
X29648180Y77042055D01*
X30143419Y77042055D01*
X30600561Y77499198D02*
X30524371Y77537293D01*
X30486276Y77575388D01*
X30448180Y77651579D01*
X30448180Y77689674D01*
X30486276Y77765864D01*
X30524371Y77803960D01*
X30600561Y77842055D01*
X30752942Y77842055D01*
X30829133Y77803960D01*
X30867228Y77765864D01*
X30905323Y77689674D01*
X30905323Y77651579D01*
X30867228Y77575388D01*
X30829133Y77537293D01*
X30752942Y77499198D01*
X30600561Y77499198D01*
X30524371Y77461102D01*
X30486276Y77423007D01*
X30448180Y77346817D01*
X30448180Y77194436D01*
X30486276Y77118245D01*
X30524371Y77080150D01*
X30600561Y77042055D01*
X30752942Y77042055D01*
X30829133Y77080150D01*
X30867228Y77118245D01*
X30905323Y77194436D01*
X30905323Y77346817D01*
X30867228Y77423007D01*
X30829133Y77461102D01*
X30752942Y77499198D01*
X45591794Y75672995D02*
X45325127Y76053947D01*
X45134651Y75672995D02*
X45134651Y76472995D01*
X45439413Y76472995D01*
X45515603Y76434900D01*
X45553699Y76396804D01*
X45591794Y76320614D01*
X45591794Y76206328D01*
X45553699Y76130138D01*
X45515603Y76092042D01*
X45439413Y76053947D01*
X45134651Y76053947D01*
X45896556Y76396804D02*
X45934651Y76434900D01*
X46010841Y76472995D01*
X46201318Y76472995D01*
X46277508Y76434900D01*
X46315603Y76396804D01*
X46353699Y76320614D01*
X46353699Y76244423D01*
X46315603Y76130138D01*
X45858460Y75672995D01*
X46353699Y75672995D01*
X46620365Y76472995D02*
X47153699Y76472995D01*
X46810841Y75672995D01*
X29627894Y78555895D02*
X29361227Y78936847D01*
X29170751Y78555895D02*
X29170751Y79355895D01*
X29475513Y79355895D01*
X29551703Y79317800D01*
X29589799Y79279704D01*
X29627894Y79203514D01*
X29627894Y79089228D01*
X29589799Y79013038D01*
X29551703Y78974942D01*
X29475513Y78936847D01*
X29170751Y78936847D01*
X29932656Y79279704D02*
X29970751Y79317800D01*
X30046941Y79355895D01*
X30237418Y79355895D01*
X30313608Y79317800D01*
X30351703Y79279704D01*
X30389799Y79203514D01*
X30389799Y79127323D01*
X30351703Y79013038D01*
X29894560Y78555895D01*
X30389799Y78555895D01*
X31075513Y79355895D02*
X30923132Y79355895D01*
X30846941Y79317800D01*
X30808846Y79279704D01*
X30732656Y79165419D01*
X30694560Y79013038D01*
X30694560Y78708276D01*
X30732656Y78632085D01*
X30770751Y78593990D01*
X30846941Y78555895D01*
X30999322Y78555895D01*
X31075513Y78593990D01*
X31113608Y78632085D01*
X31151703Y78708276D01*
X31151703Y78898752D01*
X31113608Y78974942D01*
X31075513Y79013038D01*
X30999322Y79051133D01*
X30846941Y79051133D01*
X30770751Y79013038D01*
X30732656Y78974942D01*
X30694560Y78898752D01*
X45807694Y77755795D02*
X45541027Y78136747D01*
X45350551Y77755795D02*
X45350551Y78555795D01*
X45655313Y78555795D01*
X45731503Y78517700D01*
X45769599Y78479604D01*
X45807694Y78403414D01*
X45807694Y78289128D01*
X45769599Y78212938D01*
X45731503Y78174842D01*
X45655313Y78136747D01*
X45350551Y78136747D01*
X46112456Y78479604D02*
X46150551Y78517700D01*
X46226741Y78555795D01*
X46417218Y78555795D01*
X46493408Y78517700D01*
X46531503Y78479604D01*
X46569599Y78403414D01*
X46569599Y78327223D01*
X46531503Y78212938D01*
X46074360Y77755795D01*
X46569599Y77755795D01*
X47293408Y78555795D02*
X46912456Y78555795D01*
X46874360Y78174842D01*
X46912456Y78212938D01*
X46988646Y78251033D01*
X47179122Y78251033D01*
X47255313Y78212938D01*
X47293408Y78174842D01*
X47331503Y78098652D01*
X47331503Y77908176D01*
X47293408Y77831985D01*
X47255313Y77793890D01*
X47179122Y77755795D01*
X46988646Y77755795D01*
X46912456Y77793890D01*
X46874360Y77831985D01*
X38403594Y7270795D02*
X38136927Y7651747D01*
X37946451Y7270795D02*
X37946451Y8070795D01*
X38251213Y8070795D01*
X38327403Y8032700D01*
X38365499Y7994604D01*
X38403594Y7918414D01*
X38403594Y7804128D01*
X38365499Y7727938D01*
X38327403Y7689842D01*
X38251213Y7651747D01*
X37946451Y7651747D01*
X38708356Y7994604D02*
X38746451Y8032700D01*
X38822641Y8070795D01*
X39013118Y8070795D01*
X39089308Y8032700D01*
X39127403Y7994604D01*
X39165499Y7918414D01*
X39165499Y7842223D01*
X39127403Y7727938D01*
X38670260Y7270795D01*
X39165499Y7270795D01*
X39851213Y7804128D02*
X39851213Y7270795D01*
X39660737Y8108890D02*
X39470260Y7537461D01*
X39965499Y7537461D01*
X45794994Y79622695D02*
X45528327Y80003647D01*
X45337851Y79622695D02*
X45337851Y80422695D01*
X45642613Y80422695D01*
X45718803Y80384600D01*
X45756899Y80346504D01*
X45794994Y80270314D01*
X45794994Y80156028D01*
X45756899Y80079838D01*
X45718803Y80041742D01*
X45642613Y80003647D01*
X45337851Y80003647D01*
X46099756Y80346504D02*
X46137851Y80384600D01*
X46214041Y80422695D01*
X46404518Y80422695D01*
X46480708Y80384600D01*
X46518803Y80346504D01*
X46556899Y80270314D01*
X46556899Y80194123D01*
X46518803Y80079838D01*
X46061660Y79622695D01*
X46556899Y79622695D01*
X46823565Y80422695D02*
X47318803Y80422695D01*
X47052137Y80117933D01*
X47166422Y80117933D01*
X47242613Y80079838D01*
X47280708Y80041742D01*
X47318803Y79965552D01*
X47318803Y79775076D01*
X47280708Y79698885D01*
X47242613Y79660790D01*
X47166422Y79622695D01*
X46937851Y79622695D01*
X46861660Y79660790D01*
X46823565Y79698885D01*
X45172694Y60864795D02*
X44906027Y61245747D01*
X44715551Y60864795D02*
X44715551Y61664795D01*
X45020313Y61664795D01*
X45096503Y61626700D01*
X45134599Y61588604D01*
X45172694Y61512414D01*
X45172694Y61398128D01*
X45134599Y61321938D01*
X45096503Y61283842D01*
X45020313Y61245747D01*
X44715551Y61245747D01*
X45477456Y61588604D02*
X45515551Y61626700D01*
X45591741Y61664795D01*
X45782218Y61664795D01*
X45858408Y61626700D01*
X45896503Y61588604D01*
X45934599Y61512414D01*
X45934599Y61436223D01*
X45896503Y61321938D01*
X45439360Y60864795D01*
X45934599Y60864795D01*
X46239360Y61588604D02*
X46277456Y61626700D01*
X46353646Y61664795D01*
X46544122Y61664795D01*
X46620313Y61626700D01*
X46658408Y61588604D01*
X46696503Y61512414D01*
X46696503Y61436223D01*
X46658408Y61321938D01*
X46201265Y60864795D01*
X46696503Y60864795D01*
X31659894Y107765895D02*
X31393227Y108146847D01*
X31202751Y107765895D02*
X31202751Y108565895D01*
X31507513Y108565895D01*
X31583703Y108527800D01*
X31621799Y108489704D01*
X31659894Y108413514D01*
X31659894Y108299228D01*
X31621799Y108223038D01*
X31583703Y108184942D01*
X31507513Y108146847D01*
X31202751Y108146847D01*
X31964656Y108489704D02*
X32002751Y108527800D01*
X32078941Y108565895D01*
X32269418Y108565895D01*
X32345608Y108527800D01*
X32383703Y108489704D01*
X32421799Y108413514D01*
X32421799Y108337323D01*
X32383703Y108223038D01*
X31926560Y107765895D01*
X32421799Y107765895D01*
X33183703Y107765895D02*
X32726560Y107765895D01*
X32955132Y107765895D02*
X32955132Y108565895D01*
X32878941Y108451609D01*
X32802751Y108375419D01*
X32726560Y108337323D01*
X36765294Y59594795D02*
X36498627Y59975747D01*
X36308151Y59594795D02*
X36308151Y60394795D01*
X36612913Y60394795D01*
X36689103Y60356700D01*
X36727199Y60318604D01*
X36765294Y60242414D01*
X36765294Y60128128D01*
X36727199Y60051938D01*
X36689103Y60013842D01*
X36612913Y59975747D01*
X36308151Y59975747D01*
X37070056Y60318604D02*
X37108151Y60356700D01*
X37184341Y60394795D01*
X37374818Y60394795D01*
X37451008Y60356700D01*
X37489103Y60318604D01*
X37527199Y60242414D01*
X37527199Y60166223D01*
X37489103Y60051938D01*
X37031960Y59594795D01*
X37527199Y59594795D01*
X38022437Y60394795D02*
X38098627Y60394795D01*
X38174818Y60356700D01*
X38212913Y60318604D01*
X38251008Y60242414D01*
X38289103Y60090033D01*
X38289103Y59899557D01*
X38251008Y59747176D01*
X38212913Y59670985D01*
X38174818Y59632890D01*
X38098627Y59594795D01*
X38022437Y59594795D01*
X37946246Y59632890D01*
X37908151Y59670985D01*
X37870056Y59747176D01*
X37831960Y59899557D01*
X37831960Y60090033D01*
X37870056Y60242414D01*
X37908151Y60318604D01*
X37946246Y60356700D01*
X38022437Y60394795D01*
X29646194Y59034495D02*
X29379527Y59415447D01*
X29189051Y59034495D02*
X29189051Y59834495D01*
X29493813Y59834495D01*
X29570003Y59796400D01*
X29608099Y59758304D01*
X29646194Y59682114D01*
X29646194Y59567828D01*
X29608099Y59491638D01*
X29570003Y59453542D01*
X29493813Y59415447D01*
X29189051Y59415447D01*
X30408099Y59034495D02*
X29950956Y59034495D01*
X30179527Y59034495D02*
X30179527Y59834495D01*
X30103337Y59720209D01*
X30027146Y59644019D01*
X29950956Y59605923D01*
X30789051Y59034495D02*
X30941432Y59034495D01*
X31017622Y59072590D01*
X31055718Y59110685D01*
X31131908Y59224971D01*
X31170003Y59377352D01*
X31170003Y59682114D01*
X31131908Y59758304D01*
X31093813Y59796400D01*
X31017622Y59834495D01*
X30865241Y59834495D01*
X30789051Y59796400D01*
X30750956Y59758304D01*
X30712860Y59682114D01*
X30712860Y59491638D01*
X30750956Y59415447D01*
X30789051Y59377352D01*
X30865241Y59339257D01*
X31017622Y59339257D01*
X31093813Y59377352D01*
X31131908Y59415447D01*
X31170003Y59491638D01*
X32828294Y8426495D02*
X32561627Y8807447D01*
X32371151Y8426495D02*
X32371151Y9226495D01*
X32675913Y9226495D01*
X32752103Y9188400D01*
X32790199Y9150304D01*
X32828294Y9074114D01*
X32828294Y8959828D01*
X32790199Y8883638D01*
X32752103Y8845542D01*
X32675913Y8807447D01*
X32371151Y8807447D01*
X33590199Y8426495D02*
X33133056Y8426495D01*
X33361627Y8426495D02*
X33361627Y9226495D01*
X33285437Y9112209D01*
X33209246Y9036019D01*
X33133056Y8997923D01*
X34047341Y8883638D02*
X33971151Y8921733D01*
X33933056Y8959828D01*
X33894960Y9036019D01*
X33894960Y9074114D01*
X33933056Y9150304D01*
X33971151Y9188400D01*
X34047341Y9226495D01*
X34199722Y9226495D01*
X34275913Y9188400D01*
X34314008Y9150304D01*
X34352103Y9074114D01*
X34352103Y9036019D01*
X34314008Y8959828D01*
X34275913Y8921733D01*
X34199722Y8883638D01*
X34047341Y8883638D01*
X33971151Y8845542D01*
X33933056Y8807447D01*
X33894960Y8731257D01*
X33894960Y8578876D01*
X33933056Y8502685D01*
X33971151Y8464590D01*
X34047341Y8426495D01*
X34199722Y8426495D01*
X34275913Y8464590D01*
X34314008Y8502685D01*
X34352103Y8578876D01*
X34352103Y8731257D01*
X34314008Y8807447D01*
X34275913Y8845542D01*
X34199722Y8883638D01*
X45794994Y104908395D02*
X45528327Y105289347D01*
X45337851Y104908395D02*
X45337851Y105708395D01*
X45642613Y105708395D01*
X45718803Y105670300D01*
X45756899Y105632204D01*
X45794994Y105556014D01*
X45794994Y105441728D01*
X45756899Y105365538D01*
X45718803Y105327442D01*
X45642613Y105289347D01*
X45337851Y105289347D01*
X46556899Y104908395D02*
X46099756Y104908395D01*
X46328327Y104908395D02*
X46328327Y105708395D01*
X46252137Y105594109D01*
X46175946Y105517919D01*
X46099756Y105479823D01*
X46823565Y105708395D02*
X47356899Y105708395D01*
X47014041Y104908395D01*
X36320794Y27019295D02*
X36054127Y27400247D01*
X35863651Y27019295D02*
X35863651Y27819295D01*
X36168413Y27819295D01*
X36244603Y27781200D01*
X36282699Y27743104D01*
X36320794Y27666914D01*
X36320794Y27552628D01*
X36282699Y27476438D01*
X36244603Y27438342D01*
X36168413Y27400247D01*
X35863651Y27400247D01*
X37082699Y27019295D02*
X36625556Y27019295D01*
X36854127Y27019295D02*
X36854127Y27819295D01*
X36777937Y27705009D01*
X36701746Y27628819D01*
X36625556Y27590723D01*
X37768413Y27819295D02*
X37616032Y27819295D01*
X37539841Y27781200D01*
X37501746Y27743104D01*
X37425556Y27628819D01*
X37387460Y27476438D01*
X37387460Y27171676D01*
X37425556Y27095485D01*
X37463651Y27057390D01*
X37539841Y27019295D01*
X37692222Y27019295D01*
X37768413Y27057390D01*
X37806508Y27095485D01*
X37844603Y27171676D01*
X37844603Y27362152D01*
X37806508Y27438342D01*
X37768413Y27476438D01*
X37692222Y27514533D01*
X37539841Y27514533D01*
X37463651Y27476438D01*
X37425556Y27438342D01*
X37387460Y27362152D01*
X39724394Y53181295D02*
X39457727Y53562247D01*
X39267251Y53181295D02*
X39267251Y53981295D01*
X39572013Y53981295D01*
X39648203Y53943200D01*
X39686299Y53905104D01*
X39724394Y53828914D01*
X39724394Y53714628D01*
X39686299Y53638438D01*
X39648203Y53600342D01*
X39572013Y53562247D01*
X39267251Y53562247D01*
X40486299Y53181295D02*
X40029156Y53181295D01*
X40257727Y53181295D02*
X40257727Y53981295D01*
X40181537Y53867009D01*
X40105346Y53790819D01*
X40029156Y53752723D01*
X41210108Y53981295D02*
X40829156Y53981295D01*
X40791060Y53600342D01*
X40829156Y53638438D01*
X40905346Y53676533D01*
X41095822Y53676533D01*
X41172013Y53638438D01*
X41210108Y53600342D01*
X41248203Y53524152D01*
X41248203Y53333676D01*
X41210108Y53257485D01*
X41172013Y53219390D01*
X41095822Y53181295D01*
X40905346Y53181295D01*
X40829156Y53219390D01*
X40791060Y53257485D01*
X28332494Y6127795D02*
X28065827Y6508747D01*
X27875351Y6127795D02*
X27875351Y6927795D01*
X28180113Y6927795D01*
X28256303Y6889700D01*
X28294399Y6851604D01*
X28332494Y6775414D01*
X28332494Y6661128D01*
X28294399Y6584938D01*
X28256303Y6546842D01*
X28180113Y6508747D01*
X27875351Y6508747D01*
X29094399Y6127795D02*
X28637256Y6127795D01*
X28865827Y6127795D02*
X28865827Y6927795D01*
X28789637Y6813509D01*
X28713446Y6737319D01*
X28637256Y6699223D01*
X29780113Y6661128D02*
X29780113Y6127795D01*
X29589637Y6965890D02*
X29399160Y6394461D01*
X29894399Y6394461D01*
X29246894Y99117195D02*
X28980227Y99498147D01*
X28789751Y99117195D02*
X28789751Y99917195D01*
X29094513Y99917195D01*
X29170703Y99879100D01*
X29208799Y99841004D01*
X29246894Y99764814D01*
X29246894Y99650528D01*
X29208799Y99574338D01*
X29170703Y99536242D01*
X29094513Y99498147D01*
X28789751Y99498147D01*
X30008799Y99117195D02*
X29551656Y99117195D01*
X29780227Y99117195D02*
X29780227Y99917195D01*
X29704037Y99802909D01*
X29627846Y99726719D01*
X29551656Y99688623D01*
X30275465Y99917195D02*
X30770703Y99917195D01*
X30504037Y99612433D01*
X30618322Y99612433D01*
X30694513Y99574338D01*
X30732608Y99536242D01*
X30770703Y99460052D01*
X30770703Y99269576D01*
X30732608Y99193385D01*
X30694513Y99155290D01*
X30618322Y99117195D01*
X30389751Y99117195D01*
X30313560Y99155290D01*
X30275465Y99193385D01*
X29056394Y100260195D02*
X28789727Y100641147D01*
X28599251Y100260195D02*
X28599251Y101060195D01*
X28904013Y101060195D01*
X28980203Y101022100D01*
X29018299Y100984004D01*
X29056394Y100907814D01*
X29056394Y100793528D01*
X29018299Y100717338D01*
X28980203Y100679242D01*
X28904013Y100641147D01*
X28599251Y100641147D01*
X29818299Y100260195D02*
X29361156Y100260195D01*
X29589727Y100260195D02*
X29589727Y101060195D01*
X29513537Y100945909D01*
X29437346Y100869719D01*
X29361156Y100831623D01*
X30123060Y100984004D02*
X30161156Y101022100D01*
X30237346Y101060195D01*
X30427822Y101060195D01*
X30504013Y101022100D01*
X30542108Y100984004D01*
X30580203Y100907814D01*
X30580203Y100831623D01*
X30542108Y100717338D01*
X30084965Y100260195D01*
X30580203Y100260195D01*
X42188194Y37814295D02*
X41921527Y38195247D01*
X41731051Y37814295D02*
X41731051Y38614295D01*
X42035813Y38614295D01*
X42112003Y38576200D01*
X42150099Y38538104D01*
X42188194Y38461914D01*
X42188194Y38347628D01*
X42150099Y38271438D01*
X42112003Y38233342D01*
X42035813Y38195247D01*
X41731051Y38195247D01*
X42950099Y37814295D02*
X42492956Y37814295D01*
X42721527Y37814295D02*
X42721527Y38614295D01*
X42645337Y38500009D01*
X42569146Y38423819D01*
X42492956Y38385723D01*
X43712003Y37814295D02*
X43254860Y37814295D01*
X43483432Y37814295D02*
X43483432Y38614295D01*
X43407241Y38500009D01*
X43331051Y38423819D01*
X43254860Y38385723D01*
X45617194Y98812395D02*
X45350527Y99193347D01*
X45160051Y98812395D02*
X45160051Y99612395D01*
X45464813Y99612395D01*
X45541003Y99574300D01*
X45579099Y99536204D01*
X45617194Y99460014D01*
X45617194Y99345728D01*
X45579099Y99269538D01*
X45541003Y99231442D01*
X45464813Y99193347D01*
X45160051Y99193347D01*
X46379099Y98812395D02*
X45921956Y98812395D01*
X46150527Y98812395D02*
X46150527Y99612395D01*
X46074337Y99498109D01*
X45998146Y99421919D01*
X45921956Y99383823D01*
X46874337Y99612395D02*
X46950527Y99612395D01*
X47026718Y99574300D01*
X47064813Y99536204D01*
X47102908Y99460014D01*
X47141003Y99307633D01*
X47141003Y99117157D01*
X47102908Y98964776D01*
X47064813Y98888585D01*
X47026718Y98850490D01*
X46950527Y98812395D01*
X46874337Y98812395D01*
X46798146Y98850490D01*
X46760051Y98888585D01*
X46721956Y98964776D01*
X46683860Y99117157D01*
X46683860Y99307633D01*
X46721956Y99460014D01*
X46760051Y99536204D01*
X46798146Y99574300D01*
X46874337Y99612395D01*
X35342846Y24314195D02*
X35076180Y24695147D01*
X34885703Y24314195D02*
X34885703Y25114195D01*
X35190465Y25114195D01*
X35266656Y25076100D01*
X35304751Y25038004D01*
X35342846Y24961814D01*
X35342846Y24847528D01*
X35304751Y24771338D01*
X35266656Y24733242D01*
X35190465Y24695147D01*
X34885703Y24695147D01*
X35723799Y24314195D02*
X35876180Y24314195D01*
X35952370Y24352290D01*
X35990465Y24390385D01*
X36066656Y24504671D01*
X36104751Y24657052D01*
X36104751Y24961814D01*
X36066656Y25038004D01*
X36028560Y25076100D01*
X35952370Y25114195D01*
X35799989Y25114195D01*
X35723799Y25076100D01*
X35685703Y25038004D01*
X35647608Y24961814D01*
X35647608Y24771338D01*
X35685703Y24695147D01*
X35723799Y24657052D01*
X35799989Y24618957D01*
X35952370Y24618957D01*
X36028560Y24657052D01*
X36066656Y24695147D01*
X36104751Y24771338D01*
X41388046Y57181795D02*
X41121380Y57562747D01*
X40930903Y57181795D02*
X40930903Y57981795D01*
X41235665Y57981795D01*
X41311856Y57943700D01*
X41349951Y57905604D01*
X41388046Y57829414D01*
X41388046Y57715128D01*
X41349951Y57638938D01*
X41311856Y57600842D01*
X41235665Y57562747D01*
X40930903Y57562747D01*
X41845189Y57638938D02*
X41768999Y57677033D01*
X41730903Y57715128D01*
X41692808Y57791319D01*
X41692808Y57829414D01*
X41730903Y57905604D01*
X41768999Y57943700D01*
X41845189Y57981795D01*
X41997570Y57981795D01*
X42073760Y57943700D01*
X42111856Y57905604D01*
X42149951Y57829414D01*
X42149951Y57791319D01*
X42111856Y57715128D01*
X42073760Y57677033D01*
X41997570Y57638938D01*
X41845189Y57638938D01*
X41768999Y57600842D01*
X41730903Y57562747D01*
X41692808Y57486557D01*
X41692808Y57334176D01*
X41730903Y57257985D01*
X41768999Y57219890D01*
X41845189Y57181795D01*
X41997570Y57181795D01*
X42073760Y57219890D01*
X42111856Y57257985D01*
X42149951Y57334176D01*
X42149951Y57486557D01*
X42111856Y57562747D01*
X42073760Y57600842D01*
X41997570Y57638938D01*
X29805646Y102127095D02*
X29538980Y102508047D01*
X29348503Y102127095D02*
X29348503Y102927095D01*
X29653265Y102927095D01*
X29729456Y102889000D01*
X29767551Y102850904D01*
X29805646Y102774714D01*
X29805646Y102660428D01*
X29767551Y102584238D01*
X29729456Y102546142D01*
X29653265Y102508047D01*
X29348503Y102508047D01*
X30072313Y102927095D02*
X30605646Y102927095D01*
X30262789Y102127095D01*
X45807646Y100183995D02*
X45540980Y100564947D01*
X45350503Y100183995D02*
X45350503Y100983995D01*
X45655265Y100983995D01*
X45731456Y100945900D01*
X45769551Y100907804D01*
X45807646Y100831614D01*
X45807646Y100717328D01*
X45769551Y100641138D01*
X45731456Y100603042D01*
X45655265Y100564947D01*
X45350503Y100564947D01*
X46493360Y100983995D02*
X46340980Y100983995D01*
X46264789Y100945900D01*
X46226694Y100907804D01*
X46150503Y100793519D01*
X46112408Y100641138D01*
X46112408Y100336376D01*
X46150503Y100260185D01*
X46188599Y100222090D01*
X46264789Y100183995D01*
X46417170Y100183995D01*
X46493360Y100222090D01*
X46531456Y100260185D01*
X46569551Y100336376D01*
X46569551Y100526852D01*
X46531456Y100603042D01*
X46493360Y100641138D01*
X46417170Y100679233D01*
X46264789Y100679233D01*
X46188599Y100641138D01*
X46150503Y100603042D01*
X46112408Y100526852D01*
X34634186Y22716535D02*
X34367520Y23097487D01*
X34177043Y22716535D02*
X34177043Y23516535D01*
X34481805Y23516535D01*
X34557996Y23478440D01*
X34596091Y23440344D01*
X34634186Y23364154D01*
X34634186Y23249868D01*
X34596091Y23173678D01*
X34557996Y23135582D01*
X34481805Y23097487D01*
X34177043Y23097487D01*
X35357996Y23516535D02*
X34977043Y23516535D01*
X34938948Y23135582D01*
X34977043Y23173678D01*
X35053234Y23211773D01*
X35243710Y23211773D01*
X35319900Y23173678D01*
X35357996Y23135582D01*
X35396091Y23059392D01*
X35396091Y22868916D01*
X35357996Y22792725D01*
X35319900Y22754630D01*
X35243710Y22716535D01*
X35053234Y22716535D01*
X34977043Y22754630D01*
X34938948Y22792725D01*
X45629846Y102596995D02*
X45363180Y102977947D01*
X45172703Y102596995D02*
X45172703Y103396995D01*
X45477465Y103396995D01*
X45553656Y103358900D01*
X45591751Y103320804D01*
X45629846Y103244614D01*
X45629846Y103130328D01*
X45591751Y103054138D01*
X45553656Y103016042D01*
X45477465Y102977947D01*
X45172703Y102977947D01*
X46315560Y103130328D02*
X46315560Y102596995D01*
X46125084Y103435090D02*
X45934608Y102863661D01*
X46429846Y102863661D01*
X45921946Y15005095D02*
X45655280Y15386047D01*
X45464803Y15005095D02*
X45464803Y15805095D01*
X45769565Y15805095D01*
X45845756Y15767000D01*
X45883851Y15728904D01*
X45921946Y15652714D01*
X45921946Y15538428D01*
X45883851Y15462238D01*
X45845756Y15424142D01*
X45769565Y15386047D01*
X45464803Y15386047D01*
X46188613Y15805095D02*
X46683851Y15805095D01*
X46417184Y15500333D01*
X46531470Y15500333D01*
X46607660Y15462238D01*
X46645756Y15424142D01*
X46683851Y15347952D01*
X46683851Y15157476D01*
X46645756Y15081285D01*
X46607660Y15043190D01*
X46531470Y15005095D01*
X46302899Y15005095D01*
X46226708Y15043190D01*
X46188613Y15081285D01*
X39063946Y37776195D02*
X38797280Y38157147D01*
X38606803Y37776195D02*
X38606803Y38576195D01*
X38911565Y38576195D01*
X38987756Y38538100D01*
X39025851Y38500004D01*
X39063946Y38423814D01*
X39063946Y38309528D01*
X39025851Y38233338D01*
X38987756Y38195242D01*
X38911565Y38157147D01*
X38606803Y38157147D01*
X39368708Y38500004D02*
X39406803Y38538100D01*
X39482994Y38576195D01*
X39673470Y38576195D01*
X39749660Y38538100D01*
X39787756Y38500004D01*
X39825851Y38423814D01*
X39825851Y38347623D01*
X39787756Y38233338D01*
X39330613Y37776195D01*
X39825851Y37776195D01*
X45744146Y85731395D02*
X45477480Y86112347D01*
X45287003Y85731395D02*
X45287003Y86531395D01*
X45591765Y86531395D01*
X45667956Y86493300D01*
X45706051Y86455204D01*
X45744146Y86379014D01*
X45744146Y86264728D01*
X45706051Y86188538D01*
X45667956Y86150442D01*
X45591765Y86112347D01*
X45287003Y86112347D01*
X46506051Y85731395D02*
X46048908Y85731395D01*
X46277480Y85731395D02*
X46277480Y86531395D01*
X46201289Y86417109D01*
X46125099Y86340919D01*
X46048908Y86302823D01*
D17*
X13146846Y33792700D02*
X13680180Y33792700D01*
X14380180Y33526033D02*
X13980180Y33526033D01*
X14180180Y33526033D02*
X14180180Y34226033D01*
X14113513Y34126033D01*
X14046846Y34059366D01*
X13980180Y34026033D01*
X14646846Y34159366D02*
X14680180Y34192700D01*
X14746846Y34226033D01*
X14913513Y34226033D01*
X14980180Y34192700D01*
X15013513Y34159366D01*
X15046846Y34092700D01*
X15046846Y34026033D01*
X15013513Y33926033D01*
X14613513Y33526033D01*
X15046846Y33526033D01*
X15246846Y34226033D02*
X15480180Y33526033D01*
X15713513Y34226033D01*
D19*
X9714303Y67773595D02*
X9333351Y67773595D01*
X9333351Y68573595D01*
X9980970Y67773595D02*
X9980970Y68573595D01*
X10247637Y68002166D01*
X10514303Y68573595D01*
X10514303Y67773595D01*
X11238113Y68306928D02*
X11238113Y67773595D01*
X11047637Y68611690D02*
X10857160Y68040261D01*
X11352399Y68040261D01*
X14210103Y93452995D02*
X13829151Y93452995D01*
X13829151Y94252995D01*
X14476770Y93452995D02*
X14476770Y94252995D01*
X14743437Y93681566D01*
X15010103Y94252995D01*
X15010103Y93452995D01*
X15314865Y94252995D02*
X15810103Y94252995D01*
X15543437Y93948233D01*
X15657722Y93948233D01*
X15733913Y93910138D01*
X15772008Y93872042D01*
X15810103Y93795852D01*
X15810103Y93605376D01*
X15772008Y93529185D01*
X15733913Y93491090D01*
X15657722Y93452995D01*
X15429151Y93452995D01*
X15352960Y93491090D01*
X15314865Y93529185D01*
X42200903Y70643795D02*
X41819951Y70643795D01*
X41819951Y71443795D01*
X42467570Y70643795D02*
X42467570Y71443795D01*
X42734237Y70872366D01*
X43000903Y71443795D01*
X43000903Y70643795D01*
X43343760Y71367604D02*
X43381856Y71405700D01*
X43458046Y71443795D01*
X43648522Y71443795D01*
X43724713Y71405700D01*
X43762808Y71367604D01*
X43800903Y71291414D01*
X43800903Y71215223D01*
X43762808Y71100938D01*
X43305665Y70643795D01*
X43800903Y70643795D01*
X41794503Y93567295D02*
X41413551Y93567295D01*
X41413551Y94367295D01*
X42061170Y93567295D02*
X42061170Y94367295D01*
X42327837Y93795866D01*
X42594503Y94367295D01*
X42594503Y93567295D01*
X43394503Y93567295D02*
X42937360Y93567295D01*
X43165932Y93567295D02*
X43165932Y94367295D01*
X43089741Y94253009D01*
X43013551Y94176819D01*
X42937360Y94138723D01*
X23201703Y36658595D02*
X23201703Y37458595D01*
X23392180Y37458595D01*
X23506465Y37420500D01*
X23582656Y37344309D01*
X23620751Y37268119D01*
X23658846Y37115738D01*
X23658846Y37001452D01*
X23620751Y36849071D01*
X23582656Y36772880D01*
X23506465Y36696690D01*
X23392180Y36658595D01*
X23201703Y36658595D01*
X24344560Y37191928D02*
X24344560Y36658595D01*
X24154084Y37496690D02*
X23963608Y36925261D01*
X24458846Y36925261D01*
X23023903Y41662395D02*
X23023903Y42462395D01*
X23214380Y42462395D01*
X23328665Y42424300D01*
X23404856Y42348109D01*
X23442951Y42271919D01*
X23481046Y42119538D01*
X23481046Y42005252D01*
X23442951Y41852871D01*
X23404856Y41776680D01*
X23328665Y41700490D01*
X23214380Y41662395D01*
X23023903Y41662395D01*
X23747713Y42462395D02*
X24242951Y42462395D01*
X23976284Y42157633D01*
X24090570Y42157633D01*
X24166760Y42119538D01*
X24204856Y42081442D01*
X24242951Y42005252D01*
X24242951Y41814776D01*
X24204856Y41738585D01*
X24166760Y41700490D01*
X24090570Y41662395D01*
X23861999Y41662395D01*
X23785808Y41700490D01*
X23747713Y41738585D01*
X5518984Y21177323D02*
X4718984Y21177323D01*
X4718984Y21367800D01*
X4757080Y21482085D01*
X4833270Y21558276D01*
X4909460Y21596371D01*
X5061841Y21634466D01*
X5176127Y21634466D01*
X5328508Y21596371D01*
X5404699Y21558276D01*
X5480889Y21482085D01*
X5518984Y21367800D01*
X5518984Y21177323D01*
X4795175Y21939228D02*
X4757080Y21977323D01*
X4718984Y22053514D01*
X4718984Y22243990D01*
X4757080Y22320180D01*
X4795175Y22358276D01*
X4871365Y22396371D01*
X4947556Y22396371D01*
X5061841Y22358276D01*
X5518984Y21901133D01*
X5518984Y22396371D01*
X45972803Y26142995D02*
X45972803Y26942995D01*
X46163280Y26942995D01*
X46277565Y26904900D01*
X46353756Y26828709D01*
X46391851Y26752519D01*
X46429946Y26600138D01*
X46429946Y26485852D01*
X46391851Y26333471D01*
X46353756Y26257280D01*
X46277565Y26181090D01*
X46163280Y26142995D01*
X45972803Y26142995D01*
X47191851Y26142995D02*
X46734708Y26142995D01*
X46963280Y26142995D02*
X46963280Y26942995D01*
X46887089Y26828709D01*
X46810899Y26752519D01*
X46734708Y26714423D01*
X7521746Y29860085D02*
X7483651Y29821990D01*
X7369365Y29783895D01*
X7293175Y29783895D01*
X7178889Y29821990D01*
X7102699Y29898180D01*
X7064603Y29974371D01*
X7026508Y30126752D01*
X7026508Y30241038D01*
X7064603Y30393419D01*
X7102699Y30469609D01*
X7178889Y30545800D01*
X7293175Y30583895D01*
X7369365Y30583895D01*
X7483651Y30545800D01*
X7521746Y30507704D01*
X7864603Y29783895D02*
X7864603Y30583895D01*
X8055080Y30583895D01*
X8169365Y30545800D01*
X8245556Y30469609D01*
X8283651Y30393419D01*
X8321746Y30241038D01*
X8321746Y30126752D01*
X8283651Y29974371D01*
X8245556Y29898180D01*
X8169365Y29821990D01*
X8055080Y29783895D01*
X7864603Y29783895D01*
X8626508Y30507704D02*
X8664603Y30545800D01*
X8740794Y30583895D01*
X8931270Y30583895D01*
X9007460Y30545800D01*
X9045556Y30507704D01*
X9083651Y30431514D01*
X9083651Y30355323D01*
X9045556Y30241038D01*
X8588413Y29783895D01*
X9083651Y29783895D01*
X43502646Y26333485D02*
X43464551Y26295390D01*
X43350265Y26257295D01*
X43274075Y26257295D01*
X43159789Y26295390D01*
X43083599Y26371580D01*
X43045503Y26447771D01*
X43007408Y26600152D01*
X43007408Y26714438D01*
X43045503Y26866819D01*
X43083599Y26943009D01*
X43159789Y27019200D01*
X43274075Y27057295D01*
X43350265Y27057295D01*
X43464551Y27019200D01*
X43502646Y26981104D01*
X43845503Y26257295D02*
X43845503Y27057295D01*
X44035980Y27057295D01*
X44150265Y27019200D01*
X44226456Y26943009D01*
X44264551Y26866819D01*
X44302646Y26714438D01*
X44302646Y26600152D01*
X44264551Y26447771D01*
X44226456Y26371580D01*
X44150265Y26295390D01*
X44035980Y26257295D01*
X43845503Y26257295D01*
X45064551Y26257295D02*
X44607408Y26257295D01*
X44835980Y26257295D02*
X44835980Y27057295D01*
X44759789Y26943009D01*
X44683599Y26866819D01*
X44607408Y26828723D01*
X17448594Y57207185D02*
X17410499Y57169090D01*
X17296213Y57130995D01*
X17220022Y57130995D01*
X17105737Y57169090D01*
X17029546Y57245280D01*
X16991451Y57321471D01*
X16953356Y57473852D01*
X16953356Y57588138D01*
X16991451Y57740519D01*
X17029546Y57816709D01*
X17105737Y57892900D01*
X17220022Y57930995D01*
X17296213Y57930995D01*
X17410499Y57892900D01*
X17448594Y57854804D01*
X18172403Y57930995D02*
X17791451Y57930995D01*
X17753356Y57550042D01*
X17791451Y57588138D01*
X17867641Y57626233D01*
X18058118Y57626233D01*
X18134308Y57588138D01*
X18172403Y57550042D01*
X18210499Y57473852D01*
X18210499Y57283376D01*
X18172403Y57207185D01*
X18134308Y57169090D01*
X18058118Y57130995D01*
X17867641Y57130995D01*
X17791451Y57169090D01*
X17753356Y57207185D01*
X18705737Y57930995D02*
X18781927Y57930995D01*
X18858118Y57892900D01*
X18896213Y57854804D01*
X18934308Y57778614D01*
X18972403Y57626233D01*
X18972403Y57435757D01*
X18934308Y57283376D01*
X18896213Y57207185D01*
X18858118Y57169090D01*
X18781927Y57130995D01*
X18705737Y57130995D01*
X18629546Y57169090D01*
X18591451Y57207185D01*
X18553356Y57283376D01*
X18515260Y57435757D01*
X18515260Y57626233D01*
X18553356Y57778614D01*
X18591451Y57854804D01*
X18629546Y57892900D01*
X18705737Y57930995D01*
X13536994Y48812485D02*
X13498899Y48774390D01*
X13384613Y48736295D01*
X13308422Y48736295D01*
X13194137Y48774390D01*
X13117946Y48850580D01*
X13079851Y48926771D01*
X13041756Y49079152D01*
X13041756Y49193438D01*
X13079851Y49345819D01*
X13117946Y49422009D01*
X13194137Y49498200D01*
X13308422Y49536295D01*
X13384613Y49536295D01*
X13498899Y49498200D01*
X13536994Y49460104D01*
X14222708Y49269628D02*
X14222708Y48736295D01*
X14032232Y49574390D02*
X13841756Y49002961D01*
X14336994Y49002961D01*
X14679851Y48736295D02*
X14832232Y48736295D01*
X14908422Y48774390D01*
X14946518Y48812485D01*
X15022708Y48926771D01*
X15060803Y49079152D01*
X15060803Y49383914D01*
X15022708Y49460104D01*
X14984613Y49498200D01*
X14908422Y49536295D01*
X14756041Y49536295D01*
X14679851Y49498200D01*
X14641756Y49460104D01*
X14603660Y49383914D01*
X14603660Y49193438D01*
X14641756Y49117247D01*
X14679851Y49079152D01*
X14756041Y49041057D01*
X14908422Y49041057D01*
X14984613Y49079152D01*
X15022708Y49117247D01*
X15060803Y49193438D01*
X29424694Y50374585D02*
X29386599Y50336490D01*
X29272313Y50298395D01*
X29196122Y50298395D01*
X29081837Y50336490D01*
X29005646Y50412680D01*
X28967551Y50488871D01*
X28929456Y50641252D01*
X28929456Y50755538D01*
X28967551Y50907919D01*
X29005646Y50984109D01*
X29081837Y51060300D01*
X29196122Y51098395D01*
X29272313Y51098395D01*
X29386599Y51060300D01*
X29424694Y51022204D01*
X30110408Y50831728D02*
X30110408Y50298395D01*
X29919932Y51136490D02*
X29729456Y50565061D01*
X30224694Y50565061D01*
X30643741Y50755538D02*
X30567551Y50793633D01*
X30529456Y50831728D01*
X30491360Y50907919D01*
X30491360Y50946014D01*
X30529456Y51022204D01*
X30567551Y51060300D01*
X30643741Y51098395D01*
X30796122Y51098395D01*
X30872313Y51060300D01*
X30910408Y51022204D01*
X30948503Y50946014D01*
X30948503Y50907919D01*
X30910408Y50831728D01*
X30872313Y50793633D01*
X30796122Y50755538D01*
X30643741Y50755538D01*
X30567551Y50717442D01*
X30529456Y50679347D01*
X30491360Y50603157D01*
X30491360Y50450776D01*
X30529456Y50374585D01*
X30567551Y50336490D01*
X30643741Y50298395D01*
X30796122Y50298395D01*
X30872313Y50336490D01*
X30910408Y50374585D01*
X30948503Y50450776D01*
X30948503Y50603157D01*
X30910408Y50679347D01*
X30872313Y50717442D01*
X30796122Y50755538D01*
X33031494Y58743885D02*
X32993399Y58705790D01*
X32879113Y58667695D01*
X32802922Y58667695D01*
X32688637Y58705790D01*
X32612446Y58781980D01*
X32574351Y58858171D01*
X32536256Y59010552D01*
X32536256Y59124838D01*
X32574351Y59277219D01*
X32612446Y59353409D01*
X32688637Y59429600D01*
X32802922Y59467695D01*
X32879113Y59467695D01*
X32993399Y59429600D01*
X33031494Y59391504D01*
X33717208Y59201028D02*
X33717208Y58667695D01*
X33526732Y59505790D02*
X33336256Y58934361D01*
X33831494Y58934361D01*
X34060065Y59467695D02*
X34593399Y59467695D01*
X34250541Y58667695D01*
X32205994Y66871885D02*
X32167899Y66833790D01*
X32053613Y66795695D01*
X31977422Y66795695D01*
X31863137Y66833790D01*
X31786946Y66909980D01*
X31748851Y66986171D01*
X31710756Y67138552D01*
X31710756Y67252838D01*
X31748851Y67405219D01*
X31786946Y67481409D01*
X31863137Y67557600D01*
X31977422Y67595695D01*
X32053613Y67595695D01*
X32167899Y67557600D01*
X32205994Y67519504D01*
X32891708Y67329028D02*
X32891708Y66795695D01*
X32701232Y67633790D02*
X32510756Y67062361D01*
X33005994Y67062361D01*
X33653613Y67595695D02*
X33501232Y67595695D01*
X33425041Y67557600D01*
X33386946Y67519504D01*
X33310756Y67405219D01*
X33272660Y67252838D01*
X33272660Y66948076D01*
X33310756Y66871885D01*
X33348851Y66833790D01*
X33425041Y66795695D01*
X33577422Y66795695D01*
X33653613Y66833790D01*
X33691708Y66871885D01*
X33729803Y66948076D01*
X33729803Y67138552D01*
X33691708Y67214742D01*
X33653613Y67252838D01*
X33577422Y67290933D01*
X33425041Y67290933D01*
X33348851Y67252838D01*
X33310756Y67214742D01*
X33272660Y67138552D01*
X43305794Y69107085D02*
X43267699Y69068990D01*
X43153413Y69030895D01*
X43077222Y69030895D01*
X42962937Y69068990D01*
X42886746Y69145180D01*
X42848651Y69221371D01*
X42810556Y69373752D01*
X42810556Y69488038D01*
X42848651Y69640419D01*
X42886746Y69716609D01*
X42962937Y69792800D01*
X43077222Y69830895D01*
X43153413Y69830895D01*
X43267699Y69792800D01*
X43305794Y69754704D01*
X43991508Y69564228D02*
X43991508Y69030895D01*
X43801032Y69868990D02*
X43610556Y69297561D01*
X44105794Y69297561D01*
X44791508Y69830895D02*
X44410556Y69830895D01*
X44372460Y69449942D01*
X44410556Y69488038D01*
X44486746Y69526133D01*
X44677222Y69526133D01*
X44753413Y69488038D01*
X44791508Y69449942D01*
X44829603Y69373752D01*
X44829603Y69183276D01*
X44791508Y69107085D01*
X44753413Y69068990D01*
X44677222Y69030895D01*
X44486746Y69030895D01*
X44410556Y69068990D01*
X44372460Y69107085D01*
X20941094Y21723385D02*
X20902999Y21685290D01*
X20788713Y21647195D01*
X20712522Y21647195D01*
X20598237Y21685290D01*
X20522046Y21761480D01*
X20483951Y21837671D01*
X20445856Y21990052D01*
X20445856Y22104338D01*
X20483951Y22256719D01*
X20522046Y22332909D01*
X20598237Y22409100D01*
X20712522Y22447195D01*
X20788713Y22447195D01*
X20902999Y22409100D01*
X20941094Y22371004D01*
X21626808Y22180528D02*
X21626808Y21647195D01*
X21436332Y22485290D02*
X21245856Y21913861D01*
X21741094Y21913861D01*
X22388713Y22180528D02*
X22388713Y21647195D01*
X22198237Y22485290D02*
X22007760Y21913861D01*
X22502999Y21913861D01*
X27633994Y7689885D02*
X27595899Y7651790D01*
X27481613Y7613695D01*
X27405422Y7613695D01*
X27291137Y7651790D01*
X27214946Y7727980D01*
X27176851Y7804171D01*
X27138756Y7956552D01*
X27138756Y8070838D01*
X27176851Y8223219D01*
X27214946Y8299409D01*
X27291137Y8375600D01*
X27405422Y8413695D01*
X27481613Y8413695D01*
X27595899Y8375600D01*
X27633994Y8337504D01*
X28319708Y8147028D02*
X28319708Y7613695D01*
X28129232Y8451790D02*
X27938756Y7880361D01*
X28433994Y7880361D01*
X28662565Y8413695D02*
X29157803Y8413695D01*
X28891137Y8108933D01*
X29005422Y8108933D01*
X29081613Y8070838D01*
X29119708Y8032742D01*
X29157803Y7956552D01*
X29157803Y7766076D01*
X29119708Y7689885D01*
X29081613Y7651790D01*
X29005422Y7613695D01*
X28776851Y7613695D01*
X28700660Y7651790D01*
X28662565Y7689885D01*
X11949494Y29698985D02*
X11911399Y29660890D01*
X11797113Y29622795D01*
X11720922Y29622795D01*
X11606637Y29660890D01*
X11530446Y29737080D01*
X11492351Y29813271D01*
X11454256Y29965652D01*
X11454256Y30079938D01*
X11492351Y30232319D01*
X11530446Y30308509D01*
X11606637Y30384700D01*
X11720922Y30422795D01*
X11797113Y30422795D01*
X11911399Y30384700D01*
X11949494Y30346604D01*
X12635208Y30156128D02*
X12635208Y29622795D01*
X12444732Y30460890D02*
X12254256Y29889461D01*
X12749494Y29889461D01*
X13016160Y30346604D02*
X13054256Y30384700D01*
X13130446Y30422795D01*
X13320922Y30422795D01*
X13397113Y30384700D01*
X13435208Y30346604D01*
X13473303Y30270414D01*
X13473303Y30194223D01*
X13435208Y30079938D01*
X12978065Y29622795D01*
X13473303Y29622795D01*
X15111794Y107499185D02*
X15073699Y107461090D01*
X14959413Y107422995D01*
X14883222Y107422995D01*
X14768937Y107461090D01*
X14692746Y107537280D01*
X14654651Y107613471D01*
X14616556Y107765852D01*
X14616556Y107880138D01*
X14654651Y108032519D01*
X14692746Y108108709D01*
X14768937Y108184900D01*
X14883222Y108222995D01*
X14959413Y108222995D01*
X15073699Y108184900D01*
X15111794Y108146804D01*
X15797508Y107956328D02*
X15797508Y107422995D01*
X15607032Y108261090D02*
X15416556Y107689661D01*
X15911794Y107689661D01*
X16368937Y108222995D02*
X16445127Y108222995D01*
X16521318Y108184900D01*
X16559413Y108146804D01*
X16597508Y108070614D01*
X16635603Y107918233D01*
X16635603Y107727757D01*
X16597508Y107575376D01*
X16559413Y107499185D01*
X16521318Y107461090D01*
X16445127Y107422995D01*
X16368937Y107422995D01*
X16292746Y107461090D01*
X16254651Y107499185D01*
X16216556Y107575376D01*
X16178460Y107727757D01*
X16178460Y107918233D01*
X16216556Y108070614D01*
X16254651Y108146804D01*
X16292746Y108184900D01*
X16368937Y108222995D01*
X29361194Y81070485D02*
X29323099Y81032390D01*
X29208813Y80994295D01*
X29132622Y80994295D01*
X29018337Y81032390D01*
X28942146Y81108580D01*
X28904051Y81184771D01*
X28865956Y81337152D01*
X28865956Y81451438D01*
X28904051Y81603819D01*
X28942146Y81680009D01*
X29018337Y81756200D01*
X29132622Y81794295D01*
X29208813Y81794295D01*
X29323099Y81756200D01*
X29361194Y81718104D01*
X29627860Y81794295D02*
X30123099Y81794295D01*
X29856432Y81489533D01*
X29970718Y81489533D01*
X30046908Y81451438D01*
X30085003Y81413342D01*
X30123099Y81337152D01*
X30123099Y81146676D01*
X30085003Y81070485D01*
X30046908Y81032390D01*
X29970718Y80994295D01*
X29742146Y80994295D01*
X29665956Y81032390D01*
X29627860Y81070485D01*
X30504051Y80994295D02*
X30656432Y80994295D01*
X30732622Y81032390D01*
X30770718Y81070485D01*
X30846908Y81184771D01*
X30885003Y81337152D01*
X30885003Y81641914D01*
X30846908Y81718104D01*
X30808813Y81756200D01*
X30732622Y81794295D01*
X30580241Y81794295D01*
X30504051Y81756200D01*
X30465956Y81718104D01*
X30427860Y81641914D01*
X30427860Y81451438D01*
X30465956Y81375247D01*
X30504051Y81337152D01*
X30580241Y81299057D01*
X30732622Y81299057D01*
X30808813Y81337152D01*
X30846908Y81375247D01*
X30885003Y81451438D01*
X45579094Y83394585D02*
X45540999Y83356490D01*
X45426713Y83318395D01*
X45350522Y83318395D01*
X45236237Y83356490D01*
X45160046Y83432680D01*
X45121951Y83508871D01*
X45083856Y83661252D01*
X45083856Y83775538D01*
X45121951Y83927919D01*
X45160046Y84004109D01*
X45236237Y84080300D01*
X45350522Y84118395D01*
X45426713Y84118395D01*
X45540999Y84080300D01*
X45579094Y84042204D01*
X45845760Y84118395D02*
X46340999Y84118395D01*
X46074332Y83813633D01*
X46188618Y83813633D01*
X46264808Y83775538D01*
X46302903Y83737442D01*
X46340999Y83661252D01*
X46340999Y83470776D01*
X46302903Y83394585D01*
X46264808Y83356490D01*
X46188618Y83318395D01*
X45960046Y83318395D01*
X45883856Y83356490D01*
X45845760Y83394585D01*
X46798141Y83775538D02*
X46721951Y83813633D01*
X46683856Y83851728D01*
X46645760Y83927919D01*
X46645760Y83966014D01*
X46683856Y84042204D01*
X46721951Y84080300D01*
X46798141Y84118395D01*
X46950522Y84118395D01*
X47026713Y84080300D01*
X47064808Y84042204D01*
X47102903Y83966014D01*
X47102903Y83927919D01*
X47064808Y83851728D01*
X47026713Y83813633D01*
X46950522Y83775538D01*
X46798141Y83775538D01*
X46721951Y83737442D01*
X46683856Y83699347D01*
X46645760Y83623157D01*
X46645760Y83470776D01*
X46683856Y83394585D01*
X46721951Y83356490D01*
X46798141Y83318395D01*
X46950522Y83318395D01*
X47026713Y83356490D01*
X47064808Y83394585D01*
X47102903Y83470776D01*
X47102903Y83623157D01*
X47064808Y83699347D01*
X47026713Y83737442D01*
X46950522Y83775538D01*
X29056394Y104197185D02*
X29018299Y104159090D01*
X28904013Y104120995D01*
X28827822Y104120995D01*
X28713537Y104159090D01*
X28637346Y104235280D01*
X28599251Y104311471D01*
X28561156Y104463852D01*
X28561156Y104578138D01*
X28599251Y104730519D01*
X28637346Y104806709D01*
X28713537Y104882900D01*
X28827822Y104920995D01*
X28904013Y104920995D01*
X29018299Y104882900D01*
X29056394Y104844804D01*
X29323060Y104920995D02*
X29818299Y104920995D01*
X29551632Y104616233D01*
X29665918Y104616233D01*
X29742108Y104578138D01*
X29780203Y104540042D01*
X29818299Y104463852D01*
X29818299Y104273376D01*
X29780203Y104197185D01*
X29742108Y104159090D01*
X29665918Y104120995D01*
X29437346Y104120995D01*
X29361156Y104159090D01*
X29323060Y104197185D01*
X30084965Y104920995D02*
X30618299Y104920995D01*
X30275441Y104120995D01*
X42937494Y107918285D02*
X42899399Y107880190D01*
X42785113Y107842095D01*
X42708922Y107842095D01*
X42594637Y107880190D01*
X42518446Y107956380D01*
X42480351Y108032571D01*
X42442256Y108184952D01*
X42442256Y108299238D01*
X42480351Y108451619D01*
X42518446Y108527809D01*
X42594637Y108604000D01*
X42708922Y108642095D01*
X42785113Y108642095D01*
X42899399Y108604000D01*
X42937494Y108565904D01*
X43204160Y108642095D02*
X43699399Y108642095D01*
X43432732Y108337333D01*
X43547018Y108337333D01*
X43623208Y108299238D01*
X43661303Y108261142D01*
X43699399Y108184952D01*
X43699399Y107994476D01*
X43661303Y107918285D01*
X43623208Y107880190D01*
X43547018Y107842095D01*
X43318446Y107842095D01*
X43242256Y107880190D01*
X43204160Y107918285D01*
X44385113Y108642095D02*
X44232732Y108642095D01*
X44156541Y108604000D01*
X44118446Y108565904D01*
X44042256Y108451619D01*
X44004160Y108299238D01*
X44004160Y107994476D01*
X44042256Y107918285D01*
X44080351Y107880190D01*
X44156541Y107842095D01*
X44308922Y107842095D01*
X44385113Y107880190D01*
X44423208Y107918285D01*
X44461303Y107994476D01*
X44461303Y108184952D01*
X44423208Y108261142D01*
X44385113Y108299238D01*
X44308922Y108337333D01*
X44156541Y108337333D01*
X44080351Y108299238D01*
X44042256Y108261142D01*
X44004160Y108184952D01*
X27468894Y21888485D02*
X27430799Y21850390D01*
X27316513Y21812295D01*
X27240322Y21812295D01*
X27126037Y21850390D01*
X27049846Y21926580D01*
X27011751Y22002771D01*
X26973656Y22155152D01*
X26973656Y22269438D01*
X27011751Y22421819D01*
X27049846Y22498009D01*
X27126037Y22574200D01*
X27240322Y22612295D01*
X27316513Y22612295D01*
X27430799Y22574200D01*
X27468894Y22536104D01*
X27735560Y22612295D02*
X28230799Y22612295D01*
X27964132Y22307533D01*
X28078418Y22307533D01*
X28154608Y22269438D01*
X28192703Y22231342D01*
X28230799Y22155152D01*
X28230799Y21964676D01*
X28192703Y21888485D01*
X28154608Y21850390D01*
X28078418Y21812295D01*
X27849846Y21812295D01*
X27773656Y21850390D01*
X27735560Y21888485D01*
X28954608Y22612295D02*
X28573656Y22612295D01*
X28535560Y22231342D01*
X28573656Y22269438D01*
X28649846Y22307533D01*
X28840322Y22307533D01*
X28916513Y22269438D01*
X28954608Y22231342D01*
X28992703Y22155152D01*
X28992703Y21964676D01*
X28954608Y21888485D01*
X28916513Y21850390D01*
X28840322Y21812295D01*
X28649846Y21812295D01*
X28573656Y21850390D01*
X28535560Y21888485D01*
X21195094Y7486685D02*
X21156999Y7448590D01*
X21042713Y7410495D01*
X20966522Y7410495D01*
X20852237Y7448590D01*
X20776046Y7524780D01*
X20737951Y7600971D01*
X20699856Y7753352D01*
X20699856Y7867638D01*
X20737951Y8020019D01*
X20776046Y8096209D01*
X20852237Y8172400D01*
X20966522Y8210495D01*
X21042713Y8210495D01*
X21156999Y8172400D01*
X21195094Y8134304D01*
X21461760Y8210495D02*
X21956999Y8210495D01*
X21690332Y7905733D01*
X21804618Y7905733D01*
X21880808Y7867638D01*
X21918903Y7829542D01*
X21956999Y7753352D01*
X21956999Y7562876D01*
X21918903Y7486685D01*
X21880808Y7448590D01*
X21804618Y7410495D01*
X21576046Y7410495D01*
X21499856Y7448590D01*
X21461760Y7486685D01*
X22642713Y7943828D02*
X22642713Y7410495D01*
X22452237Y8248590D02*
X22261760Y7677161D01*
X22756999Y7677161D01*
X1408494Y79648085D02*
X1370399Y79609990D01*
X1256113Y79571895D01*
X1179922Y79571895D01*
X1065637Y79609990D01*
X989446Y79686180D01*
X951351Y79762371D01*
X913256Y79914752D01*
X913256Y80029038D01*
X951351Y80181419D01*
X989446Y80257609D01*
X1065637Y80333800D01*
X1179922Y80371895D01*
X1256113Y80371895D01*
X1370399Y80333800D01*
X1408494Y80295704D01*
X1675160Y80371895D02*
X2170399Y80371895D01*
X1903732Y80067133D01*
X2018018Y80067133D01*
X2094208Y80029038D01*
X2132303Y79990942D01*
X2170399Y79914752D01*
X2170399Y79724276D01*
X2132303Y79648085D01*
X2094208Y79609990D01*
X2018018Y79571895D01*
X1789446Y79571895D01*
X1713256Y79609990D01*
X1675160Y79648085D01*
X2437065Y80371895D02*
X2932303Y80371895D01*
X2665637Y80067133D01*
X2779922Y80067133D01*
X2856113Y80029038D01*
X2894208Y79990942D01*
X2932303Y79914752D01*
X2932303Y79724276D01*
X2894208Y79648085D01*
X2856113Y79609990D01*
X2779922Y79571895D01*
X2551351Y79571895D01*
X2475160Y79609990D01*
X2437065Y79648085D01*
X16864394Y82251585D02*
X16826299Y82213490D01*
X16712013Y82175395D01*
X16635822Y82175395D01*
X16521537Y82213490D01*
X16445346Y82289680D01*
X16407251Y82365871D01*
X16369156Y82518252D01*
X16369156Y82632538D01*
X16407251Y82784919D01*
X16445346Y82861109D01*
X16521537Y82937300D01*
X16635822Y82975395D01*
X16712013Y82975395D01*
X16826299Y82937300D01*
X16864394Y82899204D01*
X17131060Y82975395D02*
X17626299Y82975395D01*
X17359632Y82670633D01*
X17473918Y82670633D01*
X17550108Y82632538D01*
X17588203Y82594442D01*
X17626299Y82518252D01*
X17626299Y82327776D01*
X17588203Y82251585D01*
X17550108Y82213490D01*
X17473918Y82175395D01*
X17245346Y82175395D01*
X17169156Y82213490D01*
X17131060Y82251585D01*
X17931060Y82899204D02*
X17969156Y82937300D01*
X18045346Y82975395D01*
X18235822Y82975395D01*
X18312013Y82937300D01*
X18350108Y82899204D01*
X18388203Y82823014D01*
X18388203Y82746823D01*
X18350108Y82632538D01*
X17892965Y82175395D01*
X18388203Y82175395D01*
X29030994Y38703285D02*
X28992899Y38665190D01*
X28878613Y38627095D01*
X28802422Y38627095D01*
X28688137Y38665190D01*
X28611946Y38741380D01*
X28573851Y38817571D01*
X28535756Y38969952D01*
X28535756Y39084238D01*
X28573851Y39236619D01*
X28611946Y39312809D01*
X28688137Y39389000D01*
X28802422Y39427095D01*
X28878613Y39427095D01*
X28992899Y39389000D01*
X29030994Y39350904D01*
X29297660Y39427095D02*
X29792899Y39427095D01*
X29526232Y39122333D01*
X29640518Y39122333D01*
X29716708Y39084238D01*
X29754803Y39046142D01*
X29792899Y38969952D01*
X29792899Y38779476D01*
X29754803Y38703285D01*
X29716708Y38665190D01*
X29640518Y38627095D01*
X29411946Y38627095D01*
X29335756Y38665190D01*
X29297660Y38703285D01*
X30554803Y38627095D02*
X30097660Y38627095D01*
X30326232Y38627095D02*
X30326232Y39427095D01*
X30250041Y39312809D01*
X30173851Y39236619D01*
X30097660Y39198523D01*
D12*
X25279608Y38571747D02*
X25279608Y39333652D01*
X25660560Y38952700D02*
X24898656Y38952700D01*
D19*
X34631694Y17976885D02*
X34593599Y17938790D01*
X34479313Y17900695D01*
X34403122Y17900695D01*
X34288837Y17938790D01*
X34212646Y18014980D01*
X34174551Y18091171D01*
X34136456Y18243552D01*
X34136456Y18357838D01*
X34174551Y18510219D01*
X34212646Y18586409D01*
X34288837Y18662600D01*
X34403122Y18700695D01*
X34479313Y18700695D01*
X34593599Y18662600D01*
X34631694Y18624504D01*
X34898360Y18700695D02*
X35393599Y18700695D01*
X35126932Y18395933D01*
X35241218Y18395933D01*
X35317408Y18357838D01*
X35355503Y18319742D01*
X35393599Y18243552D01*
X35393599Y18053076D01*
X35355503Y17976885D01*
X35317408Y17938790D01*
X35241218Y17900695D01*
X35012646Y17900695D01*
X34936456Y17938790D01*
X34898360Y17976885D01*
X35888837Y18700695D02*
X35965027Y18700695D01*
X36041218Y18662600D01*
X36079313Y18624504D01*
X36117408Y18548314D01*
X36155503Y18395933D01*
X36155503Y18205457D01*
X36117408Y18053076D01*
X36079313Y17976885D01*
X36041218Y17938790D01*
X35965027Y17900695D01*
X35888837Y17900695D01*
X35812646Y17938790D01*
X35774551Y17976885D01*
X35736456Y18053076D01*
X35698360Y18205457D01*
X35698360Y18395933D01*
X35736456Y18548314D01*
X35774551Y18624504D01*
X35812646Y18662600D01*
X35888837Y18700695D01*
X29030994Y39884385D02*
X28992899Y39846290D01*
X28878613Y39808195D01*
X28802422Y39808195D01*
X28688137Y39846290D01*
X28611946Y39922480D01*
X28573851Y39998671D01*
X28535756Y40151052D01*
X28535756Y40265338D01*
X28573851Y40417719D01*
X28611946Y40493909D01*
X28688137Y40570100D01*
X28802422Y40608195D01*
X28878613Y40608195D01*
X28992899Y40570100D01*
X29030994Y40532004D01*
X29335756Y40532004D02*
X29373851Y40570100D01*
X29450041Y40608195D01*
X29640518Y40608195D01*
X29716708Y40570100D01*
X29754803Y40532004D01*
X29792899Y40455814D01*
X29792899Y40379623D01*
X29754803Y40265338D01*
X29297660Y39808195D01*
X29792899Y39808195D01*
X30173851Y39808195D02*
X30326232Y39808195D01*
X30402422Y39846290D01*
X30440518Y39884385D01*
X30516708Y39998671D01*
X30554803Y40151052D01*
X30554803Y40455814D01*
X30516708Y40532004D01*
X30478613Y40570100D01*
X30402422Y40608195D01*
X30250041Y40608195D01*
X30173851Y40570100D01*
X30135756Y40532004D01*
X30097660Y40455814D01*
X30097660Y40265338D01*
X30135756Y40189147D01*
X30173851Y40151052D01*
X30250041Y40112957D01*
X30402422Y40112957D01*
X30478613Y40151052D01*
X30516708Y40189147D01*
X30554803Y40265338D01*
D12*
X25279608Y46445747D02*
X25279608Y47207652D01*
X25660560Y46826700D02*
X24898656Y46826700D01*
D19*
X1408494Y70961285D02*
X1370399Y70923190D01*
X1256113Y70885095D01*
X1179922Y70885095D01*
X1065637Y70923190D01*
X989446Y70999380D01*
X951351Y71075571D01*
X913256Y71227952D01*
X913256Y71342238D01*
X951351Y71494619D01*
X989446Y71570809D01*
X1065637Y71647000D01*
X1179922Y71685095D01*
X1256113Y71685095D01*
X1370399Y71647000D01*
X1408494Y71608904D01*
X1713256Y71608904D02*
X1751351Y71647000D01*
X1827541Y71685095D01*
X2018018Y71685095D01*
X2094208Y71647000D01*
X2132303Y71608904D01*
X2170399Y71532714D01*
X2170399Y71456523D01*
X2132303Y71342238D01*
X1675160Y70885095D01*
X2170399Y70885095D01*
X2627541Y71342238D02*
X2551351Y71380333D01*
X2513256Y71418428D01*
X2475160Y71494619D01*
X2475160Y71532714D01*
X2513256Y71608904D01*
X2551351Y71647000D01*
X2627541Y71685095D01*
X2779922Y71685095D01*
X2856113Y71647000D01*
X2894208Y71608904D01*
X2932303Y71532714D01*
X2932303Y71494619D01*
X2894208Y71418428D01*
X2856113Y71380333D01*
X2779922Y71342238D01*
X2627541Y71342238D01*
X2551351Y71304142D01*
X2513256Y71266047D01*
X2475160Y71189857D01*
X2475160Y71037476D01*
X2513256Y70961285D01*
X2551351Y70923190D01*
X2627541Y70885095D01*
X2779922Y70885095D01*
X2856113Y70923190D01*
X2894208Y70961285D01*
X2932303Y71037476D01*
X2932303Y71189857D01*
X2894208Y71266047D01*
X2856113Y71304142D01*
X2779922Y71342238D01*
X1510094Y95218285D02*
X1471999Y95180190D01*
X1357713Y95142095D01*
X1281522Y95142095D01*
X1167237Y95180190D01*
X1091046Y95256380D01*
X1052951Y95332571D01*
X1014856Y95484952D01*
X1014856Y95599238D01*
X1052951Y95751619D01*
X1091046Y95827809D01*
X1167237Y95904000D01*
X1281522Y95942095D01*
X1357713Y95942095D01*
X1471999Y95904000D01*
X1510094Y95865904D01*
X1814856Y95865904D02*
X1852951Y95904000D01*
X1929141Y95942095D01*
X2119618Y95942095D01*
X2195808Y95904000D01*
X2233903Y95865904D01*
X2271999Y95789714D01*
X2271999Y95713523D01*
X2233903Y95599238D01*
X1776760Y95142095D01*
X2271999Y95142095D01*
X2538665Y95942095D02*
X3071999Y95942095D01*
X2729141Y95142095D01*
X29551694Y72320185D02*
X29513599Y72282090D01*
X29399313Y72243995D01*
X29323122Y72243995D01*
X29208837Y72282090D01*
X29132646Y72358280D01*
X29094551Y72434471D01*
X29056456Y72586852D01*
X29056456Y72701138D01*
X29094551Y72853519D01*
X29132646Y72929709D01*
X29208837Y73005900D01*
X29323122Y73043995D01*
X29399313Y73043995D01*
X29513599Y73005900D01*
X29551694Y72967804D01*
X29856456Y72967804D02*
X29894551Y73005900D01*
X29970741Y73043995D01*
X30161218Y73043995D01*
X30237408Y73005900D01*
X30275503Y72967804D01*
X30313599Y72891614D01*
X30313599Y72815423D01*
X30275503Y72701138D01*
X29818360Y72243995D01*
X30313599Y72243995D01*
X30999313Y73043995D02*
X30846932Y73043995D01*
X30770741Y73005900D01*
X30732646Y72967804D01*
X30656456Y72853519D01*
X30618360Y72701138D01*
X30618360Y72396376D01*
X30656456Y72320185D01*
X30694551Y72282090D01*
X30770741Y72243995D01*
X30923122Y72243995D01*
X30999313Y72282090D01*
X31037408Y72320185D01*
X31075503Y72396376D01*
X31075503Y72586852D01*
X31037408Y72663042D01*
X30999313Y72701138D01*
X30923122Y72739233D01*
X30770741Y72739233D01*
X30694551Y72701138D01*
X30656456Y72663042D01*
X30618360Y72586852D01*
X29157994Y95916785D02*
X29119899Y95878690D01*
X29005613Y95840595D01*
X28929422Y95840595D01*
X28815137Y95878690D01*
X28738946Y95954880D01*
X28700851Y96031071D01*
X28662756Y96183452D01*
X28662756Y96297738D01*
X28700851Y96450119D01*
X28738946Y96526309D01*
X28815137Y96602500D01*
X28929422Y96640595D01*
X29005613Y96640595D01*
X29119899Y96602500D01*
X29157994Y96564404D01*
X29462756Y96564404D02*
X29500851Y96602500D01*
X29577041Y96640595D01*
X29767518Y96640595D01*
X29843708Y96602500D01*
X29881803Y96564404D01*
X29919899Y96488214D01*
X29919899Y96412023D01*
X29881803Y96297738D01*
X29424660Y95840595D01*
X29919899Y95840595D01*
X30643708Y96640595D02*
X30262756Y96640595D01*
X30224660Y96259642D01*
X30262756Y96297738D01*
X30338946Y96335833D01*
X30529422Y96335833D01*
X30605613Y96297738D01*
X30643708Y96259642D01*
X30681803Y96183452D01*
X30681803Y95992976D01*
X30643708Y95916785D01*
X30605613Y95878690D01*
X30529422Y95840595D01*
X30338946Y95840595D01*
X30262756Y95878690D01*
X30224660Y95916785D01*
X18172494Y71177185D02*
X18134399Y71139090D01*
X18020113Y71100995D01*
X17943922Y71100995D01*
X17829637Y71139090D01*
X17753446Y71215280D01*
X17715351Y71291471D01*
X17677256Y71443852D01*
X17677256Y71558138D01*
X17715351Y71710519D01*
X17753446Y71786709D01*
X17829637Y71862900D01*
X17943922Y71900995D01*
X18020113Y71900995D01*
X18134399Y71862900D01*
X18172494Y71824804D01*
X18477256Y71824804D02*
X18515351Y71862900D01*
X18591541Y71900995D01*
X18782018Y71900995D01*
X18858208Y71862900D01*
X18896303Y71824804D01*
X18934399Y71748614D01*
X18934399Y71672423D01*
X18896303Y71558138D01*
X18439160Y71100995D01*
X18934399Y71100995D01*
X19620113Y71634328D02*
X19620113Y71100995D01*
X19429637Y71939090D02*
X19239160Y71367661D01*
X19734399Y71367661D01*
X17651794Y95167485D02*
X17613699Y95129390D01*
X17499413Y95091295D01*
X17423222Y95091295D01*
X17308937Y95129390D01*
X17232746Y95205580D01*
X17194651Y95281771D01*
X17156556Y95434152D01*
X17156556Y95548438D01*
X17194651Y95700819D01*
X17232746Y95777009D01*
X17308937Y95853200D01*
X17423222Y95891295D01*
X17499413Y95891295D01*
X17613699Y95853200D01*
X17651794Y95815104D01*
X17956556Y95815104D02*
X17994651Y95853200D01*
X18070841Y95891295D01*
X18261318Y95891295D01*
X18337508Y95853200D01*
X18375603Y95815104D01*
X18413699Y95738914D01*
X18413699Y95662723D01*
X18375603Y95548438D01*
X17918460Y95091295D01*
X18413699Y95091295D01*
X18680365Y95891295D02*
X19175603Y95891295D01*
X18908937Y95586533D01*
X19023222Y95586533D01*
X19099413Y95548438D01*
X19137508Y95510342D01*
X19175603Y95434152D01*
X19175603Y95243676D01*
X19137508Y95167485D01*
X19099413Y95129390D01*
X19023222Y95091295D01*
X18794651Y95091295D01*
X18718460Y95129390D01*
X18680365Y95167485D01*
X45642594Y72624985D02*
X45604499Y72586890D01*
X45490213Y72548795D01*
X45414022Y72548795D01*
X45299737Y72586890D01*
X45223546Y72663080D01*
X45185451Y72739271D01*
X45147356Y72891652D01*
X45147356Y73005938D01*
X45185451Y73158319D01*
X45223546Y73234509D01*
X45299737Y73310700D01*
X45414022Y73348795D01*
X45490213Y73348795D01*
X45604499Y73310700D01*
X45642594Y73272604D01*
X45947356Y73272604D02*
X45985451Y73310700D01*
X46061641Y73348795D01*
X46252118Y73348795D01*
X46328308Y73310700D01*
X46366403Y73272604D01*
X46404499Y73196414D01*
X46404499Y73120223D01*
X46366403Y73005938D01*
X45909260Y72548795D01*
X46404499Y72548795D01*
X46709260Y73272604D02*
X46747356Y73310700D01*
X46823546Y73348795D01*
X47014022Y73348795D01*
X47090213Y73310700D01*
X47128308Y73272604D01*
X47166403Y73196414D01*
X47166403Y73120223D01*
X47128308Y73005938D01*
X46671165Y72548795D01*
X47166403Y72548795D01*
X45642594Y95548485D02*
X45604499Y95510390D01*
X45490213Y95472295D01*
X45414022Y95472295D01*
X45299737Y95510390D01*
X45223546Y95586580D01*
X45185451Y95662771D01*
X45147356Y95815152D01*
X45147356Y95929438D01*
X45185451Y96081819D01*
X45223546Y96158009D01*
X45299737Y96234200D01*
X45414022Y96272295D01*
X45490213Y96272295D01*
X45604499Y96234200D01*
X45642594Y96196104D01*
X45947356Y96196104D02*
X45985451Y96234200D01*
X46061641Y96272295D01*
X46252118Y96272295D01*
X46328308Y96234200D01*
X46366403Y96196104D01*
X46404499Y96119914D01*
X46404499Y96043723D01*
X46366403Y95929438D01*
X45909260Y95472295D01*
X46404499Y95472295D01*
X47166403Y95472295D02*
X46709260Y95472295D01*
X46937832Y95472295D02*
X46937832Y96272295D01*
X46861641Y96158009D01*
X46785451Y96081819D01*
X46709260Y96043723D01*
X1471994Y72396385D02*
X1433899Y72358290D01*
X1319613Y72320195D01*
X1243422Y72320195D01*
X1129137Y72358290D01*
X1052946Y72434480D01*
X1014851Y72510671D01*
X976756Y72663052D01*
X976756Y72777338D01*
X1014851Y72929719D01*
X1052946Y73005909D01*
X1129137Y73082100D01*
X1243422Y73120195D01*
X1319613Y73120195D01*
X1433899Y73082100D01*
X1471994Y73044004D01*
X1776756Y73044004D02*
X1814851Y73082100D01*
X1891041Y73120195D01*
X2081518Y73120195D01*
X2157708Y73082100D01*
X2195803Y73044004D01*
X2233899Y72967814D01*
X2233899Y72891623D01*
X2195803Y72777338D01*
X1738660Y72320195D01*
X2233899Y72320195D01*
X2729137Y73120195D02*
X2805327Y73120195D01*
X2881518Y73082100D01*
X2919613Y73044004D01*
X2957708Y72967814D01*
X2995803Y72815433D01*
X2995803Y72624957D01*
X2957708Y72472576D01*
X2919613Y72396385D01*
X2881518Y72358290D01*
X2805327Y72320195D01*
X2729137Y72320195D01*
X2652946Y72358290D01*
X2614851Y72396385D01*
X2576756Y72472576D01*
X2538660Y72624957D01*
X2538660Y72815433D01*
X2576756Y72967814D01*
X2614851Y73044004D01*
X2652946Y73082100D01*
X2729137Y73120195D01*
X18172494Y72790085D02*
X18134399Y72751990D01*
X18020113Y72713895D01*
X17943922Y72713895D01*
X17829637Y72751990D01*
X17753446Y72828180D01*
X17715351Y72904371D01*
X17677256Y73056752D01*
X17677256Y73171038D01*
X17715351Y73323419D01*
X17753446Y73399609D01*
X17829637Y73475800D01*
X17943922Y73513895D01*
X18020113Y73513895D01*
X18134399Y73475800D01*
X18172494Y73437704D01*
X18934399Y72713895D02*
X18477256Y72713895D01*
X18705827Y72713895D02*
X18705827Y73513895D01*
X18629637Y73399609D01*
X18553446Y73323419D01*
X18477256Y73285323D01*
X19315351Y72713895D02*
X19467732Y72713895D01*
X19543922Y72751990D01*
X19582018Y72790085D01*
X19658208Y72904371D01*
X19696303Y73056752D01*
X19696303Y73361514D01*
X19658208Y73437704D01*
X19620113Y73475800D01*
X19543922Y73513895D01*
X19391541Y73513895D01*
X19315351Y73475800D01*
X19277256Y73437704D01*
X19239160Y73361514D01*
X19239160Y73171038D01*
X19277256Y73094847D01*
X19315351Y73056752D01*
X19391541Y73018657D01*
X19543922Y73018657D01*
X19620113Y73056752D01*
X19658208Y73094847D01*
X19696303Y73171038D01*
X14063994Y24577419D02*
X14102089Y24539323D01*
X14140184Y24425038D01*
X14140184Y24348847D01*
X14102089Y24234561D01*
X14025899Y24158371D01*
X13949708Y24120276D01*
X13797327Y24082180D01*
X13683041Y24082180D01*
X13530660Y24120276D01*
X13454470Y24158371D01*
X13378280Y24234561D01*
X13340184Y24348847D01*
X13340184Y24425038D01*
X13378280Y24539323D01*
X13416375Y24577419D01*
X14140184Y25339323D02*
X14140184Y24882180D01*
X14140184Y25110752D02*
X13340184Y25110752D01*
X13454470Y25034561D01*
X13530660Y24958371D01*
X13568756Y24882180D01*
X13683041Y25796466D02*
X13644946Y25720276D01*
X13606851Y25682180D01*
X13530660Y25644085D01*
X13492565Y25644085D01*
X13416375Y25682180D01*
X13378280Y25720276D01*
X13340184Y25796466D01*
X13340184Y25948847D01*
X13378280Y26025038D01*
X13416375Y26063133D01*
X13492565Y26101228D01*
X13530660Y26101228D01*
X13606851Y26063133D01*
X13644946Y26025038D01*
X13683041Y25948847D01*
X13683041Y25796466D01*
X13721137Y25720276D01*
X13759232Y25682180D01*
X13835422Y25644085D01*
X13987803Y25644085D01*
X14063994Y25682180D01*
X14102089Y25720276D01*
X14140184Y25796466D01*
X14140184Y25948847D01*
X14102089Y26025038D01*
X14063994Y26063133D01*
X13987803Y26101228D01*
X13835422Y26101228D01*
X13759232Y26063133D01*
X13721137Y26025038D01*
X13683041Y25948847D01*
X13092494Y64941485D02*
X13054399Y64903390D01*
X12940113Y64865295D01*
X12863922Y64865295D01*
X12749637Y64903390D01*
X12673446Y64979580D01*
X12635351Y65055771D01*
X12597256Y65208152D01*
X12597256Y65322438D01*
X12635351Y65474819D01*
X12673446Y65551009D01*
X12749637Y65627200D01*
X12863922Y65665295D01*
X12940113Y65665295D01*
X13054399Y65627200D01*
X13092494Y65589104D01*
X13854399Y64865295D02*
X13397256Y64865295D01*
X13625827Y64865295D02*
X13625827Y65665295D01*
X13549637Y65551009D01*
X13473446Y65474819D01*
X13397256Y65436723D01*
X14121065Y65665295D02*
X14654399Y65665295D01*
X14311541Y64865295D01*
X8406194Y53676585D02*
X8368099Y53638490D01*
X8253813Y53600395D01*
X8177622Y53600395D01*
X8063337Y53638490D01*
X7987146Y53714680D01*
X7949051Y53790871D01*
X7910956Y53943252D01*
X7910956Y54057538D01*
X7949051Y54209919D01*
X7987146Y54286109D01*
X8063337Y54362300D01*
X8177622Y54400395D01*
X8253813Y54400395D01*
X8368099Y54362300D01*
X8406194Y54324204D01*
X9168099Y53600395D02*
X8710956Y53600395D01*
X8939527Y53600395D02*
X8939527Y54400395D01*
X8863337Y54286109D01*
X8787146Y54209919D01*
X8710956Y54171823D01*
X9853813Y54400395D02*
X9701432Y54400395D01*
X9625241Y54362300D01*
X9587146Y54324204D01*
X9510956Y54209919D01*
X9472860Y54057538D01*
X9472860Y53752776D01*
X9510956Y53676585D01*
X9549051Y53638490D01*
X9625241Y53600395D01*
X9777622Y53600395D01*
X9853813Y53638490D01*
X9891908Y53676585D01*
X9930003Y53752776D01*
X9930003Y53943252D01*
X9891908Y54019442D01*
X9853813Y54057538D01*
X9777622Y54095633D01*
X9625241Y54095633D01*
X9549051Y54057538D01*
X9510956Y54019442D01*
X9472860Y53943252D01*
X1611694Y96742285D02*
X1573599Y96704190D01*
X1459313Y96666095D01*
X1383122Y96666095D01*
X1268837Y96704190D01*
X1192646Y96780380D01*
X1154551Y96856571D01*
X1116456Y97008952D01*
X1116456Y97123238D01*
X1154551Y97275619D01*
X1192646Y97351809D01*
X1268837Y97428000D01*
X1383122Y97466095D01*
X1459313Y97466095D01*
X1573599Y97428000D01*
X1611694Y97389904D01*
X2373599Y96666095D02*
X1916456Y96666095D01*
X2145027Y96666095D02*
X2145027Y97466095D01*
X2068837Y97351809D01*
X1992646Y97275619D01*
X1916456Y97237523D01*
X3097408Y97466095D02*
X2716456Y97466095D01*
X2678360Y97085142D01*
X2716456Y97123238D01*
X2792646Y97161333D01*
X2983122Y97161333D01*
X3059313Y97123238D01*
X3097408Y97085142D01*
X3135503Y97008952D01*
X3135503Y96818476D01*
X3097408Y96742285D01*
X3059313Y96704190D01*
X2983122Y96666095D01*
X2792646Y96666095D01*
X2716456Y96704190D01*
X2678360Y96742285D01*
X17689894Y96742285D02*
X17651799Y96704190D01*
X17537513Y96666095D01*
X17461322Y96666095D01*
X17347037Y96704190D01*
X17270846Y96780380D01*
X17232751Y96856571D01*
X17194656Y97008952D01*
X17194656Y97123238D01*
X17232751Y97275619D01*
X17270846Y97351809D01*
X17347037Y97428000D01*
X17461322Y97466095D01*
X17537513Y97466095D01*
X17651799Y97428000D01*
X17689894Y97389904D01*
X18451799Y96666095D02*
X17994656Y96666095D01*
X18223227Y96666095D02*
X18223227Y97466095D01*
X18147037Y97351809D01*
X18070846Y97275619D01*
X17994656Y97237523D01*
X19137513Y97199428D02*
X19137513Y96666095D01*
X18947037Y97504190D02*
X18756560Y96932761D01*
X19251799Y96932761D01*
X11962194Y59709085D02*
X11924099Y59670990D01*
X11809813Y59632895D01*
X11733622Y59632895D01*
X11619337Y59670990D01*
X11543146Y59747180D01*
X11505051Y59823371D01*
X11466956Y59975752D01*
X11466956Y60090038D01*
X11505051Y60242419D01*
X11543146Y60318609D01*
X11619337Y60394800D01*
X11733622Y60432895D01*
X11809813Y60432895D01*
X11924099Y60394800D01*
X11962194Y60356704D01*
X12724099Y59632895D02*
X12266956Y59632895D01*
X12495527Y59632895D02*
X12495527Y60432895D01*
X12419337Y60318609D01*
X12343146Y60242419D01*
X12266956Y60204323D01*
X12990765Y60432895D02*
X13486003Y60432895D01*
X13219337Y60128133D01*
X13333622Y60128133D01*
X13409813Y60090038D01*
X13447908Y60051942D01*
X13486003Y59975752D01*
X13486003Y59785276D01*
X13447908Y59709085D01*
X13409813Y59670990D01*
X13333622Y59632895D01*
X13105051Y59632895D01*
X13028860Y59670990D01*
X12990765Y59709085D01*
X764289Y24866585D02*
X726194Y24828490D01*
X611908Y24790395D01*
X535718Y24790395D01*
X421432Y24828490D01*
X345241Y24904680D01*
X307146Y24980871D01*
X269051Y25133252D01*
X269051Y25247538D01*
X307146Y25399919D01*
X345241Y25476109D01*
X421432Y25552300D01*
X535718Y25590395D01*
X611908Y25590395D01*
X726194Y25552300D01*
X764289Y25514204D01*
X1526194Y24790395D02*
X1069051Y24790395D01*
X1297622Y24790395D02*
X1297622Y25590395D01*
X1221432Y25476109D01*
X1145241Y25399919D01*
X1069051Y25361823D01*
X1830956Y25514204D02*
X1869051Y25552300D01*
X1945241Y25590395D01*
X2135718Y25590395D01*
X2211908Y25552300D01*
X2250003Y25514204D01*
X2288099Y25438014D01*
X2288099Y25361823D01*
X2250003Y25247538D01*
X1792860Y24790395D01*
X2288099Y24790395D01*
X16470694Y26295385D02*
X16432599Y26257290D01*
X16318313Y26219195D01*
X16242122Y26219195D01*
X16127837Y26257290D01*
X16051646Y26333480D01*
X16013551Y26409671D01*
X15975456Y26562052D01*
X15975456Y26676338D01*
X16013551Y26828719D01*
X16051646Y26904909D01*
X16127837Y26981100D01*
X16242122Y27019195D01*
X16318313Y27019195D01*
X16432599Y26981100D01*
X16470694Y26943004D01*
X17232599Y26219195D02*
X16775456Y26219195D01*
X17004027Y26219195D02*
X17004027Y27019195D01*
X16927837Y26904909D01*
X16851646Y26828719D01*
X16775456Y26790623D01*
X17994503Y26219195D02*
X17537360Y26219195D01*
X17765932Y26219195D02*
X17765932Y27019195D01*
X17689741Y26904909D01*
X17613551Y26828719D01*
X17537360Y26790623D01*
X29424694Y73780685D02*
X29386599Y73742590D01*
X29272313Y73704495D01*
X29196122Y73704495D01*
X29081837Y73742590D01*
X29005646Y73818780D01*
X28967551Y73894971D01*
X28929456Y74047352D01*
X28929456Y74161638D01*
X28967551Y74314019D01*
X29005646Y74390209D01*
X29081837Y74466400D01*
X29196122Y74504495D01*
X29272313Y74504495D01*
X29386599Y74466400D01*
X29424694Y74428304D01*
X30186599Y73704495D02*
X29729456Y73704495D01*
X29958027Y73704495D02*
X29958027Y74504495D01*
X29881837Y74390209D01*
X29805646Y74314019D01*
X29729456Y74275923D01*
X30681837Y74504495D02*
X30758027Y74504495D01*
X30834218Y74466400D01*
X30872313Y74428304D01*
X30910408Y74352114D01*
X30948503Y74199733D01*
X30948503Y74009257D01*
X30910408Y73856876D01*
X30872313Y73780685D01*
X30834218Y73742590D01*
X30758027Y73704495D01*
X30681837Y73704495D01*
X30605646Y73742590D01*
X30567551Y73780685D01*
X30529456Y73856876D01*
X30491360Y74009257D01*
X30491360Y74199733D01*
X30529456Y74352114D01*
X30567551Y74428304D01*
X30605646Y74466400D01*
X30681837Y74504495D01*
X45718746Y74174385D02*
X45680651Y74136290D01*
X45566365Y74098195D01*
X45490175Y74098195D01*
X45375889Y74136290D01*
X45299699Y74212480D01*
X45261603Y74288671D01*
X45223508Y74441052D01*
X45223508Y74555338D01*
X45261603Y74707719D01*
X45299699Y74783909D01*
X45375889Y74860100D01*
X45490175Y74898195D01*
X45566365Y74898195D01*
X45680651Y74860100D01*
X45718746Y74822004D01*
X46099699Y74098195D02*
X46252080Y74098195D01*
X46328270Y74136290D01*
X46366365Y74174385D01*
X46442556Y74288671D01*
X46480651Y74441052D01*
X46480651Y74745814D01*
X46442556Y74822004D01*
X46404460Y74860100D01*
X46328270Y74898195D01*
X46175889Y74898195D01*
X46099699Y74860100D01*
X46061603Y74822004D01*
X46023508Y74745814D01*
X46023508Y74555338D01*
X46061603Y74479147D01*
X46099699Y74441052D01*
X46175889Y74402957D01*
X46328270Y74402957D01*
X46404460Y74441052D01*
X46442556Y74479147D01*
X46480651Y74555338D01*
X45325046Y58654985D02*
X45286951Y58616890D01*
X45172665Y58578795D01*
X45096475Y58578795D01*
X44982189Y58616890D01*
X44905999Y58693080D01*
X44867903Y58769271D01*
X44829808Y58921652D01*
X44829808Y59035938D01*
X44867903Y59188319D01*
X44905999Y59264509D01*
X44982189Y59340700D01*
X45096475Y59378795D01*
X45172665Y59378795D01*
X45286951Y59340700D01*
X45325046Y59302604D01*
X45782189Y59035938D02*
X45705999Y59074033D01*
X45667903Y59112128D01*
X45629808Y59188319D01*
X45629808Y59226414D01*
X45667903Y59302604D01*
X45705999Y59340700D01*
X45782189Y59378795D01*
X45934570Y59378795D01*
X46010760Y59340700D01*
X46048856Y59302604D01*
X46086951Y59226414D01*
X46086951Y59188319D01*
X46048856Y59112128D01*
X46010760Y59074033D01*
X45934570Y59035938D01*
X45782189Y59035938D01*
X45705999Y58997842D01*
X45667903Y58959747D01*
X45629808Y58883557D01*
X45629808Y58731176D01*
X45667903Y58654985D01*
X45705999Y58616890D01*
X45782189Y58578795D01*
X45934570Y58578795D01*
X46010760Y58616890D01*
X46048856Y58654985D01*
X46086951Y58731176D01*
X46086951Y58883557D01*
X46048856Y58959747D01*
X46010760Y58997842D01*
X45934570Y59035938D01*
X35816554Y21236594D02*
X35854649Y21198499D01*
X35892744Y21084213D01*
X35892744Y21008022D01*
X35854649Y20893737D01*
X35778459Y20817546D01*
X35702268Y20779451D01*
X35549887Y20741356D01*
X35435601Y20741356D01*
X35283220Y20779451D01*
X35207030Y20817546D01*
X35130840Y20893737D01*
X35092744Y21008022D01*
X35092744Y21084213D01*
X35130840Y21198499D01*
X35168935Y21236594D01*
X35092744Y21503260D02*
X35092744Y22036594D01*
X35892744Y21693737D01*
X37285946Y52508185D02*
X37247851Y52470090D01*
X37133565Y52431995D01*
X37057375Y52431995D01*
X36943089Y52470090D01*
X36866899Y52546280D01*
X36828803Y52622471D01*
X36790708Y52774852D01*
X36790708Y52889138D01*
X36828803Y53041519D01*
X36866899Y53117709D01*
X36943089Y53193900D01*
X37057375Y53231995D01*
X37133565Y53231995D01*
X37247851Y53193900D01*
X37285946Y53155804D01*
X37971660Y53231995D02*
X37819280Y53231995D01*
X37743089Y53193900D01*
X37704994Y53155804D01*
X37628803Y53041519D01*
X37590708Y52889138D01*
X37590708Y52584376D01*
X37628803Y52508185D01*
X37666899Y52470090D01*
X37743089Y52431995D01*
X37895470Y52431995D01*
X37971660Y52470090D01*
X38009756Y52508185D01*
X38047851Y52584376D01*
X38047851Y52774852D01*
X38009756Y52851042D01*
X37971660Y52889138D01*
X37895470Y52927233D01*
X37743089Y52927233D01*
X37666899Y52889138D01*
X37628803Y52851042D01*
X37590708Y52774852D01*
X29767546Y97555085D02*
X29729451Y97516990D01*
X29615165Y97478895D01*
X29538975Y97478895D01*
X29424689Y97516990D01*
X29348499Y97593180D01*
X29310403Y97669371D01*
X29272308Y97821752D01*
X29272308Y97936038D01*
X29310403Y98088419D01*
X29348499Y98164609D01*
X29424689Y98240800D01*
X29538975Y98278895D01*
X29615165Y98278895D01*
X29729451Y98240800D01*
X29767546Y98202704D01*
X30491356Y98278895D02*
X30110403Y98278895D01*
X30072308Y97897942D01*
X30110403Y97936038D01*
X30186594Y97974133D01*
X30377070Y97974133D01*
X30453260Y97936038D01*
X30491356Y97897942D01*
X30529451Y97821752D01*
X30529451Y97631276D01*
X30491356Y97555085D01*
X30453260Y97516990D01*
X30377070Y97478895D01*
X30186594Y97478895D01*
X30110403Y97516990D01*
X30072308Y97555085D01*
X45845746Y97339185D02*
X45807651Y97301090D01*
X45693365Y97262995D01*
X45617175Y97262995D01*
X45502889Y97301090D01*
X45426699Y97377280D01*
X45388603Y97453471D01*
X45350508Y97605852D01*
X45350508Y97720138D01*
X45388603Y97872519D01*
X45426699Y97948709D01*
X45502889Y98024900D01*
X45617175Y98062995D01*
X45693365Y98062995D01*
X45807651Y98024900D01*
X45845746Y97986804D01*
X46531460Y97796328D02*
X46531460Y97262995D01*
X46340984Y98101090D02*
X46150508Y97529661D01*
X46645746Y97529661D01*
X39711646Y59950385D02*
X39673551Y59912290D01*
X39559265Y59874195D01*
X39483075Y59874195D01*
X39368789Y59912290D01*
X39292599Y59988480D01*
X39254503Y60064671D01*
X39216408Y60217052D01*
X39216408Y60331338D01*
X39254503Y60483719D01*
X39292599Y60559909D01*
X39368789Y60636100D01*
X39483075Y60674195D01*
X39559265Y60674195D01*
X39673551Y60636100D01*
X39711646Y60598004D01*
X39978313Y60674195D02*
X40473551Y60674195D01*
X40206884Y60369433D01*
X40321170Y60369433D01*
X40397360Y60331338D01*
X40435456Y60293242D01*
X40473551Y60217052D01*
X40473551Y60026576D01*
X40435456Y59950385D01*
X40397360Y59912290D01*
X40321170Y59874195D01*
X40092599Y59874195D01*
X40016408Y59912290D01*
X39978313Y59950385D01*
X47627554Y21275419D02*
X47665649Y21237323D01*
X47703744Y21123038D01*
X47703744Y21046847D01*
X47665649Y20932561D01*
X47589459Y20856371D01*
X47513268Y20818276D01*
X47360887Y20780180D01*
X47246601Y20780180D01*
X47094220Y20818276D01*
X47018030Y20856371D01*
X46941840Y20932561D01*
X46903744Y21046847D01*
X46903744Y21123038D01*
X46941840Y21237323D01*
X46979935Y21275419D01*
X46979935Y21580180D02*
X46941840Y21618276D01*
X46903744Y21694466D01*
X46903744Y21884942D01*
X46941840Y21961133D01*
X46979935Y21999228D01*
X47056125Y22037323D01*
X47132316Y22037323D01*
X47246601Y21999228D01*
X47703744Y21542085D01*
X47703744Y22037323D01*
X33044146Y28276585D02*
X33006051Y28238490D01*
X32891765Y28200395D01*
X32815575Y28200395D01*
X32701289Y28238490D01*
X32625099Y28314680D01*
X32587003Y28390871D01*
X32548908Y28543252D01*
X32548908Y28657538D01*
X32587003Y28809919D01*
X32625099Y28886109D01*
X32701289Y28962300D01*
X32815575Y29000395D01*
X32891765Y29000395D01*
X33006051Y28962300D01*
X33044146Y28924204D01*
X33806051Y28200395D02*
X33348908Y28200395D01*
X33577480Y28200395D02*
X33577480Y29000395D01*
X33501289Y28886109D01*
X33425099Y28809919D01*
X33348908Y28771823D01*
X4939689Y89211142D02*
X5053975Y89173047D01*
X5092070Y89134952D01*
X5130165Y89058761D01*
X5130165Y88944476D01*
X5092070Y88868285D01*
X5053975Y88830190D01*
X4977784Y88792095D01*
X4673022Y88792095D01*
X4673022Y89592095D01*
X4939689Y89592095D01*
X5015880Y89554000D01*
X5053975Y89515904D01*
X5092070Y89439714D01*
X5092070Y89363523D01*
X5053975Y89287333D01*
X5015880Y89249238D01*
X4939689Y89211142D01*
X4673022Y89211142D01*
X5396832Y89325428D02*
X5587308Y88792095D01*
X5777784Y89325428D02*
X5587308Y88792095D01*
X5511118Y88601619D01*
X5473022Y88563523D01*
X5396832Y88525428D01*
X6082546Y89325428D02*
X6082546Y88525428D01*
X6082546Y89287333D02*
X6158737Y89325428D01*
X6311118Y89325428D01*
X6387308Y89287333D01*
X6425403Y89249238D01*
X6463499Y89173047D01*
X6463499Y88944476D01*
X6425403Y88868285D01*
X6387308Y88830190D01*
X6311118Y88792095D01*
X6158737Y88792095D01*
X6082546Y88830190D01*
X7149213Y88792095D02*
X7149213Y89211142D01*
X7111118Y89287333D01*
X7034927Y89325428D01*
X6882546Y89325428D01*
X6806356Y89287333D01*
X7149213Y88830190D02*
X7073022Y88792095D01*
X6882546Y88792095D01*
X6806356Y88830190D01*
X6768260Y88906380D01*
X6768260Y88982571D01*
X6806356Y89058761D01*
X6882546Y89096857D01*
X7073022Y89096857D01*
X7149213Y89134952D01*
X7492070Y88830190D02*
X7568260Y88792095D01*
X7720641Y88792095D01*
X7796832Y88830190D01*
X7834927Y88906380D01*
X7834927Y88944476D01*
X7796832Y89020666D01*
X7720641Y89058761D01*
X7606356Y89058761D01*
X7530165Y89096857D01*
X7492070Y89173047D01*
X7492070Y89211142D01*
X7530165Y89287333D01*
X7606356Y89325428D01*
X7720641Y89325428D01*
X7796832Y89287333D01*
X8139689Y88830190D02*
X8215880Y88792095D01*
X8368260Y88792095D01*
X8444451Y88830190D01*
X8482546Y88906380D01*
X8482546Y88944476D01*
X8444451Y89020666D01*
X8368260Y89058761D01*
X8253975Y89058761D01*
X8177784Y89096857D01*
X8139689Y89173047D01*
X8139689Y89211142D01*
X8177784Y89287333D01*
X8253975Y89325428D01*
X8368260Y89325428D01*
X8444451Y89287333D01*
X8634927Y88715904D02*
X9244451Y88715904D01*
X9396832Y89515904D02*
X9434927Y89554000D01*
X9511118Y89592095D01*
X9701594Y89592095D01*
X9777784Y89554000D01*
X9815880Y89515904D01*
X9853975Y89439714D01*
X9853975Y89363523D01*
X9815880Y89249238D01*
X9358737Y88792095D01*
X9853975Y88792095D01*
X10196832Y89325428D02*
X10196832Y88792095D01*
X10196832Y89249238D02*
X10234927Y89287333D01*
X10311118Y89325428D01*
X10425403Y89325428D01*
X10501594Y89287333D01*
X10539689Y89211142D01*
X10539689Y88792095D01*
X11263499Y88792095D02*
X11263499Y89592095D01*
X11263499Y88830190D02*
X11187308Y88792095D01*
X11034927Y88792095D01*
X10958737Y88830190D01*
X10920641Y88868285D01*
X10882546Y88944476D01*
X10882546Y89173047D01*
X10920641Y89249238D01*
X10958737Y89287333D01*
X11034927Y89325428D01*
X11187308Y89325428D01*
X11263499Y89287333D01*
X11453975Y88715904D02*
X12063499Y88715904D01*
X12520641Y89211142D02*
X12253975Y89211142D01*
X12253975Y88792095D02*
X12253975Y89592095D01*
X12634927Y89592095D01*
X12939689Y88792095D02*
X12939689Y89325428D01*
X12939689Y89592095D02*
X12901594Y89554000D01*
X12939689Y89515904D01*
X12977784Y89554000D01*
X12939689Y89592095D01*
X12939689Y89515904D01*
X13434927Y88792095D02*
X13358737Y88830190D01*
X13320641Y88906380D01*
X13320641Y89592095D01*
X13625403Y89325428D02*
X13930165Y89325428D01*
X13739689Y89592095D02*
X13739689Y88906380D01*
X13777784Y88830190D01*
X13853975Y88792095D01*
X13930165Y88792095D01*
X14501594Y88830190D02*
X14425403Y88792095D01*
X14273022Y88792095D01*
X14196832Y88830190D01*
X14158737Y88906380D01*
X14158737Y89211142D01*
X14196832Y89287333D01*
X14273022Y89325428D01*
X14425403Y89325428D01*
X14501594Y89287333D01*
X14539689Y89211142D01*
X14539689Y89134952D01*
X14158737Y89058761D01*
X14882546Y88792095D02*
X14882546Y89325428D01*
X14882546Y89173047D02*
X14920641Y89249238D01*
X14958737Y89287333D01*
X15034927Y89325428D01*
X15111118Y89325428D01*
X15339689Y89515904D02*
X15377784Y89554000D01*
X15453975Y89592095D01*
X15644451Y89592095D01*
X15720641Y89554000D01*
X15758737Y89515904D01*
X15796832Y89439714D01*
X15796832Y89363523D01*
X15758737Y89249238D01*
X15301594Y88792095D01*
X15796832Y88792095D01*
X32651089Y89693742D02*
X32765375Y89655647D01*
X32803470Y89617552D01*
X32841565Y89541361D01*
X32841565Y89427076D01*
X32803470Y89350885D01*
X32765375Y89312790D01*
X32689184Y89274695D01*
X32384422Y89274695D01*
X32384422Y90074695D01*
X32651089Y90074695D01*
X32727280Y90036600D01*
X32765375Y89998504D01*
X32803470Y89922314D01*
X32803470Y89846123D01*
X32765375Y89769933D01*
X32727280Y89731838D01*
X32651089Y89693742D01*
X32384422Y89693742D01*
X33108232Y89808028D02*
X33298708Y89274695D01*
X33489184Y89808028D02*
X33298708Y89274695D01*
X33222518Y89084219D01*
X33184422Y89046123D01*
X33108232Y89008028D01*
X33793946Y89808028D02*
X33793946Y89008028D01*
X33793946Y89769933D02*
X33870137Y89808028D01*
X34022518Y89808028D01*
X34098708Y89769933D01*
X34136803Y89731838D01*
X34174899Y89655647D01*
X34174899Y89427076D01*
X34136803Y89350885D01*
X34098708Y89312790D01*
X34022518Y89274695D01*
X33870137Y89274695D01*
X33793946Y89312790D01*
X34860613Y89274695D02*
X34860613Y89693742D01*
X34822518Y89769933D01*
X34746327Y89808028D01*
X34593946Y89808028D01*
X34517756Y89769933D01*
X34860613Y89312790D02*
X34784422Y89274695D01*
X34593946Y89274695D01*
X34517756Y89312790D01*
X34479660Y89388980D01*
X34479660Y89465171D01*
X34517756Y89541361D01*
X34593946Y89579457D01*
X34784422Y89579457D01*
X34860613Y89617552D01*
X35203470Y89312790D02*
X35279660Y89274695D01*
X35432041Y89274695D01*
X35508232Y89312790D01*
X35546327Y89388980D01*
X35546327Y89427076D01*
X35508232Y89503266D01*
X35432041Y89541361D01*
X35317756Y89541361D01*
X35241565Y89579457D01*
X35203470Y89655647D01*
X35203470Y89693742D01*
X35241565Y89769933D01*
X35317756Y89808028D01*
X35432041Y89808028D01*
X35508232Y89769933D01*
X35851089Y89312790D02*
X35927280Y89274695D01*
X36079660Y89274695D01*
X36155851Y89312790D01*
X36193946Y89388980D01*
X36193946Y89427076D01*
X36155851Y89503266D01*
X36079660Y89541361D01*
X35965375Y89541361D01*
X35889184Y89579457D01*
X35851089Y89655647D01*
X35851089Y89693742D01*
X35889184Y89769933D01*
X35965375Y89808028D01*
X36079660Y89808028D01*
X36155851Y89769933D01*
X36346327Y89198504D02*
X36955851Y89198504D01*
X37108232Y89998504D02*
X37146327Y90036600D01*
X37222518Y90074695D01*
X37412994Y90074695D01*
X37489184Y90036600D01*
X37527280Y89998504D01*
X37565375Y89922314D01*
X37565375Y89846123D01*
X37527280Y89731838D01*
X37070137Y89274695D01*
X37565375Y89274695D01*
X37908232Y89808028D02*
X37908232Y89274695D01*
X37908232Y89731838D02*
X37946327Y89769933D01*
X38022518Y89808028D01*
X38136803Y89808028D01*
X38212994Y89769933D01*
X38251089Y89693742D01*
X38251089Y89274695D01*
X38974899Y89274695D02*
X38974899Y90074695D01*
X38974899Y89312790D02*
X38898708Y89274695D01*
X38746327Y89274695D01*
X38670137Y89312790D01*
X38632041Y89350885D01*
X38593946Y89427076D01*
X38593946Y89655647D01*
X38632041Y89731838D01*
X38670137Y89769933D01*
X38746327Y89808028D01*
X38898708Y89808028D01*
X38974899Y89769933D01*
X39165375Y89198504D02*
X39774899Y89198504D01*
X40232041Y89693742D02*
X39965375Y89693742D01*
X39965375Y89274695D02*
X39965375Y90074695D01*
X40346327Y90074695D01*
X40651089Y89274695D02*
X40651089Y89808028D01*
X40651089Y90074695D02*
X40612994Y90036600D01*
X40651089Y89998504D01*
X40689184Y90036600D01*
X40651089Y90074695D01*
X40651089Y89998504D01*
X41146327Y89274695D02*
X41070137Y89312790D01*
X41032041Y89388980D01*
X41032041Y90074695D01*
X41336803Y89808028D02*
X41641565Y89808028D01*
X41451089Y90074695D02*
X41451089Y89388980D01*
X41489184Y89312790D01*
X41565375Y89274695D01*
X41641565Y89274695D01*
X42212994Y89312790D02*
X42136803Y89274695D01*
X41984422Y89274695D01*
X41908232Y89312790D01*
X41870137Y89388980D01*
X41870137Y89693742D01*
X41908232Y89769933D01*
X41984422Y89808028D01*
X42136803Y89808028D01*
X42212994Y89769933D01*
X42251089Y89693742D01*
X42251089Y89617552D01*
X41870137Y89541361D01*
X42593946Y89274695D02*
X42593946Y89808028D01*
X42593946Y89655647D02*
X42632041Y89731838D01*
X42670137Y89769933D01*
X42746327Y89808028D01*
X42822518Y89808028D01*
X43508232Y89274695D02*
X43051089Y89274695D01*
X43279660Y89274695D02*
X43279660Y90074695D01*
X43203470Y89960409D01*
X43127280Y89884219D01*
X43051089Y89846123D01*
%LPC*%
D20*
X40623280Y67967500D03*
X40623280Y67317500D03*
X40623280Y66667500D03*
X40623280Y66017500D03*
X34723280Y66017500D03*
X34723280Y66667500D03*
X34723280Y67317500D03*
X34723280Y67967500D03*
D21*
X3406580Y104115500D03*
X5106580Y104115500D03*
X5427980Y4788800D03*
X5427980Y6488800D03*
X42550080Y5119000D03*
X42550080Y6819000D03*
X10686680Y17665700D03*
X12386680Y17665700D03*
X40225080Y28448000D03*
X38525080Y28448000D03*
D22*
X21706480Y12607500D03*
X21056480Y12607500D03*
X20406480Y12607500D03*
X19756480Y12607500D03*
X19756480Y18507500D03*
X20406480Y18507500D03*
X21056480Y18507500D03*
X21706480Y18507500D03*
X28183480Y12721800D03*
X27533480Y12721800D03*
X26883480Y12721800D03*
X26233480Y12721800D03*
X26233480Y18621800D03*
X26883480Y18621800D03*
X27533480Y18621800D03*
X28183480Y18621800D03*
D20*
X12693080Y52250100D03*
X12693080Y52900100D03*
X12693080Y53550100D03*
X12693080Y54200100D03*
X18593080Y54200100D03*
X18593080Y53550100D03*
X18593080Y52900100D03*
X18593080Y52250100D03*
X35260480Y55891400D03*
X35260480Y55241400D03*
X35260480Y54591400D03*
X35260480Y53941400D03*
X29360480Y53941400D03*
X29360480Y54591400D03*
X29360480Y55241400D03*
X29360480Y55891400D03*
X13220880Y82090500D03*
X13220880Y81440500D03*
X13220880Y80790500D03*
X13220880Y80140500D03*
X7320880Y80140500D03*
X7320880Y80790500D03*
X7320880Y81440500D03*
X7320880Y82090500D03*
X13006580Y106190500D03*
X13006580Y105540500D03*
X13006580Y104890500D03*
X13006580Y104240500D03*
X7106580Y104240500D03*
X7106580Y104890500D03*
X7106580Y105540500D03*
X7106580Y106190500D03*
X41033680Y83606900D03*
X41033680Y82956900D03*
X41033680Y82306900D03*
X41033680Y81656900D03*
X35133680Y81656900D03*
X35133680Y82306900D03*
X35133680Y82956900D03*
X35133680Y83606900D03*
X40691180Y106740660D03*
X40691180Y106090660D03*
X40691180Y105440660D03*
X40691180Y104790660D03*
X34791180Y104790660D03*
X34791180Y105440660D03*
X34791180Y106090660D03*
X34791180Y106740660D03*
D23*
X7964680Y41106900D03*
X5964680Y41106900D03*
D24*
X6964680Y43881900D03*
D23*
X42127680Y41741900D03*
X40127680Y41741900D03*
D24*
X41127680Y44516900D03*
D21*
X5460880Y82185500D03*
X3760880Y82185500D03*
X15070880Y79995500D03*
X16770880Y79995500D03*
X3600880Y74435500D03*
X5300880Y74435500D03*
X5310880Y76005500D03*
X3610880Y76005500D03*
X15190880Y74615500D03*
X16890880Y74615500D03*
X7015480Y8076300D03*
X7015480Y6376300D03*
X3590880Y77575500D03*
X5290880Y77575500D03*
X15240880Y76295500D03*
X16940880Y76295500D03*
X17000880Y77915500D03*
X15300880Y77915500D03*
X15625180Y7416800D03*
X13925180Y7416800D03*
X17022180Y66840100D03*
X15322180Y66840100D03*
X10699380Y19189700D03*
X12399380Y19189700D03*
X5126580Y106315500D03*
X3426580Y106315500D03*
X10713080Y57245100D03*
X10713080Y55545100D03*
X12413080Y56025100D03*
X14113080Y56025100D03*
X17200880Y5715000D03*
X17200880Y7415000D03*
X9554580Y36461700D03*
X7854580Y36461700D03*
X12527280Y20765400D03*
X12527280Y22465400D03*
X14956580Y104265500D03*
X16656580Y104265500D03*
X7777480Y50648500D03*
X7777480Y52348500D03*
X3686580Y98615500D03*
X5386580Y98615500D03*
X5366580Y100105500D03*
X3666580Y100105500D03*
X15006580Y98725500D03*
X16706580Y98725500D03*
X7802880Y57352300D03*
X7802880Y55652300D03*
X3676580Y101675500D03*
X5376580Y101675500D03*
X14996580Y101005500D03*
X16696580Y101005500D03*
X3484880Y27305900D03*
X3484880Y29005900D03*
X15181580Y21629000D03*
X15181580Y23329000D03*
X16646580Y102695500D03*
X14946580Y102695500D03*
X4641480Y36474400D03*
X6341480Y36474400D03*
X15067280Y83109700D03*
X15067280Y84809700D03*
X33328980Y83743800D03*
X31628980Y83743800D03*
X42893680Y82191900D03*
X44593680Y82191900D03*
X31753680Y75731900D03*
X33453680Y75731900D03*
X33473680Y77331900D03*
X31773680Y77331900D03*
X42873680Y76061900D03*
X44573680Y76061900D03*
X31763680Y78891900D03*
X33463680Y78891900D03*
X43033680Y77701900D03*
X44733680Y77701900D03*
X40975280Y8546200D03*
X40975280Y6846200D03*
X44733680Y79291900D03*
X43033680Y79291900D03*
X44010580Y62165600D03*
X44010580Y60465600D03*
X32973380Y106895900D03*
X31273380Y106895900D03*
X37480480Y58886400D03*
X37480480Y57186400D03*
X30970480Y57656400D03*
X29270480Y57656400D03*
X32200480Y7429500D03*
X33900480Y7429500D03*
X42817680Y105359200D03*
X44517680Y105359200D03*
X40225080Y26949400D03*
X38525080Y26949400D03*
X40137080Y50648500D03*
X40137080Y52348500D03*
X30662880Y5728600D03*
X30662880Y7428600D03*
X31301180Y99485660D03*
X33001180Y99485660D03*
X33001180Y101015660D03*
X31301180Y101015660D03*
X43539780Y36741100D03*
X41839780Y36741100D03*
X42761180Y99215660D03*
X44461180Y99215660D03*
X37038280Y25488000D03*
X37038280Y23788000D03*
X40213280Y57352300D03*
X40213280Y55652300D03*
X31291180Y102565660D03*
X32991180Y102565660D03*
X42761180Y100765660D03*
X44461180Y100765660D03*
X33190180Y22403700D03*
X33190180Y24103700D03*
X44471180Y102345660D03*
X42771180Y102345660D03*
X46131480Y16663300D03*
X46131480Y18363300D03*
X38575880Y36741100D03*
X40275880Y36741100D03*
X44480480Y85446500D03*
X44480480Y87146500D03*
D25*
X17758180Y44592700D03*
X20298180Y44592700D03*
X17758180Y42052700D03*
X20298180Y42052700D03*
X17758180Y39512700D03*
X20298180Y39512700D03*
X17758180Y36972700D03*
X20298180Y36972700D03*
X17758180Y34432700D03*
X20298180Y34432700D03*
D26*
X12920880Y78310500D03*
X12920880Y77040500D03*
X12920880Y75770500D03*
X12920880Y74500500D03*
X12920880Y73230500D03*
X12920880Y71960500D03*
X12920880Y70690500D03*
X12920880Y69420500D03*
X7520880Y69420500D03*
X7520880Y70690500D03*
X7520880Y71960500D03*
X7520880Y73230500D03*
X7520880Y74500500D03*
X7520880Y75770500D03*
X7520880Y77040500D03*
X7520880Y78310500D03*
X12806580Y102460500D03*
X12806580Y101190500D03*
X12806580Y99920500D03*
X12806580Y98650500D03*
X12806580Y97380500D03*
X12806580Y96110500D03*
X12806580Y94840500D03*
X12806580Y93570500D03*
X7406580Y93570500D03*
X7406580Y94840500D03*
X7406580Y96110500D03*
X7406580Y97380500D03*
X7406580Y98650500D03*
X7406580Y99920500D03*
X7406580Y101190500D03*
X7406580Y102460500D03*
X40793680Y79866900D03*
X40793680Y78596900D03*
X40793680Y77326900D03*
X40793680Y76056900D03*
X40793680Y74786900D03*
X40793680Y73516900D03*
X40793680Y72246900D03*
X40793680Y70976900D03*
X35393680Y70976900D03*
X35393680Y72246900D03*
X35393680Y73516900D03*
X35393680Y74786900D03*
X35393680Y76056900D03*
X35393680Y77326900D03*
X35393680Y78596900D03*
X35393680Y79866900D03*
X40451180Y103020660D03*
X40451180Y101750660D03*
X40451180Y100480660D03*
X40451180Y99210660D03*
X40451180Y97940660D03*
X40451180Y96670660D03*
X40451180Y95400660D03*
X40451180Y94130660D03*
X35051180Y94130660D03*
X35051180Y95400660D03*
X35051180Y96670660D03*
X35051180Y97940660D03*
X35051180Y99210660D03*
X35051180Y100480660D03*
X35051180Y101750660D03*
X35051180Y103020660D03*
D27*
X23718180Y35632700D03*
X23718180Y32332700D03*
X23658180Y46620700D03*
X23658180Y43320700D03*
D28*
X3307080Y20667800D03*
X3307080Y22867800D03*
X46271180Y25661800D03*
X46271180Y23461800D03*
D26*
X10705080Y28670800D03*
X10705080Y27400800D03*
X10705080Y26130800D03*
X10705080Y24860800D03*
X10705080Y23590800D03*
X10705080Y22320800D03*
X10705080Y21050800D03*
X5305080Y21050800D03*
X5305080Y22320800D03*
X5305080Y23590800D03*
X5305080Y24860800D03*
X5305080Y26130800D03*
X5305080Y27400800D03*
X5305080Y28670800D03*
X38862980Y17619900D03*
X38862980Y18889900D03*
X38862980Y20159900D03*
X38862980Y21429900D03*
X38862980Y22699900D03*
X38862980Y23969900D03*
X38862980Y25239900D03*
X44262980Y25239900D03*
X44262980Y23969900D03*
X44262980Y22699900D03*
X44262980Y21429900D03*
X44262980Y20159900D03*
X44262980Y18889900D03*
X44262980Y17619900D03*
D21*
X17153080Y56115100D03*
X18853080Y56115100D03*
X14163080Y50485100D03*
X12463080Y50485100D03*
X30900480Y52066400D03*
X29200480Y52066400D03*
X33790480Y57656400D03*
X35490480Y57656400D03*
X31209880Y65874900D03*
X32909880Y65874900D03*
X44150280Y68084700D03*
X42450280Y68084700D03*
X19753580Y22046300D03*
X19753580Y20346300D03*
X28186380Y9221100D03*
X28186380Y10921100D03*
X12539980Y27140800D03*
X12539980Y28840800D03*
X16696580Y106345500D03*
X14996580Y106345500D03*
X31603680Y81343500D03*
X33303680Y81343500D03*
X44593680Y83751900D03*
X42893680Y83751900D03*
X31159080Y104597200D03*
X32859080Y104597200D03*
X44201180Y106865660D03*
X42501180Y106865660D03*
X26179780Y22109800D03*
X26179780Y20409800D03*
X21696680Y9119500D03*
X21696680Y10819500D03*
X3750880Y80005500D03*
X5450880Y80005500D03*
X16790880Y81555500D03*
X15090880Y81555500D03*
D29*
X27548180Y33372700D03*
X27548180Y37772700D03*
D21*
X37025580Y19074500D03*
X37025580Y17374500D03*
D29*
X27548180Y41246700D03*
X27548180Y45646700D03*
D21*
X3625480Y71158100D03*
X5325480Y71158100D03*
X3836580Y95545500D03*
X5536580Y95545500D03*
X31743680Y72621900D03*
X33443680Y72621900D03*
X31291180Y96305660D03*
X32991180Y96305660D03*
X16984080Y71513700D03*
X15284080Y71513700D03*
X16436580Y95375500D03*
X14736580Y95375500D03*
X44573680Y72921900D03*
X42873680Y72921900D03*
X44461180Y96055660D03*
X42761180Y96055660D03*
X3640880Y72735500D03*
X5340880Y72735500D03*
X16980880Y73115500D03*
X15280880Y73115500D03*
D30*
X12679680Y25765800D03*
X12679680Y23865800D03*
D21*
X15322180Y65278000D03*
X17022180Y65278000D03*
X10673080Y52245100D03*
X10673080Y53945100D03*
X3806580Y97065500D03*
X5506580Y97065500D03*
X16436580Y96945500D03*
X14736580Y96945500D03*
X12399380Y58788300D03*
X10699380Y58788300D03*
D30*
X3357880Y24030900D03*
X3357880Y25930900D03*
D21*
X15143480Y24931000D03*
X15143480Y26631000D03*
X31753680Y74171900D03*
X33453680Y74171900D03*
X44583680Y74481900D03*
X42883680Y74481900D03*
X44035080Y58915300D03*
X42335080Y58915300D03*
D30*
X36898580Y20474900D03*
X36898580Y22374900D03*
D21*
X37480480Y55606400D03*
X37480480Y53906400D03*
X31301180Y97875660D03*
X33001180Y97875660D03*
X44471180Y97645660D03*
X42771180Y97645660D03*
X40745780Y58915300D03*
X39045780Y58915300D03*
D30*
X46245780Y22324100D03*
X46245780Y20424100D03*
D21*
X33152080Y25642200D03*
X33152080Y27342200D03*
D31*
X12796580Y91095500D03*
X10256580Y91095500D03*
X7716580Y91095500D03*
X40081180Y91715660D03*
X37541180Y91715660D03*
X35001180Y91715660D03*
D32*
X5005080Y56540000D03*
X5005080Y54000000D03*
X5005080Y51460000D03*
X43005080Y56540000D03*
X43005080Y54000000D03*
X43005080Y51460000D03*
D33*
X4464917Y32987757D03*
X7004917Y32987757D03*
X9544917Y32987757D03*
D34*
X11399117Y39998157D03*
X2610717Y39998157D03*
D35*
X7005080Y62046000D03*
X12005080Y62046000D03*
X17005080Y62046000D03*
X7005080Y87046000D03*
X12005080Y87046000D03*
X17005080Y87046000D03*
D33*
X38464917Y32987757D03*
X41004917Y32987757D03*
X43544917Y32987757D03*
D34*
X45399117Y39998157D03*
X36610717Y39998157D03*
D35*
X31005080Y62046000D03*
X36005080Y62046000D03*
X41005080Y62046000D03*
D36*
X17255080Y20097200D03*
X17255080Y17684200D03*
X17255080Y28657000D03*
X30755080Y20097200D03*
X30755080Y17684200D03*
X30755080Y28657000D03*
X17255080Y10902800D03*
X17255080Y13315800D03*
X17255080Y2343000D03*
X30755080Y10852800D03*
X30755080Y13265800D03*
X30755080Y2293000D03*
D35*
X31005080Y87046000D03*
X36005080Y87046000D03*
X41005080Y87046000D03*
D36*
X5455080Y10852800D03*
X5455080Y13265800D03*
X5455080Y2293000D03*
X42555080Y10852800D03*
X42555080Y13265800D03*
X42555080Y2293000D03*
M02*
