G04 #@! TF.GenerationSoftware,KiCad,Pcbnew,(5.1.4-0-10_14)*
G04 #@! TF.CreationDate,2019-08-29T11:55:18-07:00*
G04 #@! TF.ProjectId,pcb-dualdrum-dev1,7063622d-6475-4616-9c64-72756d2d6465,rev?*
G04 #@! TF.SameCoordinates,Original*
G04 #@! TF.FileFunction,Soldermask,Top*
G04 #@! TF.FilePolarity,Negative*
%FSLAX46Y46*%
G04 Gerber Fmt 4.6, Leading zero omitted, Abs format (unit mm)*
G04 Created by KiCad (PCBNEW (5.1.4-0-10_14)) date 2019-08-29 11:55:18*
%MOMM*%
%LPD*%
G04 APERTURE LIST*
%ADD10R,1.450000X0.450000*%
%ADD11R,1.000000X1.000000*%
%ADD12R,0.450000X1.450000*%
%ADD13R,1.200000X1.200000*%
%ADD14R,1.600000X1.500000*%
%ADD15O,1.700000X1.700000*%
%ADD16R,1.500000X0.600000*%
%ADD17R,1.200000X0.900000*%
%ADD18R,0.500000X0.500000*%
%ADD19R,1.600000X3.000000*%
%ADD20R,1.300000X0.700000*%
%ADD21O,1.727200X2.032000*%
%ADD22C,1.651000*%
%ADD23C,1.803400*%
%ADD24C,2.667000*%
%ADD25C,2.540000*%
%ADD26C,1.930400*%
G04 APERTURE END LIST*
D10*
X40623280Y67967500D03*
X40623280Y67317500D03*
X40623280Y66667500D03*
X40623280Y66017500D03*
X34723280Y66017500D03*
X34723280Y66667500D03*
X34723280Y67317500D03*
X34723280Y67967500D03*
D11*
X3406580Y104115500D03*
X5106580Y104115500D03*
X5427980Y4788800D03*
X5427980Y6488800D03*
X42550080Y5119000D03*
X42550080Y6819000D03*
X10686680Y17665700D03*
X12386680Y17665700D03*
X40225080Y28448000D03*
X38525080Y28448000D03*
D12*
X21706480Y12607500D03*
X21056480Y12607500D03*
X20406480Y12607500D03*
X19756480Y12607500D03*
X19756480Y18507500D03*
X20406480Y18507500D03*
X21056480Y18507500D03*
X21706480Y18507500D03*
X28183480Y12721800D03*
X27533480Y12721800D03*
X26883480Y12721800D03*
X26233480Y12721800D03*
X26233480Y18621800D03*
X26883480Y18621800D03*
X27533480Y18621800D03*
X28183480Y18621800D03*
D10*
X12693080Y52250100D03*
X12693080Y52900100D03*
X12693080Y53550100D03*
X12693080Y54200100D03*
X18593080Y54200100D03*
X18593080Y53550100D03*
X18593080Y52900100D03*
X18593080Y52250100D03*
X35260480Y55891400D03*
X35260480Y55241400D03*
X35260480Y54591400D03*
X35260480Y53941400D03*
X29360480Y53941400D03*
X29360480Y54591400D03*
X29360480Y55241400D03*
X29360480Y55891400D03*
X13220880Y82090500D03*
X13220880Y81440500D03*
X13220880Y80790500D03*
X13220880Y80140500D03*
X7320880Y80140500D03*
X7320880Y80790500D03*
X7320880Y81440500D03*
X7320880Y82090500D03*
X13006580Y106190500D03*
X13006580Y105540500D03*
X13006580Y104890500D03*
X13006580Y104240500D03*
X7106580Y104240500D03*
X7106580Y104890500D03*
X7106580Y105540500D03*
X7106580Y106190500D03*
X41033680Y83606900D03*
X41033680Y82956900D03*
X41033680Y82306900D03*
X41033680Y81656900D03*
X35133680Y81656900D03*
X35133680Y82306900D03*
X35133680Y82956900D03*
X35133680Y83606900D03*
X40691180Y106740660D03*
X40691180Y106090660D03*
X40691180Y105440660D03*
X40691180Y104790660D03*
X34791180Y104790660D03*
X34791180Y105440660D03*
X34791180Y106090660D03*
X34791180Y106740660D03*
D13*
X7964680Y41106900D03*
X5964680Y41106900D03*
D14*
X6964680Y43881900D03*
D13*
X42127680Y41741900D03*
X40127680Y41741900D03*
D14*
X41127680Y44516900D03*
D11*
X5460880Y82185500D03*
X3760880Y82185500D03*
X15070880Y79995500D03*
X16770880Y79995500D03*
X3600880Y74435500D03*
X5300880Y74435500D03*
X5310880Y76005500D03*
X3610880Y76005500D03*
X15190880Y74615500D03*
X16890880Y74615500D03*
X7015480Y8076300D03*
X7015480Y6376300D03*
X3590880Y77575500D03*
X5290880Y77575500D03*
X15240880Y76295500D03*
X16940880Y76295500D03*
X17000880Y77915500D03*
X15300880Y77915500D03*
X15625180Y7416800D03*
X13925180Y7416800D03*
X17022180Y66840100D03*
X15322180Y66840100D03*
X10699380Y19189700D03*
X12399380Y19189700D03*
X5126580Y106315500D03*
X3426580Y106315500D03*
X10713080Y57245100D03*
X10713080Y55545100D03*
X12413080Y56025100D03*
X14113080Y56025100D03*
X17200880Y5715000D03*
X17200880Y7415000D03*
X9554580Y36461700D03*
X7854580Y36461700D03*
X12527280Y20765400D03*
X12527280Y22465400D03*
X14956580Y104265500D03*
X16656580Y104265500D03*
X7777480Y50648500D03*
X7777480Y52348500D03*
X3686580Y98615500D03*
X5386580Y98615500D03*
X5366580Y100105500D03*
X3666580Y100105500D03*
X15006580Y98725500D03*
X16706580Y98725500D03*
X7802880Y57352300D03*
X7802880Y55652300D03*
X3676580Y101675500D03*
X5376580Y101675500D03*
X14996580Y101005500D03*
X16696580Y101005500D03*
X3484880Y27305900D03*
X3484880Y29005900D03*
X15181580Y21629000D03*
X15181580Y23329000D03*
X16646580Y102695500D03*
X14946580Y102695500D03*
X4641480Y36474400D03*
X6341480Y36474400D03*
X15067280Y83109700D03*
X15067280Y84809700D03*
X33328980Y83743800D03*
X31628980Y83743800D03*
X42893680Y82191900D03*
X44593680Y82191900D03*
X31753680Y75731900D03*
X33453680Y75731900D03*
X33473680Y77331900D03*
X31773680Y77331900D03*
X42873680Y76061900D03*
X44573680Y76061900D03*
X31763680Y78891900D03*
X33463680Y78891900D03*
X43033680Y77701900D03*
X44733680Y77701900D03*
X40975280Y8546200D03*
X40975280Y6846200D03*
X44733680Y79291900D03*
X43033680Y79291900D03*
X44010580Y62165600D03*
X44010580Y60465600D03*
X32973380Y106895900D03*
X31273380Y106895900D03*
X37480480Y58886400D03*
X37480480Y57186400D03*
X30970480Y57656400D03*
X29270480Y57656400D03*
X32200480Y7429500D03*
X33900480Y7429500D03*
X42817680Y105359200D03*
X44517680Y105359200D03*
X40225080Y26949400D03*
X38525080Y26949400D03*
X40137080Y50648500D03*
X40137080Y52348500D03*
X30662880Y5728600D03*
X30662880Y7428600D03*
X31301180Y99485660D03*
X33001180Y99485660D03*
X33001180Y101015660D03*
X31301180Y101015660D03*
X43539780Y36741100D03*
X41839780Y36741100D03*
X42761180Y99215660D03*
X44461180Y99215660D03*
X37038280Y25488000D03*
X37038280Y23788000D03*
X40213280Y57352300D03*
X40213280Y55652300D03*
X31291180Y102565660D03*
X32991180Y102565660D03*
X42761180Y100765660D03*
X44461180Y100765660D03*
X33190180Y22403700D03*
X33190180Y24103700D03*
X44471180Y102345660D03*
X42771180Y102345660D03*
X46131480Y16663300D03*
X46131480Y18363300D03*
X38575880Y36741100D03*
X40275880Y36741100D03*
X44480480Y85446500D03*
X44480480Y87146500D03*
D15*
X17758180Y44592700D03*
X20298180Y44592700D03*
X17758180Y42052700D03*
X20298180Y42052700D03*
X17758180Y39512700D03*
X20298180Y39512700D03*
X17758180Y36972700D03*
X20298180Y36972700D03*
X17758180Y34432700D03*
X20298180Y34432700D03*
D16*
X12920880Y78310500D03*
X12920880Y77040500D03*
X12920880Y75770500D03*
X12920880Y74500500D03*
X12920880Y73230500D03*
X12920880Y71960500D03*
X12920880Y70690500D03*
X12920880Y69420500D03*
X7520880Y69420500D03*
X7520880Y70690500D03*
X7520880Y71960500D03*
X7520880Y73230500D03*
X7520880Y74500500D03*
X7520880Y75770500D03*
X7520880Y77040500D03*
X7520880Y78310500D03*
X12806580Y102460500D03*
X12806580Y101190500D03*
X12806580Y99920500D03*
X12806580Y98650500D03*
X12806580Y97380500D03*
X12806580Y96110500D03*
X12806580Y94840500D03*
X12806580Y93570500D03*
X7406580Y93570500D03*
X7406580Y94840500D03*
X7406580Y96110500D03*
X7406580Y97380500D03*
X7406580Y98650500D03*
X7406580Y99920500D03*
X7406580Y101190500D03*
X7406580Y102460500D03*
X40793680Y79866900D03*
X40793680Y78596900D03*
X40793680Y77326900D03*
X40793680Y76056900D03*
X40793680Y74786900D03*
X40793680Y73516900D03*
X40793680Y72246900D03*
X40793680Y70976900D03*
X35393680Y70976900D03*
X35393680Y72246900D03*
X35393680Y73516900D03*
X35393680Y74786900D03*
X35393680Y76056900D03*
X35393680Y77326900D03*
X35393680Y78596900D03*
X35393680Y79866900D03*
X40451180Y103020660D03*
X40451180Y101750660D03*
X40451180Y100480660D03*
X40451180Y99210660D03*
X40451180Y97940660D03*
X40451180Y96670660D03*
X40451180Y95400660D03*
X40451180Y94130660D03*
X35051180Y94130660D03*
X35051180Y95400660D03*
X35051180Y96670660D03*
X35051180Y97940660D03*
X35051180Y99210660D03*
X35051180Y100480660D03*
X35051180Y101750660D03*
X35051180Y103020660D03*
D17*
X23718180Y35632700D03*
X23718180Y32332700D03*
X23658180Y46620700D03*
X23658180Y43320700D03*
D18*
X3307080Y20667800D03*
X3307080Y22867800D03*
X46271180Y25661800D03*
X46271180Y23461800D03*
D16*
X10705080Y28670800D03*
X10705080Y27400800D03*
X10705080Y26130800D03*
X10705080Y24860800D03*
X10705080Y23590800D03*
X10705080Y22320800D03*
X10705080Y21050800D03*
X5305080Y21050800D03*
X5305080Y22320800D03*
X5305080Y23590800D03*
X5305080Y24860800D03*
X5305080Y26130800D03*
X5305080Y27400800D03*
X5305080Y28670800D03*
X38862980Y17619900D03*
X38862980Y18889900D03*
X38862980Y20159900D03*
X38862980Y21429900D03*
X38862980Y22699900D03*
X38862980Y23969900D03*
X38862980Y25239900D03*
X44262980Y25239900D03*
X44262980Y23969900D03*
X44262980Y22699900D03*
X44262980Y21429900D03*
X44262980Y20159900D03*
X44262980Y18889900D03*
X44262980Y17619900D03*
D11*
X17153080Y56115100D03*
X18853080Y56115100D03*
X14163080Y50485100D03*
X12463080Y50485100D03*
X30900480Y52066400D03*
X29200480Y52066400D03*
X33790480Y57656400D03*
X35490480Y57656400D03*
X31209880Y65874900D03*
X32909880Y65874900D03*
X44150280Y68084700D03*
X42450280Y68084700D03*
X19753580Y22046300D03*
X19753580Y20346300D03*
X28186380Y9221100D03*
X28186380Y10921100D03*
X12539980Y27140800D03*
X12539980Y28840800D03*
X16696580Y106345500D03*
X14996580Y106345500D03*
X31603680Y81343500D03*
X33303680Y81343500D03*
X44593680Y83751900D03*
X42893680Y83751900D03*
X31159080Y104597200D03*
X32859080Y104597200D03*
X44201180Y106865660D03*
X42501180Y106865660D03*
X26179780Y22109800D03*
X26179780Y20409800D03*
X21696680Y9119500D03*
X21696680Y10819500D03*
X3750880Y80005500D03*
X5450880Y80005500D03*
X16790880Y81555500D03*
X15090880Y81555500D03*
D19*
X27548180Y33372700D03*
X27548180Y37772700D03*
D11*
X37025580Y19074500D03*
X37025580Y17374500D03*
D19*
X27548180Y41246700D03*
X27548180Y45646700D03*
D11*
X3625480Y71158100D03*
X5325480Y71158100D03*
X3836580Y95545500D03*
X5536580Y95545500D03*
X31743680Y72621900D03*
X33443680Y72621900D03*
X31291180Y96305660D03*
X32991180Y96305660D03*
X16984080Y71513700D03*
X15284080Y71513700D03*
X16436580Y95375500D03*
X14736580Y95375500D03*
X44573680Y72921900D03*
X42873680Y72921900D03*
X44461180Y96055660D03*
X42761180Y96055660D03*
X3640880Y72735500D03*
X5340880Y72735500D03*
X16980880Y73115500D03*
X15280880Y73115500D03*
D20*
X12679680Y25765800D03*
X12679680Y23865800D03*
D11*
X15322180Y65278000D03*
X17022180Y65278000D03*
X10673080Y52245100D03*
X10673080Y53945100D03*
X3806580Y97065500D03*
X5506580Y97065500D03*
X16436580Y96945500D03*
X14736580Y96945500D03*
X12399380Y58788300D03*
X10699380Y58788300D03*
D20*
X3357880Y24030900D03*
X3357880Y25930900D03*
D11*
X15143480Y24931000D03*
X15143480Y26631000D03*
X31753680Y74171900D03*
X33453680Y74171900D03*
X44583680Y74481900D03*
X42883680Y74481900D03*
X44035080Y58915300D03*
X42335080Y58915300D03*
D20*
X36898580Y20474900D03*
X36898580Y22374900D03*
D11*
X37480480Y55606400D03*
X37480480Y53906400D03*
X31301180Y97875660D03*
X33001180Y97875660D03*
X44471180Y97645660D03*
X42771180Y97645660D03*
X40745780Y58915300D03*
X39045780Y58915300D03*
D20*
X46245780Y22324100D03*
X46245780Y20424100D03*
D11*
X33152080Y25642200D03*
X33152080Y27342200D03*
D21*
X12796580Y91095500D03*
X10256580Y91095500D03*
X7716580Y91095500D03*
X40081180Y91715660D03*
X37541180Y91715660D03*
X35001180Y91715660D03*
D22*
X5005080Y56540000D03*
X5005080Y54000000D03*
X5005080Y51460000D03*
X43005080Y56540000D03*
X43005080Y54000000D03*
X43005080Y51460000D03*
D23*
X4464917Y32987757D03*
X7004917Y32987757D03*
X9544917Y32987757D03*
D24*
X11399117Y39998157D03*
X2610717Y39998157D03*
D25*
X7005080Y62046000D03*
X12005080Y62046000D03*
X17005080Y62046000D03*
X7005080Y87046000D03*
X12005080Y87046000D03*
X17005080Y87046000D03*
D23*
X38464917Y32987757D03*
X41004917Y32987757D03*
X43544917Y32987757D03*
D24*
X45399117Y39998157D03*
X36610717Y39998157D03*
D25*
X31005080Y62046000D03*
X36005080Y62046000D03*
X41005080Y62046000D03*
D26*
X17255080Y20097200D03*
X17255080Y17684200D03*
X17255080Y28657000D03*
X30755080Y20097200D03*
X30755080Y17684200D03*
X30755080Y28657000D03*
X17255080Y10902800D03*
X17255080Y13315800D03*
X17255080Y2343000D03*
X30755080Y10852800D03*
X30755080Y13265800D03*
X30755080Y2293000D03*
D25*
X31005080Y87046000D03*
X36005080Y87046000D03*
X41005080Y87046000D03*
D26*
X5455080Y10852800D03*
X5455080Y13265800D03*
X5455080Y2293000D03*
X42555080Y10852800D03*
X42555080Y13265800D03*
X42555080Y2293000D03*
M02*
